M48
; DRILL file {KiCad (6.0.7)} date Mon Aug 29 12:50:02 2022
; FORMAT={-:-/ absolute / metric / decimal}
; #@! TF.CreationDate,2022-08-29T12:50:02+02:00
; #@! TF.GenerationSoftware,Kicad,Pcbnew,(6.0.7)
; #@! TF.FileFunction,Plated,1,2,PTH
FMAT,2
METRIC
; #@! TA.AperFunction,Plated,PTH,ViaDrill
T1C0.400
; #@! TA.AperFunction,Plated,PTH,ComponentDrill
T2C0.700
; #@! TA.AperFunction,Plated,PTH,ComponentDrill
T3C0.750
; #@! TA.AperFunction,Plated,PTH,ComponentDrill
T4C0.800
; #@! TA.AperFunction,Plated,PTH,ComponentDrill
T5C0.900
; #@! TA.AperFunction,Plated,PTH,ComponentDrill
T6C1.000
; #@! TA.AperFunction,Plated,PTH,ComponentDrill
T7C1.016
; #@! TA.AperFunction,Plated,PTH,ComponentDrill
T8C1.090
; #@! TA.AperFunction,Plated,PTH,ComponentDrill
T9C1.100
; #@! TA.AperFunction,Plated,PTH,ComponentDrill
T10C1.200
%
G90
G05
T1
X121.412Y-108.585
X121.412Y-109.474
X121.412Y-110.363
X121.412Y-115.697
X121.412Y-116.586
X121.412Y-117.475
X122.301Y-108.585
X122.301Y-109.474
X122.301Y-110.363
X122.301Y-115.697
X122.301Y-116.586
X122.301Y-117.475
X123.189Y-109.48
X123.19Y-108.585
X123.19Y-110.363
X123.19Y-115.697
X123.19Y-116.586
X123.19Y-117.475
X124.079Y-108.585
X124.079Y-109.474
X124.079Y-110.363
X124.079Y-115.697
X124.079Y-116.586
X124.079Y-117.475
X124.968Y-108.585
X124.968Y-109.474
X124.968Y-110.363
X124.968Y-111.252
X124.968Y-114.808
X124.968Y-115.697
X124.968Y-116.586
X124.968Y-117.475
X125.857Y-108.585
X125.857Y-109.474
X125.857Y-110.363
X125.857Y-111.252
X125.857Y-112.141
X125.857Y-113.03
X125.857Y-113.919
X125.857Y-114.808
X125.857Y-115.697
X125.857Y-116.586
X125.857Y-117.475
X126.746Y-108.585
X126.746Y-109.474
X126.746Y-110.363
X126.746Y-111.252
X126.746Y-112.141
X126.746Y-113.03
X126.746Y-113.919
X126.746Y-114.808
X126.746Y-115.697
X126.746Y-116.586
X126.746Y-117.475
X127.635Y-108.585
X127.635Y-109.474
X127.635Y-110.363
X127.635Y-111.252
X127.635Y-112.141
X127.635Y-113.03
X127.635Y-113.919
X127.635Y-114.808
X127.635Y-115.697
X127.635Y-116.586
X127.635Y-117.475
X128.524Y-108.585
X128.524Y-109.474
X128.524Y-110.363
X128.524Y-111.252
X128.524Y-112.141
X128.524Y-113.03
X128.524Y-113.919
X128.524Y-114.808
X128.524Y-115.697
X128.524Y-116.586
X128.524Y-117.475
X129.413Y-108.585
X129.413Y-109.474
X129.413Y-110.363
X129.413Y-111.252
X129.413Y-112.141
X129.413Y-113.03
X129.413Y-113.919
X129.413Y-114.808
X129.413Y-115.697
X129.413Y-116.586
X129.413Y-117.475
X130.302Y-108.585
X130.302Y-109.474
X130.302Y-110.363
X130.302Y-111.252
X130.302Y-112.141
X130.302Y-113.03
X130.302Y-113.919
X130.302Y-114.808
X130.302Y-115.697
X130.302Y-116.586
X130.302Y-117.475
X131.191Y-108.585
X131.191Y-109.474
X131.191Y-110.363
X131.191Y-111.252
X131.191Y-112.141
X131.191Y-113.03
X131.191Y-113.919
X131.191Y-114.808
X131.191Y-115.697
X131.191Y-116.586
X131.191Y-117.475
X132.08Y-108.585
X132.08Y-109.474
X132.08Y-110.363
X132.08Y-111.252
X132.08Y-112.141
X132.08Y-113.03
X132.08Y-113.919
X132.08Y-114.808
X132.08Y-115.697
X132.08Y-116.586
X132.08Y-117.475
X132.969Y-108.585
X132.969Y-109.474
X132.969Y-110.363
X132.969Y-111.252
X132.969Y-112.141
X132.969Y-113.03
X132.969Y-113.919
X132.969Y-114.808
X132.969Y-115.697
X132.969Y-116.586
X132.969Y-117.475
X133.858Y-108.585
X133.858Y-109.474
X133.858Y-110.363
X133.858Y-111.252
X133.858Y-112.141
X133.858Y-113.03
X133.858Y-113.919
X133.858Y-114.808
X133.858Y-115.697
X133.858Y-116.586
X133.858Y-117.475
X134.747Y-108.585
X134.747Y-109.474
X134.747Y-110.363
X134.747Y-111.252
X134.747Y-112.141
X134.747Y-113.03
X134.747Y-113.919
X134.747Y-114.808
X134.747Y-115.697
X134.747Y-116.586
X134.747Y-117.475
X135.636Y-108.585
X135.636Y-109.474
X135.636Y-110.363
X135.636Y-111.252
X135.636Y-112.141
X135.636Y-113.03
X135.636Y-113.919
X135.636Y-114.808
X135.636Y-115.697
X135.636Y-116.586
X135.636Y-117.475
X137.668Y-87.757
X140.716Y-84.201
X147.574Y-108.585
X147.574Y-109.474
X147.574Y-110.363
X147.574Y-111.252
X147.574Y-112.141
X147.574Y-113.03
X147.574Y-113.919
X147.574Y-114.808
X147.574Y-115.697
X147.574Y-116.586
X147.574Y-117.475
X148.463Y-108.585
X148.463Y-109.474
X148.463Y-110.363
X148.463Y-111.252
X148.463Y-112.141
X148.463Y-113.03
X148.463Y-113.919
X148.463Y-114.808
X148.463Y-115.697
X148.463Y-116.586
X148.463Y-117.475
X149.352Y-108.585
X149.352Y-109.474
X149.352Y-110.363
X149.352Y-111.252
X149.352Y-112.141
X149.352Y-113.03
X149.352Y-113.919
X149.352Y-114.808
X149.352Y-115.697
X149.352Y-116.586
X149.352Y-117.475
X150.241Y-108.585
X150.241Y-109.474
X150.241Y-110.363
X150.241Y-111.252
X150.241Y-112.141
X150.241Y-113.03
X150.241Y-113.919
X150.241Y-114.808
X150.241Y-115.697
X150.241Y-116.586
X150.241Y-117.475
X151.13Y-108.585
X151.13Y-109.474
X151.13Y-110.363
X151.13Y-111.252
X151.13Y-112.141
X151.13Y-113.03
X151.13Y-113.919
X151.13Y-114.808
X151.13Y-115.697
X151.13Y-116.586
X151.13Y-117.475
X152.019Y-108.585
X152.019Y-109.474
X152.019Y-110.363
X152.019Y-111.252
X152.019Y-112.141
X152.019Y-113.03
X152.019Y-113.919
X152.019Y-114.808
X152.019Y-115.697
X152.019Y-116.586
X152.019Y-117.475
X152.4Y-82.931
X152.908Y-108.585
X152.908Y-109.474
X152.908Y-110.363
X152.908Y-111.252
X152.908Y-112.141
X152.908Y-113.03
X152.908Y-113.919
X152.908Y-114.808
X152.908Y-115.697
X152.908Y-116.586
X152.908Y-117.475
X153.797Y-108.585
X153.797Y-109.474
X153.797Y-110.363
X153.797Y-111.252
X153.797Y-112.141
X153.797Y-113.03
X153.797Y-113.919
X153.797Y-114.808
X153.797Y-115.697
X153.797Y-116.586
X153.797Y-117.475
X153.924Y-82.931
X154.686Y-108.585
X154.686Y-109.474
X154.686Y-110.363
X154.686Y-111.252
X154.686Y-112.141
X154.686Y-113.03
X154.686Y-113.919
X154.686Y-114.808
X154.686Y-115.697
X154.686Y-116.586
X154.686Y-117.475
X155.448Y-92.329
X155.575Y-108.585
X155.575Y-109.474
X155.575Y-110.363
X155.575Y-111.252
X155.575Y-112.141
X155.575Y-113.03
X155.575Y-113.919
X155.575Y-114.808
X155.575Y-115.697
X155.575Y-116.586
X155.575Y-117.475
X156.464Y-108.585
X156.464Y-109.474
X156.464Y-110.363
X156.464Y-111.252
X156.464Y-112.141
X156.464Y-113.03
X156.464Y-113.919
X156.464Y-114.808
X156.464Y-115.697
X156.464Y-116.586
X156.464Y-117.475
X157.353Y-108.585
X157.353Y-109.474
X157.353Y-110.363
X157.353Y-111.252
X157.353Y-112.141
X157.353Y-113.03
X157.353Y-113.919
X157.353Y-114.808
X157.353Y-115.697
X157.353Y-116.586
X157.353Y-117.475
X158.242Y-108.585
X158.242Y-109.474
X158.242Y-110.363
X158.242Y-111.252
X158.242Y-114.808
X158.242Y-115.697
X158.242Y-116.586
X158.242Y-117.475
X159.131Y-108.585
X159.131Y-109.474
X159.131Y-110.363
X159.131Y-115.697
X159.131Y-116.586
X159.131Y-117.475
X160.02Y-108.585
X160.02Y-109.474
X160.02Y-110.363
X160.02Y-115.697
X160.02Y-117.475
X160.021Y-116.58
X160.909Y-92.329
X160.909Y-108.585
X160.909Y-109.474
X160.909Y-110.363
X160.909Y-115.697
X160.909Y-116.586
X160.909Y-117.475
X161.036Y-96.266
X161.798Y-108.585
X161.798Y-109.474
X161.798Y-110.363
X161.798Y-115.697
X161.798Y-116.586
X161.798Y-117.475
X164.554Y-91.821
X164.554Y-96.901
X175.26Y-47.117
X175.26Y-48.006
X175.26Y-48.895
X175.26Y-54.229
X175.26Y-55.118
X175.26Y-56.007
X176.149Y-47.117
X176.149Y-48.006
X176.149Y-48.895
X176.149Y-54.229
X176.149Y-55.118
X176.149Y-56.007
X177.037Y-48.012
X177.038Y-47.117
X177.038Y-48.895
X177.038Y-54.229
X177.038Y-55.118
X177.038Y-56.007
X177.927Y-47.117
X177.927Y-48.006
X177.927Y-48.895
X177.927Y-54.229
X177.927Y-55.118
X177.927Y-56.007
X178.816Y-47.117
X178.816Y-48.006
X178.816Y-48.895
X178.816Y-49.784
X178.816Y-53.34
X178.816Y-54.229
X178.816Y-55.118
X178.816Y-56.007
X179.578Y-90.043
X179.705Y-47.117
X179.705Y-48.006
X179.705Y-48.895
X179.705Y-49.784
X179.705Y-50.673
X179.705Y-51.562
X179.705Y-52.451
X179.705Y-53.34
X179.705Y-54.229
X179.705Y-55.118
X179.705Y-56.007
X180.594Y-47.117
X180.594Y-48.006
X180.594Y-48.895
X180.594Y-49.784
X180.594Y-50.673
X180.594Y-51.562
X180.594Y-52.451
X180.594Y-53.34
X180.594Y-54.229
X180.594Y-55.118
X180.594Y-56.007
X181.483Y-47.117
X181.483Y-48.006
X181.483Y-48.895
X181.483Y-49.784
X181.483Y-50.673
X181.483Y-51.562
X181.483Y-52.451
X181.483Y-53.34
X181.483Y-54.229
X181.483Y-55.118
X181.483Y-56.007
X182.372Y-47.117
X182.372Y-48.006
X182.372Y-48.895
X182.372Y-49.784
X182.372Y-50.673
X182.372Y-51.562
X182.372Y-52.451
X182.372Y-53.34
X182.372Y-54.229
X182.372Y-55.118
X182.372Y-56.007
X183.261Y-47.117
X183.261Y-48.006
X183.261Y-48.895
X183.261Y-49.784
X183.261Y-50.673
X183.261Y-51.562
X183.261Y-52.451
X183.261Y-53.34
X183.261Y-54.229
X183.261Y-55.118
X183.261Y-56.007
X184.15Y-47.117
X184.15Y-48.006
X184.15Y-48.895
X184.15Y-49.784
X184.15Y-50.673
X184.15Y-51.562
X184.15Y-52.451
X184.15Y-53.34
X184.15Y-54.229
X184.15Y-55.118
X184.15Y-56.007
X185.039Y-47.117
X185.039Y-48.006
X185.039Y-48.895
X185.039Y-49.784
X185.039Y-50.673
X185.039Y-51.562
X185.039Y-52.451
X185.039Y-53.34
X185.039Y-54.229
X185.039Y-55.118
X185.039Y-56.007
X185.928Y-47.117
X185.928Y-48.006
X185.928Y-48.895
X185.928Y-49.784
X185.928Y-50.673
X185.928Y-51.562
X185.928Y-52.451
X185.928Y-53.34
X185.928Y-54.229
X185.928Y-55.118
X185.928Y-56.007
X186.817Y-47.117
X186.817Y-48.006
X186.817Y-48.895
X186.817Y-49.784
X186.817Y-50.673
X186.817Y-51.562
X186.817Y-52.451
X186.817Y-53.34
X186.817Y-54.229
X186.817Y-55.118
X186.817Y-56.007
X187.706Y-47.117
X187.706Y-48.006
X187.706Y-48.895
X187.706Y-49.784
X187.706Y-50.673
X187.706Y-51.562
X187.706Y-52.451
X187.706Y-53.34
X187.706Y-54.229
X187.706Y-55.118
X187.706Y-56.007
X188.214Y-87.376
X188.595Y-47.117
X188.595Y-48.006
X188.595Y-48.895
X188.595Y-49.784
X188.595Y-50.673
X188.595Y-51.562
X188.595Y-52.451
X188.595Y-53.34
X188.595Y-54.229
X188.595Y-55.118
X188.595Y-56.007
X189.484Y-47.117
X189.484Y-48.006
X189.484Y-48.895
X189.484Y-49.784
X189.484Y-50.673
X189.484Y-51.562
X189.484Y-52.451
X189.484Y-53.34
X189.484Y-54.229
X189.484Y-55.118
X189.484Y-56.007
X189.992Y-87.63
X195.961Y-78.486
X197.993Y-77.851
T2
X122.505Y-58.674
X122.51Y-78.74
X125.045Y-58.674
X125.05Y-78.74
X129.49Y-58.674
X129.545Y-78.74
X130.175Y-69.685
X130.175Y-72.225
X130.175Y-89.485
X130.175Y-92.025
X132.03Y-58.674
X132.085Y-78.74
X135.305Y-63.385
X135.305Y-65.925
X136.53Y-78.74
X137.845Y-63.385
X137.845Y-65.925
X139.07Y-78.74
X142.83Y-82.55
X142.93Y-85.09
X145.37Y-82.55
X145.47Y-85.09
X156.845Y-99.11
X156.845Y-101.65
X158.115Y-103.975
X158.115Y-106.515
X159.245Y-98.248
X159.245Y-100.788
X161.925Y-98.348
X161.925Y-100.888
X162.814Y-71.12
X162.814Y-73.66
X184.15Y-76.835
X186.005Y-92.964
X186.182Y-90.805
X186.69Y-76.835
X188.545Y-92.964
X188.722Y-90.805
X190.704Y-92.964
X190.881Y-90.805
X192.455Y-76.835
X192.963Y-88.265
X193.244Y-92.964
X193.421Y-90.805
X194.995Y-76.835
X195.503Y-88.265
X195.503Y-90.424
X195.503Y-92.964
X197.739Y-90.424
X197.739Y-92.964
X199.898Y-90.551
X199.898Y-93.091
X203.454Y-62.561
X203.454Y-65.101
X203.708Y-57.862
X203.708Y-60.402
T3
X177.521Y-90.119
X177.521Y-91.389
X177.521Y-92.659
X182.176Y-90.113
X182.176Y-91.383
X182.176Y-92.653
T4
X113.411Y-51.117
X113.436Y-48.578
X113.538Y-37.655
X113.538Y-40.195
X132.334Y-37.782
X132.334Y-40.322
X132.334Y-51.117
X132.359Y-48.578
X146.725Y-79.375
X149.225Y-79.375
X153.045Y-78.615
X153.045Y-86.235
X155.585Y-78.615
X155.585Y-86.235
X158.125Y-78.615
X158.125Y-86.235
X160.665Y-78.615
X160.665Y-86.235
X161.29Y-103.43
X161.29Y-105.93
T5
X122.555Y-63.385
X122.555Y-83.185
X125.095Y-63.385
X125.095Y-83.185
X129.535Y-63.385
X129.545Y-83.185
X132.075Y-63.385
X132.085Y-83.185
X136.525Y-83.185
X139.065Y-83.185
X148.595Y-82.55
X148.595Y-85.09
X203.2Y-87.601
X203.2Y-90.141
X203.2Y-92.71
X203.2Y-95.25
T6
X106.827Y-82.012
X106.827Y-84.552
X106.827Y-87.092
X106.827Y-89.632
X106.827Y-92.172
X109.367Y-82.012
X109.367Y-84.552
X109.367Y-87.092
X109.367Y-89.632
X109.367Y-92.172
X175.895Y-95.885
X178.435Y-95.885
X180.975Y-95.885
X183.515Y-95.885
X186.055Y-95.885
X188.595Y-95.885
X191.135Y-95.885
X193.675Y-95.885
X196.215Y-95.885
X198.755Y-95.885
T7
X165.45Y-65.15
X165.45Y-67.69
X165.45Y-70.23
X165.45Y-72.77
X165.45Y-75.31
X165.45Y-77.85
X165.45Y-80.39
X165.45Y-82.93
X165.45Y-85.47
X165.45Y-88.01
X165.45Y-90.55
X165.45Y-93.09
X165.45Y-95.63
X165.45Y-98.17
X165.45Y-100.71
X165.45Y-103.25
X165.45Y-105.79
X165.45Y-108.33
X165.45Y-110.87
X165.45Y-113.41
X167.99Y-65.15
X167.99Y-67.69
X167.99Y-70.23
X167.99Y-72.77
X167.99Y-75.31
X167.99Y-77.85
X167.99Y-80.39
X167.99Y-82.93
X167.99Y-85.47
X167.99Y-88.01
X167.99Y-90.55
X167.99Y-93.09
X167.99Y-95.63
X167.99Y-98.17
X167.99Y-100.71
X167.99Y-103.25
X167.99Y-105.79
X167.99Y-108.33
X167.99Y-110.87
X167.99Y-113.41
T8
X123.185Y-100.965
X123.19Y-71.64
X123.19Y-91.44
X125.725Y-100.965
X125.73Y-71.64
X125.73Y-91.44
X128.265Y-100.965
X134.62Y-71.64
X134.62Y-91.44
X135.25Y-100.965
X137.16Y-71.64
X137.16Y-91.44
X137.79Y-100.965
X139.942Y-42.672
X139.942Y-45.212
X140.33Y-100.965
X143.51Y-71.525
X143.51Y-91.44
X146.05Y-71.525
X146.05Y-91.44
X147.32Y-100.85
X148.475Y-60.845
X148.475Y-63.385
X148.59Y-71.525
X148.59Y-91.44
X149.467Y-42.672
X149.467Y-45.212
X149.86Y-100.85
X152.4Y-100.85
X158.0Y-60.845
X158.0Y-63.385
X179.07Y-60.845
X179.07Y-71.005
X181.61Y-60.845
X181.61Y-71.005
X187.96Y-60.73
X187.96Y-71.12
X187.96Y-81.28
X190.5Y-60.73
X190.5Y-71.12
X190.5Y-81.28
X196.85Y-60.845
X196.85Y-71.12
X196.85Y-81.28
X198.386Y-50.165
X198.386Y-52.705
X199.39Y-60.845
X199.39Y-71.12
X199.39Y-81.28
T9
X140.04Y-110.49
X140.04Y-113.03
X140.04Y-115.57
X143.17Y-110.49
X143.17Y-113.03
X143.17Y-115.57
X153.595Y-70.025
X153.595Y-74.525
X153.595Y-89.94
X153.595Y-94.44
X160.095Y-70.025
X160.095Y-74.525
X160.095Y-89.94
X160.095Y-94.44
X177.165Y-81.59
X177.165Y-86.995
X179.705Y-81.59
X179.705Y-86.995
X182.245Y-81.59
X182.245Y-86.995
X193.888Y-49.022
X193.888Y-51.562
X193.888Y-54.102
T10
X141.605Y-62.75
X141.605Y-65.29
T0
M30
