%TF.GenerationSoftware,KiCad,Pcbnew,(6.0.7)*%
%TF.CreationDate,2022-08-29T12:50:00+02:00*%
%TF.ProjectId,pi_shield,70695f73-6869-4656-9c64-2e6b69636164,rev?*%
%TF.SameCoordinates,Original*%
%TF.FileFunction,Soldermask,Top*%
%TF.FilePolarity,Negative*%
%FSLAX46Y46*%
G04 Gerber Fmt 4.6, Leading zero omitted, Abs format (unit mm)*
G04 Created by KiCad (PCBNEW (6.0.7)) date 2022-08-29 12:50:00*
%MOMM*%
%LPD*%
G01*
G04 APERTURE LIST*
G04 Aperture macros list*
%AMRoundRect*
0 Rectangle with rounded corners*
0 $1 Rounding radius*
0 $2 $3 $4 $5 $6 $7 $8 $9 X,Y pos of 4 corners*
0 Add a 4 corners polygon primitive as box body*
4,1,4,$2,$3,$4,$5,$6,$7,$8,$9,$2,$3,0*
0 Add four circle primitives for the rounded corners*
1,1,$1+$1,$2,$3*
1,1,$1+$1,$4,$5*
1,1,$1+$1,$6,$7*
1,1,$1+$1,$8,$9*
0 Add four rect primitives between the rounded corners*
20,1,$1+$1,$2,$3,$4,$5,0*
20,1,$1+$1,$4,$5,$6,$7,0*
20,1,$1+$1,$6,$7,$8,$9,0*
20,1,$1+$1,$8,$9,$2,$3,0*%
G04 Aperture macros list end*
%ADD10C,1.740000*%
%ADD11RoundRect,0.250000X0.620000X-0.620000X0.620000X0.620000X-0.620000X0.620000X-0.620000X-0.620000X0*%
%ADD12C,1.400000*%
%ADD13O,1.400000X1.400000*%
%ADD14O,2.000000X1.905000*%
%ADD15R,2.000000X1.905000*%
%ADD16O,3.500000X3.500000*%
%ADD17C,2.700000*%
%ADD18C,2.750000*%
%ADD19R,1.750000X1.750000*%
%ADD20C,1.750000*%
%ADD21R,1.500000X1.050000*%
%ADD22O,1.500000X1.050000*%
%ADD23R,1.800000X1.800000*%
%ADD24C,1.800000*%
%ADD25RoundRect,0.250000X-0.620000X-0.620000X0.620000X-0.620000X0.620000X0.620000X-0.620000X0.620000X0*%
%ADD26R,1.905000X2.000000*%
%ADD27O,1.905000X2.000000*%
%ADD28R,1.600000X1.600000*%
%ADD29O,1.600000X1.600000*%
%ADD30RoundRect,0.250000X-0.620000X0.620000X-0.620000X-0.620000X0.620000X-0.620000X0.620000X0.620000X0*%
%ADD31O,1.800000X1.800000*%
%ADD32C,1.600000*%
%ADD33C,2.000000*%
%ADD34R,2.240000X2.240000*%
%ADD35O,2.240000X2.240000*%
%ADD36R,1.700000X1.700000*%
%ADD37O,1.700000X1.700000*%
G04 APERTURE END LIST*
D10*
%TO.C,J25*%
X198386000Y-50165000D03*
D11*
X198386000Y-52705000D03*
%TD*%
D12*
%TO.C,R27*%
X203454000Y-65101000D03*
D13*
X203454000Y-62561000D03*
%TD*%
D14*
%TO.C,Q7*%
X193888000Y-49022000D03*
X193888000Y-51562000D03*
D15*
X193888000Y-54102000D03*
D16*
X177228000Y-51562000D03*
%TD*%
D12*
%TO.C,R28*%
X203708000Y-60402000D03*
D13*
X203708000Y-57862000D03*
%TD*%
D12*
%TO.C,R15*%
X159245000Y-100788000D03*
D13*
X159245000Y-98248000D03*
%TD*%
D17*
%TO.C,REF\u002A\u002A*%
X108051600Y-39065200D03*
%TD*%
D12*
%TO.C,R9*%
X125050000Y-78740000D03*
D13*
X122510000Y-78740000D03*
%TD*%
D18*
%TO.C,J7*%
X166720000Y-60280000D03*
X117720000Y-60280000D03*
X117720000Y-118280000D03*
X166720000Y-118280000D03*
D19*
X165450000Y-65150000D03*
D20*
X167990000Y-65150000D03*
X165450000Y-67690000D03*
X167990000Y-67690000D03*
X165450000Y-70230000D03*
X167990000Y-70230000D03*
X165450000Y-72770000D03*
X167990000Y-72770000D03*
X165450000Y-75310000D03*
X167990000Y-75310000D03*
X165450000Y-77850000D03*
X167990000Y-77850000D03*
X165450000Y-80390000D03*
X167990000Y-80390000D03*
X165450000Y-82930000D03*
X167990000Y-82930000D03*
X165450000Y-85470000D03*
X167990000Y-85470000D03*
X165450000Y-88010000D03*
X167990000Y-88010000D03*
X165450000Y-90550000D03*
X167990000Y-90550000D03*
X165450000Y-93090000D03*
X167990000Y-93090000D03*
X165450000Y-95630000D03*
X167990000Y-95630000D03*
X165450000Y-98170000D03*
X167990000Y-98170000D03*
X165450000Y-100710000D03*
X167990000Y-100710000D03*
X165450000Y-103250000D03*
X167990000Y-103250000D03*
X165450000Y-105790000D03*
X167990000Y-105790000D03*
X165450000Y-108330000D03*
X167990000Y-108330000D03*
X165450000Y-110870000D03*
X167990000Y-110870000D03*
X165450000Y-113410000D03*
X167990000Y-113410000D03*
%TD*%
D14*
%TO.C,Q1*%
X143170000Y-115570000D03*
X143170000Y-113030000D03*
D15*
X143170000Y-110490000D03*
D16*
X159830000Y-113030000D03*
%TD*%
D21*
%TO.C,Q6*%
X177520600Y-90119200D03*
D22*
X177520600Y-91389200D03*
X177520600Y-92659200D03*
%TD*%
D23*
%TO.C,D6*%
X122555000Y-63385000D03*
D24*
X125095000Y-63385000D03*
%TD*%
D25*
%TO.C,J12*%
X123185000Y-100965000D03*
D10*
X125725000Y-100965000D03*
X128265000Y-100965000D03*
%TD*%
D25*
%TO.C,J20*%
X187960000Y-71120000D03*
D10*
X190500000Y-71120000D03*
%TD*%
D25*
%TO.C,J5*%
X143510000Y-71525000D03*
D10*
X146050000Y-71525000D03*
X148590000Y-71525000D03*
%TD*%
D12*
%TO.C,R26*%
X186182000Y-90805000D03*
D13*
X188722000Y-90805000D03*
%TD*%
D12*
%TO.C,R12*%
X158115000Y-106515000D03*
D13*
X158115000Y-103975000D03*
%TD*%
D12*
%TO.C,R24*%
X188545000Y-92964000D03*
D13*
X186005000Y-92964000D03*
%TD*%
D12*
%TO.C,R16*%
X161925000Y-98348000D03*
D13*
X161925000Y-100888000D03*
%TD*%
D12*
%TO.C,R1*%
X135305000Y-65925000D03*
D13*
X137845000Y-65925000D03*
%TD*%
D25*
%TO.C,J18*%
X187960000Y-60730000D03*
D10*
X190500000Y-60730000D03*
%TD*%
D25*
%TO.C,J2*%
X134620000Y-91440000D03*
D10*
X137160000Y-91440000D03*
%TD*%
D12*
%TO.C,R13*%
X156845000Y-99110000D03*
D13*
X156845000Y-101650000D03*
%TD*%
D26*
%TO.C,Q3*%
X177165000Y-81590000D03*
D27*
X179705000Y-81590000D03*
X182245000Y-81590000D03*
%TD*%
D25*
%TO.C,J14*%
X196850000Y-81280000D03*
D10*
X199390000Y-81280000D03*
%TD*%
D12*
%TO.C,R6*%
X132085000Y-78740000D03*
D13*
X129545000Y-78740000D03*
%TD*%
D28*
%TO.C,U1*%
X153045000Y-86235000D03*
D29*
X155585000Y-86235000D03*
X158125000Y-86235000D03*
X160665000Y-86235000D03*
X160665000Y-78615000D03*
X158125000Y-78615000D03*
X155585000Y-78615000D03*
X153045000Y-78615000D03*
%TD*%
D30*
%TO.C,J24*%
X149467000Y-42672000D03*
D10*
X149467000Y-45212000D03*
%TD*%
D11*
%TO.C,J8*%
X158000000Y-63385000D03*
D10*
X158000000Y-60845000D03*
%TD*%
D23*
%TO.C,D4*%
X148595000Y-82550000D03*
D31*
X148595000Y-85090000D03*
%TD*%
D12*
%TO.C,R4*%
X145370000Y-82550000D03*
D13*
X142830000Y-82550000D03*
%TD*%
D23*
%TO.C,D8*%
X203200000Y-87601000D03*
D31*
X203200000Y-90141000D03*
%TD*%
D25*
%TO.C,J21*%
X179070000Y-71005000D03*
D10*
X181610000Y-71005000D03*
%TD*%
D12*
%TO.C,R21*%
X197739000Y-92964000D03*
D13*
X197739000Y-90424000D03*
%TD*%
D12*
%TO.C,R22*%
X195503000Y-92964000D03*
D13*
X195503000Y-90424000D03*
%TD*%
D17*
%TO.C,REF\u002A\u002A*%
X157099000Y-39090600D03*
%TD*%
D25*
%TO.C,J16*%
X179070000Y-60845000D03*
D10*
X181610000Y-60845000D03*
%TD*%
D23*
%TO.C,D5*%
X122555000Y-83185000D03*
D24*
X125095000Y-83185000D03*
%TD*%
D25*
%TO.C,J3*%
X123190000Y-71640000D03*
D10*
X125730000Y-71640000D03*
%TD*%
D23*
%TO.C,D3*%
X129545000Y-83185000D03*
D24*
X132085000Y-83185000D03*
%TD*%
D32*
%TO.C,C2*%
X146725000Y-79375000D03*
X149225000Y-79375000D03*
%TD*%
D12*
%TO.C,R3*%
X142930000Y-85090000D03*
D13*
X145470000Y-85090000D03*
%TD*%
D12*
%TO.C,R8*%
X130175000Y-92025000D03*
D13*
X130175000Y-89485000D03*
%TD*%
D12*
%TO.C,R25*%
X190881000Y-90805000D03*
D13*
X193421000Y-90805000D03*
%TD*%
D25*
%TO.C,J4*%
X123190000Y-91440000D03*
D10*
X125730000Y-91440000D03*
%TD*%
D25*
%TO.C,J11*%
X135250000Y-100965000D03*
D10*
X137790000Y-100965000D03*
X140330000Y-100965000D03*
%TD*%
D12*
%TO.C,R11*%
X162814000Y-73660000D03*
D13*
X162814000Y-71120000D03*
%TD*%
D23*
%TO.C,D1*%
X129535000Y-63385000D03*
D24*
X132075000Y-63385000D03*
%TD*%
D33*
%TO.C,SW1*%
X160095000Y-89940000D03*
X153595000Y-89940000D03*
X153595000Y-94440000D03*
X160095000Y-94440000D03*
%TD*%
D23*
%TO.C,D9*%
X203200000Y-95250000D03*
D31*
X203200000Y-92710000D03*
%TD*%
D12*
%TO.C,R5*%
X132030000Y-58674000D03*
D13*
X129490000Y-58674000D03*
%TD*%
D25*
%TO.C,J10*%
X147320000Y-100850000D03*
D10*
X149860000Y-100850000D03*
X152400000Y-100850000D03*
%TD*%
D12*
%TO.C,R20*%
X192963000Y-88265000D03*
D13*
X195503000Y-88265000D03*
%TD*%
D12*
%TO.C,R14*%
X139070000Y-78740000D03*
D13*
X136530000Y-78740000D03*
%TD*%
D11*
%TO.C,J9*%
X148475000Y-63385000D03*
D10*
X148475000Y-60845000D03*
%TD*%
D12*
%TO.C,R10*%
X125045000Y-58674000D03*
D13*
X122505000Y-58674000D03*
%TD*%
D34*
%TO.C,D2*%
X141605000Y-62750000D03*
D35*
X141605000Y-65290000D03*
%TD*%
D12*
%TO.C,R2*%
X137845000Y-63385000D03*
D13*
X135305000Y-63385000D03*
%TD*%
D12*
%TO.C,R17*%
X192455000Y-76835000D03*
D13*
X194995000Y-76835000D03*
%TD*%
D25*
%TO.C,J15*%
X187960000Y-81280000D03*
D10*
X190500000Y-81280000D03*
%TD*%
D25*
%TO.C,J6*%
X143510000Y-91440000D03*
D10*
X146050000Y-91440000D03*
X148590000Y-91440000D03*
%TD*%
D33*
%TO.C,SW2*%
X153595000Y-70025000D03*
X160095000Y-70025000D03*
X153595000Y-74525000D03*
X160095000Y-74525000D03*
%TD*%
D17*
%TO.C,REF\u002A\u002A*%
X108077000Y-97028000D03*
%TD*%
D12*
%TO.C,R19*%
X199898000Y-90551000D03*
D13*
X199898000Y-93091000D03*
%TD*%
D26*
%TO.C,Q4*%
X177165000Y-86995000D03*
D27*
X179705000Y-86995000D03*
X182245000Y-86995000D03*
%TD*%
D12*
%TO.C,R18*%
X184150000Y-76835000D03*
D13*
X186690000Y-76835000D03*
%TD*%
D25*
%TO.C,J19*%
X196850000Y-71120000D03*
D10*
X199390000Y-71120000D03*
%TD*%
D36*
%TO.C,J13*%
X175895000Y-95885000D03*
D37*
X178435000Y-95885000D03*
X180975000Y-95885000D03*
X183515000Y-95885000D03*
X186055000Y-95885000D03*
X188595000Y-95885000D03*
X191135000Y-95885000D03*
X193675000Y-95885000D03*
X196215000Y-95885000D03*
X198755000Y-95885000D03*
%TD*%
D25*
%TO.C,J1*%
X134620000Y-71640000D03*
D10*
X137160000Y-71640000D03*
%TD*%
D30*
%TO.C,J23*%
X139942000Y-42672000D03*
D10*
X139942000Y-45212000D03*
%TD*%
D25*
%TO.C,J17*%
X196850000Y-60845000D03*
D10*
X199390000Y-60845000D03*
%TD*%
D21*
%TO.C,Q5*%
X182176000Y-90113000D03*
D22*
X182176000Y-91383000D03*
X182176000Y-92653000D03*
%TD*%
D12*
%TO.C,R23*%
X193244000Y-92964000D03*
D13*
X190704000Y-92964000D03*
%TD*%
D14*
%TO.C,Q2*%
X140040000Y-110490000D03*
X140040000Y-113030000D03*
D15*
X140040000Y-115570000D03*
D16*
X123380000Y-113030000D03*
%TD*%
D32*
%TO.C,C1*%
X161290000Y-105930000D03*
X161290000Y-103430000D03*
%TD*%
D12*
%TO.C,R7*%
X130175000Y-72225000D03*
D13*
X130175000Y-69685000D03*
%TD*%
D23*
%TO.C,D7*%
X136525000Y-83185000D03*
D24*
X139065000Y-83185000D03*
%TD*%
D36*
%TO.C,J22*%
X109367000Y-92172000D03*
D37*
X106827000Y-92172000D03*
X109367000Y-89632000D03*
X106827000Y-89632000D03*
X109367000Y-87092000D03*
X106827000Y-87092000D03*
X109367000Y-84552000D03*
X106827000Y-84552000D03*
X109367000Y-82012000D03*
X106827000Y-82012000D03*
%TD*%
M02*
