%TF.GenerationSoftware,KiCad,Pcbnew,(6.0.7)*%
%TF.CreationDate,2022-08-29T12:50:00+02:00*%
%TF.ProjectId,pi_shield,70695f73-6869-4656-9c64-2e6b69636164,rev?*%
%TF.SameCoordinates,Original*%
%TF.FileFunction,Legend,Top*%
%TF.FilePolarity,Positive*%
%FSLAX46Y46*%
G04 Gerber Fmt 4.6, Leading zero omitted, Abs format (unit mm)*
G04 Created by KiCad (PCBNEW (6.0.7)) date 2022-08-29 12:50:00*
%MOMM*%
%LPD*%
G01*
G04 APERTURE LIST*
G04 Aperture macros list*
%AMRoundRect*
0 Rectangle with rounded corners*
0 $1 Rounding radius*
0 $2 $3 $4 $5 $6 $7 $8 $9 X,Y pos of 4 corners*
0 Add a 4 corners polygon primitive as box body*
4,1,4,$2,$3,$4,$5,$6,$7,$8,$9,$2,$3,0*
0 Add four circle primitives for the rounded corners*
1,1,$1+$1,$2,$3*
1,1,$1+$1,$4,$5*
1,1,$1+$1,$6,$7*
1,1,$1+$1,$8,$9*
0 Add four rect primitives between the rounded corners*
20,1,$1+$1,$2,$3,$4,$5,0*
20,1,$1+$1,$4,$5,$6,$7,0*
20,1,$1+$1,$6,$7,$8,$9,0*
20,1,$1+$1,$8,$9,$2,$3,0*%
G04 Aperture macros list end*
%ADD10C,0.150000*%
%ADD11C,0.125000*%
%ADD12C,0.120000*%
%ADD13C,0.100000*%
%ADD14C,2.750000*%
%ADD15R,1.750000X1.750000*%
%ADD16C,1.750000*%
%ADD17C,1.740000*%
%ADD18RoundRect,0.250000X0.620000X-0.620000X0.620000X0.620000X-0.620000X0.620000X-0.620000X-0.620000X0*%
%ADD19C,1.400000*%
%ADD20O,1.400000X1.400000*%
%ADD21O,2.000000X1.905000*%
%ADD22R,2.000000X1.905000*%
%ADD23O,3.500000X3.500000*%
%ADD24C,2.700000*%
%ADD25R,1.500000X1.050000*%
%ADD26O,1.500000X1.050000*%
%ADD27R,1.800000X1.800000*%
%ADD28C,1.800000*%
%ADD29RoundRect,0.250000X-0.620000X-0.620000X0.620000X-0.620000X0.620000X0.620000X-0.620000X0.620000X0*%
%ADD30R,1.905000X2.000000*%
%ADD31O,1.905000X2.000000*%
%ADD32R,1.600000X1.600000*%
%ADD33O,1.600000X1.600000*%
%ADD34RoundRect,0.250000X-0.620000X0.620000X-0.620000X-0.620000X0.620000X-0.620000X0.620000X0.620000X0*%
%ADD35O,1.800000X1.800000*%
%ADD36C,1.600000*%
%ADD37C,2.000000*%
%ADD38R,2.240000X2.240000*%
%ADD39O,2.240000X2.240000*%
%ADD40R,1.700000X1.700000*%
%ADD41O,1.700000X1.700000*%
G04 APERTURE END LIST*
D10*
X204065142Y-52760380D02*
X204112761Y-52808000D01*
X204160380Y-52950857D01*
X204160380Y-53046095D01*
X204112761Y-53188952D01*
X204017523Y-53284190D01*
X203922285Y-53331809D01*
X203731809Y-53379428D01*
X203588952Y-53379428D01*
X203398476Y-53331809D01*
X203303238Y-53284190D01*
X203208000Y-53188952D01*
X203160380Y-53046095D01*
X203160380Y-52950857D01*
X203208000Y-52808000D01*
X203255619Y-52760380D01*
X203160380Y-52474666D02*
X203160380Y-51903238D01*
X204160380Y-52188952D02*
X203160380Y-52188952D01*
X204160380Y-50998476D02*
X203684190Y-51331809D01*
X204160380Y-51569904D02*
X203160380Y-51569904D01*
X203160380Y-51188952D01*
X203208000Y-51093714D01*
X203255619Y-51046095D01*
X203350857Y-50998476D01*
X203493714Y-50998476D01*
X203588952Y-51046095D01*
X203636571Y-51093714D01*
X203684190Y-51188952D01*
X203684190Y-51569904D01*
X204160380Y-50093714D02*
X204160380Y-50569904D01*
X203160380Y-50569904D01*
X203160380Y-49855619D02*
X203160380Y-49236571D01*
X203541333Y-49569904D01*
X203541333Y-49427047D01*
X203588952Y-49331809D01*
X203636571Y-49284190D01*
X203731809Y-49236571D01*
X203969904Y-49236571D01*
X204065142Y-49284190D01*
X204112761Y-49331809D01*
X204160380Y-49427047D01*
X204160380Y-49712761D01*
X204112761Y-49808000D01*
X204065142Y-49855619D01*
X161671000Y-97282000D02*
X161671000Y-97028000D01*
X143764000Y-104267000D02*
X143764000Y-97282000D01*
X161671000Y-87884000D02*
X141224000Y-87884000D01*
X119634000Y-97028000D02*
X119634000Y-97155000D01*
X126492000Y-107188000D02*
X133350000Y-107188000D01*
X161671000Y-67691000D02*
X134239000Y-67691000D01*
X119634000Y-107188000D02*
X126492000Y-107188000D01*
X133350000Y-107188000D02*
X140716000Y-107188000D01*
X161671000Y-97028000D02*
X161671000Y-88265000D01*
X134239000Y-59817000D02*
X119634000Y-59817000D01*
X143764000Y-97282000D02*
X161671000Y-97282000D01*
X119634000Y-97155000D02*
X119634000Y-97282000D01*
X161671000Y-77597000D02*
X161671000Y-67691000D01*
X119634000Y-59817000D02*
X119634000Y-59944000D01*
X141224000Y-80010000D02*
X119634000Y-80010000D01*
X119634000Y-80010000D02*
X119634000Y-97028000D01*
X143637000Y-107188000D02*
X143764000Y-107188000D01*
X143764000Y-107188000D02*
X143764000Y-104267000D01*
X161671000Y-88265000D02*
X161671000Y-87884000D01*
X140716000Y-107188000D02*
X143637000Y-107188000D01*
X119634000Y-59944000D02*
X119634000Y-77597000D01*
X119634000Y-97218500D02*
X119634000Y-107188000D01*
X119634000Y-77597000D02*
X161671000Y-77597000D01*
X134239000Y-67691000D02*
X134239000Y-59817000D01*
X141224000Y-87884000D02*
X141224000Y-80010000D01*
X132747142Y-77287380D02*
X132747142Y-76287380D01*
X133128095Y-76287380D01*
X133223333Y-76335000D01*
X133270952Y-76382619D01*
X133318571Y-76477857D01*
X133318571Y-76620714D01*
X133270952Y-76715952D01*
X133223333Y-76763571D01*
X133128095Y-76811190D01*
X132747142Y-76811190D01*
X133747142Y-77287380D02*
X133747142Y-76287380D01*
X134080476Y-77001666D01*
X134413809Y-76287380D01*
X134413809Y-77287380D01*
X134890000Y-77287380D02*
X134890000Y-76287380D01*
X135270952Y-76287380D01*
X135366190Y-76335000D01*
X135413809Y-76382619D01*
X135461428Y-76477857D01*
X135461428Y-76620714D01*
X135413809Y-76715952D01*
X135366190Y-76763571D01*
X135270952Y-76811190D01*
X134890000Y-76811190D01*
X136651904Y-77287380D02*
X136651904Y-76287380D01*
X136890000Y-76287380D01*
X137032857Y-76335000D01*
X137128095Y-76430238D01*
X137175714Y-76525476D01*
X137223333Y-76715952D01*
X137223333Y-76858809D01*
X137175714Y-77049285D01*
X137128095Y-77144523D01*
X137032857Y-77239761D01*
X136890000Y-77287380D01*
X136651904Y-77287380D01*
X138223333Y-77287380D02*
X137890000Y-76811190D01*
X137651904Y-77287380D02*
X137651904Y-76287380D01*
X138032857Y-76287380D01*
X138128095Y-76335000D01*
X138175714Y-76382619D01*
X138223333Y-76477857D01*
X138223333Y-76620714D01*
X138175714Y-76715952D01*
X138128095Y-76763571D01*
X138032857Y-76811190D01*
X137651904Y-76811190D01*
X138509047Y-76287380D02*
X138842380Y-77287380D01*
X139175714Y-76287380D01*
X143264000Y-42925904D02*
X143216380Y-43021142D01*
X143216380Y-43164000D01*
X143264000Y-43306857D01*
X143359238Y-43402095D01*
X143454476Y-43449714D01*
X143644952Y-43497333D01*
X143787809Y-43497333D01*
X143978285Y-43449714D01*
X144073523Y-43402095D01*
X144168761Y-43306857D01*
X144216380Y-43164000D01*
X144216380Y-43068761D01*
X144168761Y-42925904D01*
X144121142Y-42878285D01*
X143787809Y-42878285D01*
X143787809Y-43068761D01*
X144216380Y-42449714D02*
X143216380Y-42449714D01*
X144216380Y-41878285D01*
X143216380Y-41878285D01*
X144216380Y-41402095D02*
X143216380Y-41402095D01*
X143216380Y-41164000D01*
X143264000Y-41021142D01*
X143359238Y-40925904D01*
X143454476Y-40878285D01*
X143644952Y-40830666D01*
X143787809Y-40830666D01*
X143978285Y-40878285D01*
X144073523Y-40925904D01*
X144168761Y-41021142D01*
X144216380Y-41164000D01*
X144216380Y-41402095D01*
X187491904Y-86764761D02*
X187634761Y-86812380D01*
X187872857Y-86812380D01*
X187968095Y-86764761D01*
X188015714Y-86717142D01*
X188063333Y-86621904D01*
X188063333Y-86526666D01*
X188015714Y-86431428D01*
X187968095Y-86383809D01*
X187872857Y-86336190D01*
X187682380Y-86288571D01*
X187587142Y-86240952D01*
X187539523Y-86193333D01*
X187491904Y-86098095D01*
X187491904Y-86002857D01*
X187539523Y-85907619D01*
X187587142Y-85860000D01*
X187682380Y-85812380D01*
X187920476Y-85812380D01*
X188063333Y-85860000D01*
X188491904Y-86288571D02*
X188825238Y-86288571D01*
X188968095Y-86812380D02*
X188491904Y-86812380D01*
X188491904Y-85812380D01*
X188968095Y-85812380D01*
X189396666Y-86812380D02*
X189396666Y-85812380D01*
X189968095Y-86812380D01*
X189968095Y-85812380D01*
X190968095Y-86812380D02*
X190396666Y-86812380D01*
X190682380Y-86812380D02*
X190682380Y-85812380D01*
X190587142Y-85955238D01*
X190491904Y-86050476D01*
X190396666Y-86098095D01*
X155678333Y-76763571D02*
X156011666Y-76763571D01*
X156154523Y-77287380D02*
X155678333Y-77287380D01*
X155678333Y-76287380D01*
X156154523Y-76287380D01*
X156583095Y-77287380D02*
X156583095Y-76287380D01*
X157154523Y-77287380D01*
X157154523Y-76287380D01*
X157583095Y-77001666D02*
X158059285Y-77001666D01*
X157487857Y-77287380D02*
X157821190Y-76287380D01*
X158154523Y-77287380D01*
X118324380Y-70770476D02*
X119324380Y-70532380D01*
X118610095Y-70341904D01*
X119324380Y-70151428D01*
X118324380Y-69913333D01*
X119038666Y-69580000D02*
X119038666Y-69103809D01*
X119324380Y-69675238D02*
X118324380Y-69341904D01*
X119324380Y-69008571D01*
X118324380Y-68818095D02*
X118324380Y-68246666D01*
X119324380Y-68532380D02*
X118324380Y-68532380D01*
X118800571Y-67913333D02*
X118800571Y-67580000D01*
X119324380Y-67437142D02*
X119324380Y-67913333D01*
X118324380Y-67913333D01*
X118324380Y-67437142D01*
X119324380Y-66437142D02*
X118848190Y-66770476D01*
X119324380Y-67008571D02*
X118324380Y-67008571D01*
X118324380Y-66627619D01*
X118372000Y-66532380D01*
X118419619Y-66484761D01*
X118514857Y-66437142D01*
X118657714Y-66437142D01*
X118752952Y-66484761D01*
X118800571Y-66532380D01*
X118848190Y-66627619D01*
X118848190Y-67008571D01*
X178308095Y-65540000D02*
X178212857Y-65492380D01*
X178070000Y-65492380D01*
X177927142Y-65540000D01*
X177831904Y-65635238D01*
X177784285Y-65730476D01*
X177736666Y-65920952D01*
X177736666Y-66063809D01*
X177784285Y-66254285D01*
X177831904Y-66349523D01*
X177927142Y-66444761D01*
X178070000Y-66492380D01*
X178165238Y-66492380D01*
X178308095Y-66444761D01*
X178355714Y-66397142D01*
X178355714Y-66063809D01*
X178165238Y-66063809D01*
X178784285Y-66492380D02*
X178784285Y-65492380D01*
X179355714Y-66492380D01*
X179355714Y-65492380D01*
X179831904Y-66492380D02*
X179831904Y-65492380D01*
X180070000Y-65492380D01*
X180212857Y-65540000D01*
X180308095Y-65635238D01*
X180355714Y-65730476D01*
X180403333Y-65920952D01*
X180403333Y-66063809D01*
X180355714Y-66254285D01*
X180308095Y-66349523D01*
X180212857Y-66444761D01*
X180070000Y-66492380D01*
X179831904Y-66492380D01*
X148002857Y-106497380D02*
X147431428Y-106497380D01*
X147717142Y-106497380D02*
X147717142Y-105497380D01*
X147621904Y-105640238D01*
X147526666Y-105735476D01*
X147431428Y-105783095D01*
X149098095Y-105497380D02*
X149336190Y-106497380D01*
X149526666Y-105783095D01*
X149717142Y-106497380D01*
X149955238Y-105497380D01*
X150336190Y-106497380D02*
X150336190Y-105497380D01*
X151383809Y-106497380D02*
X151050476Y-106021190D01*
X150812380Y-106497380D02*
X150812380Y-105497380D01*
X151193333Y-105497380D01*
X151288571Y-105545000D01*
X151336190Y-105592619D01*
X151383809Y-105687857D01*
X151383809Y-105830714D01*
X151336190Y-105925952D01*
X151288571Y-105973571D01*
X151193333Y-106021190D01*
X150812380Y-106021190D01*
X151812380Y-105973571D02*
X152145714Y-105973571D01*
X152288571Y-106497380D02*
X151812380Y-106497380D01*
X151812380Y-105497380D01*
X152288571Y-105497380D01*
X196667619Y-66397142D02*
X196620000Y-66444761D01*
X196477142Y-66492380D01*
X196381904Y-66492380D01*
X196239047Y-66444761D01*
X196143809Y-66349523D01*
X196096190Y-66254285D01*
X196048571Y-66063809D01*
X196048571Y-65920952D01*
X196096190Y-65730476D01*
X196143809Y-65635238D01*
X196239047Y-65540000D01*
X196381904Y-65492380D01*
X196477142Y-65492380D01*
X196620000Y-65540000D01*
X196667619Y-65587619D01*
X196953333Y-65492380D02*
X197524761Y-65492380D01*
X197239047Y-66492380D02*
X197239047Y-65492380D01*
X198429523Y-66492380D02*
X198096190Y-66016190D01*
X197858095Y-66492380D02*
X197858095Y-65492380D01*
X198239047Y-65492380D01*
X198334285Y-65540000D01*
X198381904Y-65587619D01*
X198429523Y-65682857D01*
X198429523Y-65825714D01*
X198381904Y-65920952D01*
X198334285Y-65968571D01*
X198239047Y-66016190D01*
X197858095Y-66016190D01*
X199334285Y-66492380D02*
X198858095Y-66492380D01*
X198858095Y-65492380D01*
X199620000Y-65587619D02*
X199667619Y-65540000D01*
X199762857Y-65492380D01*
X200000952Y-65492380D01*
X200096190Y-65540000D01*
X200143809Y-65587619D01*
X200191428Y-65682857D01*
X200191428Y-65778095D01*
X200143809Y-65920952D01*
X199572380Y-66492380D01*
X200191428Y-66492380D01*
D11*
X202595071Y-72080190D02*
X202618880Y-72104000D01*
X202642690Y-72175428D01*
X202642690Y-72223047D01*
X202618880Y-72294476D01*
X202571261Y-72342095D01*
X202523642Y-72365904D01*
X202428404Y-72389714D01*
X202356976Y-72389714D01*
X202261738Y-72365904D01*
X202214119Y-72342095D01*
X202166500Y-72294476D01*
X202142690Y-72223047D01*
X202142690Y-72175428D01*
X202166500Y-72104000D01*
X202190309Y-72080190D01*
X202642690Y-71794476D02*
X202618880Y-71842095D01*
X202595071Y-71865904D01*
X202547452Y-71889714D01*
X202404595Y-71889714D01*
X202356976Y-71865904D01*
X202333166Y-71842095D01*
X202309357Y-71794476D01*
X202309357Y-71723047D01*
X202333166Y-71675428D01*
X202356976Y-71651619D01*
X202404595Y-71627809D01*
X202547452Y-71627809D01*
X202595071Y-71651619D01*
X202618880Y-71675428D01*
X202642690Y-71723047D01*
X202642690Y-71794476D01*
X202309357Y-71413523D02*
X202809357Y-71413523D01*
X202333166Y-71413523D02*
X202309357Y-71365904D01*
X202309357Y-71270666D01*
X202333166Y-71223047D01*
X202356976Y-71199238D01*
X202404595Y-71175428D01*
X202547452Y-71175428D01*
X202595071Y-71199238D01*
X202618880Y-71223047D01*
X202642690Y-71270666D01*
X202642690Y-71365904D01*
X202618880Y-71413523D01*
X202309357Y-71008761D02*
X202642690Y-70889714D01*
X202309357Y-70770666D02*
X202642690Y-70889714D01*
X202761738Y-70937333D01*
X202785547Y-70961142D01*
X202809357Y-71008761D01*
X202642690Y-70580190D02*
X202309357Y-70580190D01*
X202404595Y-70580190D02*
X202356976Y-70556380D01*
X202333166Y-70532571D01*
X202309357Y-70484952D01*
X202309357Y-70437333D01*
X202642690Y-70270666D02*
X202309357Y-70270666D01*
X202142690Y-70270666D02*
X202166500Y-70294476D01*
X202190309Y-70270666D01*
X202166500Y-70246857D01*
X202142690Y-70270666D01*
X202190309Y-70270666D01*
X202309357Y-69818285D02*
X202714119Y-69818285D01*
X202761738Y-69842095D01*
X202785547Y-69865904D01*
X202809357Y-69913523D01*
X202809357Y-69984952D01*
X202785547Y-70032571D01*
X202618880Y-69818285D02*
X202642690Y-69865904D01*
X202642690Y-69961142D01*
X202618880Y-70008761D01*
X202595071Y-70032571D01*
X202547452Y-70056380D01*
X202404595Y-70056380D01*
X202356976Y-70032571D01*
X202333166Y-70008761D01*
X202309357Y-69961142D01*
X202309357Y-69865904D01*
X202333166Y-69818285D01*
X202642690Y-69580190D02*
X202142690Y-69580190D01*
X202642690Y-69365904D02*
X202380785Y-69365904D01*
X202333166Y-69389714D01*
X202309357Y-69437333D01*
X202309357Y-69508761D01*
X202333166Y-69556380D01*
X202356976Y-69580190D01*
X202309357Y-69199238D02*
X202309357Y-69008761D01*
X202142690Y-69127809D02*
X202571261Y-69127809D01*
X202618880Y-69104000D01*
X202642690Y-69056380D01*
X202642690Y-69008761D01*
X202261738Y-68056380D02*
X202237928Y-68104000D01*
X202237928Y-68199238D01*
X202261738Y-68246857D01*
X202309357Y-68294476D01*
X202356976Y-68318285D01*
X202452214Y-68318285D01*
X202499833Y-68294476D01*
X202547452Y-68246857D01*
X202571261Y-68199238D01*
X202571261Y-68104000D01*
X202547452Y-68056380D01*
X202071261Y-68151619D02*
X202095071Y-68270666D01*
X202166500Y-68389714D01*
X202285547Y-68461142D01*
X202404595Y-68484952D01*
X202523642Y-68461142D01*
X202642690Y-68389714D01*
X202714119Y-68270666D01*
X202737928Y-68151619D01*
X202714119Y-68032571D01*
X202642690Y-67913523D01*
X202523642Y-67842095D01*
X202404595Y-67818285D01*
X202285547Y-67842095D01*
X202166500Y-67913523D01*
X202095071Y-68032571D01*
X202071261Y-68151619D01*
X203447690Y-73842095D02*
X202947690Y-73842095D01*
X203304833Y-73675428D01*
X202947690Y-73508761D01*
X203447690Y-73508761D01*
X203447690Y-73056380D02*
X203185785Y-73056380D01*
X203138166Y-73080190D01*
X203114357Y-73127809D01*
X203114357Y-73223047D01*
X203138166Y-73270666D01*
X203423880Y-73056380D02*
X203447690Y-73104000D01*
X203447690Y-73223047D01*
X203423880Y-73270666D01*
X203376261Y-73294476D01*
X203328642Y-73294476D01*
X203281023Y-73270666D01*
X203257214Y-73223047D01*
X203257214Y-73104000D01*
X203233404Y-73056380D01*
X203114357Y-72889714D02*
X203114357Y-72699238D01*
X202947690Y-72818285D02*
X203376261Y-72818285D01*
X203423880Y-72794476D01*
X203447690Y-72746857D01*
X203447690Y-72699238D01*
X203423880Y-72342095D02*
X203447690Y-72389714D01*
X203447690Y-72484952D01*
X203423880Y-72532571D01*
X203376261Y-72556380D01*
X203185785Y-72556380D01*
X203138166Y-72532571D01*
X203114357Y-72484952D01*
X203114357Y-72389714D01*
X203138166Y-72342095D01*
X203185785Y-72318285D01*
X203233404Y-72318285D01*
X203281023Y-72556380D01*
X203114357Y-71889714D02*
X203447690Y-71889714D01*
X203114357Y-72104000D02*
X203376261Y-72104000D01*
X203423880Y-72080190D01*
X203447690Y-72032571D01*
X203447690Y-71961142D01*
X203423880Y-71913523D01*
X203400071Y-71889714D01*
X203423880Y-71675428D02*
X203447690Y-71627809D01*
X203447690Y-71532571D01*
X203423880Y-71484952D01*
X203376261Y-71461142D01*
X203352452Y-71461142D01*
X203304833Y-71484952D01*
X203281023Y-71532571D01*
X203281023Y-71604000D01*
X203257214Y-71651619D01*
X203209595Y-71675428D01*
X203185785Y-71675428D01*
X203138166Y-71651619D01*
X203114357Y-71604000D01*
X203114357Y-71532571D01*
X203138166Y-71484952D01*
X203114357Y-71294476D02*
X203114357Y-71032571D01*
X203447690Y-71294476D01*
X203447690Y-71032571D01*
X203447690Y-70461142D02*
X202947690Y-70461142D01*
X202947690Y-70270666D01*
X202971500Y-70223047D01*
X202995309Y-70199238D01*
X203042928Y-70175428D01*
X203114357Y-70175428D01*
X203161976Y-70199238D01*
X203185785Y-70223047D01*
X203209595Y-70270666D01*
X203209595Y-70461142D01*
X203447690Y-69746857D02*
X203185785Y-69746857D01*
X203138166Y-69770666D01*
X203114357Y-69818285D01*
X203114357Y-69913523D01*
X203138166Y-69961142D01*
X203423880Y-69746857D02*
X203447690Y-69794476D01*
X203447690Y-69913523D01*
X203423880Y-69961142D01*
X203376261Y-69984952D01*
X203328642Y-69984952D01*
X203281023Y-69961142D01*
X203257214Y-69913523D01*
X203257214Y-69794476D01*
X203233404Y-69746857D01*
X203114357Y-69508761D02*
X203542928Y-69508761D01*
X203590547Y-69532571D01*
X203614357Y-69580190D01*
X203614357Y-69604000D01*
X202947690Y-69508761D02*
X202971500Y-69532571D01*
X202995309Y-69508761D01*
X202971500Y-69484952D01*
X202947690Y-69508761D01*
X202995309Y-69508761D01*
X203447690Y-69056380D02*
X203185785Y-69056380D01*
X203138166Y-69080190D01*
X203114357Y-69127809D01*
X203114357Y-69223047D01*
X203138166Y-69270666D01*
X203423880Y-69056380D02*
X203447690Y-69104000D01*
X203447690Y-69223047D01*
X203423880Y-69270666D01*
X203376261Y-69294476D01*
X203328642Y-69294476D01*
X203281023Y-69270666D01*
X203257214Y-69223047D01*
X203257214Y-69104000D01*
X203233404Y-69056380D01*
X203447690Y-69056380D02*
X203495309Y-69104000D01*
X203542928Y-69127809D01*
X203590547Y-69104000D01*
X203614357Y-69056380D01*
X203614357Y-69008761D01*
X203447690Y-68818285D02*
X202947690Y-68818285D01*
X203257214Y-68770666D02*
X203447690Y-68627809D01*
X203114357Y-68627809D02*
X203304833Y-68818285D01*
X202995309Y-68056380D02*
X202971500Y-68032571D01*
X202947690Y-67984952D01*
X202947690Y-67865904D01*
X202971500Y-67818285D01*
X202995309Y-67794476D01*
X203042928Y-67770666D01*
X203090547Y-67770666D01*
X203161976Y-67794476D01*
X203447690Y-68080190D01*
X203447690Y-67770666D01*
X202947690Y-67461142D02*
X202947690Y-67413523D01*
X202971500Y-67365904D01*
X202995309Y-67342095D01*
X203042928Y-67318285D01*
X203138166Y-67294476D01*
X203257214Y-67294476D01*
X203352452Y-67318285D01*
X203400071Y-67342095D01*
X203423880Y-67365904D01*
X203447690Y-67413523D01*
X203447690Y-67461142D01*
X203423880Y-67508761D01*
X203400071Y-67532571D01*
X203352452Y-67556380D01*
X203257214Y-67580190D01*
X203138166Y-67580190D01*
X203042928Y-67556380D01*
X202995309Y-67532571D01*
X202971500Y-67508761D01*
X202947690Y-67461142D01*
X202995309Y-67104000D02*
X202971500Y-67080190D01*
X202947690Y-67032571D01*
X202947690Y-66913523D01*
X202971500Y-66865904D01*
X202995309Y-66842095D01*
X203042928Y-66818285D01*
X203090547Y-66818285D01*
X203161976Y-66842095D01*
X203447690Y-67127809D01*
X203447690Y-66818285D01*
X202995309Y-66627809D02*
X202971500Y-66604000D01*
X202947690Y-66556380D01*
X202947690Y-66437333D01*
X202971500Y-66389714D01*
X202995309Y-66365904D01*
X203042928Y-66342095D01*
X203090547Y-66342095D01*
X203161976Y-66365904D01*
X203447690Y-66651619D01*
X203447690Y-66342095D01*
D10*
X181625952Y-66492380D02*
X181054523Y-66492380D01*
X181340238Y-66492380D02*
X181340238Y-65492380D01*
X181245000Y-65635238D01*
X181149761Y-65730476D01*
X181054523Y-65778095D01*
X182006904Y-65587619D02*
X182054523Y-65540000D01*
X182149761Y-65492380D01*
X182387857Y-65492380D01*
X182483095Y-65540000D01*
X182530714Y-65587619D01*
X182578333Y-65682857D01*
X182578333Y-65778095D01*
X182530714Y-65920952D01*
X181959285Y-66492380D01*
X182578333Y-66492380D01*
X182864047Y-65492380D02*
X183197380Y-66492380D01*
X183530714Y-65492380D01*
X196381904Y-86764761D02*
X196524761Y-86812380D01*
X196762857Y-86812380D01*
X196858095Y-86764761D01*
X196905714Y-86717142D01*
X196953333Y-86621904D01*
X196953333Y-86526666D01*
X196905714Y-86431428D01*
X196858095Y-86383809D01*
X196762857Y-86336190D01*
X196572380Y-86288571D01*
X196477142Y-86240952D01*
X196429523Y-86193333D01*
X196381904Y-86098095D01*
X196381904Y-86002857D01*
X196429523Y-85907619D01*
X196477142Y-85860000D01*
X196572380Y-85812380D01*
X196810476Y-85812380D01*
X196953333Y-85860000D01*
X197381904Y-86288571D02*
X197715238Y-86288571D01*
X197858095Y-86812380D02*
X197381904Y-86812380D01*
X197381904Y-85812380D01*
X197858095Y-85812380D01*
X198286666Y-86812380D02*
X198286666Y-85812380D01*
X198858095Y-86812380D01*
X198858095Y-85812380D01*
X199286666Y-85907619D02*
X199334285Y-85860000D01*
X199429523Y-85812380D01*
X199667619Y-85812380D01*
X199762857Y-85860000D01*
X199810476Y-85907619D01*
X199858095Y-86002857D01*
X199858095Y-86098095D01*
X199810476Y-86240952D01*
X199239047Y-86812380D01*
X199858095Y-86812380D01*
X121563095Y-67762380D02*
X121086904Y-67762380D01*
X121086904Y-66762380D01*
X121753571Y-66762380D02*
X122086904Y-67762380D01*
X122420238Y-66762380D01*
X123229761Y-67762380D02*
X122753571Y-67762380D01*
X122753571Y-66762380D01*
X124801190Y-67762380D02*
X124325000Y-67762380D01*
X124325000Y-66762380D01*
X125134523Y-67238571D02*
X125467857Y-67238571D01*
X125610714Y-67762380D02*
X125134523Y-67762380D01*
X125134523Y-66762380D01*
X125610714Y-66762380D01*
X126039285Y-67762380D02*
X126039285Y-66762380D01*
X126277380Y-66762380D01*
X126420238Y-66810000D01*
X126515476Y-66905238D01*
X126563095Y-67000476D01*
X126610714Y-67190952D01*
X126610714Y-67333809D01*
X126563095Y-67524285D01*
X126515476Y-67619523D01*
X126420238Y-67714761D01*
X126277380Y-67762380D01*
X126039285Y-67762380D01*
X121563095Y-87447380D02*
X121086904Y-87447380D01*
X121086904Y-86447380D01*
X121753571Y-86447380D02*
X122086904Y-87447380D01*
X122420238Y-86447380D01*
X123229761Y-87447380D02*
X122753571Y-87447380D01*
X122753571Y-86447380D01*
X124801190Y-87447380D02*
X124325000Y-87447380D01*
X124325000Y-86447380D01*
X125134523Y-86923571D02*
X125467857Y-86923571D01*
X125610714Y-87447380D02*
X125134523Y-87447380D01*
X125134523Y-86447380D01*
X125610714Y-86447380D01*
X126039285Y-87447380D02*
X126039285Y-86447380D01*
X126277380Y-86447380D01*
X126420238Y-86495000D01*
X126515476Y-86590238D01*
X126563095Y-86685476D01*
X126610714Y-86875952D01*
X126610714Y-87018809D01*
X126563095Y-87209285D01*
X126515476Y-87304523D01*
X126420238Y-87399761D01*
X126277380Y-87447380D01*
X126039285Y-87447380D01*
X180990952Y-76652380D02*
X180419523Y-76652380D01*
X180705238Y-76652380D02*
X180705238Y-75652380D01*
X180610000Y-75795238D01*
X180514761Y-75890476D01*
X180419523Y-75938095D01*
X181371904Y-75747619D02*
X181419523Y-75700000D01*
X181514761Y-75652380D01*
X181752857Y-75652380D01*
X181848095Y-75700000D01*
X181895714Y-75747619D01*
X181943333Y-75842857D01*
X181943333Y-75938095D01*
X181895714Y-76080952D01*
X181324285Y-76652380D01*
X181943333Y-76652380D01*
X182229047Y-75652380D02*
X182562380Y-76652380D01*
X182895714Y-75652380D01*
X144216380Y-45831047D02*
X144216380Y-46402476D01*
X144216380Y-46116761D02*
X143216380Y-46116761D01*
X143359238Y-46212000D01*
X143454476Y-46307238D01*
X143502095Y-46402476D01*
X143311619Y-45450095D02*
X143264000Y-45402476D01*
X143216380Y-45307238D01*
X143216380Y-45069142D01*
X143264000Y-44973904D01*
X143311619Y-44926285D01*
X143406857Y-44878666D01*
X143502095Y-44878666D01*
X143644952Y-44926285D01*
X144216380Y-45497714D01*
X144216380Y-44878666D01*
X143216380Y-44592952D02*
X144216380Y-44259619D01*
X143216380Y-43926285D01*
X197000952Y-76652380D02*
X196524761Y-76652380D01*
X196524761Y-75652380D01*
X197334285Y-76128571D02*
X197667619Y-76128571D01*
X197810476Y-76652380D02*
X197334285Y-76652380D01*
X197334285Y-75652380D01*
X197810476Y-75652380D01*
X198239047Y-76652380D02*
X198239047Y-75652380D01*
X198477142Y-75652380D01*
X198620000Y-75700000D01*
X198715238Y-75795238D01*
X198762857Y-75890476D01*
X198810476Y-76080952D01*
X198810476Y-76223809D01*
X198762857Y-76414285D01*
X198715238Y-76509523D01*
X198620000Y-76604761D01*
X198477142Y-76652380D01*
X198239047Y-76652380D01*
X199191428Y-75747619D02*
X199239047Y-75700000D01*
X199334285Y-75652380D01*
X199572380Y-75652380D01*
X199667619Y-75700000D01*
X199715238Y-75747619D01*
X199762857Y-75842857D01*
X199762857Y-75938095D01*
X199715238Y-76080952D01*
X199143809Y-76652380D01*
X199762857Y-76652380D01*
X119324380Y-96813238D02*
X118324380Y-96813238D01*
X119324380Y-96241809D01*
X118324380Y-96241809D01*
X118324380Y-95765619D02*
X119133904Y-95765619D01*
X119229142Y-95718000D01*
X119276761Y-95670380D01*
X119324380Y-95575142D01*
X119324380Y-95384666D01*
X119276761Y-95289428D01*
X119229142Y-95241809D01*
X119133904Y-95194190D01*
X118324380Y-95194190D01*
X118324380Y-94860857D02*
X118324380Y-94289428D01*
X119324380Y-94575142D02*
X118324380Y-94575142D01*
X119324380Y-93384666D02*
X118848190Y-93718000D01*
X119324380Y-93956095D02*
X118324380Y-93956095D01*
X118324380Y-93575142D01*
X118372000Y-93479904D01*
X118419619Y-93432285D01*
X118514857Y-93384666D01*
X118657714Y-93384666D01*
X118752952Y-93432285D01*
X118800571Y-93479904D01*
X118848190Y-93575142D01*
X118848190Y-93956095D01*
X119324380Y-92956095D02*
X118324380Y-92956095D01*
X118324380Y-92622761D02*
X118324380Y-92051333D01*
X119324380Y-92337047D02*
X118324380Y-92337047D01*
X119324380Y-91718000D02*
X118324380Y-91718000D01*
X118324380Y-91051333D02*
X118324380Y-90860857D01*
X118372000Y-90765619D01*
X118467238Y-90670380D01*
X118657714Y-90622761D01*
X118991047Y-90622761D01*
X119181523Y-90670380D01*
X119276761Y-90765619D01*
X119324380Y-90860857D01*
X119324380Y-91051333D01*
X119276761Y-91146571D01*
X119181523Y-91241809D01*
X118991047Y-91289428D01*
X118657714Y-91289428D01*
X118467238Y-91241809D01*
X118372000Y-91146571D01*
X118324380Y-91051333D01*
X119324380Y-90194190D02*
X118324380Y-90194190D01*
X119324380Y-89622761D01*
X118324380Y-89622761D01*
X122055238Y-96877142D02*
X122007619Y-96924761D01*
X121864761Y-96972380D01*
X121769523Y-96972380D01*
X121626666Y-96924761D01*
X121531428Y-96829523D01*
X121483809Y-96734285D01*
X121436190Y-96543809D01*
X121436190Y-96400952D01*
X121483809Y-96210476D01*
X121531428Y-96115238D01*
X121626666Y-96020000D01*
X121769523Y-95972380D01*
X121864761Y-95972380D01*
X122007619Y-96020000D01*
X122055238Y-96067619D01*
X122960000Y-96972380D02*
X122483809Y-96972380D01*
X122483809Y-95972380D01*
X123245714Y-96924761D02*
X123388571Y-96972380D01*
X123626666Y-96972380D01*
X123721904Y-96924761D01*
X123769523Y-96877142D01*
X123817142Y-96781904D01*
X123817142Y-96686666D01*
X123769523Y-96591428D01*
X123721904Y-96543809D01*
X123626666Y-96496190D01*
X123436190Y-96448571D01*
X123340952Y-96400952D01*
X123293333Y-96353333D01*
X123245714Y-96258095D01*
X123245714Y-96162857D01*
X123293333Y-96067619D01*
X123340952Y-96020000D01*
X123436190Y-95972380D01*
X123674285Y-95972380D01*
X123817142Y-96020000D01*
X124960000Y-96924761D02*
X125102857Y-96972380D01*
X125340952Y-96972380D01*
X125436190Y-96924761D01*
X125483809Y-96877142D01*
X125531428Y-96781904D01*
X125531428Y-96686666D01*
X125483809Y-96591428D01*
X125436190Y-96543809D01*
X125340952Y-96496190D01*
X125150476Y-96448571D01*
X125055238Y-96400952D01*
X125007619Y-96353333D01*
X124960000Y-96258095D01*
X124960000Y-96162857D01*
X125007619Y-96067619D01*
X125055238Y-96020000D01*
X125150476Y-95972380D01*
X125388571Y-95972380D01*
X125531428Y-96020000D01*
X125960000Y-96448571D02*
X126293333Y-96448571D01*
X126436190Y-96972380D02*
X125960000Y-96972380D01*
X125960000Y-95972380D01*
X126436190Y-95972380D01*
X126864761Y-96972380D02*
X126864761Y-95972380D01*
X127436190Y-96972380D01*
X127436190Y-95972380D01*
X124991904Y-105830714D02*
X124991904Y-106830714D01*
X124991904Y-105878333D02*
X125087142Y-105830714D01*
X125277619Y-105830714D01*
X125372857Y-105878333D01*
X125420476Y-105925952D01*
X125468095Y-106021190D01*
X125468095Y-106306904D01*
X125420476Y-106402142D01*
X125372857Y-106449761D01*
X125277619Y-106497380D01*
X125087142Y-106497380D01*
X124991904Y-106449761D01*
X125896666Y-106497380D02*
X125896666Y-105497380D01*
X125896666Y-105973571D02*
X126468095Y-105973571D01*
X126468095Y-106497380D02*
X126468095Y-105497380D01*
X143692857Y-77287380D02*
X143216666Y-77287380D01*
X143216666Y-76287380D01*
X143883333Y-76287380D02*
X144216666Y-77287380D01*
X144550000Y-76287380D01*
X145359523Y-77287380D02*
X144883333Y-77287380D01*
X144883333Y-76287380D01*
X146407142Y-77239761D02*
X146550000Y-77287380D01*
X146788095Y-77287380D01*
X146883333Y-77239761D01*
X146930952Y-77192142D01*
X146978571Y-77096904D01*
X146978571Y-77001666D01*
X146930952Y-76906428D01*
X146883333Y-76858809D01*
X146788095Y-76811190D01*
X146597619Y-76763571D01*
X146502380Y-76715952D01*
X146454761Y-76668333D01*
X146407142Y-76573095D01*
X146407142Y-76477857D01*
X146454761Y-76382619D01*
X146502380Y-76335000D01*
X146597619Y-76287380D01*
X146835714Y-76287380D01*
X146978571Y-76335000D01*
X147407142Y-76763571D02*
X147740476Y-76763571D01*
X147883333Y-77287380D02*
X147407142Y-77287380D01*
X147407142Y-76287380D01*
X147883333Y-76287380D01*
X148311904Y-77287380D02*
X148311904Y-76287380D01*
X148883333Y-77287380D01*
X148883333Y-76287380D01*
X153741380Y-46085047D02*
X153741380Y-46656476D01*
X153741380Y-46370761D02*
X152741380Y-46370761D01*
X152884238Y-46466000D01*
X152979476Y-46561238D01*
X153027095Y-46656476D01*
X152836619Y-45704095D02*
X152789000Y-45656476D01*
X152741380Y-45561238D01*
X152741380Y-45323142D01*
X152789000Y-45227904D01*
X152836619Y-45180285D01*
X152931857Y-45132666D01*
X153027095Y-45132666D01*
X153169952Y-45180285D01*
X153741380Y-45751714D01*
X153741380Y-45132666D01*
X152741380Y-44846952D02*
X153741380Y-44513619D01*
X152741380Y-44180285D01*
X151955000Y-38071619D02*
X152288333Y-38547809D01*
X152526428Y-38071619D02*
X152526428Y-39071619D01*
X152145476Y-39071619D01*
X152050238Y-39024000D01*
X152002619Y-38976380D01*
X151955000Y-38881142D01*
X151955000Y-38738285D01*
X152002619Y-38643047D01*
X152050238Y-38595428D01*
X152145476Y-38547809D01*
X152526428Y-38547809D01*
X151097857Y-38071619D02*
X151097857Y-38595428D01*
X151145476Y-38690666D01*
X151240714Y-38738285D01*
X151431190Y-38738285D01*
X151526428Y-38690666D01*
X151097857Y-38119238D02*
X151193095Y-38071619D01*
X151431190Y-38071619D01*
X151526428Y-38119238D01*
X151574047Y-38214476D01*
X151574047Y-38309714D01*
X151526428Y-38404952D01*
X151431190Y-38452571D01*
X151193095Y-38452571D01*
X151097857Y-38500190D01*
X150669285Y-38119238D02*
X150574047Y-38071619D01*
X150383571Y-38071619D01*
X150288333Y-38119238D01*
X150240714Y-38214476D01*
X150240714Y-38262095D01*
X150288333Y-38357333D01*
X150383571Y-38404952D01*
X150526428Y-38404952D01*
X150621666Y-38452571D01*
X150669285Y-38547809D01*
X150669285Y-38595428D01*
X150621666Y-38690666D01*
X150526428Y-38738285D01*
X150383571Y-38738285D01*
X150288333Y-38690666D01*
X149812142Y-38738285D02*
X149812142Y-37738285D01*
X149812142Y-38690666D02*
X149716904Y-38738285D01*
X149526428Y-38738285D01*
X149431190Y-38690666D01*
X149383571Y-38643047D01*
X149335952Y-38547809D01*
X149335952Y-38262095D01*
X149383571Y-38166857D01*
X149431190Y-38119238D01*
X149526428Y-38071619D01*
X149716904Y-38071619D01*
X149812142Y-38119238D01*
X148907380Y-38071619D02*
X148907380Y-39071619D01*
X148907380Y-38690666D02*
X148812142Y-38738285D01*
X148621666Y-38738285D01*
X148526428Y-38690666D01*
X148478809Y-38643047D01*
X148431190Y-38547809D01*
X148431190Y-38262095D01*
X148478809Y-38166857D01*
X148526428Y-38119238D01*
X148621666Y-38071619D01*
X148812142Y-38071619D01*
X148907380Y-38119238D01*
X147621666Y-38119238D02*
X147716904Y-38071619D01*
X147907380Y-38071619D01*
X148002619Y-38119238D01*
X148050238Y-38214476D01*
X148050238Y-38595428D01*
X148002619Y-38690666D01*
X147907380Y-38738285D01*
X147716904Y-38738285D01*
X147621666Y-38690666D01*
X147574047Y-38595428D01*
X147574047Y-38500190D01*
X148050238Y-38404952D01*
X147145476Y-38071619D02*
X147145476Y-38738285D01*
X147145476Y-38547809D02*
X147097857Y-38643047D01*
X147050238Y-38690666D01*
X146955000Y-38738285D01*
X146859761Y-38738285D01*
X146526428Y-38071619D02*
X146526428Y-38738285D01*
X146526428Y-38547809D02*
X146478809Y-38643047D01*
X146431190Y-38690666D01*
X146335952Y-38738285D01*
X146240714Y-38738285D01*
X146002619Y-38738285D02*
X145764523Y-38071619D01*
X145526428Y-38738285D02*
X145764523Y-38071619D01*
X145859761Y-37833523D01*
X145907380Y-37785904D01*
X146002619Y-37738285D01*
X144383571Y-38071619D02*
X144383571Y-39071619D01*
X144002619Y-39071619D01*
X143907380Y-39024000D01*
X143859761Y-38976380D01*
X143812142Y-38881142D01*
X143812142Y-38738285D01*
X143859761Y-38643047D01*
X143907380Y-38595428D01*
X144002619Y-38547809D01*
X144383571Y-38547809D01*
X143383571Y-38071619D02*
X143383571Y-38738285D01*
X143383571Y-39071619D02*
X143431190Y-39024000D01*
X143383571Y-38976380D01*
X143335952Y-39024000D01*
X143383571Y-39071619D01*
X143383571Y-38976380D01*
X152478809Y-36461619D02*
X152478809Y-37461619D01*
X152097857Y-37461619D01*
X152002619Y-37414000D01*
X151955000Y-37366380D01*
X151907380Y-37271142D01*
X151907380Y-37128285D01*
X151955000Y-37033047D01*
X152002619Y-36985428D01*
X152097857Y-36937809D01*
X152478809Y-36937809D01*
X151335952Y-36461619D02*
X151431190Y-36509238D01*
X151478809Y-36556857D01*
X151526428Y-36652095D01*
X151526428Y-36937809D01*
X151478809Y-37033047D01*
X151431190Y-37080666D01*
X151335952Y-37128285D01*
X151193095Y-37128285D01*
X151097857Y-37080666D01*
X151050238Y-37033047D01*
X151002619Y-36937809D01*
X151002619Y-36652095D01*
X151050238Y-36556857D01*
X151097857Y-36509238D01*
X151193095Y-36461619D01*
X151335952Y-36461619D01*
X150669285Y-37128285D02*
X150478809Y-36461619D01*
X150288333Y-36937809D01*
X150097857Y-36461619D01*
X149907380Y-37128285D01*
X149145476Y-36509238D02*
X149240714Y-36461619D01*
X149431190Y-36461619D01*
X149526428Y-36509238D01*
X149574047Y-36604476D01*
X149574047Y-36985428D01*
X149526428Y-37080666D01*
X149431190Y-37128285D01*
X149240714Y-37128285D01*
X149145476Y-37080666D01*
X149097857Y-36985428D01*
X149097857Y-36890190D01*
X149574047Y-36794952D01*
X148669285Y-36461619D02*
X148669285Y-37128285D01*
X148669285Y-36937809D02*
X148621666Y-37033047D01*
X148574047Y-37080666D01*
X148478809Y-37128285D01*
X148383571Y-37128285D01*
X146955000Y-36985428D02*
X146812142Y-36937809D01*
X146764523Y-36890190D01*
X146716904Y-36794952D01*
X146716904Y-36652095D01*
X146764523Y-36556857D01*
X146812142Y-36509238D01*
X146907380Y-36461619D01*
X147288333Y-36461619D01*
X147288333Y-37461619D01*
X146955000Y-37461619D01*
X146859761Y-37414000D01*
X146812142Y-37366380D01*
X146764523Y-37271142D01*
X146764523Y-37175904D01*
X146812142Y-37080666D01*
X146859761Y-37033047D01*
X146955000Y-36985428D01*
X147288333Y-36985428D01*
X146145476Y-36461619D02*
X146240714Y-36509238D01*
X146288333Y-36556857D01*
X146335952Y-36652095D01*
X146335952Y-36937809D01*
X146288333Y-37033047D01*
X146240714Y-37080666D01*
X146145476Y-37128285D01*
X146002619Y-37128285D01*
X145907380Y-37080666D01*
X145859761Y-37033047D01*
X145812142Y-36937809D01*
X145812142Y-36652095D01*
X145859761Y-36556857D01*
X145907380Y-36509238D01*
X146002619Y-36461619D01*
X146145476Y-36461619D01*
X144955000Y-36461619D02*
X144955000Y-36985428D01*
X145002619Y-37080666D01*
X145097857Y-37128285D01*
X145288333Y-37128285D01*
X145383571Y-37080666D01*
X144955000Y-36509238D02*
X145050238Y-36461619D01*
X145288333Y-36461619D01*
X145383571Y-36509238D01*
X145431190Y-36604476D01*
X145431190Y-36699714D01*
X145383571Y-36794952D01*
X145288333Y-36842571D01*
X145050238Y-36842571D01*
X144955000Y-36890190D01*
X144478809Y-36461619D02*
X144478809Y-37128285D01*
X144478809Y-36937809D02*
X144431190Y-37033047D01*
X144383571Y-37080666D01*
X144288333Y-37128285D01*
X144193095Y-37128285D01*
X143431190Y-36461619D02*
X143431190Y-37461619D01*
X143431190Y-36509238D02*
X143526428Y-36461619D01*
X143716904Y-36461619D01*
X143812142Y-36509238D01*
X143859761Y-36556857D01*
X143907380Y-36652095D01*
X143907380Y-36937809D01*
X143859761Y-37033047D01*
X143812142Y-37080666D01*
X143716904Y-37128285D01*
X143526428Y-37128285D01*
X143431190Y-37080666D01*
X153170000Y-64753809D02*
X153122380Y-64849047D01*
X153122380Y-64991904D01*
X153170000Y-65134761D01*
X153265238Y-65230000D01*
X153360476Y-65277619D01*
X153550952Y-65325238D01*
X153693809Y-65325238D01*
X153884285Y-65277619D01*
X153979523Y-65230000D01*
X154074761Y-65134761D01*
X154122380Y-64991904D01*
X154122380Y-64896666D01*
X154074761Y-64753809D01*
X154027142Y-64706190D01*
X153693809Y-64706190D01*
X153693809Y-64896666D01*
X154122380Y-64277619D02*
X153122380Y-64277619D01*
X154122380Y-63706190D01*
X153122380Y-63706190D01*
X154122380Y-63230000D02*
X153122380Y-63230000D01*
X153122380Y-62991904D01*
X153170000Y-62849047D01*
X153265238Y-62753809D01*
X153360476Y-62706190D01*
X153550952Y-62658571D01*
X153693809Y-62658571D01*
X153884285Y-62706190D01*
X153979523Y-62753809D01*
X154074761Y-62849047D01*
X154122380Y-62991904D01*
X154122380Y-63230000D01*
X154122380Y-60944285D02*
X154122380Y-61515714D01*
X154122380Y-61230000D02*
X153122380Y-61230000D01*
X153265238Y-61325238D01*
X153360476Y-61420476D01*
X153408095Y-61515714D01*
X153217619Y-60563333D02*
X153170000Y-60515714D01*
X153122380Y-60420476D01*
X153122380Y-60182380D01*
X153170000Y-60087142D01*
X153217619Y-60039523D01*
X153312857Y-59991904D01*
X153408095Y-59991904D01*
X153550952Y-60039523D01*
X154122380Y-60610952D01*
X154122380Y-59991904D01*
X153122380Y-59706190D02*
X154122380Y-59372857D01*
X153122380Y-59039523D01*
X152789000Y-43052904D02*
X152741380Y-43148142D01*
X152741380Y-43291000D01*
X152789000Y-43433857D01*
X152884238Y-43529095D01*
X152979476Y-43576714D01*
X153169952Y-43624333D01*
X153312809Y-43624333D01*
X153503285Y-43576714D01*
X153598523Y-43529095D01*
X153693761Y-43433857D01*
X153741380Y-43291000D01*
X153741380Y-43195761D01*
X153693761Y-43052904D01*
X153646142Y-43005285D01*
X153312809Y-43005285D01*
X153312809Y-43195761D01*
X153741380Y-42576714D02*
X152741380Y-42576714D01*
X153741380Y-42005285D01*
X152741380Y-42005285D01*
X153741380Y-41529095D02*
X152741380Y-41529095D01*
X152741380Y-41291000D01*
X152789000Y-41148142D01*
X152884238Y-41052904D01*
X152979476Y-41005285D01*
X153169952Y-40957666D01*
X153312809Y-40957666D01*
X153503285Y-41005285D01*
X153598523Y-41052904D01*
X153693761Y-41148142D01*
X153741380Y-41291000D01*
X153741380Y-41529095D01*
X188110952Y-76652380D02*
X187634761Y-76652380D01*
X187634761Y-75652380D01*
X188444285Y-76128571D02*
X188777619Y-76128571D01*
X188920476Y-76652380D02*
X188444285Y-76652380D01*
X188444285Y-75652380D01*
X188920476Y-75652380D01*
X189349047Y-76652380D02*
X189349047Y-75652380D01*
X189587142Y-75652380D01*
X189730000Y-75700000D01*
X189825238Y-75795238D01*
X189872857Y-75890476D01*
X189920476Y-76080952D01*
X189920476Y-76223809D01*
X189872857Y-76414285D01*
X189825238Y-76509523D01*
X189730000Y-76604761D01*
X189587142Y-76652380D01*
X189349047Y-76652380D01*
X190872857Y-76652380D02*
X190301428Y-76652380D01*
X190587142Y-76652380D02*
X190587142Y-75652380D01*
X190491904Y-75795238D01*
X190396666Y-75890476D01*
X190301428Y-75938095D01*
D11*
X159440809Y-120680071D02*
X159417000Y-120703880D01*
X159345571Y-120727690D01*
X159297952Y-120727690D01*
X159226523Y-120703880D01*
X159178904Y-120656261D01*
X159155095Y-120608642D01*
X159131285Y-120513404D01*
X159131285Y-120441976D01*
X159155095Y-120346738D01*
X159178904Y-120299119D01*
X159226523Y-120251500D01*
X159297952Y-120227690D01*
X159345571Y-120227690D01*
X159417000Y-120251500D01*
X159440809Y-120275309D01*
X159726523Y-120727690D02*
X159678904Y-120703880D01*
X159655095Y-120680071D01*
X159631285Y-120632452D01*
X159631285Y-120489595D01*
X159655095Y-120441976D01*
X159678904Y-120418166D01*
X159726523Y-120394357D01*
X159797952Y-120394357D01*
X159845571Y-120418166D01*
X159869380Y-120441976D01*
X159893190Y-120489595D01*
X159893190Y-120632452D01*
X159869380Y-120680071D01*
X159845571Y-120703880D01*
X159797952Y-120727690D01*
X159726523Y-120727690D01*
X160107476Y-120394357D02*
X160107476Y-120894357D01*
X160107476Y-120418166D02*
X160155095Y-120394357D01*
X160250333Y-120394357D01*
X160297952Y-120418166D01*
X160321761Y-120441976D01*
X160345571Y-120489595D01*
X160345571Y-120632452D01*
X160321761Y-120680071D01*
X160297952Y-120703880D01*
X160250333Y-120727690D01*
X160155095Y-120727690D01*
X160107476Y-120703880D01*
X160512238Y-120394357D02*
X160631285Y-120727690D01*
X160750333Y-120394357D02*
X160631285Y-120727690D01*
X160583666Y-120846738D01*
X160559857Y-120870547D01*
X160512238Y-120894357D01*
X160940809Y-120727690D02*
X160940809Y-120394357D01*
X160940809Y-120489595D02*
X160964619Y-120441976D01*
X160988428Y-120418166D01*
X161036047Y-120394357D01*
X161083666Y-120394357D01*
X161250333Y-120727690D02*
X161250333Y-120394357D01*
X161250333Y-120227690D02*
X161226523Y-120251500D01*
X161250333Y-120275309D01*
X161274142Y-120251500D01*
X161250333Y-120227690D01*
X161250333Y-120275309D01*
X161702714Y-120394357D02*
X161702714Y-120799119D01*
X161678904Y-120846738D01*
X161655095Y-120870547D01*
X161607476Y-120894357D01*
X161536047Y-120894357D01*
X161488428Y-120870547D01*
X161702714Y-120703880D02*
X161655095Y-120727690D01*
X161559857Y-120727690D01*
X161512238Y-120703880D01*
X161488428Y-120680071D01*
X161464619Y-120632452D01*
X161464619Y-120489595D01*
X161488428Y-120441976D01*
X161512238Y-120418166D01*
X161559857Y-120394357D01*
X161655095Y-120394357D01*
X161702714Y-120418166D01*
X161940809Y-120727690D02*
X161940809Y-120227690D01*
X162155095Y-120727690D02*
X162155095Y-120465785D01*
X162131285Y-120418166D01*
X162083666Y-120394357D01*
X162012238Y-120394357D01*
X161964619Y-120418166D01*
X161940809Y-120441976D01*
X162321761Y-120394357D02*
X162512238Y-120394357D01*
X162393190Y-120227690D02*
X162393190Y-120656261D01*
X162417000Y-120703880D01*
X162464619Y-120727690D01*
X162512238Y-120727690D01*
X163464619Y-120346738D02*
X163417000Y-120322928D01*
X163321761Y-120322928D01*
X163274142Y-120346738D01*
X163226523Y-120394357D01*
X163202714Y-120441976D01*
X163202714Y-120537214D01*
X163226523Y-120584833D01*
X163274142Y-120632452D01*
X163321761Y-120656261D01*
X163417000Y-120656261D01*
X163464619Y-120632452D01*
X163369380Y-120156261D02*
X163250333Y-120180071D01*
X163131285Y-120251500D01*
X163059857Y-120370547D01*
X163036047Y-120489595D01*
X163059857Y-120608642D01*
X163131285Y-120727690D01*
X163250333Y-120799119D01*
X163369380Y-120822928D01*
X163488428Y-120799119D01*
X163607476Y-120727690D01*
X163678904Y-120608642D01*
X163702714Y-120489595D01*
X163678904Y-120370547D01*
X163607476Y-120251500D01*
X163488428Y-120180071D01*
X163369380Y-120156261D01*
X157678904Y-121532690D02*
X157678904Y-121032690D01*
X157845571Y-121389833D01*
X158012238Y-121032690D01*
X158012238Y-121532690D01*
X158464619Y-121532690D02*
X158464619Y-121270785D01*
X158440809Y-121223166D01*
X158393190Y-121199357D01*
X158297952Y-121199357D01*
X158250333Y-121223166D01*
X158464619Y-121508880D02*
X158417000Y-121532690D01*
X158297952Y-121532690D01*
X158250333Y-121508880D01*
X158226523Y-121461261D01*
X158226523Y-121413642D01*
X158250333Y-121366023D01*
X158297952Y-121342214D01*
X158417000Y-121342214D01*
X158464619Y-121318404D01*
X158631285Y-121199357D02*
X158821761Y-121199357D01*
X158702714Y-121032690D02*
X158702714Y-121461261D01*
X158726523Y-121508880D01*
X158774142Y-121532690D01*
X158821761Y-121532690D01*
X159178904Y-121508880D02*
X159131285Y-121532690D01*
X159036047Y-121532690D01*
X158988428Y-121508880D01*
X158964619Y-121461261D01*
X158964619Y-121270785D01*
X158988428Y-121223166D01*
X159036047Y-121199357D01*
X159131285Y-121199357D01*
X159178904Y-121223166D01*
X159202714Y-121270785D01*
X159202714Y-121318404D01*
X158964619Y-121366023D01*
X159631285Y-121199357D02*
X159631285Y-121532690D01*
X159417000Y-121199357D02*
X159417000Y-121461261D01*
X159440809Y-121508880D01*
X159488428Y-121532690D01*
X159559857Y-121532690D01*
X159607476Y-121508880D01*
X159631285Y-121485071D01*
X159845571Y-121508880D02*
X159893190Y-121532690D01*
X159988428Y-121532690D01*
X160036047Y-121508880D01*
X160059857Y-121461261D01*
X160059857Y-121437452D01*
X160036047Y-121389833D01*
X159988428Y-121366023D01*
X159917000Y-121366023D01*
X159869380Y-121342214D01*
X159845571Y-121294595D01*
X159845571Y-121270785D01*
X159869380Y-121223166D01*
X159917000Y-121199357D01*
X159988428Y-121199357D01*
X160036047Y-121223166D01*
X160226523Y-121199357D02*
X160488428Y-121199357D01*
X160226523Y-121532690D01*
X160488428Y-121532690D01*
X161059857Y-121532690D02*
X161059857Y-121032690D01*
X161250333Y-121032690D01*
X161297952Y-121056500D01*
X161321761Y-121080309D01*
X161345571Y-121127928D01*
X161345571Y-121199357D01*
X161321761Y-121246976D01*
X161297952Y-121270785D01*
X161250333Y-121294595D01*
X161059857Y-121294595D01*
X161774142Y-121532690D02*
X161774142Y-121270785D01*
X161750333Y-121223166D01*
X161702714Y-121199357D01*
X161607476Y-121199357D01*
X161559857Y-121223166D01*
X161774142Y-121508880D02*
X161726523Y-121532690D01*
X161607476Y-121532690D01*
X161559857Y-121508880D01*
X161536047Y-121461261D01*
X161536047Y-121413642D01*
X161559857Y-121366023D01*
X161607476Y-121342214D01*
X161726523Y-121342214D01*
X161774142Y-121318404D01*
X162012238Y-121199357D02*
X162012238Y-121627928D01*
X161988428Y-121675547D01*
X161940809Y-121699357D01*
X161917000Y-121699357D01*
X162012238Y-121032690D02*
X161988428Y-121056500D01*
X162012238Y-121080309D01*
X162036047Y-121056500D01*
X162012238Y-121032690D01*
X162012238Y-121080309D01*
X162464619Y-121532690D02*
X162464619Y-121270785D01*
X162440809Y-121223166D01*
X162393190Y-121199357D01*
X162297952Y-121199357D01*
X162250333Y-121223166D01*
X162464619Y-121508880D02*
X162417000Y-121532690D01*
X162297952Y-121532690D01*
X162250333Y-121508880D01*
X162226523Y-121461261D01*
X162226523Y-121413642D01*
X162250333Y-121366023D01*
X162297952Y-121342214D01*
X162417000Y-121342214D01*
X162464619Y-121318404D01*
X162464619Y-121532690D02*
X162417000Y-121580309D01*
X162393190Y-121627928D01*
X162417000Y-121675547D01*
X162464619Y-121699357D01*
X162512238Y-121699357D01*
X162702714Y-121532690D02*
X162702714Y-121032690D01*
X162750333Y-121342214D02*
X162893190Y-121532690D01*
X162893190Y-121199357D02*
X162702714Y-121389833D01*
X163464619Y-121080309D02*
X163488428Y-121056500D01*
X163536047Y-121032690D01*
X163655095Y-121032690D01*
X163702714Y-121056500D01*
X163726523Y-121080309D01*
X163750333Y-121127928D01*
X163750333Y-121175547D01*
X163726523Y-121246976D01*
X163440809Y-121532690D01*
X163750333Y-121532690D01*
X164059857Y-121032690D02*
X164107476Y-121032690D01*
X164155095Y-121056500D01*
X164178904Y-121080309D01*
X164202714Y-121127928D01*
X164226523Y-121223166D01*
X164226523Y-121342214D01*
X164202714Y-121437452D01*
X164178904Y-121485071D01*
X164155095Y-121508880D01*
X164107476Y-121532690D01*
X164059857Y-121532690D01*
X164012238Y-121508880D01*
X163988428Y-121485071D01*
X163964619Y-121437452D01*
X163940809Y-121342214D01*
X163940809Y-121223166D01*
X163964619Y-121127928D01*
X163988428Y-121080309D01*
X164012238Y-121056500D01*
X164059857Y-121032690D01*
X164417000Y-121080309D02*
X164440809Y-121056500D01*
X164488428Y-121032690D01*
X164607476Y-121032690D01*
X164655095Y-121056500D01*
X164678904Y-121080309D01*
X164702714Y-121127928D01*
X164702714Y-121175547D01*
X164678904Y-121246976D01*
X164393190Y-121532690D01*
X164702714Y-121532690D01*
X164893190Y-121080309D02*
X164917000Y-121056500D01*
X164964619Y-121032690D01*
X165083666Y-121032690D01*
X165131285Y-121056500D01*
X165155095Y-121080309D01*
X165178904Y-121127928D01*
X165178904Y-121175547D01*
X165155095Y-121246976D01*
X164869380Y-121532690D01*
X165178904Y-121532690D01*
D10*
X143692857Y-96972380D02*
X143216666Y-96972380D01*
X143216666Y-95972380D01*
X143883333Y-95972380D02*
X144216666Y-96972380D01*
X144550000Y-95972380D01*
X145359523Y-96972380D02*
X144883333Y-96972380D01*
X144883333Y-95972380D01*
X146407142Y-96924761D02*
X146550000Y-96972380D01*
X146788095Y-96972380D01*
X146883333Y-96924761D01*
X146930952Y-96877142D01*
X146978571Y-96781904D01*
X146978571Y-96686666D01*
X146930952Y-96591428D01*
X146883333Y-96543809D01*
X146788095Y-96496190D01*
X146597619Y-96448571D01*
X146502380Y-96400952D01*
X146454761Y-96353333D01*
X146407142Y-96258095D01*
X146407142Y-96162857D01*
X146454761Y-96067619D01*
X146502380Y-96020000D01*
X146597619Y-95972380D01*
X146835714Y-95972380D01*
X146978571Y-96020000D01*
X147407142Y-96448571D02*
X147740476Y-96448571D01*
X147883333Y-96972380D02*
X147407142Y-96972380D01*
X147407142Y-95972380D01*
X147883333Y-95972380D01*
X148311904Y-96972380D02*
X148311904Y-95972380D01*
X148883333Y-96972380D01*
X148883333Y-95972380D01*
X177673095Y-75700000D02*
X177577857Y-75652380D01*
X177435000Y-75652380D01*
X177292142Y-75700000D01*
X177196904Y-75795238D01*
X177149285Y-75890476D01*
X177101666Y-76080952D01*
X177101666Y-76223809D01*
X177149285Y-76414285D01*
X177196904Y-76509523D01*
X177292142Y-76604761D01*
X177435000Y-76652380D01*
X177530238Y-76652380D01*
X177673095Y-76604761D01*
X177720714Y-76557142D01*
X177720714Y-76223809D01*
X177530238Y-76223809D01*
X178149285Y-76652380D02*
X178149285Y-75652380D01*
X178720714Y-76652380D01*
X178720714Y-75652380D01*
X179196904Y-76652380D02*
X179196904Y-75652380D01*
X179435000Y-75652380D01*
X179577857Y-75700000D01*
X179673095Y-75795238D01*
X179720714Y-75890476D01*
X179768333Y-76080952D01*
X179768333Y-76223809D01*
X179720714Y-76414285D01*
X179673095Y-76509523D01*
X179577857Y-76604761D01*
X179435000Y-76652380D01*
X179196904Y-76652380D01*
X203668380Y-85906333D02*
X203668380Y-85334904D01*
X204668380Y-85620619D02*
X203668380Y-85620619D01*
X204668380Y-85001571D02*
X203668380Y-85001571D01*
X204668380Y-84573000D02*
X204144571Y-84573000D01*
X204049333Y-84620619D01*
X204001714Y-84715857D01*
X204001714Y-84858714D01*
X204049333Y-84953952D01*
X204096952Y-85001571D01*
X204668380Y-84096809D02*
X204001714Y-84096809D01*
X203668380Y-84096809D02*
X203716000Y-84144428D01*
X203763619Y-84096809D01*
X203716000Y-84049190D01*
X203668380Y-84096809D01*
X203763619Y-84096809D01*
X204001714Y-83620619D02*
X204668380Y-83620619D01*
X204096952Y-83620619D02*
X204049333Y-83573000D01*
X204001714Y-83477761D01*
X204001714Y-83334904D01*
X204049333Y-83239666D01*
X204144571Y-83192047D01*
X204668380Y-83192047D01*
X204001714Y-82287285D02*
X204811238Y-82287285D01*
X204906476Y-82334904D01*
X204954095Y-82382523D01*
X205001714Y-82477761D01*
X205001714Y-82620619D01*
X204954095Y-82715857D01*
X204620761Y-82287285D02*
X204668380Y-82382523D01*
X204668380Y-82573000D01*
X204620761Y-82668238D01*
X204573142Y-82715857D01*
X204477904Y-82763476D01*
X204192190Y-82763476D01*
X204096952Y-82715857D01*
X204049333Y-82668238D01*
X204001714Y-82573000D01*
X204001714Y-82382523D01*
X204049333Y-82287285D01*
X204001714Y-81906333D02*
X204668380Y-81668238D01*
X204001714Y-81430142D02*
X204668380Y-81668238D01*
X204906476Y-81763476D01*
X204954095Y-81811095D01*
X205001714Y-81906333D01*
X204573142Y-81049190D02*
X204620761Y-81001571D01*
X204668380Y-81049190D01*
X204620761Y-81096809D01*
X204573142Y-81049190D01*
X204668380Y-81049190D01*
X204049333Y-81049190D02*
X204096952Y-81001571D01*
X204144571Y-81049190D01*
X204096952Y-81096809D01*
X204049333Y-81049190D01*
X204144571Y-81049190D01*
X203668380Y-80096809D02*
X203668380Y-80573000D01*
X204144571Y-80620619D01*
X204096952Y-80573000D01*
X204049333Y-80477761D01*
X204049333Y-80239666D01*
X204096952Y-80144428D01*
X204144571Y-80096809D01*
X204239809Y-80049190D01*
X204477904Y-80049190D01*
X204573142Y-80096809D01*
X204620761Y-80144428D01*
X204668380Y-80239666D01*
X204668380Y-80477761D01*
X204620761Y-80573000D01*
X204573142Y-80620619D01*
X203668380Y-79715857D02*
X203668380Y-79096809D01*
X204049333Y-79430142D01*
X204049333Y-79287285D01*
X204096952Y-79192047D01*
X204144571Y-79144428D01*
X204239809Y-79096809D01*
X204477904Y-79096809D01*
X204573142Y-79144428D01*
X204620761Y-79192047D01*
X204668380Y-79287285D01*
X204668380Y-79573000D01*
X204620761Y-79668238D01*
X204573142Y-79715857D01*
X204668380Y-77477761D02*
X204144571Y-77477761D01*
X204049333Y-77525380D01*
X204001714Y-77620619D01*
X204001714Y-77811095D01*
X204049333Y-77906333D01*
X204620761Y-77477761D02*
X204668380Y-77573000D01*
X204668380Y-77811095D01*
X204620761Y-77906333D01*
X204525523Y-77953952D01*
X204430285Y-77953952D01*
X204335047Y-77906333D01*
X204287428Y-77811095D01*
X204287428Y-77573000D01*
X204239809Y-77477761D01*
X204620761Y-76573000D02*
X204668380Y-76668238D01*
X204668380Y-76858714D01*
X204620761Y-76953952D01*
X204573142Y-77001571D01*
X204477904Y-77049190D01*
X204192190Y-77049190D01*
X204096952Y-77001571D01*
X204049333Y-76953952D01*
X204001714Y-76858714D01*
X204001714Y-76668238D01*
X204049333Y-76573000D01*
X204001714Y-76287285D02*
X204001714Y-75906333D01*
X203668380Y-76144428D02*
X204525523Y-76144428D01*
X204620761Y-76096809D01*
X204668380Y-76001571D01*
X204668380Y-75906333D01*
X204001714Y-75144428D02*
X204668380Y-75144428D01*
X204001714Y-75573000D02*
X204525523Y-75573000D01*
X204620761Y-75525380D01*
X204668380Y-75430142D01*
X204668380Y-75287285D01*
X204620761Y-75192047D01*
X204573142Y-75144428D01*
X204668380Y-74239666D02*
X204144571Y-74239666D01*
X204049333Y-74287285D01*
X204001714Y-74382523D01*
X204001714Y-74573000D01*
X204049333Y-74668238D01*
X204620761Y-74239666D02*
X204668380Y-74334904D01*
X204668380Y-74573000D01*
X204620761Y-74668238D01*
X204525523Y-74715857D01*
X204430285Y-74715857D01*
X204335047Y-74668238D01*
X204287428Y-74573000D01*
X204287428Y-74334904D01*
X204239809Y-74239666D01*
X204001714Y-73906333D02*
X204001714Y-73525380D01*
X203668380Y-73763476D02*
X204525523Y-73763476D01*
X204620761Y-73715857D01*
X204668380Y-73620619D01*
X204668380Y-73525380D01*
X204668380Y-73192047D02*
X204001714Y-73192047D01*
X203668380Y-73192047D02*
X203716000Y-73239666D01*
X203763619Y-73192047D01*
X203716000Y-73144428D01*
X203668380Y-73192047D01*
X203763619Y-73192047D01*
X204668380Y-72573000D02*
X204620761Y-72668238D01*
X204573142Y-72715857D01*
X204477904Y-72763476D01*
X204192190Y-72763476D01*
X204096952Y-72715857D01*
X204049333Y-72668238D01*
X204001714Y-72573000D01*
X204001714Y-72430142D01*
X204049333Y-72334904D01*
X204096952Y-72287285D01*
X204192190Y-72239666D01*
X204477904Y-72239666D01*
X204573142Y-72287285D01*
X204620761Y-72334904D01*
X204668380Y-72430142D01*
X204668380Y-72573000D01*
X204001714Y-71811095D02*
X204668380Y-71811095D01*
X204096952Y-71811095D02*
X204049333Y-71763476D01*
X204001714Y-71668238D01*
X204001714Y-71525380D01*
X204049333Y-71430142D01*
X204144571Y-71382523D01*
X204668380Y-71382523D01*
X204668380Y-70144428D02*
X203668380Y-70144428D01*
X204049333Y-70144428D02*
X204001714Y-70049190D01*
X204001714Y-69858714D01*
X204049333Y-69763476D01*
X204096952Y-69715857D01*
X204192190Y-69668238D01*
X204477904Y-69668238D01*
X204573142Y-69715857D01*
X204620761Y-69763476D01*
X204668380Y-69858714D01*
X204668380Y-70049190D01*
X204620761Y-70144428D01*
X204668380Y-69096809D02*
X204620761Y-69192047D01*
X204573142Y-69239666D01*
X204477904Y-69287285D01*
X204192190Y-69287285D01*
X204096952Y-69239666D01*
X204049333Y-69192047D01*
X204001714Y-69096809D01*
X204001714Y-68953952D01*
X204049333Y-68858714D01*
X204096952Y-68811095D01*
X204192190Y-68763476D01*
X204477904Y-68763476D01*
X204573142Y-68811095D01*
X204620761Y-68858714D01*
X204668380Y-68953952D01*
X204668380Y-69096809D01*
X204668380Y-67906333D02*
X204144571Y-67906333D01*
X204049333Y-67953952D01*
X204001714Y-68049190D01*
X204001714Y-68239666D01*
X204049333Y-68334904D01*
X204620761Y-67906333D02*
X204668380Y-68001571D01*
X204668380Y-68239666D01*
X204620761Y-68334904D01*
X204525523Y-68382523D01*
X204430285Y-68382523D01*
X204335047Y-68334904D01*
X204287428Y-68239666D01*
X204287428Y-68001571D01*
X204239809Y-67906333D01*
X204668380Y-67430142D02*
X204001714Y-67430142D01*
X204192190Y-67430142D02*
X204096952Y-67382523D01*
X204049333Y-67334904D01*
X204001714Y-67239666D01*
X204001714Y-67144428D01*
X204668380Y-66382523D02*
X203668380Y-66382523D01*
X204620761Y-66382523D02*
X204668380Y-66477761D01*
X204668380Y-66668238D01*
X204620761Y-66763476D01*
X204573142Y-66811095D01*
X204477904Y-66858714D01*
X204192190Y-66858714D01*
X204096952Y-66811095D01*
X204049333Y-66763476D01*
X204001714Y-66668238D01*
X204001714Y-66477761D01*
X204049333Y-66382523D01*
X122055238Y-77192142D02*
X122007619Y-77239761D01*
X121864761Y-77287380D01*
X121769523Y-77287380D01*
X121626666Y-77239761D01*
X121531428Y-77144523D01*
X121483809Y-77049285D01*
X121436190Y-76858809D01*
X121436190Y-76715952D01*
X121483809Y-76525476D01*
X121531428Y-76430238D01*
X121626666Y-76335000D01*
X121769523Y-76287380D01*
X121864761Y-76287380D01*
X122007619Y-76335000D01*
X122055238Y-76382619D01*
X122960000Y-77287380D02*
X122483809Y-77287380D01*
X122483809Y-76287380D01*
X123245714Y-77239761D02*
X123388571Y-77287380D01*
X123626666Y-77287380D01*
X123721904Y-77239761D01*
X123769523Y-77192142D01*
X123817142Y-77096904D01*
X123817142Y-77001666D01*
X123769523Y-76906428D01*
X123721904Y-76858809D01*
X123626666Y-76811190D01*
X123436190Y-76763571D01*
X123340952Y-76715952D01*
X123293333Y-76668333D01*
X123245714Y-76573095D01*
X123245714Y-76477857D01*
X123293333Y-76382619D01*
X123340952Y-76335000D01*
X123436190Y-76287380D01*
X123674285Y-76287380D01*
X123817142Y-76335000D01*
X124960000Y-77239761D02*
X125102857Y-77287380D01*
X125340952Y-77287380D01*
X125436190Y-77239761D01*
X125483809Y-77192142D01*
X125531428Y-77096904D01*
X125531428Y-77001666D01*
X125483809Y-76906428D01*
X125436190Y-76858809D01*
X125340952Y-76811190D01*
X125150476Y-76763571D01*
X125055238Y-76715952D01*
X125007619Y-76668333D01*
X124960000Y-76573095D01*
X124960000Y-76477857D01*
X125007619Y-76382619D01*
X125055238Y-76335000D01*
X125150476Y-76287380D01*
X125388571Y-76287380D01*
X125531428Y-76335000D01*
X125960000Y-76763571D02*
X126293333Y-76763571D01*
X126436190Y-77287380D02*
X125960000Y-77287380D01*
X125960000Y-76287380D01*
X126436190Y-76287380D01*
X126864761Y-77287380D02*
X126864761Y-76287380D01*
X127436190Y-77287380D01*
X127436190Y-76287380D01*
X135628333Y-87542619D02*
X135533095Y-87495000D01*
X135437857Y-87399761D01*
X135295000Y-87256904D01*
X135199761Y-87209285D01*
X135104523Y-87209285D01*
X135152142Y-87447380D02*
X135056904Y-87399761D01*
X134961666Y-87304523D01*
X134914047Y-87114047D01*
X134914047Y-86780714D01*
X134961666Y-86590238D01*
X135056904Y-86495000D01*
X135152142Y-86447380D01*
X135342619Y-86447380D01*
X135437857Y-86495000D01*
X135533095Y-86590238D01*
X135580714Y-86780714D01*
X135580714Y-87114047D01*
X135533095Y-87304523D01*
X135437857Y-87399761D01*
X135342619Y-87447380D01*
X135152142Y-87447380D01*
X135866428Y-86447380D02*
X136437857Y-86447380D01*
X136152142Y-87447380D02*
X136152142Y-86447380D01*
X136961666Y-86971190D02*
X136961666Y-87447380D01*
X136628333Y-86447380D02*
X136961666Y-86971190D01*
X137295000Y-86447380D01*
X138866428Y-87447380D02*
X138390238Y-87447380D01*
X138390238Y-86447380D01*
X139199761Y-86923571D02*
X139533095Y-86923571D01*
X139675952Y-87447380D02*
X139199761Y-87447380D01*
X139199761Y-86447380D01*
X139675952Y-86447380D01*
X140104523Y-87447380D02*
X140104523Y-86447380D01*
X140342619Y-86447380D01*
X140485476Y-86495000D01*
X140580714Y-86590238D01*
X140628333Y-86685476D01*
X140675952Y-86875952D01*
X140675952Y-87018809D01*
X140628333Y-87209285D01*
X140580714Y-87304523D01*
X140485476Y-87399761D01*
X140342619Y-87447380D01*
X140104523Y-87447380D01*
X187777619Y-66397142D02*
X187730000Y-66444761D01*
X187587142Y-66492380D01*
X187491904Y-66492380D01*
X187349047Y-66444761D01*
X187253809Y-66349523D01*
X187206190Y-66254285D01*
X187158571Y-66063809D01*
X187158571Y-65920952D01*
X187206190Y-65730476D01*
X187253809Y-65635238D01*
X187349047Y-65540000D01*
X187491904Y-65492380D01*
X187587142Y-65492380D01*
X187730000Y-65540000D01*
X187777619Y-65587619D01*
X188063333Y-65492380D02*
X188634761Y-65492380D01*
X188349047Y-66492380D02*
X188349047Y-65492380D01*
X189539523Y-66492380D02*
X189206190Y-66016190D01*
X188968095Y-66492380D02*
X188968095Y-65492380D01*
X189349047Y-65492380D01*
X189444285Y-65540000D01*
X189491904Y-65587619D01*
X189539523Y-65682857D01*
X189539523Y-65825714D01*
X189491904Y-65920952D01*
X189444285Y-65968571D01*
X189349047Y-66016190D01*
X188968095Y-66016190D01*
X190444285Y-66492380D02*
X189968095Y-66492380D01*
X189968095Y-65492380D01*
X191301428Y-66492380D02*
X190730000Y-66492380D01*
X191015714Y-66492380D02*
X191015714Y-65492380D01*
X190920476Y-65635238D01*
X190825238Y-65730476D01*
X190730000Y-65778095D01*
X136533095Y-105497380D02*
X137104523Y-105497380D01*
X136818809Y-106497380D02*
X136818809Y-105497380D01*
X137437857Y-106497380D02*
X137437857Y-105497380D01*
X137675952Y-105497380D01*
X137818809Y-105545000D01*
X137914047Y-105640238D01*
X137961666Y-105735476D01*
X138009285Y-105925952D01*
X138009285Y-106068809D01*
X137961666Y-106259285D01*
X137914047Y-106354523D01*
X137818809Y-106449761D01*
X137675952Y-106497380D01*
X137437857Y-106497380D01*
X138390238Y-106449761D02*
X138533095Y-106497380D01*
X138771190Y-106497380D01*
X138866428Y-106449761D01*
X138914047Y-106402142D01*
X138961666Y-106306904D01*
X138961666Y-106211666D01*
X138914047Y-106116428D01*
X138866428Y-106068809D01*
X138771190Y-106021190D01*
X138580714Y-105973571D01*
X138485476Y-105925952D01*
X138437857Y-105878333D01*
X138390238Y-105783095D01*
X138390238Y-105687857D01*
X138437857Y-105592619D01*
X138485476Y-105545000D01*
X138580714Y-105497380D01*
X138818809Y-105497380D01*
X138961666Y-105545000D01*
X127738571Y-87447380D02*
X127738571Y-86447380D01*
X128119523Y-86447380D01*
X128214761Y-86495000D01*
X128262380Y-86542619D01*
X128310000Y-86637857D01*
X128310000Y-86780714D01*
X128262380Y-86875952D01*
X128214761Y-86923571D01*
X128119523Y-86971190D01*
X127738571Y-86971190D01*
X128738571Y-87447380D02*
X128738571Y-86447380D01*
X129071904Y-87161666D01*
X129405238Y-86447380D01*
X129405238Y-87447380D01*
X129881428Y-87447380D02*
X129881428Y-86447380D01*
X130262380Y-86447380D01*
X130357619Y-86495000D01*
X130405238Y-86542619D01*
X130452857Y-86637857D01*
X130452857Y-86780714D01*
X130405238Y-86875952D01*
X130357619Y-86923571D01*
X130262380Y-86971190D01*
X129881428Y-86971190D01*
X132119523Y-87447380D02*
X131643333Y-87447380D01*
X131643333Y-86447380D01*
X132452857Y-86923571D02*
X132786190Y-86923571D01*
X132929047Y-87447380D02*
X132452857Y-87447380D01*
X132452857Y-86447380D01*
X132929047Y-86447380D01*
X133357619Y-87447380D02*
X133357619Y-86447380D01*
X133595714Y-86447380D01*
X133738571Y-86495000D01*
X133833809Y-86590238D01*
X133881428Y-86685476D01*
X133929047Y-86875952D01*
X133929047Y-87018809D01*
X133881428Y-87209285D01*
X133833809Y-87304523D01*
X133738571Y-87399761D01*
X133595714Y-87447380D01*
X133357619Y-87447380D01*
X127738571Y-67762380D02*
X127738571Y-66762380D01*
X128119523Y-66762380D01*
X128214761Y-66810000D01*
X128262380Y-66857619D01*
X128310000Y-66952857D01*
X128310000Y-67095714D01*
X128262380Y-67190952D01*
X128214761Y-67238571D01*
X128119523Y-67286190D01*
X127738571Y-67286190D01*
X128738571Y-67762380D02*
X128738571Y-66762380D01*
X129071904Y-67476666D01*
X129405238Y-66762380D01*
X129405238Y-67762380D01*
X129881428Y-67762380D02*
X129881428Y-66762380D01*
X130262380Y-66762380D01*
X130357619Y-66810000D01*
X130405238Y-66857619D01*
X130452857Y-66952857D01*
X130452857Y-67095714D01*
X130405238Y-67190952D01*
X130357619Y-67238571D01*
X130262380Y-67286190D01*
X129881428Y-67286190D01*
X132119523Y-67762380D02*
X131643333Y-67762380D01*
X131643333Y-66762380D01*
X132452857Y-67238571D02*
X132786190Y-67238571D01*
X132929047Y-67762380D02*
X132452857Y-67762380D01*
X132452857Y-66762380D01*
X132929047Y-66762380D01*
X133357619Y-67762380D02*
X133357619Y-66762380D01*
X133595714Y-66762380D01*
X133738571Y-66810000D01*
X133833809Y-66905238D01*
X133881428Y-67000476D01*
X133929047Y-67190952D01*
X133929047Y-67333809D01*
X133881428Y-67524285D01*
X133833809Y-67619523D01*
X133738571Y-67714761D01*
X133595714Y-67762380D01*
X133357619Y-67762380D01*
X132747142Y-96972380D02*
X132747142Y-95972380D01*
X133128095Y-95972380D01*
X133223333Y-96020000D01*
X133270952Y-96067619D01*
X133318571Y-96162857D01*
X133318571Y-96305714D01*
X133270952Y-96400952D01*
X133223333Y-96448571D01*
X133128095Y-96496190D01*
X132747142Y-96496190D01*
X133747142Y-96972380D02*
X133747142Y-95972380D01*
X134080476Y-96686666D01*
X134413809Y-95972380D01*
X134413809Y-96972380D01*
X134890000Y-96972380D02*
X134890000Y-95972380D01*
X135270952Y-95972380D01*
X135366190Y-96020000D01*
X135413809Y-96067619D01*
X135461428Y-96162857D01*
X135461428Y-96305714D01*
X135413809Y-96400952D01*
X135366190Y-96448571D01*
X135270952Y-96496190D01*
X134890000Y-96496190D01*
X136651904Y-96972380D02*
X136651904Y-95972380D01*
X136890000Y-95972380D01*
X137032857Y-96020000D01*
X137128095Y-96115238D01*
X137175714Y-96210476D01*
X137223333Y-96400952D01*
X137223333Y-96543809D01*
X137175714Y-96734285D01*
X137128095Y-96829523D01*
X137032857Y-96924761D01*
X136890000Y-96972380D01*
X136651904Y-96972380D01*
X138223333Y-96972380D02*
X137890000Y-96496190D01*
X137651904Y-96972380D02*
X137651904Y-95972380D01*
X138032857Y-95972380D01*
X138128095Y-96020000D01*
X138175714Y-96067619D01*
X138223333Y-96162857D01*
X138223333Y-96305714D01*
X138175714Y-96400952D01*
X138128095Y-96448571D01*
X138032857Y-96496190D01*
X137651904Y-96496190D01*
X138509047Y-95972380D02*
X138842380Y-96972380D01*
X139175714Y-95972380D01*
X162695000Y-64753809D02*
X162647380Y-64849047D01*
X162647380Y-64991904D01*
X162695000Y-65134761D01*
X162790238Y-65230000D01*
X162885476Y-65277619D01*
X163075952Y-65325238D01*
X163218809Y-65325238D01*
X163409285Y-65277619D01*
X163504523Y-65230000D01*
X163599761Y-65134761D01*
X163647380Y-64991904D01*
X163647380Y-64896666D01*
X163599761Y-64753809D01*
X163552142Y-64706190D01*
X163218809Y-64706190D01*
X163218809Y-64896666D01*
X163647380Y-64277619D02*
X162647380Y-64277619D01*
X163647380Y-63706190D01*
X162647380Y-63706190D01*
X163647380Y-63230000D02*
X162647380Y-63230000D01*
X162647380Y-62991904D01*
X162695000Y-62849047D01*
X162790238Y-62753809D01*
X162885476Y-62706190D01*
X163075952Y-62658571D01*
X163218809Y-62658571D01*
X163409285Y-62706190D01*
X163504523Y-62753809D01*
X163599761Y-62849047D01*
X163647380Y-62991904D01*
X163647380Y-63230000D01*
X163647380Y-60944285D02*
X163647380Y-61515714D01*
X163647380Y-61230000D02*
X162647380Y-61230000D01*
X162790238Y-61325238D01*
X162885476Y-61420476D01*
X162933095Y-61515714D01*
X162742619Y-60563333D02*
X162695000Y-60515714D01*
X162647380Y-60420476D01*
X162647380Y-60182380D01*
X162695000Y-60087142D01*
X162742619Y-60039523D01*
X162837857Y-59991904D01*
X162933095Y-59991904D01*
X163075952Y-60039523D01*
X163647380Y-60610952D01*
X163647380Y-59991904D01*
X162647380Y-59706190D02*
X163647380Y-59372857D01*
X162647380Y-59039523D01*
X144971047Y-119916380D02*
X144637714Y-119440190D01*
X144399619Y-119916380D02*
X144399619Y-118916380D01*
X144780571Y-118916380D01*
X144875809Y-118964000D01*
X144923428Y-119011619D01*
X144971047Y-119106857D01*
X144971047Y-119249714D01*
X144923428Y-119344952D01*
X144875809Y-119392571D01*
X144780571Y-119440190D01*
X144399619Y-119440190D01*
X145828190Y-119916380D02*
X145828190Y-119392571D01*
X145780571Y-119297333D01*
X145685333Y-119249714D01*
X145494857Y-119249714D01*
X145399619Y-119297333D01*
X145828190Y-119868761D02*
X145732952Y-119916380D01*
X145494857Y-119916380D01*
X145399619Y-119868761D01*
X145352000Y-119773523D01*
X145352000Y-119678285D01*
X145399619Y-119583047D01*
X145494857Y-119535428D01*
X145732952Y-119535428D01*
X145828190Y-119487809D01*
X146256761Y-119868761D02*
X146352000Y-119916380D01*
X146542476Y-119916380D01*
X146637714Y-119868761D01*
X146685333Y-119773523D01*
X146685333Y-119725904D01*
X146637714Y-119630666D01*
X146542476Y-119583047D01*
X146399619Y-119583047D01*
X146304380Y-119535428D01*
X146256761Y-119440190D01*
X146256761Y-119392571D01*
X146304380Y-119297333D01*
X146399619Y-119249714D01*
X146542476Y-119249714D01*
X146637714Y-119297333D01*
X147113904Y-119249714D02*
X147113904Y-120249714D01*
X147113904Y-119297333D02*
X147209142Y-119249714D01*
X147399619Y-119249714D01*
X147494857Y-119297333D01*
X147542476Y-119344952D01*
X147590095Y-119440190D01*
X147590095Y-119725904D01*
X147542476Y-119821142D01*
X147494857Y-119868761D01*
X147399619Y-119916380D01*
X147209142Y-119916380D01*
X147113904Y-119868761D01*
X148018666Y-119916380D02*
X148018666Y-118916380D01*
X148018666Y-119297333D02*
X148113904Y-119249714D01*
X148304380Y-119249714D01*
X148399619Y-119297333D01*
X148447238Y-119344952D01*
X148494857Y-119440190D01*
X148494857Y-119725904D01*
X148447238Y-119821142D01*
X148399619Y-119868761D01*
X148304380Y-119916380D01*
X148113904Y-119916380D01*
X148018666Y-119868761D01*
X149304380Y-119868761D02*
X149209142Y-119916380D01*
X149018666Y-119916380D01*
X148923428Y-119868761D01*
X148875809Y-119773523D01*
X148875809Y-119392571D01*
X148923428Y-119297333D01*
X149018666Y-119249714D01*
X149209142Y-119249714D01*
X149304380Y-119297333D01*
X149352000Y-119392571D01*
X149352000Y-119487809D01*
X148875809Y-119583047D01*
X149780571Y-119916380D02*
X149780571Y-119249714D01*
X149780571Y-119440190D02*
X149828190Y-119344952D01*
X149875809Y-119297333D01*
X149971047Y-119249714D01*
X150066285Y-119249714D01*
X150399619Y-119916380D02*
X150399619Y-119249714D01*
X150399619Y-119440190D02*
X150447238Y-119344952D01*
X150494857Y-119297333D01*
X150590095Y-119249714D01*
X150685333Y-119249714D01*
X150923428Y-119249714D02*
X151161523Y-119916380D01*
X151399619Y-119249714D02*
X151161523Y-119916380D01*
X151066285Y-120154476D01*
X151018666Y-120202095D01*
X150923428Y-120249714D01*
X152542476Y-119916380D02*
X152542476Y-118916380D01*
X152923428Y-118916380D01*
X153018666Y-118964000D01*
X153066285Y-119011619D01*
X153113904Y-119106857D01*
X153113904Y-119249714D01*
X153066285Y-119344952D01*
X153018666Y-119392571D01*
X152923428Y-119440190D01*
X152542476Y-119440190D01*
X153542476Y-119916380D02*
X153542476Y-119249714D01*
X153542476Y-118916380D02*
X153494857Y-118964000D01*
X153542476Y-119011619D01*
X153590095Y-118964000D01*
X153542476Y-118916380D01*
X153542476Y-119011619D01*
X141804380Y-120526380D02*
X142137714Y-121526380D01*
X142471047Y-120526380D01*
X143185333Y-121478761D02*
X143090095Y-121526380D01*
X142899619Y-121526380D01*
X142804380Y-121478761D01*
X142756761Y-121383523D01*
X142756761Y-121002571D01*
X142804380Y-120907333D01*
X142899619Y-120859714D01*
X143090095Y-120859714D01*
X143185333Y-120907333D01*
X143232952Y-121002571D01*
X143232952Y-121097809D01*
X142756761Y-121193047D01*
X143661523Y-121526380D02*
X143661523Y-120859714D01*
X143661523Y-121050190D02*
X143709142Y-120954952D01*
X143756761Y-120907333D01*
X143852000Y-120859714D01*
X143947238Y-120859714D01*
X144137714Y-120859714D02*
X144518666Y-120859714D01*
X144280571Y-120526380D02*
X144280571Y-121383523D01*
X144328190Y-121478761D01*
X144423428Y-121526380D01*
X144518666Y-121526380D01*
X144852000Y-121526380D02*
X144852000Y-120859714D01*
X144852000Y-120526380D02*
X144804380Y-120574000D01*
X144852000Y-120621619D01*
X144899619Y-120574000D01*
X144852000Y-120526380D01*
X144852000Y-120621619D01*
X145756761Y-121478761D02*
X145661523Y-121526380D01*
X145471047Y-121526380D01*
X145375809Y-121478761D01*
X145328190Y-121431142D01*
X145280571Y-121335904D01*
X145280571Y-121050190D01*
X145328190Y-120954952D01*
X145375809Y-120907333D01*
X145471047Y-120859714D01*
X145661523Y-120859714D01*
X145756761Y-120907333D01*
X146613904Y-121526380D02*
X146613904Y-121002571D01*
X146566285Y-120907333D01*
X146471047Y-120859714D01*
X146280571Y-120859714D01*
X146185333Y-120907333D01*
X146613904Y-121478761D02*
X146518666Y-121526380D01*
X146280571Y-121526380D01*
X146185333Y-121478761D01*
X146137714Y-121383523D01*
X146137714Y-121288285D01*
X146185333Y-121193047D01*
X146280571Y-121145428D01*
X146518666Y-121145428D01*
X146613904Y-121097809D01*
X147232952Y-121526380D02*
X147137714Y-121478761D01*
X147090095Y-121383523D01*
X147090095Y-120526380D01*
X148232952Y-120859714D02*
X148613904Y-120859714D01*
X148375809Y-121526380D02*
X148375809Y-120669238D01*
X148423428Y-120574000D01*
X148518666Y-120526380D01*
X148613904Y-120526380D01*
X149375809Y-121526380D02*
X149375809Y-121002571D01*
X149328190Y-120907333D01*
X149232952Y-120859714D01*
X149042476Y-120859714D01*
X148947238Y-120907333D01*
X149375809Y-121478761D02*
X149280571Y-121526380D01*
X149042476Y-121526380D01*
X148947238Y-121478761D01*
X148899619Y-121383523D01*
X148899619Y-121288285D01*
X148947238Y-121193047D01*
X149042476Y-121145428D01*
X149280571Y-121145428D01*
X149375809Y-121097809D01*
X149852000Y-121526380D02*
X149852000Y-120859714D01*
X149852000Y-121050190D02*
X149899619Y-120954952D01*
X149947238Y-120907333D01*
X150042476Y-120859714D01*
X150137714Y-120859714D01*
X150471047Y-121526380D02*
X150471047Y-120859714D01*
X150471047Y-120954952D02*
X150518666Y-120907333D01*
X150613904Y-120859714D01*
X150756761Y-120859714D01*
X150852000Y-120907333D01*
X150899619Y-121002571D01*
X150899619Y-121526380D01*
X150899619Y-121002571D02*
X150947238Y-120907333D01*
X151042476Y-120859714D01*
X151185333Y-120859714D01*
X151280571Y-120907333D01*
X151328190Y-121002571D01*
X151328190Y-121526380D01*
X151804380Y-121526380D02*
X151804380Y-120859714D01*
X151804380Y-120526380D02*
X151756761Y-120574000D01*
X151804380Y-120621619D01*
X151852000Y-120574000D01*
X151804380Y-120526380D01*
X151804380Y-120621619D01*
X152280571Y-120859714D02*
X152280571Y-121526380D01*
X152280571Y-120954952D02*
X152328190Y-120907333D01*
X152423428Y-120859714D01*
X152566285Y-120859714D01*
X152661523Y-120907333D01*
X152709142Y-121002571D01*
X152709142Y-121526380D01*
X153613904Y-120859714D02*
X153613904Y-121669238D01*
X153566285Y-121764476D01*
X153518666Y-121812095D01*
X153423428Y-121859714D01*
X153280571Y-121859714D01*
X153185333Y-121812095D01*
X153613904Y-121478761D02*
X153518666Y-121526380D01*
X153328190Y-121526380D01*
X153232952Y-121478761D01*
X153185333Y-121431142D01*
X153137714Y-121335904D01*
X153137714Y-121050190D01*
X153185333Y-120954952D01*
X153232952Y-120907333D01*
X153328190Y-120859714D01*
X153518666Y-120859714D01*
X153613904Y-120907333D01*
X154852000Y-121526380D02*
X154852000Y-120526380D01*
X155280571Y-121526380D02*
X155280571Y-121002571D01*
X155232952Y-120907333D01*
X155137714Y-120859714D01*
X154994857Y-120859714D01*
X154899619Y-120907333D01*
X154852000Y-120954952D01*
X156185333Y-121526380D02*
X156185333Y-121002571D01*
X156137714Y-120907333D01*
X156042476Y-120859714D01*
X155852000Y-120859714D01*
X155756761Y-120907333D01*
X156185333Y-121478761D02*
X156090095Y-121526380D01*
X155852000Y-121526380D01*
X155756761Y-121478761D01*
X155709142Y-121383523D01*
X155709142Y-121288285D01*
X155756761Y-121193047D01*
X155852000Y-121145428D01*
X156090095Y-121145428D01*
X156185333Y-121097809D01*
X156518666Y-120859714D02*
X156899619Y-120859714D01*
X156661523Y-120526380D02*
X156661523Y-121383523D01*
X156709142Y-121478761D01*
X156804380Y-121526380D01*
X156899619Y-121526380D01*
X155678333Y-96448571D02*
X156011666Y-96448571D01*
X156154523Y-96972380D02*
X155678333Y-96972380D01*
X155678333Y-95972380D01*
X156154523Y-95972380D01*
X156583095Y-96972380D02*
X156583095Y-95972380D01*
X157154523Y-96972380D01*
X157154523Y-95972380D01*
X157583095Y-96686666D02*
X158059285Y-96686666D01*
X157487857Y-96972380D02*
X157821190Y-95972380D01*
X158154523Y-96972380D01*
D11*
X140914190Y-37307928D02*
X140938000Y-37284119D01*
X141009428Y-37260309D01*
X141057047Y-37260309D01*
X141128476Y-37284119D01*
X141176095Y-37331738D01*
X141199904Y-37379357D01*
X141223714Y-37474595D01*
X141223714Y-37546023D01*
X141199904Y-37641261D01*
X141176095Y-37688880D01*
X141128476Y-37736500D01*
X141057047Y-37760309D01*
X141009428Y-37760309D01*
X140938000Y-37736500D01*
X140914190Y-37712690D01*
X140628476Y-37260309D02*
X140676095Y-37284119D01*
X140699904Y-37307928D01*
X140723714Y-37355547D01*
X140723714Y-37498404D01*
X140699904Y-37546023D01*
X140676095Y-37569833D01*
X140628476Y-37593642D01*
X140557047Y-37593642D01*
X140509428Y-37569833D01*
X140485619Y-37546023D01*
X140461809Y-37498404D01*
X140461809Y-37355547D01*
X140485619Y-37307928D01*
X140509428Y-37284119D01*
X140557047Y-37260309D01*
X140628476Y-37260309D01*
X140247523Y-37593642D02*
X140247523Y-37093642D01*
X140247523Y-37569833D02*
X140199904Y-37593642D01*
X140104666Y-37593642D01*
X140057047Y-37569833D01*
X140033238Y-37546023D01*
X140009428Y-37498404D01*
X140009428Y-37355547D01*
X140033238Y-37307928D01*
X140057047Y-37284119D01*
X140104666Y-37260309D01*
X140199904Y-37260309D01*
X140247523Y-37284119D01*
X139842761Y-37593642D02*
X139723714Y-37260309D01*
X139604666Y-37593642D02*
X139723714Y-37260309D01*
X139771333Y-37141261D01*
X139795142Y-37117452D01*
X139842761Y-37093642D01*
X139414190Y-37260309D02*
X139414190Y-37593642D01*
X139414190Y-37498404D02*
X139390380Y-37546023D01*
X139366571Y-37569833D01*
X139318952Y-37593642D01*
X139271333Y-37593642D01*
X139104666Y-37260309D02*
X139104666Y-37593642D01*
X139104666Y-37760309D02*
X139128476Y-37736500D01*
X139104666Y-37712690D01*
X139080857Y-37736500D01*
X139104666Y-37760309D01*
X139104666Y-37712690D01*
X138652285Y-37593642D02*
X138652285Y-37188880D01*
X138676095Y-37141261D01*
X138699904Y-37117452D01*
X138747523Y-37093642D01*
X138818952Y-37093642D01*
X138866571Y-37117452D01*
X138652285Y-37284119D02*
X138699904Y-37260309D01*
X138795142Y-37260309D01*
X138842761Y-37284119D01*
X138866571Y-37307928D01*
X138890380Y-37355547D01*
X138890380Y-37498404D01*
X138866571Y-37546023D01*
X138842761Y-37569833D01*
X138795142Y-37593642D01*
X138699904Y-37593642D01*
X138652285Y-37569833D01*
X138414190Y-37260309D02*
X138414190Y-37760309D01*
X138199904Y-37260309D02*
X138199904Y-37522214D01*
X138223714Y-37569833D01*
X138271333Y-37593642D01*
X138342761Y-37593642D01*
X138390380Y-37569833D01*
X138414190Y-37546023D01*
X138033238Y-37593642D02*
X137842761Y-37593642D01*
X137961809Y-37760309D02*
X137961809Y-37331738D01*
X137938000Y-37284119D01*
X137890380Y-37260309D01*
X137842761Y-37260309D01*
X136890380Y-37641261D02*
X136938000Y-37665071D01*
X137033238Y-37665071D01*
X137080857Y-37641261D01*
X137128476Y-37593642D01*
X137152285Y-37546023D01*
X137152285Y-37450785D01*
X137128476Y-37403166D01*
X137080857Y-37355547D01*
X137033238Y-37331738D01*
X136938000Y-37331738D01*
X136890380Y-37355547D01*
X136985619Y-37831738D02*
X137104666Y-37807928D01*
X137223714Y-37736500D01*
X137295142Y-37617452D01*
X137318952Y-37498404D01*
X137295142Y-37379357D01*
X137223714Y-37260309D01*
X137104666Y-37188880D01*
X136985619Y-37165071D01*
X136866571Y-37188880D01*
X136747523Y-37260309D01*
X136676095Y-37379357D01*
X136652285Y-37498404D01*
X136676095Y-37617452D01*
X136747523Y-37736500D01*
X136866571Y-37807928D01*
X136985619Y-37831738D01*
X142676095Y-36455309D02*
X142676095Y-36955309D01*
X142509428Y-36598166D01*
X142342761Y-36955309D01*
X142342761Y-36455309D01*
X141890380Y-36455309D02*
X141890380Y-36717214D01*
X141914190Y-36764833D01*
X141961809Y-36788642D01*
X142057047Y-36788642D01*
X142104666Y-36764833D01*
X141890380Y-36479119D02*
X141938000Y-36455309D01*
X142057047Y-36455309D01*
X142104666Y-36479119D01*
X142128476Y-36526738D01*
X142128476Y-36574357D01*
X142104666Y-36621976D01*
X142057047Y-36645785D01*
X141938000Y-36645785D01*
X141890380Y-36669595D01*
X141723714Y-36788642D02*
X141533238Y-36788642D01*
X141652285Y-36955309D02*
X141652285Y-36526738D01*
X141628476Y-36479119D01*
X141580857Y-36455309D01*
X141533238Y-36455309D01*
X141176095Y-36479119D02*
X141223714Y-36455309D01*
X141318952Y-36455309D01*
X141366571Y-36479119D01*
X141390380Y-36526738D01*
X141390380Y-36717214D01*
X141366571Y-36764833D01*
X141318952Y-36788642D01*
X141223714Y-36788642D01*
X141176095Y-36764833D01*
X141152285Y-36717214D01*
X141152285Y-36669595D01*
X141390380Y-36621976D01*
X140723714Y-36788642D02*
X140723714Y-36455309D01*
X140938000Y-36788642D02*
X140938000Y-36526738D01*
X140914190Y-36479119D01*
X140866571Y-36455309D01*
X140795142Y-36455309D01*
X140747523Y-36479119D01*
X140723714Y-36502928D01*
X140509428Y-36479119D02*
X140461809Y-36455309D01*
X140366571Y-36455309D01*
X140318952Y-36479119D01*
X140295142Y-36526738D01*
X140295142Y-36550547D01*
X140318952Y-36598166D01*
X140366571Y-36621976D01*
X140438000Y-36621976D01*
X140485619Y-36645785D01*
X140509428Y-36693404D01*
X140509428Y-36717214D01*
X140485619Y-36764833D01*
X140438000Y-36788642D01*
X140366571Y-36788642D01*
X140318952Y-36764833D01*
X140128476Y-36788642D02*
X139866571Y-36788642D01*
X140128476Y-36455309D01*
X139866571Y-36455309D01*
X139295142Y-36455309D02*
X139295142Y-36955309D01*
X139104666Y-36955309D01*
X139057047Y-36931500D01*
X139033238Y-36907690D01*
X139009428Y-36860071D01*
X139009428Y-36788642D01*
X139033238Y-36741023D01*
X139057047Y-36717214D01*
X139104666Y-36693404D01*
X139295142Y-36693404D01*
X138580857Y-36455309D02*
X138580857Y-36717214D01*
X138604666Y-36764833D01*
X138652285Y-36788642D01*
X138747523Y-36788642D01*
X138795142Y-36764833D01*
X138580857Y-36479119D02*
X138628476Y-36455309D01*
X138747523Y-36455309D01*
X138795142Y-36479119D01*
X138818952Y-36526738D01*
X138818952Y-36574357D01*
X138795142Y-36621976D01*
X138747523Y-36645785D01*
X138628476Y-36645785D01*
X138580857Y-36669595D01*
X138342761Y-36788642D02*
X138342761Y-36360071D01*
X138366571Y-36312452D01*
X138414190Y-36288642D01*
X138438000Y-36288642D01*
X138342761Y-36955309D02*
X138366571Y-36931500D01*
X138342761Y-36907690D01*
X138318952Y-36931500D01*
X138342761Y-36955309D01*
X138342761Y-36907690D01*
X137890380Y-36455309D02*
X137890380Y-36717214D01*
X137914190Y-36764833D01*
X137961809Y-36788642D01*
X138057047Y-36788642D01*
X138104666Y-36764833D01*
X137890380Y-36479119D02*
X137938000Y-36455309D01*
X138057047Y-36455309D01*
X138104666Y-36479119D01*
X138128476Y-36526738D01*
X138128476Y-36574357D01*
X138104666Y-36621976D01*
X138057047Y-36645785D01*
X137938000Y-36645785D01*
X137890380Y-36669595D01*
X137890380Y-36455309D02*
X137938000Y-36407690D01*
X137961809Y-36360071D01*
X137938000Y-36312452D01*
X137890380Y-36288642D01*
X137842761Y-36288642D01*
X137652285Y-36455309D02*
X137652285Y-36955309D01*
X137604666Y-36645785D02*
X137461809Y-36455309D01*
X137461809Y-36788642D02*
X137652285Y-36598166D01*
X136890380Y-36907690D02*
X136866571Y-36931500D01*
X136818952Y-36955309D01*
X136699904Y-36955309D01*
X136652285Y-36931500D01*
X136628476Y-36907690D01*
X136604666Y-36860071D01*
X136604666Y-36812452D01*
X136628476Y-36741023D01*
X136914190Y-36455309D01*
X136604666Y-36455309D01*
X136295142Y-36955309D02*
X136247523Y-36955309D01*
X136199904Y-36931500D01*
X136176095Y-36907690D01*
X136152285Y-36860071D01*
X136128476Y-36764833D01*
X136128476Y-36645785D01*
X136152285Y-36550547D01*
X136176095Y-36502928D01*
X136199904Y-36479119D01*
X136247523Y-36455309D01*
X136295142Y-36455309D01*
X136342761Y-36479119D01*
X136366571Y-36502928D01*
X136390380Y-36550547D01*
X136414190Y-36645785D01*
X136414190Y-36764833D01*
X136390380Y-36860071D01*
X136366571Y-36907690D01*
X136342761Y-36931500D01*
X136295142Y-36955309D01*
X135938000Y-36907690D02*
X135914190Y-36931500D01*
X135866571Y-36955309D01*
X135747523Y-36955309D01*
X135699904Y-36931500D01*
X135676095Y-36907690D01*
X135652285Y-36860071D01*
X135652285Y-36812452D01*
X135676095Y-36741023D01*
X135961809Y-36455309D01*
X135652285Y-36455309D01*
X135461809Y-36907690D02*
X135438000Y-36931500D01*
X135390380Y-36955309D01*
X135271333Y-36955309D01*
X135223714Y-36931500D01*
X135199904Y-36907690D01*
X135176095Y-36860071D01*
X135176095Y-36812452D01*
X135199904Y-36741023D01*
X135485619Y-36455309D01*
X135176095Y-36455309D01*
D12*
%TO.C,J25*%
X198256000Y-55235000D02*
X198256000Y-55105000D01*
X198256000Y-47765000D02*
X198256000Y-47635000D01*
X200066000Y-47765000D02*
X198256000Y-47765000D01*
X201046000Y-54975000D02*
X202546000Y-54975000D01*
X200066000Y-55235000D02*
X201046000Y-55235000D01*
X200066000Y-47635000D02*
X200066000Y-47765000D01*
X195426000Y-55535000D02*
X195426000Y-53125000D01*
X198256000Y-55105000D02*
X200066000Y-55105000D01*
X202546000Y-47895000D02*
X201046000Y-47895000D01*
X201046000Y-47895000D02*
X201046000Y-47635000D01*
X198256000Y-47635000D02*
X195726000Y-47635000D01*
X200066000Y-55105000D02*
X200066000Y-55235000D01*
X195726000Y-55235000D02*
X198256000Y-55235000D01*
X202546000Y-54975000D02*
X202546000Y-47895000D01*
X201046000Y-55235000D02*
X201046000Y-54975000D01*
X195726000Y-47635000D02*
X195726000Y-55235000D01*
X197836000Y-55535000D02*
X195426000Y-55535000D01*
X201046000Y-47635000D02*
X200066000Y-47635000D01*
%TO.C,R27*%
X203454000Y-64181000D02*
X203454000Y-63561000D01*
X204374000Y-65101000D02*
G75*
G03*
X204374000Y-65101000I-920000J0D01*
G01*
%TO.C,Q7*%
X190198000Y-54102000D02*
X192738000Y-54102000D01*
X190198000Y-49022000D02*
X192738000Y-49022000D01*
X190198000Y-51562000D02*
X192738000Y-51562000D01*
X190198000Y-56682000D02*
X190198000Y-46442000D01*
X174308000Y-46442000D02*
X190198000Y-46442000D01*
X174308000Y-56682000D02*
X174308000Y-46442000D01*
X174308000Y-56682000D02*
X190198000Y-56682000D01*
%TO.C,R28*%
X203708000Y-59482000D02*
X203708000Y-58862000D01*
X204628000Y-60402000D02*
G75*
G03*
X204628000Y-60402000I-920000J0D01*
G01*
%TO.C,R15*%
X159245000Y-99868000D02*
X159245000Y-99248000D01*
X160165000Y-100788000D02*
G75*
G03*
X160165000Y-100788000I-920000J0D01*
G01*
%TO.C,R9*%
X124130000Y-78740000D02*
X123510000Y-78740000D01*
X125970000Y-78740000D02*
G75*
G03*
X125970000Y-78740000I-920000J0D01*
G01*
%TO.C,Q1*%
X146860000Y-115570000D02*
X144320000Y-115570000D01*
X146860000Y-107910000D02*
X146860000Y-118150000D01*
X146860000Y-110490000D02*
X144320000Y-110490000D01*
X146860000Y-113030000D02*
X144320000Y-113030000D01*
X162750000Y-118150000D02*
X146860000Y-118150000D01*
X162750000Y-107910000D02*
X162750000Y-118150000D01*
X162750000Y-107910000D02*
X146860000Y-107910000D01*
%TO.C,Q6*%
X175820600Y-89369200D02*
X175820600Y-93219200D01*
X175830478Y-93257811D02*
G75*
G03*
X175820600Y-89369200I1690122J1948611D01*
G01*
%TO.C,D6*%
X121265000Y-61840000D02*
X121265000Y-64930000D01*
X126815000Y-63385462D02*
G75*
G03*
X121265000Y-61840170I-2990000J462D01*
G01*
X121265000Y-64929830D02*
G75*
G03*
X126815000Y-63384538I2560000J1544830D01*
G01*
X126325000Y-63385000D02*
G75*
G03*
X126325000Y-63385000I-2500000J0D01*
G01*
%TO.C,J12*%
X130875000Y-98305000D02*
X120575000Y-98305000D01*
X121805000Y-105125000D02*
X129645000Y-105125000D01*
X120705000Y-100835000D02*
X120705000Y-102645000D01*
X120575000Y-98305000D02*
X120575000Y-100835000D01*
X130875000Y-100835000D02*
X130875000Y-98305000D01*
X130745000Y-102645000D02*
X130745000Y-100835000D01*
X120275000Y-98005000D02*
X122685000Y-98005000D01*
X120575000Y-100835000D02*
X120705000Y-100835000D01*
X130875000Y-103625000D02*
X130875000Y-102645000D01*
X121805000Y-103625000D02*
X121805000Y-105125000D01*
X120575000Y-102645000D02*
X120575000Y-103625000D01*
X130745000Y-100835000D02*
X130875000Y-100835000D01*
X120705000Y-102645000D02*
X120575000Y-102645000D01*
X129645000Y-103625000D02*
X130875000Y-103625000D01*
X129645000Y-105125000D02*
X129645000Y-103625000D01*
X130875000Y-102645000D02*
X130745000Y-102645000D01*
X120275000Y-100415000D02*
X120275000Y-98005000D01*
X120575000Y-103625000D02*
X121805000Y-103625000D01*
%TO.C,J20*%
X193030000Y-72800000D02*
X192900000Y-72800000D01*
X192770000Y-75280000D02*
X192770000Y-73780000D01*
X193030000Y-73780000D02*
X193030000Y-72800000D01*
X193030000Y-70990000D02*
X193030000Y-68460000D01*
X185690000Y-75280000D02*
X192770000Y-75280000D01*
X193030000Y-68460000D02*
X185430000Y-68460000D01*
X185560000Y-70990000D02*
X185560000Y-72800000D01*
X185130000Y-68160000D02*
X187540000Y-68160000D01*
X192900000Y-70990000D02*
X193030000Y-70990000D01*
X192770000Y-73780000D02*
X193030000Y-73780000D01*
X185130000Y-70570000D02*
X185130000Y-68160000D01*
X185430000Y-68460000D02*
X185430000Y-70990000D01*
X185430000Y-70990000D02*
X185560000Y-70990000D01*
X192900000Y-72800000D02*
X192900000Y-70990000D01*
X185430000Y-73780000D02*
X185690000Y-73780000D01*
X185560000Y-72800000D02*
X185430000Y-72800000D01*
X185430000Y-72800000D02*
X185430000Y-73780000D01*
X185690000Y-73780000D02*
X185690000Y-75280000D01*
%TO.C,J5*%
X140900000Y-71395000D02*
X141030000Y-71395000D01*
X142130000Y-74185000D02*
X142130000Y-75685000D01*
X151200000Y-74185000D02*
X151200000Y-73205000D01*
X149970000Y-74185000D02*
X151200000Y-74185000D01*
X141030000Y-71395000D02*
X141030000Y-73205000D01*
X141030000Y-73205000D02*
X140900000Y-73205000D01*
X140900000Y-74185000D02*
X142130000Y-74185000D01*
X140600000Y-68565000D02*
X143010000Y-68565000D01*
X140600000Y-70975000D02*
X140600000Y-68565000D01*
X149970000Y-75685000D02*
X149970000Y-74185000D01*
X142130000Y-75685000D02*
X149970000Y-75685000D01*
X151070000Y-73205000D02*
X151070000Y-71395000D01*
X151200000Y-71395000D02*
X151200000Y-68865000D01*
X151070000Y-71395000D02*
X151200000Y-71395000D01*
X140900000Y-68865000D02*
X140900000Y-71395000D01*
X151200000Y-68865000D02*
X140900000Y-68865000D01*
X151200000Y-73205000D02*
X151070000Y-73205000D01*
X140900000Y-73205000D02*
X140900000Y-74185000D01*
%TO.C,R26*%
X187102000Y-90805000D02*
X187722000Y-90805000D01*
X187102000Y-90805000D02*
G75*
G03*
X187102000Y-90805000I-920000J0D01*
G01*
%TO.C,R12*%
X158115000Y-105595000D02*
X158115000Y-104975000D01*
X159035000Y-106515000D02*
G75*
G03*
X159035000Y-106515000I-920000J0D01*
G01*
%TO.C,R24*%
X187625000Y-92964000D02*
X187005000Y-92964000D01*
X189465000Y-92964000D02*
G75*
G03*
X189465000Y-92964000I-920000J0D01*
G01*
%TO.C,R16*%
X161925000Y-99268000D02*
X161925000Y-99888000D01*
X162845000Y-98348000D02*
G75*
G03*
X162845000Y-98348000I-920000J0D01*
G01*
%TO.C,R1*%
X136225000Y-65925000D02*
X136845000Y-65925000D01*
X136225000Y-65925000D02*
G75*
G03*
X136225000Y-65925000I-920000J0D01*
G01*
%TO.C,J18*%
X185430000Y-63390000D02*
X185690000Y-63390000D01*
X185430000Y-60600000D02*
X185560000Y-60600000D01*
X185560000Y-60600000D02*
X185560000Y-62410000D01*
X192770000Y-63390000D02*
X193030000Y-63390000D01*
X193030000Y-60600000D02*
X193030000Y-58070000D01*
X185430000Y-58070000D02*
X185430000Y-60600000D01*
X193030000Y-62410000D02*
X192900000Y-62410000D01*
X185130000Y-57770000D02*
X187540000Y-57770000D01*
X193030000Y-63390000D02*
X193030000Y-62410000D01*
X192900000Y-60600000D02*
X193030000Y-60600000D01*
X192900000Y-62410000D02*
X192900000Y-60600000D01*
X185430000Y-62410000D02*
X185430000Y-63390000D01*
X185560000Y-62410000D02*
X185430000Y-62410000D01*
X192770000Y-64890000D02*
X192770000Y-63390000D01*
X193030000Y-58070000D02*
X185430000Y-58070000D01*
X185690000Y-63390000D02*
X185690000Y-64890000D01*
X185690000Y-64890000D02*
X192770000Y-64890000D01*
X185130000Y-60180000D02*
X185130000Y-57770000D01*
%TO.C,J2*%
X131790000Y-90890000D02*
X131790000Y-88480000D01*
X131790000Y-88480000D02*
X134200000Y-88480000D01*
X139690000Y-88780000D02*
X132090000Y-88780000D01*
X132220000Y-91310000D02*
X132220000Y-93120000D01*
X139690000Y-93120000D02*
X139560000Y-93120000D01*
X139560000Y-93120000D02*
X139560000Y-91310000D01*
X139690000Y-91310000D02*
X139690000Y-88780000D01*
X132090000Y-88780000D02*
X132090000Y-91310000D01*
X139560000Y-91310000D02*
X139690000Y-91310000D01*
X132350000Y-94100000D02*
X132350000Y-95600000D01*
X132090000Y-94100000D02*
X132350000Y-94100000D01*
X132090000Y-91310000D02*
X132220000Y-91310000D01*
X139430000Y-94100000D02*
X139690000Y-94100000D01*
X132090000Y-93120000D02*
X132090000Y-94100000D01*
X132350000Y-95600000D02*
X139430000Y-95600000D01*
X132220000Y-93120000D02*
X132090000Y-93120000D01*
X139690000Y-94100000D02*
X139690000Y-93120000D01*
X139430000Y-95600000D02*
X139430000Y-94100000D01*
%TO.C,R13*%
X156845000Y-100030000D02*
X156845000Y-100650000D01*
X157765000Y-99110000D02*
G75*
G03*
X157765000Y-99110000I-920000J0D01*
G01*
%TO.C,Q3*%
X181556000Y-78320000D02*
X181556000Y-79830000D01*
X177855000Y-78320000D02*
X177855000Y-79830000D01*
X174585000Y-82961000D02*
X184825000Y-82961000D01*
X174585000Y-78320000D02*
X174585000Y-82961000D01*
X174585000Y-79830000D02*
X184825000Y-79830000D01*
X184825000Y-78320000D02*
X184825000Y-82961000D01*
X174585000Y-78320000D02*
X184825000Y-78320000D01*
%TO.C,J14*%
X194580000Y-83940000D02*
X194580000Y-85440000D01*
X194320000Y-78620000D02*
X194320000Y-81150000D01*
X201920000Y-83940000D02*
X201920000Y-82960000D01*
X194450000Y-81150000D02*
X194450000Y-82960000D01*
X201660000Y-85440000D02*
X201660000Y-83940000D01*
X201660000Y-83940000D02*
X201920000Y-83940000D01*
X201790000Y-81150000D02*
X201920000Y-81150000D01*
X201920000Y-82960000D02*
X201790000Y-82960000D01*
X194020000Y-78320000D02*
X196430000Y-78320000D01*
X194580000Y-85440000D02*
X201660000Y-85440000D01*
X194320000Y-81150000D02*
X194450000Y-81150000D01*
X194020000Y-80730000D02*
X194020000Y-78320000D01*
X194320000Y-82960000D02*
X194320000Y-83940000D01*
X201920000Y-81150000D02*
X201920000Y-78620000D01*
X194450000Y-82960000D02*
X194320000Y-82960000D01*
X201920000Y-78620000D02*
X194320000Y-78620000D01*
X194320000Y-83940000D02*
X194580000Y-83940000D01*
X201790000Y-82960000D02*
X201790000Y-81150000D01*
%TO.C,R6*%
X131165000Y-78740000D02*
X130545000Y-78740000D01*
X133005000Y-78740000D02*
G75*
G03*
X133005000Y-78740000I-920000J0D01*
G01*
%TO.C,U1*%
X161995000Y-79775000D02*
X151715000Y-79775000D01*
X151715000Y-83425000D02*
X151715000Y-85075000D01*
X151715000Y-79775000D02*
X151715000Y-81425000D01*
X161995000Y-85075000D02*
X161995000Y-79775000D01*
X151715000Y-85075000D02*
X161995000Y-85075000D01*
X151715000Y-83425000D02*
G75*
G03*
X151715000Y-81425000I0J1000000D01*
G01*
%TO.C,J24*%
X147787000Y-40142000D02*
X146807000Y-40142000D01*
X146807000Y-40142000D02*
X146807000Y-40402000D01*
X152427000Y-39842000D02*
X152427000Y-42252000D01*
X149597000Y-47612000D02*
X149597000Y-47742000D01*
X146807000Y-47482000D02*
X146807000Y-47742000D01*
X145307000Y-47482000D02*
X146807000Y-47482000D01*
X150017000Y-39842000D02*
X152427000Y-39842000D01*
X147787000Y-40272000D02*
X147787000Y-40142000D01*
X149597000Y-40142000D02*
X149597000Y-40272000D01*
X145307000Y-40402000D02*
X145307000Y-47482000D01*
X149597000Y-40272000D02*
X147787000Y-40272000D01*
X149597000Y-47742000D02*
X152127000Y-47742000D01*
X146807000Y-40402000D02*
X145307000Y-40402000D01*
X147787000Y-47742000D02*
X147787000Y-47612000D01*
X147787000Y-47612000D02*
X149597000Y-47612000D01*
X152127000Y-40142000D02*
X149597000Y-40142000D01*
X146807000Y-47742000D02*
X147787000Y-47742000D01*
X152127000Y-47742000D02*
X152127000Y-40142000D01*
%TO.C,J8*%
X157870000Y-58315000D02*
X155340000Y-58315000D01*
X160660000Y-65655000D02*
X162160000Y-65655000D01*
X159680000Y-65915000D02*
X160660000Y-65915000D01*
X160660000Y-65915000D02*
X160660000Y-65655000D01*
X160660000Y-58315000D02*
X159680000Y-58315000D01*
X157870000Y-58445000D02*
X157870000Y-58315000D01*
X162160000Y-58575000D02*
X160660000Y-58575000D01*
X155340000Y-65915000D02*
X157870000Y-65915000D01*
X157870000Y-65915000D02*
X157870000Y-65785000D01*
X159680000Y-65785000D02*
X159680000Y-65915000D01*
X160660000Y-58575000D02*
X160660000Y-58315000D01*
X159680000Y-58315000D02*
X159680000Y-58445000D01*
X162160000Y-65655000D02*
X162160000Y-58575000D01*
X159680000Y-58445000D02*
X157870000Y-58445000D01*
X155340000Y-58315000D02*
X155340000Y-65915000D01*
X155040000Y-66215000D02*
X155040000Y-63805000D01*
X157450000Y-66215000D02*
X155040000Y-66215000D01*
X157870000Y-65785000D02*
X159680000Y-65785000D01*
%TO.C,D4*%
X149495000Y-83663239D02*
G75*
G03*
X147626134Y-83603850I-900000J1113239D01*
G01*
%TO.C,R4*%
X144450000Y-82550000D02*
X143830000Y-82550000D01*
X146290000Y-82550000D02*
G75*
G03*
X146290000Y-82550000I-920000J0D01*
G01*
%TO.C,D8*%
X204100000Y-88714239D02*
G75*
G03*
X202231134Y-88654850I-900000J1113239D01*
G01*
%TO.C,J21*%
X176540000Y-68345000D02*
X176540000Y-70875000D01*
X184140000Y-72685000D02*
X184010000Y-72685000D01*
X176670000Y-72685000D02*
X176540000Y-72685000D01*
X184140000Y-68345000D02*
X176540000Y-68345000D01*
X176800000Y-73665000D02*
X176800000Y-75165000D01*
X176240000Y-68045000D02*
X178650000Y-68045000D01*
X176540000Y-73665000D02*
X176800000Y-73665000D01*
X183880000Y-75165000D02*
X183880000Y-73665000D01*
X176540000Y-72685000D02*
X176540000Y-73665000D01*
X184010000Y-70875000D02*
X184140000Y-70875000D01*
X176540000Y-70875000D02*
X176670000Y-70875000D01*
X176240000Y-70455000D02*
X176240000Y-68045000D01*
X176800000Y-75165000D02*
X183880000Y-75165000D01*
X184140000Y-73665000D02*
X184140000Y-72685000D01*
X183880000Y-73665000D02*
X184140000Y-73665000D01*
X176670000Y-70875000D02*
X176670000Y-72685000D01*
X184140000Y-70875000D02*
X184140000Y-68345000D01*
X184010000Y-72685000D02*
X184010000Y-70875000D01*
%TO.C,R21*%
X197739000Y-92044000D02*
X197739000Y-91424000D01*
X198659000Y-92964000D02*
G75*
G03*
X198659000Y-92964000I-920000J0D01*
G01*
%TO.C,R22*%
X195503000Y-92044000D02*
X195503000Y-91424000D01*
X196423000Y-92964000D02*
G75*
G03*
X196423000Y-92964000I-920000J0D01*
G01*
%TO.C,J16*%
X183880000Y-65005000D02*
X183880000Y-63505000D01*
X176670000Y-62525000D02*
X176540000Y-62525000D01*
X176540000Y-60715000D02*
X176670000Y-60715000D01*
X176800000Y-65005000D02*
X183880000Y-65005000D01*
X184010000Y-62525000D02*
X184010000Y-60715000D01*
X183880000Y-63505000D02*
X184140000Y-63505000D01*
X176800000Y-63505000D02*
X176800000Y-65005000D01*
X176540000Y-63505000D02*
X176800000Y-63505000D01*
X176240000Y-57885000D02*
X178650000Y-57885000D01*
X176240000Y-60295000D02*
X176240000Y-57885000D01*
X176540000Y-58185000D02*
X176540000Y-60715000D01*
X184010000Y-60715000D02*
X184140000Y-60715000D01*
X184140000Y-63505000D02*
X184140000Y-62525000D01*
X176670000Y-60715000D02*
X176670000Y-62525000D01*
X184140000Y-60715000D02*
X184140000Y-58185000D01*
X184140000Y-58185000D02*
X176540000Y-58185000D01*
X176540000Y-62525000D02*
X176540000Y-63505000D01*
X184140000Y-62525000D02*
X184010000Y-62525000D01*
%TO.C,D5*%
X121265000Y-81640000D02*
X121265000Y-84730000D01*
X121265000Y-84729830D02*
G75*
G03*
X126815000Y-83184538I2560000J1544830D01*
G01*
X126815000Y-83185462D02*
G75*
G03*
X121265000Y-81640170I-2990000J462D01*
G01*
X126325000Y-83185000D02*
G75*
G03*
X126325000Y-83185000I-2500000J0D01*
G01*
%TO.C,J3*%
X120660000Y-74300000D02*
X120920000Y-74300000D01*
X120360000Y-68680000D02*
X122770000Y-68680000D01*
X120920000Y-74300000D02*
X120920000Y-75800000D01*
X128130000Y-71510000D02*
X128260000Y-71510000D01*
X128260000Y-74300000D02*
X128260000Y-73320000D01*
X128000000Y-74300000D02*
X128260000Y-74300000D01*
X120660000Y-68980000D02*
X120660000Y-71510000D01*
X128130000Y-73320000D02*
X128130000Y-71510000D01*
X120660000Y-73320000D02*
X120660000Y-74300000D01*
X128000000Y-75800000D02*
X128000000Y-74300000D01*
X128260000Y-73320000D02*
X128130000Y-73320000D01*
X128260000Y-71510000D02*
X128260000Y-68980000D01*
X120920000Y-75800000D02*
X128000000Y-75800000D01*
X120360000Y-71090000D02*
X120360000Y-68680000D01*
X120660000Y-71510000D02*
X120790000Y-71510000D01*
X120790000Y-71510000D02*
X120790000Y-73320000D01*
X120790000Y-73320000D02*
X120660000Y-73320000D01*
X128260000Y-68980000D02*
X120660000Y-68980000D01*
%TO.C,D3*%
X128255000Y-81640000D02*
X128255000Y-84730000D01*
X128255000Y-84729830D02*
G75*
G03*
X133805000Y-83184538I2560000J1544830D01*
G01*
X133805000Y-83185462D02*
G75*
G03*
X128255000Y-81640170I-2990000J462D01*
G01*
X133315000Y-83185000D02*
G75*
G03*
X133315000Y-83185000I-2500000J0D01*
G01*
%TO.C,C2*%
X145355000Y-78005000D02*
X145355000Y-80745000D01*
X150595000Y-78005000D02*
X150595000Y-80745000D01*
X145355000Y-78005000D02*
X150595000Y-78005000D01*
X145355000Y-80745000D02*
X150595000Y-80745000D01*
%TO.C,U2*%
X129590800Y-42303700D02*
X129590800Y-46774100D01*
X128473200Y-50660300D02*
X125044200Y-50660300D01*
X112014000Y-36258500D02*
X112014000Y-52387500D01*
X123494800Y-42303700D02*
X129590800Y-42303700D01*
X116344700Y-45173900D02*
X117614700Y-44094400D01*
X129590800Y-46774100D02*
X123494800Y-46774100D01*
X115163600Y-48348900D02*
X115163600Y-41694100D01*
X121818400Y-48348900D02*
X121818400Y-41694100D01*
X117614700Y-45491400D02*
X117614700Y-46189900D01*
X117614700Y-46189900D02*
X116344700Y-45173900D01*
X125044200Y-50660300D02*
X125044200Y-49390300D01*
X120243600Y-44856400D02*
X120243600Y-45491400D01*
X117614700Y-44094400D02*
X117614700Y-44856400D01*
X133350000Y-52387500D02*
X133350000Y-36258500D01*
X125044200Y-49390300D02*
X128473200Y-49390300D01*
X121818400Y-48348900D02*
X115163600Y-48348900D01*
X112014000Y-52387500D02*
X133350000Y-52387500D01*
X123494800Y-42303700D02*
X123494800Y-46774100D01*
X120243600Y-45491400D02*
X117614700Y-45491400D01*
X128473200Y-49390300D02*
X128473200Y-50660300D01*
X133350000Y-36258500D02*
X112014000Y-36258500D01*
X115163600Y-41694100D02*
X121818400Y-41694100D01*
X120243600Y-44856400D02*
X117614700Y-44856400D01*
X131092041Y-49758600D02*
G75*
G03*
X131092041Y-49758600I-764641J0D01*
G01*
X116512441Y-49758600D02*
G75*
G03*
X116512441Y-49758600I-764641J0D01*
G01*
X116410841Y-39103300D02*
G75*
G03*
X116410841Y-39103300I-764641J0D01*
G01*
X131041241Y-39077900D02*
G75*
G03*
X131041241Y-39077900I-764641J0D01*
G01*
G36*
X125933200Y-42252900D02*
G01*
X125526800Y-42252900D01*
X125526800Y-41643300D01*
X125933200Y-41643300D01*
X125933200Y-42252900D01*
G37*
D13*
X125933200Y-42252900D02*
X125526800Y-42252900D01*
X125526800Y-41643300D01*
X125933200Y-41643300D01*
X125933200Y-42252900D01*
G36*
X127406400Y-42252900D02*
G01*
X127000000Y-42252900D01*
X127000000Y-41643300D01*
X127406400Y-41643300D01*
X127406400Y-42252900D01*
G37*
X127406400Y-42252900D02*
X127000000Y-42252900D01*
X127000000Y-41643300D01*
X127406400Y-41643300D01*
X127406400Y-42252900D01*
G36*
X127406400Y-47434500D02*
G01*
X127000000Y-47434500D01*
X127000000Y-46824900D01*
X127406400Y-46824900D01*
X127406400Y-47434500D01*
G37*
X127406400Y-47434500D02*
X127000000Y-47434500D01*
X127000000Y-46824900D01*
X127406400Y-46824900D01*
X127406400Y-47434500D01*
G36*
X124409200Y-47434500D02*
G01*
X124002800Y-47434500D01*
X124002800Y-46824900D01*
X124409200Y-46824900D01*
X124409200Y-47434500D01*
G37*
X124409200Y-47434500D02*
X124002800Y-47434500D01*
X124002800Y-46824900D01*
X124409200Y-46824900D01*
X124409200Y-47434500D01*
G36*
X124409200Y-42252900D02*
G01*
X124002800Y-42252900D01*
X124002800Y-41643300D01*
X124409200Y-41643300D01*
X124409200Y-42252900D01*
G37*
X124409200Y-42252900D02*
X124002800Y-42252900D01*
X124002800Y-41643300D01*
X124409200Y-41643300D01*
X124409200Y-42252900D01*
G36*
X128879600Y-42252900D02*
G01*
X128473200Y-42252900D01*
X128473200Y-41643300D01*
X128879600Y-41643300D01*
X128879600Y-42252900D01*
G37*
X128879600Y-42252900D02*
X128473200Y-42252900D01*
X128473200Y-41643300D01*
X128879600Y-41643300D01*
X128879600Y-42252900D01*
G36*
X128879600Y-47434500D02*
G01*
X128473200Y-47434500D01*
X128473200Y-46824900D01*
X128879600Y-46824900D01*
X128879600Y-47434500D01*
G37*
X128879600Y-47434500D02*
X128473200Y-47434500D01*
X128473200Y-46824900D01*
X128879600Y-46824900D01*
X128879600Y-47434500D01*
G36*
X125933200Y-47434500D02*
G01*
X125526800Y-47434500D01*
X125526800Y-46824900D01*
X125933200Y-46824900D01*
X125933200Y-47434500D01*
G37*
X125933200Y-47434500D02*
X125526800Y-47434500D01*
X125526800Y-46824900D01*
X125933200Y-46824900D01*
X125933200Y-47434500D01*
D12*
%TO.C,R3*%
X143850000Y-85090000D02*
X144470000Y-85090000D01*
X143850000Y-85090000D02*
G75*
G03*
X143850000Y-85090000I-920000J0D01*
G01*
%TO.C,R8*%
X130175000Y-91105000D02*
X130175000Y-90485000D01*
X131095000Y-92025000D02*
G75*
G03*
X131095000Y-92025000I-920000J0D01*
G01*
%TO.C,R25*%
X191801000Y-90805000D02*
X192421000Y-90805000D01*
X191801000Y-90805000D02*
G75*
G03*
X191801000Y-90805000I-920000J0D01*
G01*
%TO.C,J4*%
X120660000Y-93120000D02*
X120660000Y-94100000D01*
X120920000Y-94100000D02*
X120920000Y-95600000D01*
X120660000Y-94100000D02*
X120920000Y-94100000D01*
X120790000Y-91310000D02*
X120790000Y-93120000D01*
X120360000Y-90890000D02*
X120360000Y-88480000D01*
X128000000Y-94100000D02*
X128260000Y-94100000D01*
X120920000Y-95600000D02*
X128000000Y-95600000D01*
X120790000Y-93120000D02*
X120660000Y-93120000D01*
X128260000Y-88780000D02*
X120660000Y-88780000D01*
X128260000Y-93120000D02*
X128130000Y-93120000D01*
X128130000Y-93120000D02*
X128130000Y-91310000D01*
X120660000Y-88780000D02*
X120660000Y-91310000D01*
X128260000Y-91310000D02*
X128260000Y-88780000D01*
X128130000Y-91310000D02*
X128260000Y-91310000D01*
X120360000Y-88480000D02*
X122770000Y-88480000D01*
X128000000Y-95600000D02*
X128000000Y-94100000D01*
X120660000Y-91310000D02*
X120790000Y-91310000D01*
X128260000Y-94100000D02*
X128260000Y-93120000D01*
%TO.C,J11*%
X132340000Y-100415000D02*
X132340000Y-98005000D01*
X133870000Y-105125000D02*
X141710000Y-105125000D01*
X132770000Y-100835000D02*
X132770000Y-102645000D01*
X132770000Y-102645000D02*
X132640000Y-102645000D01*
X142940000Y-102645000D02*
X142810000Y-102645000D01*
X132640000Y-102645000D02*
X132640000Y-103625000D01*
X141710000Y-105125000D02*
X141710000Y-103625000D01*
X142940000Y-100835000D02*
X142940000Y-98305000D01*
X142810000Y-100835000D02*
X142940000Y-100835000D01*
X142940000Y-103625000D02*
X142940000Y-102645000D01*
X141710000Y-103625000D02*
X142940000Y-103625000D01*
X132640000Y-103625000D02*
X133870000Y-103625000D01*
X132340000Y-98005000D02*
X134750000Y-98005000D01*
X132640000Y-98305000D02*
X132640000Y-100835000D01*
X133870000Y-103625000D02*
X133870000Y-105125000D01*
X132640000Y-100835000D02*
X132770000Y-100835000D01*
X142810000Y-102645000D02*
X142810000Y-100835000D01*
X142940000Y-98305000D02*
X132640000Y-98305000D01*
%TO.C,R11*%
X162814000Y-72740000D02*
X162814000Y-72120000D01*
X163734000Y-73660000D02*
G75*
G03*
X163734000Y-73660000I-920000J0D01*
G01*
%TO.C,D1*%
X128245000Y-61840000D02*
X128245000Y-64930000D01*
X133795000Y-63385462D02*
G75*
G03*
X128245000Y-61840170I-2990000J462D01*
G01*
X128245000Y-64929830D02*
G75*
G03*
X133795000Y-63384538I2560000J1544830D01*
G01*
X133305000Y-63385000D02*
G75*
G03*
X133305000Y-63385000I-2500000J0D01*
G01*
%TO.C,SW1*%
X159095000Y-88940000D02*
X154595000Y-88940000D01*
X153345000Y-91440000D02*
X153345000Y-92940000D01*
X154595000Y-95440000D02*
X159095000Y-95440000D01*
X160345000Y-92940000D02*
X160345000Y-91440000D01*
%TO.C,D9*%
X202300000Y-94136761D02*
G75*
G03*
X204168866Y-94196150I900000J-1113239D01*
G01*
%TO.C,R5*%
X131110000Y-58674000D02*
X130490000Y-58674000D01*
X132950000Y-58674000D02*
G75*
G03*
X132950000Y-58674000I-920000J0D01*
G01*
%TO.C,J10*%
X153780000Y-103510000D02*
X155010000Y-103510000D01*
X144710000Y-98190000D02*
X144710000Y-100720000D01*
X144710000Y-103510000D02*
X145940000Y-103510000D01*
X145940000Y-103510000D02*
X145940000Y-105010000D01*
X145940000Y-105010000D02*
X153780000Y-105010000D01*
X153780000Y-105010000D02*
X153780000Y-103510000D01*
X144410000Y-100300000D02*
X144410000Y-97890000D01*
X144710000Y-100720000D02*
X144840000Y-100720000D01*
X155010000Y-103510000D02*
X155010000Y-102530000D01*
X155010000Y-102530000D02*
X154880000Y-102530000D01*
X154880000Y-100720000D02*
X155010000Y-100720000D01*
X144840000Y-102530000D02*
X144710000Y-102530000D01*
X144840000Y-100720000D02*
X144840000Y-102530000D01*
X155010000Y-98190000D02*
X144710000Y-98190000D01*
X155010000Y-100720000D02*
X155010000Y-98190000D01*
X144710000Y-102530000D02*
X144710000Y-103510000D01*
X154880000Y-102530000D02*
X154880000Y-100720000D01*
X144410000Y-97890000D02*
X146820000Y-97890000D01*
%TO.C,R20*%
X193883000Y-88265000D02*
X194503000Y-88265000D01*
X193883000Y-88265000D02*
G75*
G03*
X193883000Y-88265000I-920000J0D01*
G01*
%TO.C,R14*%
X138150000Y-78740000D02*
X137530000Y-78740000D01*
X139990000Y-78740000D02*
G75*
G03*
X139990000Y-78740000I-920000J0D01*
G01*
%TO.C,J9*%
X148345000Y-58445000D02*
X148345000Y-58315000D01*
X148345000Y-65785000D02*
X150155000Y-65785000D01*
X150155000Y-65785000D02*
X150155000Y-65915000D01*
X150155000Y-58445000D02*
X148345000Y-58445000D01*
X152635000Y-65655000D02*
X152635000Y-58575000D01*
X150155000Y-65915000D02*
X151135000Y-65915000D01*
X151135000Y-58575000D02*
X151135000Y-58315000D01*
X148345000Y-65915000D02*
X148345000Y-65785000D01*
X147925000Y-66215000D02*
X145515000Y-66215000D01*
X145515000Y-66215000D02*
X145515000Y-63805000D01*
X151135000Y-65915000D02*
X151135000Y-65655000D01*
X151135000Y-58315000D02*
X150155000Y-58315000D01*
X151135000Y-65655000D02*
X152635000Y-65655000D01*
X148345000Y-58315000D02*
X145815000Y-58315000D01*
X150155000Y-58315000D02*
X150155000Y-58445000D01*
X145815000Y-65915000D02*
X148345000Y-65915000D01*
X145815000Y-58315000D02*
X145815000Y-65915000D01*
X152635000Y-58575000D02*
X151135000Y-58575000D01*
%TO.C,R10*%
X124125000Y-58674000D02*
X123505000Y-58674000D01*
X125965000Y-58674000D02*
G75*
G03*
X125965000Y-58674000I-920000J0D01*
G01*
%TO.C,D2*%
X142725000Y-64264596D02*
G75*
G03*
X140410268Y-64206371I-1120000J1514596D01*
G01*
%TO.C,R2*%
X136925000Y-63385000D02*
X136305000Y-63385000D01*
X138765000Y-63385000D02*
G75*
G03*
X138765000Y-63385000I-920000J0D01*
G01*
%TO.C,R17*%
X193375000Y-76835000D02*
X193995000Y-76835000D01*
X193375000Y-76835000D02*
G75*
G03*
X193375000Y-76835000I-920000J0D01*
G01*
%TO.C,J15*%
X185690000Y-85440000D02*
X192770000Y-85440000D01*
X185430000Y-82960000D02*
X185430000Y-83940000D01*
X193030000Y-78620000D02*
X185430000Y-78620000D01*
X185430000Y-83940000D02*
X185690000Y-83940000D01*
X185560000Y-81150000D02*
X185560000Y-82960000D01*
X185430000Y-81150000D02*
X185560000Y-81150000D01*
X192770000Y-83940000D02*
X193030000Y-83940000D01*
X185430000Y-78620000D02*
X185430000Y-81150000D01*
X185130000Y-80730000D02*
X185130000Y-78320000D01*
X185690000Y-83940000D02*
X185690000Y-85440000D01*
X193030000Y-83940000D02*
X193030000Y-82960000D01*
X193030000Y-81150000D02*
X193030000Y-78620000D01*
X192900000Y-81150000D02*
X193030000Y-81150000D01*
X185130000Y-78320000D02*
X187540000Y-78320000D01*
X185560000Y-82960000D02*
X185430000Y-82960000D01*
X193030000Y-82960000D02*
X192900000Y-82960000D01*
X192770000Y-85440000D02*
X192770000Y-83940000D01*
X192900000Y-82960000D02*
X192900000Y-81150000D01*
%TO.C,J6*%
X151070000Y-93120000D02*
X151070000Y-91310000D01*
X142130000Y-94100000D02*
X142130000Y-95600000D01*
X149970000Y-94100000D02*
X151200000Y-94100000D01*
X140900000Y-88780000D02*
X140900000Y-91310000D01*
X151200000Y-88780000D02*
X140900000Y-88780000D01*
X149970000Y-95600000D02*
X149970000Y-94100000D01*
X142130000Y-95600000D02*
X149970000Y-95600000D01*
X151200000Y-94100000D02*
X151200000Y-93120000D01*
X140900000Y-91310000D02*
X141030000Y-91310000D01*
X141030000Y-91310000D02*
X141030000Y-93120000D01*
X151200000Y-91310000D02*
X151200000Y-88780000D01*
X151070000Y-91310000D02*
X151200000Y-91310000D01*
X140900000Y-94100000D02*
X142130000Y-94100000D01*
X140600000Y-88480000D02*
X143010000Y-88480000D01*
X141030000Y-93120000D02*
X140900000Y-93120000D01*
X140600000Y-90890000D02*
X140600000Y-88480000D01*
X140900000Y-93120000D02*
X140900000Y-94100000D01*
X151200000Y-93120000D02*
X151070000Y-93120000D01*
%TO.C,SW2*%
X159095000Y-69025000D02*
X154595000Y-69025000D01*
X153345000Y-71525000D02*
X153345000Y-73025000D01*
X154595000Y-75525000D02*
X159095000Y-75525000D01*
X160345000Y-73025000D02*
X160345000Y-71525000D01*
%TO.C,R19*%
X199898000Y-91471000D02*
X199898000Y-92091000D01*
X200818000Y-90551000D02*
G75*
G03*
X200818000Y-90551000I-920000J0D01*
G01*
%TO.C,Q4*%
X174585000Y-83725000D02*
X184825000Y-83725000D01*
X177855000Y-83725000D02*
X177855000Y-85235000D01*
X184825000Y-83725000D02*
X184825000Y-88366000D01*
X181556000Y-83725000D02*
X181556000Y-85235000D01*
X174585000Y-83725000D02*
X174585000Y-88366000D01*
X174585000Y-85235000D02*
X184825000Y-85235000D01*
X174585000Y-88366000D02*
X184825000Y-88366000D01*
%TO.C,R18*%
X185070000Y-76835000D02*
X185690000Y-76835000D01*
X185070000Y-76835000D02*
G75*
G03*
X185070000Y-76835000I-920000J0D01*
G01*
%TO.C,J19*%
X194020000Y-70570000D02*
X194020000Y-68160000D01*
X194320000Y-72800000D02*
X194320000Y-73780000D01*
X194320000Y-68460000D02*
X194320000Y-70990000D01*
X194320000Y-73780000D02*
X194580000Y-73780000D01*
X194580000Y-73780000D02*
X194580000Y-75280000D01*
X201920000Y-68460000D02*
X194320000Y-68460000D01*
X194020000Y-68160000D02*
X196430000Y-68160000D01*
X201920000Y-73780000D02*
X201920000Y-72800000D01*
X201920000Y-72800000D02*
X201790000Y-72800000D01*
X194320000Y-70990000D02*
X194450000Y-70990000D01*
X201920000Y-70990000D02*
X201920000Y-68460000D01*
X194580000Y-75280000D02*
X201660000Y-75280000D01*
X201660000Y-73780000D02*
X201920000Y-73780000D01*
X194450000Y-70990000D02*
X194450000Y-72800000D01*
X201790000Y-72800000D02*
X201790000Y-70990000D01*
X201790000Y-70990000D02*
X201920000Y-70990000D01*
X201660000Y-75280000D02*
X201660000Y-73780000D01*
X194450000Y-72800000D02*
X194320000Y-72800000D01*
%TO.C,J13*%
X177165000Y-94555000D02*
X200085000Y-94555000D01*
X174565000Y-95885000D02*
X174565000Y-94555000D01*
X200085000Y-97215000D02*
X200085000Y-94555000D01*
X177165000Y-97215000D02*
X200085000Y-97215000D01*
X174565000Y-94555000D02*
X175895000Y-94555000D01*
X177165000Y-97215000D02*
X177165000Y-94555000D01*
%TO.C,J1*%
X132090000Y-74300000D02*
X132350000Y-74300000D01*
X132090000Y-68980000D02*
X132090000Y-71510000D01*
X139560000Y-73320000D02*
X139560000Y-71510000D01*
X139430000Y-75800000D02*
X139430000Y-74300000D01*
X131790000Y-71090000D02*
X131790000Y-68680000D01*
X139690000Y-74300000D02*
X139690000Y-73320000D01*
X139690000Y-68980000D02*
X132090000Y-68980000D01*
X132220000Y-71510000D02*
X132220000Y-73320000D01*
X132350000Y-75800000D02*
X139430000Y-75800000D01*
X131790000Y-68680000D02*
X134200000Y-68680000D01*
X139430000Y-74300000D02*
X139690000Y-74300000D01*
X132220000Y-73320000D02*
X132090000Y-73320000D01*
X132090000Y-71510000D02*
X132220000Y-71510000D01*
X139560000Y-71510000D02*
X139690000Y-71510000D01*
X132350000Y-74300000D02*
X132350000Y-75800000D01*
X139690000Y-73320000D02*
X139560000Y-73320000D01*
X139690000Y-71510000D02*
X139690000Y-68980000D01*
X132090000Y-73320000D02*
X132090000Y-74300000D01*
%TO.C,J23*%
X142902000Y-39842000D02*
X142902000Y-42252000D01*
X140072000Y-47612000D02*
X140072000Y-47742000D01*
X140072000Y-47742000D02*
X142602000Y-47742000D01*
X140492000Y-39842000D02*
X142902000Y-39842000D01*
X135782000Y-47482000D02*
X137282000Y-47482000D01*
X137282000Y-47742000D02*
X138262000Y-47742000D01*
X135782000Y-40402000D02*
X135782000Y-47482000D01*
X140072000Y-40142000D02*
X140072000Y-40272000D01*
X138262000Y-47612000D02*
X140072000Y-47612000D01*
X137282000Y-47482000D02*
X137282000Y-47742000D01*
X138262000Y-40272000D02*
X138262000Y-40142000D01*
X138262000Y-47742000D02*
X138262000Y-47612000D01*
X138262000Y-40142000D02*
X137282000Y-40142000D01*
X137282000Y-40402000D02*
X135782000Y-40402000D01*
X137282000Y-40142000D02*
X137282000Y-40402000D01*
X140072000Y-40272000D02*
X138262000Y-40272000D01*
X142602000Y-47742000D02*
X142602000Y-40142000D01*
X142602000Y-40142000D02*
X140072000Y-40142000D01*
%TO.C,J17*%
X194450000Y-60715000D02*
X194450000Y-62525000D01*
X201660000Y-63505000D02*
X201920000Y-63505000D01*
X201920000Y-62525000D02*
X201790000Y-62525000D01*
X194020000Y-60295000D02*
X194020000Y-57885000D01*
X194450000Y-62525000D02*
X194320000Y-62525000D01*
X201660000Y-65005000D02*
X201660000Y-63505000D01*
X201790000Y-60715000D02*
X201920000Y-60715000D01*
X201920000Y-58185000D02*
X194320000Y-58185000D01*
X194580000Y-63505000D02*
X194580000Y-65005000D01*
X194580000Y-65005000D02*
X201660000Y-65005000D01*
X194020000Y-57885000D02*
X196430000Y-57885000D01*
X201920000Y-60715000D02*
X201920000Y-58185000D01*
X194320000Y-58185000D02*
X194320000Y-60715000D01*
X194320000Y-60715000D02*
X194450000Y-60715000D01*
X194320000Y-63505000D02*
X194580000Y-63505000D01*
X194320000Y-62525000D02*
X194320000Y-63505000D01*
X201920000Y-63505000D02*
X201920000Y-62525000D01*
X201790000Y-62525000D02*
X201790000Y-60715000D01*
%TO.C,Q5*%
X180476000Y-89363000D02*
X180476000Y-93213000D01*
X180485878Y-93251611D02*
G75*
G03*
X180476000Y-89363000I1690122J1948611D01*
G01*
%TO.C,R23*%
X192324000Y-92964000D02*
X191704000Y-92964000D01*
X194164000Y-92964000D02*
G75*
G03*
X194164000Y-92964000I-920000J0D01*
G01*
%TO.C,Q2*%
X120460000Y-107910000D02*
X136350000Y-107910000D01*
X120460000Y-118150000D02*
X120460000Y-107910000D01*
X120460000Y-118150000D02*
X136350000Y-118150000D01*
X136350000Y-115570000D02*
X138890000Y-115570000D01*
X136350000Y-110490000D02*
X138890000Y-110490000D01*
X136350000Y-118150000D02*
X136350000Y-107910000D01*
X136350000Y-113030000D02*
X138890000Y-113030000D01*
%TO.C,C1*%
X162660000Y-107300000D02*
X162660000Y-102060000D01*
X159920000Y-107300000D02*
X159920000Y-102060000D01*
X159920000Y-107300000D02*
X162660000Y-107300000D01*
X159920000Y-102060000D02*
X162660000Y-102060000D01*
%TO.C,R7*%
X130175000Y-71305000D02*
X130175000Y-70685000D01*
X131095000Y-72225000D02*
G75*
G03*
X131095000Y-72225000I-920000J0D01*
G01*
%TO.C,D7*%
X135235000Y-81640000D02*
X135235000Y-84730000D01*
X140785000Y-83185462D02*
G75*
G03*
X135235000Y-81640170I-2990000J462D01*
G01*
X135235000Y-84729830D02*
G75*
G03*
X140785000Y-83184538I2560000J1544830D01*
G01*
X140295000Y-83185000D02*
G75*
G03*
X140295000Y-83185000I-2500000J0D01*
G01*
%TD*%
D14*
%TO.C,J7*%
X166720000Y-60280000D03*
X117720000Y-60280000D03*
X117720000Y-118280000D03*
X166720000Y-118280000D03*
D15*
X165450000Y-65150000D03*
D16*
X167990000Y-65150000D03*
X165450000Y-67690000D03*
X167990000Y-67690000D03*
X165450000Y-70230000D03*
X167990000Y-70230000D03*
X165450000Y-72770000D03*
X167990000Y-72770000D03*
X165450000Y-75310000D03*
X167990000Y-75310000D03*
X165450000Y-77850000D03*
X167990000Y-77850000D03*
X165450000Y-80390000D03*
X167990000Y-80390000D03*
X165450000Y-82930000D03*
X167990000Y-82930000D03*
X165450000Y-85470000D03*
X167990000Y-85470000D03*
X165450000Y-88010000D03*
X167990000Y-88010000D03*
X165450000Y-90550000D03*
X167990000Y-90550000D03*
X165450000Y-93090000D03*
X167990000Y-93090000D03*
X165450000Y-95630000D03*
X167990000Y-95630000D03*
X165450000Y-98170000D03*
X167990000Y-98170000D03*
X165450000Y-100710000D03*
X167990000Y-100710000D03*
X165450000Y-103250000D03*
X167990000Y-103250000D03*
X165450000Y-105790000D03*
X167990000Y-105790000D03*
X165450000Y-108330000D03*
X167990000Y-108330000D03*
X165450000Y-110870000D03*
X167990000Y-110870000D03*
X165450000Y-113410000D03*
X167990000Y-113410000D03*
%TD*%
%LPC*%
D17*
%TO.C,J25*%
X198386000Y-50165000D03*
D18*
X198386000Y-52705000D03*
%TD*%
D19*
%TO.C,R27*%
X203454000Y-65101000D03*
D20*
X203454000Y-62561000D03*
%TD*%
D21*
%TO.C,Q7*%
X193888000Y-49022000D03*
X193888000Y-51562000D03*
D22*
X193888000Y-54102000D03*
D23*
X177228000Y-51562000D03*
%TD*%
D19*
%TO.C,R28*%
X203708000Y-60402000D03*
D20*
X203708000Y-57862000D03*
%TD*%
D19*
%TO.C,R15*%
X159245000Y-100788000D03*
D20*
X159245000Y-98248000D03*
%TD*%
D24*
%TO.C,REF\u002A\u002A*%
X108051600Y-39065200D03*
%TD*%
D19*
%TO.C,R9*%
X125050000Y-78740000D03*
D20*
X122510000Y-78740000D03*
%TD*%
D14*
%TO.C,J7*%
X166720000Y-60280000D03*
X117720000Y-60280000D03*
X117720000Y-118280000D03*
X166720000Y-118280000D03*
D15*
X165450000Y-65150000D03*
D16*
X167990000Y-65150000D03*
X165450000Y-67690000D03*
X167990000Y-67690000D03*
X165450000Y-70230000D03*
X167990000Y-70230000D03*
X165450000Y-72770000D03*
X167990000Y-72770000D03*
X165450000Y-75310000D03*
X167990000Y-75310000D03*
X165450000Y-77850000D03*
X167990000Y-77850000D03*
X165450000Y-80390000D03*
X167990000Y-80390000D03*
X165450000Y-82930000D03*
X167990000Y-82930000D03*
X165450000Y-85470000D03*
X167990000Y-85470000D03*
X165450000Y-88010000D03*
X167990000Y-88010000D03*
X165450000Y-90550000D03*
X167990000Y-90550000D03*
X165450000Y-93090000D03*
X167990000Y-93090000D03*
X165450000Y-95630000D03*
X167990000Y-95630000D03*
X165450000Y-98170000D03*
X167990000Y-98170000D03*
X165450000Y-100710000D03*
X167990000Y-100710000D03*
X165450000Y-103250000D03*
X167990000Y-103250000D03*
X165450000Y-105790000D03*
X167990000Y-105790000D03*
X165450000Y-108330000D03*
X167990000Y-108330000D03*
X165450000Y-110870000D03*
X167990000Y-110870000D03*
X165450000Y-113410000D03*
X167990000Y-113410000D03*
%TD*%
D21*
%TO.C,Q1*%
X143170000Y-115570000D03*
X143170000Y-113030000D03*
D22*
X143170000Y-110490000D03*
D23*
X159830000Y-113030000D03*
%TD*%
D25*
%TO.C,Q6*%
X177520600Y-90119200D03*
D26*
X177520600Y-91389200D03*
X177520600Y-92659200D03*
%TD*%
D27*
%TO.C,D6*%
X122555000Y-63385000D03*
D28*
X125095000Y-63385000D03*
%TD*%
D29*
%TO.C,J12*%
X123185000Y-100965000D03*
D17*
X125725000Y-100965000D03*
X128265000Y-100965000D03*
%TD*%
D29*
%TO.C,J20*%
X187960000Y-71120000D03*
D17*
X190500000Y-71120000D03*
%TD*%
D29*
%TO.C,J5*%
X143510000Y-71525000D03*
D17*
X146050000Y-71525000D03*
X148590000Y-71525000D03*
%TD*%
D19*
%TO.C,R26*%
X186182000Y-90805000D03*
D20*
X188722000Y-90805000D03*
%TD*%
D19*
%TO.C,R12*%
X158115000Y-106515000D03*
D20*
X158115000Y-103975000D03*
%TD*%
D19*
%TO.C,R24*%
X188545000Y-92964000D03*
D20*
X186005000Y-92964000D03*
%TD*%
D19*
%TO.C,R16*%
X161925000Y-98348000D03*
D20*
X161925000Y-100888000D03*
%TD*%
D19*
%TO.C,R1*%
X135305000Y-65925000D03*
D20*
X137845000Y-65925000D03*
%TD*%
D29*
%TO.C,J18*%
X187960000Y-60730000D03*
D17*
X190500000Y-60730000D03*
%TD*%
D29*
%TO.C,J2*%
X134620000Y-91440000D03*
D17*
X137160000Y-91440000D03*
%TD*%
D19*
%TO.C,R13*%
X156845000Y-99110000D03*
D20*
X156845000Y-101650000D03*
%TD*%
D30*
%TO.C,Q3*%
X177165000Y-81590000D03*
D31*
X179705000Y-81590000D03*
X182245000Y-81590000D03*
%TD*%
D29*
%TO.C,J14*%
X196850000Y-81280000D03*
D17*
X199390000Y-81280000D03*
%TD*%
D19*
%TO.C,R6*%
X132085000Y-78740000D03*
D20*
X129545000Y-78740000D03*
%TD*%
D32*
%TO.C,U1*%
X153045000Y-86235000D03*
D33*
X155585000Y-86235000D03*
X158125000Y-86235000D03*
X160665000Y-86235000D03*
X160665000Y-78615000D03*
X158125000Y-78615000D03*
X155585000Y-78615000D03*
X153045000Y-78615000D03*
%TD*%
D34*
%TO.C,J24*%
X149467000Y-42672000D03*
D17*
X149467000Y-45212000D03*
%TD*%
D18*
%TO.C,J8*%
X158000000Y-63385000D03*
D17*
X158000000Y-60845000D03*
%TD*%
D27*
%TO.C,D4*%
X148595000Y-82550000D03*
D35*
X148595000Y-85090000D03*
%TD*%
D19*
%TO.C,R4*%
X145370000Y-82550000D03*
D20*
X142830000Y-82550000D03*
%TD*%
D27*
%TO.C,D8*%
X203200000Y-87601000D03*
D35*
X203200000Y-90141000D03*
%TD*%
D29*
%TO.C,J21*%
X179070000Y-71005000D03*
D17*
X181610000Y-71005000D03*
%TD*%
D19*
%TO.C,R21*%
X197739000Y-92964000D03*
D20*
X197739000Y-90424000D03*
%TD*%
D19*
%TO.C,R22*%
X195503000Y-92964000D03*
D20*
X195503000Y-90424000D03*
%TD*%
D24*
%TO.C,REF\u002A\u002A*%
X157099000Y-39090600D03*
%TD*%
D29*
%TO.C,J16*%
X179070000Y-60845000D03*
D17*
X181610000Y-60845000D03*
%TD*%
D27*
%TO.C,D5*%
X122555000Y-83185000D03*
D28*
X125095000Y-83185000D03*
%TD*%
D29*
%TO.C,J3*%
X123190000Y-71640000D03*
D17*
X125730000Y-71640000D03*
%TD*%
D27*
%TO.C,D3*%
X129545000Y-83185000D03*
D28*
X132085000Y-83185000D03*
%TD*%
D36*
%TO.C,C2*%
X146725000Y-79375000D03*
X149225000Y-79375000D03*
%TD*%
D19*
%TO.C,R3*%
X142930000Y-85090000D03*
D20*
X145470000Y-85090000D03*
%TD*%
D19*
%TO.C,R8*%
X130175000Y-92025000D03*
D20*
X130175000Y-89485000D03*
%TD*%
D19*
%TO.C,R25*%
X190881000Y-90805000D03*
D20*
X193421000Y-90805000D03*
%TD*%
D29*
%TO.C,J4*%
X123190000Y-91440000D03*
D17*
X125730000Y-91440000D03*
%TD*%
D29*
%TO.C,J11*%
X135250000Y-100965000D03*
D17*
X137790000Y-100965000D03*
X140330000Y-100965000D03*
%TD*%
D19*
%TO.C,R11*%
X162814000Y-73660000D03*
D20*
X162814000Y-71120000D03*
%TD*%
D27*
%TO.C,D1*%
X129535000Y-63385000D03*
D28*
X132075000Y-63385000D03*
%TD*%
D37*
%TO.C,SW1*%
X160095000Y-89940000D03*
X153595000Y-89940000D03*
X153595000Y-94440000D03*
X160095000Y-94440000D03*
%TD*%
D27*
%TO.C,D9*%
X203200000Y-95250000D03*
D35*
X203200000Y-92710000D03*
%TD*%
D19*
%TO.C,R5*%
X132030000Y-58674000D03*
D20*
X129490000Y-58674000D03*
%TD*%
D29*
%TO.C,J10*%
X147320000Y-100850000D03*
D17*
X149860000Y-100850000D03*
X152400000Y-100850000D03*
%TD*%
D19*
%TO.C,R20*%
X192963000Y-88265000D03*
D20*
X195503000Y-88265000D03*
%TD*%
D19*
%TO.C,R14*%
X139070000Y-78740000D03*
D20*
X136530000Y-78740000D03*
%TD*%
D18*
%TO.C,J9*%
X148475000Y-63385000D03*
D17*
X148475000Y-60845000D03*
%TD*%
D19*
%TO.C,R10*%
X125045000Y-58674000D03*
D20*
X122505000Y-58674000D03*
%TD*%
D38*
%TO.C,D2*%
X141605000Y-62750000D03*
D39*
X141605000Y-65290000D03*
%TD*%
D19*
%TO.C,R2*%
X137845000Y-63385000D03*
D20*
X135305000Y-63385000D03*
%TD*%
D19*
%TO.C,R17*%
X192455000Y-76835000D03*
D20*
X194995000Y-76835000D03*
%TD*%
D29*
%TO.C,J15*%
X187960000Y-81280000D03*
D17*
X190500000Y-81280000D03*
%TD*%
D29*
%TO.C,J6*%
X143510000Y-91440000D03*
D17*
X146050000Y-91440000D03*
X148590000Y-91440000D03*
%TD*%
D37*
%TO.C,SW2*%
X153595000Y-70025000D03*
X160095000Y-70025000D03*
X153595000Y-74525000D03*
X160095000Y-74525000D03*
%TD*%
D24*
%TO.C,REF\u002A\u002A*%
X108077000Y-97028000D03*
%TD*%
D19*
%TO.C,R19*%
X199898000Y-90551000D03*
D20*
X199898000Y-93091000D03*
%TD*%
D30*
%TO.C,Q4*%
X177165000Y-86995000D03*
D31*
X179705000Y-86995000D03*
X182245000Y-86995000D03*
%TD*%
D19*
%TO.C,R18*%
X184150000Y-76835000D03*
D20*
X186690000Y-76835000D03*
%TD*%
D29*
%TO.C,J19*%
X196850000Y-71120000D03*
D17*
X199390000Y-71120000D03*
%TD*%
D40*
%TO.C,J13*%
X175895000Y-95885000D03*
D41*
X178435000Y-95885000D03*
X180975000Y-95885000D03*
X183515000Y-95885000D03*
X186055000Y-95885000D03*
X188595000Y-95885000D03*
X191135000Y-95885000D03*
X193675000Y-95885000D03*
X196215000Y-95885000D03*
X198755000Y-95885000D03*
%TD*%
D29*
%TO.C,J1*%
X134620000Y-71640000D03*
D17*
X137160000Y-71640000D03*
%TD*%
D34*
%TO.C,J23*%
X139942000Y-42672000D03*
D17*
X139942000Y-45212000D03*
%TD*%
D29*
%TO.C,J17*%
X196850000Y-60845000D03*
D17*
X199390000Y-60845000D03*
%TD*%
D25*
%TO.C,Q5*%
X182176000Y-90113000D03*
D26*
X182176000Y-91383000D03*
X182176000Y-92653000D03*
%TD*%
D19*
%TO.C,R23*%
X193244000Y-92964000D03*
D20*
X190704000Y-92964000D03*
%TD*%
D21*
%TO.C,Q2*%
X140040000Y-110490000D03*
X140040000Y-113030000D03*
D22*
X140040000Y-115570000D03*
D23*
X123380000Y-113030000D03*
%TD*%
D36*
%TO.C,C1*%
X161290000Y-105930000D03*
X161290000Y-103430000D03*
%TD*%
D19*
%TO.C,R7*%
X130175000Y-72225000D03*
D20*
X130175000Y-69685000D03*
%TD*%
D27*
%TO.C,D7*%
X136525000Y-83185000D03*
D28*
X139065000Y-83185000D03*
%TD*%
D40*
%TO.C,J22*%
X109367000Y-92172000D03*
D41*
X106827000Y-92172000D03*
X109367000Y-89632000D03*
X106827000Y-89632000D03*
X109367000Y-87092000D03*
X106827000Y-87092000D03*
X109367000Y-84552000D03*
X106827000Y-84552000D03*
X109367000Y-82012000D03*
X106827000Y-82012000D03*
%TD*%
M02*
