%TF.GenerationSoftware,KiCad,Pcbnew,(6.0.7)*%
%TF.CreationDate,2022-08-29T12:50:03+02:00*%
%TF.ProjectId,pi_shield,70695f73-6869-4656-9c64-2e6b69636164,rev?*%
%TF.SameCoordinates,Original*%
%TF.FileFunction,Drillmap*%
%TF.FilePolarity,Positive*%
%FSLAX45Y45*%
G04 Gerber Fmt 4.5, Leading zero omitted, Abs format (unit mm)*
G04 Created by KiCad (PCBNEW (6.0.7)) date 2022-08-29 12:50:03*
%MOMM*%
%LPD*%
G01*
G04 APERTURE LIST*
%ADD10C,0.100000*%
%ADD11C,0.200000*%
%ADD12C,0.040000*%
%ADD13C,0.070000*%
%ADD14C,0.075000*%
%ADD15C,0.080000*%
%ADD16C,0.090000*%
%ADD17C,0.101600*%
%ADD18C,0.109000*%
%ADD19C,0.110000*%
%ADD20C,0.120000*%
G04 APERTURE END LIST*
D10*
X20510500Y-4597400D02*
X20510500Y-5715000D01*
X20497800Y-4597400D02*
X20510500Y-4597400D01*
X17399000Y-4597400D02*
X20497800Y-4597400D01*
X17399000Y-5715000D02*
X17399000Y-4597400D01*
X14084300Y-3543300D02*
X10477500Y-3543300D01*
X11422000Y-6029000D02*
X11422000Y-12254000D01*
X14084300Y-3543300D02*
X16065500Y-3543300D01*
X13423900Y-5067300D02*
X13423900Y-5346700D01*
X10477500Y-3543300D02*
X10452100Y-3543300D01*
X17399000Y-6731000D02*
X17399000Y-5715000D01*
X11315700Y-5346700D02*
X11772900Y-5346700D01*
X17399000Y-9779000D02*
G75*
G03*
X17018000Y-9779000I-190500J0D01*
G01*
X17399000Y-7747000D02*
X17399000Y-8763000D01*
X17022036Y-6029000D02*
G75*
G03*
X16677000Y-5679000I-350036J0D01*
G01*
X12776200Y-5346700D02*
X13423900Y-5346700D01*
X11137900Y-10058400D02*
X11315700Y-10058400D01*
X17018000Y-6731000D02*
X17022036Y-6029000D01*
X16065500Y-3543300D02*
X16065500Y-5067300D01*
X17018000Y-8763000D02*
G75*
G03*
X17399000Y-8763000I190500J0D01*
G01*
X11315700Y-10058400D02*
X11315700Y-5346700D01*
X12776200Y-5676900D02*
X16677000Y-5679000D01*
X12776200Y-5346700D02*
G75*
G03*
X12776200Y-5676900I0J-165100D01*
G01*
X17018000Y-6731000D02*
G75*
G03*
X17399000Y-6731000I190500J0D01*
G01*
X11772011Y-5676898D02*
G75*
G03*
X11772900Y-5346700I889J165098D01*
G01*
X17399000Y-7747000D02*
G75*
G03*
X17018000Y-7747000I-190500J0D01*
G01*
X16065500Y-5067300D02*
X13525500Y-5067300D01*
X13525500Y-5067300D02*
X13423900Y-5067300D01*
X17018000Y-8763000D02*
X17018000Y-7747000D01*
X11772011Y-5676898D02*
G75*
G03*
X11422000Y-6029000I0J-350017D01*
G01*
X17018000Y-12255500D02*
X17018000Y-9779000D01*
X10452100Y-9702800D02*
G75*
G03*
X10807700Y-10058400I355600J0D01*
G01*
X20256500Y-9779000D02*
X17399000Y-9779000D01*
X11422000Y-12254000D02*
X13322000Y-12254000D01*
X10807700Y-10058400D02*
X11137900Y-10058400D01*
X20256500Y-9779000D02*
X20510500Y-9779000D01*
X10452100Y-3543300D02*
X10452100Y-9702800D01*
X20510500Y-9779000D02*
X20510500Y-5715000D01*
X13322000Y-12254000D02*
X17018000Y-12255500D01*
D11*
D12*
X12121200Y-10838500D02*
X12161200Y-10878500D01*
X12161200Y-10838500D02*
X12121200Y-10878500D01*
X12121200Y-10927400D02*
X12161200Y-10967400D01*
X12161200Y-10927400D02*
X12121200Y-10967400D01*
X12121200Y-11016300D02*
X12161200Y-11056300D01*
X12161200Y-11016300D02*
X12121200Y-11056300D01*
X12121200Y-11549700D02*
X12161200Y-11589700D01*
X12161200Y-11549700D02*
X12121200Y-11589700D01*
X12121200Y-11638600D02*
X12161200Y-11678600D01*
X12161200Y-11638600D02*
X12121200Y-11678600D01*
X12121200Y-11727500D02*
X12161200Y-11767500D01*
X12161200Y-11727500D02*
X12121200Y-11767500D01*
X12210100Y-10838500D02*
X12250100Y-10878500D01*
X12250100Y-10838500D02*
X12210100Y-10878500D01*
X12210100Y-10927400D02*
X12250100Y-10967400D01*
X12250100Y-10927400D02*
X12210100Y-10967400D01*
X12210100Y-11016300D02*
X12250100Y-11056300D01*
X12250100Y-11016300D02*
X12210100Y-11056300D01*
X12210100Y-11549700D02*
X12250100Y-11589700D01*
X12250100Y-11549700D02*
X12210100Y-11589700D01*
X12210100Y-11638600D02*
X12250100Y-11678600D01*
X12250100Y-11638600D02*
X12210100Y-11678600D01*
X12210100Y-11727500D02*
X12250100Y-11767500D01*
X12250100Y-11727500D02*
X12210100Y-11767500D01*
X12298851Y-10927962D02*
X12338851Y-10967962D01*
X12338851Y-10927962D02*
X12298851Y-10967962D01*
X12299000Y-10838500D02*
X12339000Y-10878500D01*
X12339000Y-10838500D02*
X12299000Y-10878500D01*
X12299000Y-11016300D02*
X12339000Y-11056300D01*
X12339000Y-11016300D02*
X12299000Y-11056300D01*
X12299000Y-11549700D02*
X12339000Y-11589700D01*
X12339000Y-11549700D02*
X12299000Y-11589700D01*
X12299000Y-11638600D02*
X12339000Y-11678600D01*
X12339000Y-11638600D02*
X12299000Y-11678600D01*
X12299000Y-11727500D02*
X12339000Y-11767500D01*
X12339000Y-11727500D02*
X12299000Y-11767500D01*
X12387900Y-10838500D02*
X12427900Y-10878500D01*
X12427900Y-10838500D02*
X12387900Y-10878500D01*
X12387900Y-10927400D02*
X12427900Y-10967400D01*
X12427900Y-10927400D02*
X12387900Y-10967400D01*
X12387900Y-11016300D02*
X12427900Y-11056300D01*
X12427900Y-11016300D02*
X12387900Y-11056300D01*
X12387900Y-11549700D02*
X12427900Y-11589700D01*
X12427900Y-11549700D02*
X12387900Y-11589700D01*
X12387900Y-11638600D02*
X12427900Y-11678600D01*
X12427900Y-11638600D02*
X12387900Y-11678600D01*
X12387900Y-11727500D02*
X12427900Y-11767500D01*
X12427900Y-11727500D02*
X12387900Y-11767500D01*
X12476800Y-10838500D02*
X12516800Y-10878500D01*
X12516800Y-10838500D02*
X12476800Y-10878500D01*
X12476800Y-10927400D02*
X12516800Y-10967400D01*
X12516800Y-10927400D02*
X12476800Y-10967400D01*
X12476800Y-11016300D02*
X12516800Y-11056300D01*
X12516800Y-11016300D02*
X12476800Y-11056300D01*
X12476800Y-11105200D02*
X12516800Y-11145200D01*
X12516800Y-11105200D02*
X12476800Y-11145200D01*
X12476800Y-11460800D02*
X12516800Y-11500800D01*
X12516800Y-11460800D02*
X12476800Y-11500800D01*
X12476800Y-11549700D02*
X12516800Y-11589700D01*
X12516800Y-11549700D02*
X12476800Y-11589700D01*
X12476800Y-11638600D02*
X12516800Y-11678600D01*
X12516800Y-11638600D02*
X12476800Y-11678600D01*
X12476800Y-11727500D02*
X12516800Y-11767500D01*
X12516800Y-11727500D02*
X12476800Y-11767500D01*
X12565700Y-10838500D02*
X12605700Y-10878500D01*
X12605700Y-10838500D02*
X12565700Y-10878500D01*
X12565700Y-10927400D02*
X12605700Y-10967400D01*
X12605700Y-10927400D02*
X12565700Y-10967400D01*
X12565700Y-11016300D02*
X12605700Y-11056300D01*
X12605700Y-11016300D02*
X12565700Y-11056300D01*
X12565700Y-11105200D02*
X12605700Y-11145200D01*
X12605700Y-11105200D02*
X12565700Y-11145200D01*
X12565700Y-11194100D02*
X12605700Y-11234100D01*
X12605700Y-11194100D02*
X12565700Y-11234100D01*
X12565700Y-11283000D02*
X12605700Y-11323000D01*
X12605700Y-11283000D02*
X12565700Y-11323000D01*
X12565700Y-11371900D02*
X12605700Y-11411900D01*
X12605700Y-11371900D02*
X12565700Y-11411900D01*
X12565700Y-11460800D02*
X12605700Y-11500800D01*
X12605700Y-11460800D02*
X12565700Y-11500800D01*
X12565700Y-11549700D02*
X12605700Y-11589700D01*
X12605700Y-11549700D02*
X12565700Y-11589700D01*
X12565700Y-11638600D02*
X12605700Y-11678600D01*
X12605700Y-11638600D02*
X12565700Y-11678600D01*
X12565700Y-11727500D02*
X12605700Y-11767500D01*
X12605700Y-11727500D02*
X12565700Y-11767500D01*
X12654600Y-10838500D02*
X12694600Y-10878500D01*
X12694600Y-10838500D02*
X12654600Y-10878500D01*
X12654600Y-10927400D02*
X12694600Y-10967400D01*
X12694600Y-10927400D02*
X12654600Y-10967400D01*
X12654600Y-11016300D02*
X12694600Y-11056300D01*
X12694600Y-11016300D02*
X12654600Y-11056300D01*
X12654600Y-11105200D02*
X12694600Y-11145200D01*
X12694600Y-11105200D02*
X12654600Y-11145200D01*
X12654600Y-11194100D02*
X12694600Y-11234100D01*
X12694600Y-11194100D02*
X12654600Y-11234100D01*
X12654600Y-11283000D02*
X12694600Y-11323000D01*
X12694600Y-11283000D02*
X12654600Y-11323000D01*
X12654600Y-11371900D02*
X12694600Y-11411900D01*
X12694600Y-11371900D02*
X12654600Y-11411900D01*
X12654600Y-11460800D02*
X12694600Y-11500800D01*
X12694600Y-11460800D02*
X12654600Y-11500800D01*
X12654600Y-11549700D02*
X12694600Y-11589700D01*
X12694600Y-11549700D02*
X12654600Y-11589700D01*
X12654600Y-11638600D02*
X12694600Y-11678600D01*
X12694600Y-11638600D02*
X12654600Y-11678600D01*
X12654600Y-11727500D02*
X12694600Y-11767500D01*
X12694600Y-11727500D02*
X12654600Y-11767500D01*
X12743500Y-10838500D02*
X12783500Y-10878500D01*
X12783500Y-10838500D02*
X12743500Y-10878500D01*
X12743500Y-10927400D02*
X12783500Y-10967400D01*
X12783500Y-10927400D02*
X12743500Y-10967400D01*
X12743500Y-11016300D02*
X12783500Y-11056300D01*
X12783500Y-11016300D02*
X12743500Y-11056300D01*
X12743500Y-11105200D02*
X12783500Y-11145200D01*
X12783500Y-11105200D02*
X12743500Y-11145200D01*
X12743500Y-11194100D02*
X12783500Y-11234100D01*
X12783500Y-11194100D02*
X12743500Y-11234100D01*
X12743500Y-11283000D02*
X12783500Y-11323000D01*
X12783500Y-11283000D02*
X12743500Y-11323000D01*
X12743500Y-11371900D02*
X12783500Y-11411900D01*
X12783500Y-11371900D02*
X12743500Y-11411900D01*
X12743500Y-11460800D02*
X12783500Y-11500800D01*
X12783500Y-11460800D02*
X12743500Y-11500800D01*
X12743500Y-11549700D02*
X12783500Y-11589700D01*
X12783500Y-11549700D02*
X12743500Y-11589700D01*
X12743500Y-11638600D02*
X12783500Y-11678600D01*
X12783500Y-11638600D02*
X12743500Y-11678600D01*
X12743500Y-11727500D02*
X12783500Y-11767500D01*
X12783500Y-11727500D02*
X12743500Y-11767500D01*
X12832400Y-10838500D02*
X12872400Y-10878500D01*
X12872400Y-10838500D02*
X12832400Y-10878500D01*
X12832400Y-10927400D02*
X12872400Y-10967400D01*
X12872400Y-10927400D02*
X12832400Y-10967400D01*
X12832400Y-11016300D02*
X12872400Y-11056300D01*
X12872400Y-11016300D02*
X12832400Y-11056300D01*
X12832400Y-11105200D02*
X12872400Y-11145200D01*
X12872400Y-11105200D02*
X12832400Y-11145200D01*
X12832400Y-11194100D02*
X12872400Y-11234100D01*
X12872400Y-11194100D02*
X12832400Y-11234100D01*
X12832400Y-11283000D02*
X12872400Y-11323000D01*
X12872400Y-11283000D02*
X12832400Y-11323000D01*
X12832400Y-11371900D02*
X12872400Y-11411900D01*
X12872400Y-11371900D02*
X12832400Y-11411900D01*
X12832400Y-11460800D02*
X12872400Y-11500800D01*
X12872400Y-11460800D02*
X12832400Y-11500800D01*
X12832400Y-11549700D02*
X12872400Y-11589700D01*
X12872400Y-11549700D02*
X12832400Y-11589700D01*
X12832400Y-11638600D02*
X12872400Y-11678600D01*
X12872400Y-11638600D02*
X12832400Y-11678600D01*
X12832400Y-11727500D02*
X12872400Y-11767500D01*
X12872400Y-11727500D02*
X12832400Y-11767500D01*
X12921300Y-10838500D02*
X12961300Y-10878500D01*
X12961300Y-10838500D02*
X12921300Y-10878500D01*
X12921300Y-10927400D02*
X12961300Y-10967400D01*
X12961300Y-10927400D02*
X12921300Y-10967400D01*
X12921300Y-11016300D02*
X12961300Y-11056300D01*
X12961300Y-11016300D02*
X12921300Y-11056300D01*
X12921300Y-11105200D02*
X12961300Y-11145200D01*
X12961300Y-11105200D02*
X12921300Y-11145200D01*
X12921300Y-11194100D02*
X12961300Y-11234100D01*
X12961300Y-11194100D02*
X12921300Y-11234100D01*
X12921300Y-11283000D02*
X12961300Y-11323000D01*
X12961300Y-11283000D02*
X12921300Y-11323000D01*
X12921300Y-11371900D02*
X12961300Y-11411900D01*
X12961300Y-11371900D02*
X12921300Y-11411900D01*
X12921300Y-11460800D02*
X12961300Y-11500800D01*
X12961300Y-11460800D02*
X12921300Y-11500800D01*
X12921300Y-11549700D02*
X12961300Y-11589700D01*
X12961300Y-11549700D02*
X12921300Y-11589700D01*
X12921300Y-11638600D02*
X12961300Y-11678600D01*
X12961300Y-11638600D02*
X12921300Y-11678600D01*
X12921300Y-11727500D02*
X12961300Y-11767500D01*
X12961300Y-11727500D02*
X12921300Y-11767500D01*
X13010200Y-10838500D02*
X13050200Y-10878500D01*
X13050200Y-10838500D02*
X13010200Y-10878500D01*
X13010200Y-10927400D02*
X13050200Y-10967400D01*
X13050200Y-10927400D02*
X13010200Y-10967400D01*
X13010200Y-11016300D02*
X13050200Y-11056300D01*
X13050200Y-11016300D02*
X13010200Y-11056300D01*
X13010200Y-11105200D02*
X13050200Y-11145200D01*
X13050200Y-11105200D02*
X13010200Y-11145200D01*
X13010200Y-11194100D02*
X13050200Y-11234100D01*
X13050200Y-11194100D02*
X13010200Y-11234100D01*
X13010200Y-11283000D02*
X13050200Y-11323000D01*
X13050200Y-11283000D02*
X13010200Y-11323000D01*
X13010200Y-11371900D02*
X13050200Y-11411900D01*
X13050200Y-11371900D02*
X13010200Y-11411900D01*
X13010200Y-11460800D02*
X13050200Y-11500800D01*
X13050200Y-11460800D02*
X13010200Y-11500800D01*
X13010200Y-11549700D02*
X13050200Y-11589700D01*
X13050200Y-11549700D02*
X13010200Y-11589700D01*
X13010200Y-11638600D02*
X13050200Y-11678600D01*
X13050200Y-11638600D02*
X13010200Y-11678600D01*
X13010200Y-11727500D02*
X13050200Y-11767500D01*
X13050200Y-11727500D02*
X13010200Y-11767500D01*
X13099100Y-10838500D02*
X13139100Y-10878500D01*
X13139100Y-10838500D02*
X13099100Y-10878500D01*
X13099100Y-10927400D02*
X13139100Y-10967400D01*
X13139100Y-10927400D02*
X13099100Y-10967400D01*
X13099100Y-11016300D02*
X13139100Y-11056300D01*
X13139100Y-11016300D02*
X13099100Y-11056300D01*
X13099100Y-11105200D02*
X13139100Y-11145200D01*
X13139100Y-11105200D02*
X13099100Y-11145200D01*
X13099100Y-11194100D02*
X13139100Y-11234100D01*
X13139100Y-11194100D02*
X13099100Y-11234100D01*
X13099100Y-11283000D02*
X13139100Y-11323000D01*
X13139100Y-11283000D02*
X13099100Y-11323000D01*
X13099100Y-11371900D02*
X13139100Y-11411900D01*
X13139100Y-11371900D02*
X13099100Y-11411900D01*
X13099100Y-11460800D02*
X13139100Y-11500800D01*
X13139100Y-11460800D02*
X13099100Y-11500800D01*
X13099100Y-11549700D02*
X13139100Y-11589700D01*
X13139100Y-11549700D02*
X13099100Y-11589700D01*
X13099100Y-11638600D02*
X13139100Y-11678600D01*
X13139100Y-11638600D02*
X13099100Y-11678600D01*
X13099100Y-11727500D02*
X13139100Y-11767500D01*
X13139100Y-11727500D02*
X13099100Y-11767500D01*
X13188000Y-10838500D02*
X13228000Y-10878500D01*
X13228000Y-10838500D02*
X13188000Y-10878500D01*
X13188000Y-10927400D02*
X13228000Y-10967400D01*
X13228000Y-10927400D02*
X13188000Y-10967400D01*
X13188000Y-11016300D02*
X13228000Y-11056300D01*
X13228000Y-11016300D02*
X13188000Y-11056300D01*
X13188000Y-11105200D02*
X13228000Y-11145200D01*
X13228000Y-11105200D02*
X13188000Y-11145200D01*
X13188000Y-11194100D02*
X13228000Y-11234100D01*
X13228000Y-11194100D02*
X13188000Y-11234100D01*
X13188000Y-11283000D02*
X13228000Y-11323000D01*
X13228000Y-11283000D02*
X13188000Y-11323000D01*
X13188000Y-11371900D02*
X13228000Y-11411900D01*
X13228000Y-11371900D02*
X13188000Y-11411900D01*
X13188000Y-11460800D02*
X13228000Y-11500800D01*
X13228000Y-11460800D02*
X13188000Y-11500800D01*
X13188000Y-11549700D02*
X13228000Y-11589700D01*
X13228000Y-11549700D02*
X13188000Y-11589700D01*
X13188000Y-11638600D02*
X13228000Y-11678600D01*
X13228000Y-11638600D02*
X13188000Y-11678600D01*
X13188000Y-11727500D02*
X13228000Y-11767500D01*
X13228000Y-11727500D02*
X13188000Y-11767500D01*
X13276900Y-10838500D02*
X13316900Y-10878500D01*
X13316900Y-10838500D02*
X13276900Y-10878500D01*
X13276900Y-10927400D02*
X13316900Y-10967400D01*
X13316900Y-10927400D02*
X13276900Y-10967400D01*
X13276900Y-11016300D02*
X13316900Y-11056300D01*
X13316900Y-11016300D02*
X13276900Y-11056300D01*
X13276900Y-11105200D02*
X13316900Y-11145200D01*
X13316900Y-11105200D02*
X13276900Y-11145200D01*
X13276900Y-11194100D02*
X13316900Y-11234100D01*
X13316900Y-11194100D02*
X13276900Y-11234100D01*
X13276900Y-11283000D02*
X13316900Y-11323000D01*
X13316900Y-11283000D02*
X13276900Y-11323000D01*
X13276900Y-11371900D02*
X13316900Y-11411900D01*
X13316900Y-11371900D02*
X13276900Y-11411900D01*
X13276900Y-11460800D02*
X13316900Y-11500800D01*
X13316900Y-11460800D02*
X13276900Y-11500800D01*
X13276900Y-11549700D02*
X13316900Y-11589700D01*
X13316900Y-11549700D02*
X13276900Y-11589700D01*
X13276900Y-11638600D02*
X13316900Y-11678600D01*
X13316900Y-11638600D02*
X13276900Y-11678600D01*
X13276900Y-11727500D02*
X13316900Y-11767500D01*
X13316900Y-11727500D02*
X13276900Y-11767500D01*
X13365800Y-10838500D02*
X13405800Y-10878500D01*
X13405800Y-10838500D02*
X13365800Y-10878500D01*
X13365800Y-10927400D02*
X13405800Y-10967400D01*
X13405800Y-10927400D02*
X13365800Y-10967400D01*
X13365800Y-11016300D02*
X13405800Y-11056300D01*
X13405800Y-11016300D02*
X13365800Y-11056300D01*
X13365800Y-11105200D02*
X13405800Y-11145200D01*
X13405800Y-11105200D02*
X13365800Y-11145200D01*
X13365800Y-11194100D02*
X13405800Y-11234100D01*
X13405800Y-11194100D02*
X13365800Y-11234100D01*
X13365800Y-11283000D02*
X13405800Y-11323000D01*
X13405800Y-11283000D02*
X13365800Y-11323000D01*
X13365800Y-11371900D02*
X13405800Y-11411900D01*
X13405800Y-11371900D02*
X13365800Y-11411900D01*
X13365800Y-11460800D02*
X13405800Y-11500800D01*
X13405800Y-11460800D02*
X13365800Y-11500800D01*
X13365800Y-11549700D02*
X13405800Y-11589700D01*
X13405800Y-11549700D02*
X13365800Y-11589700D01*
X13365800Y-11638600D02*
X13405800Y-11678600D01*
X13405800Y-11638600D02*
X13365800Y-11678600D01*
X13365800Y-11727500D02*
X13405800Y-11767500D01*
X13405800Y-11727500D02*
X13365800Y-11767500D01*
X13454700Y-10838500D02*
X13494700Y-10878500D01*
X13494700Y-10838500D02*
X13454700Y-10878500D01*
X13454700Y-10927400D02*
X13494700Y-10967400D01*
X13494700Y-10927400D02*
X13454700Y-10967400D01*
X13454700Y-11016300D02*
X13494700Y-11056300D01*
X13494700Y-11016300D02*
X13454700Y-11056300D01*
X13454700Y-11105200D02*
X13494700Y-11145200D01*
X13494700Y-11105200D02*
X13454700Y-11145200D01*
X13454700Y-11194100D02*
X13494700Y-11234100D01*
X13494700Y-11194100D02*
X13454700Y-11234100D01*
X13454700Y-11283000D02*
X13494700Y-11323000D01*
X13494700Y-11283000D02*
X13454700Y-11323000D01*
X13454700Y-11371900D02*
X13494700Y-11411900D01*
X13494700Y-11371900D02*
X13454700Y-11411900D01*
X13454700Y-11460800D02*
X13494700Y-11500800D01*
X13494700Y-11460800D02*
X13454700Y-11500800D01*
X13454700Y-11549700D02*
X13494700Y-11589700D01*
X13494700Y-11549700D02*
X13454700Y-11589700D01*
X13454700Y-11638600D02*
X13494700Y-11678600D01*
X13494700Y-11638600D02*
X13454700Y-11678600D01*
X13454700Y-11727500D02*
X13494700Y-11767500D01*
X13494700Y-11727500D02*
X13454700Y-11767500D01*
X13543600Y-10838500D02*
X13583600Y-10878500D01*
X13583600Y-10838500D02*
X13543600Y-10878500D01*
X13543600Y-10927400D02*
X13583600Y-10967400D01*
X13583600Y-10927400D02*
X13543600Y-10967400D01*
X13543600Y-11016300D02*
X13583600Y-11056300D01*
X13583600Y-11016300D02*
X13543600Y-11056300D01*
X13543600Y-11105200D02*
X13583600Y-11145200D01*
X13583600Y-11105200D02*
X13543600Y-11145200D01*
X13543600Y-11194100D02*
X13583600Y-11234100D01*
X13583600Y-11194100D02*
X13543600Y-11234100D01*
X13543600Y-11283000D02*
X13583600Y-11323000D01*
X13583600Y-11283000D02*
X13543600Y-11323000D01*
X13543600Y-11371900D02*
X13583600Y-11411900D01*
X13583600Y-11371900D02*
X13543600Y-11411900D01*
X13543600Y-11460800D02*
X13583600Y-11500800D01*
X13583600Y-11460800D02*
X13543600Y-11500800D01*
X13543600Y-11549700D02*
X13583600Y-11589700D01*
X13583600Y-11549700D02*
X13543600Y-11589700D01*
X13543600Y-11638600D02*
X13583600Y-11678600D01*
X13583600Y-11638600D02*
X13543600Y-11678600D01*
X13543600Y-11727500D02*
X13583600Y-11767500D01*
X13583600Y-11727500D02*
X13543600Y-11767500D01*
X13746800Y-8755700D02*
X13786800Y-8795700D01*
X13786800Y-8755700D02*
X13746800Y-8795700D01*
X14051600Y-8400100D02*
X14091600Y-8440100D01*
X14091600Y-8400100D02*
X14051600Y-8440100D01*
X14737400Y-10838500D02*
X14777400Y-10878500D01*
X14777400Y-10838500D02*
X14737400Y-10878500D01*
X14737400Y-10927400D02*
X14777400Y-10967400D01*
X14777400Y-10927400D02*
X14737400Y-10967400D01*
X14737400Y-11016300D02*
X14777400Y-11056300D01*
X14777400Y-11016300D02*
X14737400Y-11056300D01*
X14737400Y-11105200D02*
X14777400Y-11145200D01*
X14777400Y-11105200D02*
X14737400Y-11145200D01*
X14737400Y-11194100D02*
X14777400Y-11234100D01*
X14777400Y-11194100D02*
X14737400Y-11234100D01*
X14737400Y-11283000D02*
X14777400Y-11323000D01*
X14777400Y-11283000D02*
X14737400Y-11323000D01*
X14737400Y-11371900D02*
X14777400Y-11411900D01*
X14777400Y-11371900D02*
X14737400Y-11411900D01*
X14737400Y-11460800D02*
X14777400Y-11500800D01*
X14777400Y-11460800D02*
X14737400Y-11500800D01*
X14737400Y-11549700D02*
X14777400Y-11589700D01*
X14777400Y-11549700D02*
X14737400Y-11589700D01*
X14737400Y-11638600D02*
X14777400Y-11678600D01*
X14777400Y-11638600D02*
X14737400Y-11678600D01*
X14737400Y-11727500D02*
X14777400Y-11767500D01*
X14777400Y-11727500D02*
X14737400Y-11767500D01*
X14826300Y-10838500D02*
X14866300Y-10878500D01*
X14866300Y-10838500D02*
X14826300Y-10878500D01*
X14826300Y-10927400D02*
X14866300Y-10967400D01*
X14866300Y-10927400D02*
X14826300Y-10967400D01*
X14826300Y-11016300D02*
X14866300Y-11056300D01*
X14866300Y-11016300D02*
X14826300Y-11056300D01*
X14826300Y-11105200D02*
X14866300Y-11145200D01*
X14866300Y-11105200D02*
X14826300Y-11145200D01*
X14826300Y-11194100D02*
X14866300Y-11234100D01*
X14866300Y-11194100D02*
X14826300Y-11234100D01*
X14826300Y-11283000D02*
X14866300Y-11323000D01*
X14866300Y-11283000D02*
X14826300Y-11323000D01*
X14826300Y-11371900D02*
X14866300Y-11411900D01*
X14866300Y-11371900D02*
X14826300Y-11411900D01*
X14826300Y-11460800D02*
X14866300Y-11500800D01*
X14866300Y-11460800D02*
X14826300Y-11500800D01*
X14826300Y-11549700D02*
X14866300Y-11589700D01*
X14866300Y-11549700D02*
X14826300Y-11589700D01*
X14826300Y-11638600D02*
X14866300Y-11678600D01*
X14866300Y-11638600D02*
X14826300Y-11678600D01*
X14826300Y-11727500D02*
X14866300Y-11767500D01*
X14866300Y-11727500D02*
X14826300Y-11767500D01*
X14915200Y-10838500D02*
X14955200Y-10878500D01*
X14955200Y-10838500D02*
X14915200Y-10878500D01*
X14915200Y-10927400D02*
X14955200Y-10967400D01*
X14955200Y-10927400D02*
X14915200Y-10967400D01*
X14915200Y-11016300D02*
X14955200Y-11056300D01*
X14955200Y-11016300D02*
X14915200Y-11056300D01*
X14915200Y-11105200D02*
X14955200Y-11145200D01*
X14955200Y-11105200D02*
X14915200Y-11145200D01*
X14915200Y-11194100D02*
X14955200Y-11234100D01*
X14955200Y-11194100D02*
X14915200Y-11234100D01*
X14915200Y-11283000D02*
X14955200Y-11323000D01*
X14955200Y-11283000D02*
X14915200Y-11323000D01*
X14915200Y-11371900D02*
X14955200Y-11411900D01*
X14955200Y-11371900D02*
X14915200Y-11411900D01*
X14915200Y-11460800D02*
X14955200Y-11500800D01*
X14955200Y-11460800D02*
X14915200Y-11500800D01*
X14915200Y-11549700D02*
X14955200Y-11589700D01*
X14955200Y-11549700D02*
X14915200Y-11589700D01*
X14915200Y-11638600D02*
X14955200Y-11678600D01*
X14955200Y-11638600D02*
X14915200Y-11678600D01*
X14915200Y-11727500D02*
X14955200Y-11767500D01*
X14955200Y-11727500D02*
X14915200Y-11767500D01*
X15004100Y-10838500D02*
X15044100Y-10878500D01*
X15044100Y-10838500D02*
X15004100Y-10878500D01*
X15004100Y-10927400D02*
X15044100Y-10967400D01*
X15044100Y-10927400D02*
X15004100Y-10967400D01*
X15004100Y-11016300D02*
X15044100Y-11056300D01*
X15044100Y-11016300D02*
X15004100Y-11056300D01*
X15004100Y-11105200D02*
X15044100Y-11145200D01*
X15044100Y-11105200D02*
X15004100Y-11145200D01*
X15004100Y-11194100D02*
X15044100Y-11234100D01*
X15044100Y-11194100D02*
X15004100Y-11234100D01*
X15004100Y-11283000D02*
X15044100Y-11323000D01*
X15044100Y-11283000D02*
X15004100Y-11323000D01*
X15004100Y-11371900D02*
X15044100Y-11411900D01*
X15044100Y-11371900D02*
X15004100Y-11411900D01*
X15004100Y-11460800D02*
X15044100Y-11500800D01*
X15044100Y-11460800D02*
X15004100Y-11500800D01*
X15004100Y-11549700D02*
X15044100Y-11589700D01*
X15044100Y-11549700D02*
X15004100Y-11589700D01*
X15004100Y-11638600D02*
X15044100Y-11678600D01*
X15044100Y-11638600D02*
X15004100Y-11678600D01*
X15004100Y-11727500D02*
X15044100Y-11767500D01*
X15044100Y-11727500D02*
X15004100Y-11767500D01*
X15093000Y-10838500D02*
X15133000Y-10878500D01*
X15133000Y-10838500D02*
X15093000Y-10878500D01*
X15093000Y-10927400D02*
X15133000Y-10967400D01*
X15133000Y-10927400D02*
X15093000Y-10967400D01*
X15093000Y-11016300D02*
X15133000Y-11056300D01*
X15133000Y-11016300D02*
X15093000Y-11056300D01*
X15093000Y-11105200D02*
X15133000Y-11145200D01*
X15133000Y-11105200D02*
X15093000Y-11145200D01*
X15093000Y-11194100D02*
X15133000Y-11234100D01*
X15133000Y-11194100D02*
X15093000Y-11234100D01*
X15093000Y-11283000D02*
X15133000Y-11323000D01*
X15133000Y-11283000D02*
X15093000Y-11323000D01*
X15093000Y-11371900D02*
X15133000Y-11411900D01*
X15133000Y-11371900D02*
X15093000Y-11411900D01*
X15093000Y-11460800D02*
X15133000Y-11500800D01*
X15133000Y-11460800D02*
X15093000Y-11500800D01*
X15093000Y-11549700D02*
X15133000Y-11589700D01*
X15133000Y-11549700D02*
X15093000Y-11589700D01*
X15093000Y-11638600D02*
X15133000Y-11678600D01*
X15133000Y-11638600D02*
X15093000Y-11678600D01*
X15093000Y-11727500D02*
X15133000Y-11767500D01*
X15133000Y-11727500D02*
X15093000Y-11767500D01*
X15181900Y-10838500D02*
X15221900Y-10878500D01*
X15221900Y-10838500D02*
X15181900Y-10878500D01*
X15181900Y-10927400D02*
X15221900Y-10967400D01*
X15221900Y-10927400D02*
X15181900Y-10967400D01*
X15181900Y-11016300D02*
X15221900Y-11056300D01*
X15221900Y-11016300D02*
X15181900Y-11056300D01*
X15181900Y-11105200D02*
X15221900Y-11145200D01*
X15221900Y-11105200D02*
X15181900Y-11145200D01*
X15181900Y-11194100D02*
X15221900Y-11234100D01*
X15221900Y-11194100D02*
X15181900Y-11234100D01*
X15181900Y-11283000D02*
X15221900Y-11323000D01*
X15221900Y-11283000D02*
X15181900Y-11323000D01*
X15181900Y-11371900D02*
X15221900Y-11411900D01*
X15221900Y-11371900D02*
X15181900Y-11411900D01*
X15181900Y-11460800D02*
X15221900Y-11500800D01*
X15221900Y-11460800D02*
X15181900Y-11500800D01*
X15181900Y-11549700D02*
X15221900Y-11589700D01*
X15221900Y-11549700D02*
X15181900Y-11589700D01*
X15181900Y-11638600D02*
X15221900Y-11678600D01*
X15221900Y-11638600D02*
X15181900Y-11678600D01*
X15181900Y-11727500D02*
X15221900Y-11767500D01*
X15221900Y-11727500D02*
X15181900Y-11767500D01*
X15220000Y-8273100D02*
X15260000Y-8313100D01*
X15260000Y-8273100D02*
X15220000Y-8313100D01*
X15270800Y-10838500D02*
X15310800Y-10878500D01*
X15310800Y-10838500D02*
X15270800Y-10878500D01*
X15270800Y-10927400D02*
X15310800Y-10967400D01*
X15310800Y-10927400D02*
X15270800Y-10967400D01*
X15270800Y-11016300D02*
X15310800Y-11056300D01*
X15310800Y-11016300D02*
X15270800Y-11056300D01*
X15270800Y-11105200D02*
X15310800Y-11145200D01*
X15310800Y-11105200D02*
X15270800Y-11145200D01*
X15270800Y-11194100D02*
X15310800Y-11234100D01*
X15310800Y-11194100D02*
X15270800Y-11234100D01*
X15270800Y-11283000D02*
X15310800Y-11323000D01*
X15310800Y-11283000D02*
X15270800Y-11323000D01*
X15270800Y-11371900D02*
X15310800Y-11411900D01*
X15310800Y-11371900D02*
X15270800Y-11411900D01*
X15270800Y-11460800D02*
X15310800Y-11500800D01*
X15310800Y-11460800D02*
X15270800Y-11500800D01*
X15270800Y-11549700D02*
X15310800Y-11589700D01*
X15310800Y-11549700D02*
X15270800Y-11589700D01*
X15270800Y-11638600D02*
X15310800Y-11678600D01*
X15310800Y-11638600D02*
X15270800Y-11678600D01*
X15270800Y-11727500D02*
X15310800Y-11767500D01*
X15310800Y-11727500D02*
X15270800Y-11767500D01*
X15359700Y-10838500D02*
X15399700Y-10878500D01*
X15399700Y-10838500D02*
X15359700Y-10878500D01*
X15359700Y-10927400D02*
X15399700Y-10967400D01*
X15399700Y-10927400D02*
X15359700Y-10967400D01*
X15359700Y-11016300D02*
X15399700Y-11056300D01*
X15399700Y-11016300D02*
X15359700Y-11056300D01*
X15359700Y-11105200D02*
X15399700Y-11145200D01*
X15399700Y-11105200D02*
X15359700Y-11145200D01*
X15359700Y-11194100D02*
X15399700Y-11234100D01*
X15399700Y-11194100D02*
X15359700Y-11234100D01*
X15359700Y-11283000D02*
X15399700Y-11323000D01*
X15399700Y-11283000D02*
X15359700Y-11323000D01*
X15359700Y-11371900D02*
X15399700Y-11411900D01*
X15399700Y-11371900D02*
X15359700Y-11411900D01*
X15359700Y-11460800D02*
X15399700Y-11500800D01*
X15399700Y-11460800D02*
X15359700Y-11500800D01*
X15359700Y-11549700D02*
X15399700Y-11589700D01*
X15399700Y-11549700D02*
X15359700Y-11589700D01*
X15359700Y-11638600D02*
X15399700Y-11678600D01*
X15399700Y-11638600D02*
X15359700Y-11678600D01*
X15359700Y-11727500D02*
X15399700Y-11767500D01*
X15399700Y-11727500D02*
X15359700Y-11767500D01*
X15372400Y-8273100D02*
X15412400Y-8313100D01*
X15412400Y-8273100D02*
X15372400Y-8313100D01*
X15448600Y-10838500D02*
X15488600Y-10878500D01*
X15488600Y-10838500D02*
X15448600Y-10878500D01*
X15448600Y-10927400D02*
X15488600Y-10967400D01*
X15488600Y-10927400D02*
X15448600Y-10967400D01*
X15448600Y-11016300D02*
X15488600Y-11056300D01*
X15488600Y-11016300D02*
X15448600Y-11056300D01*
X15448600Y-11105200D02*
X15488600Y-11145200D01*
X15488600Y-11105200D02*
X15448600Y-11145200D01*
X15448600Y-11194100D02*
X15488600Y-11234100D01*
X15488600Y-11194100D02*
X15448600Y-11234100D01*
X15448600Y-11283000D02*
X15488600Y-11323000D01*
X15488600Y-11283000D02*
X15448600Y-11323000D01*
X15448600Y-11371900D02*
X15488600Y-11411900D01*
X15488600Y-11371900D02*
X15448600Y-11411900D01*
X15448600Y-11460800D02*
X15488600Y-11500800D01*
X15488600Y-11460800D02*
X15448600Y-11500800D01*
X15448600Y-11549700D02*
X15488600Y-11589700D01*
X15488600Y-11549700D02*
X15448600Y-11589700D01*
X15448600Y-11638600D02*
X15488600Y-11678600D01*
X15488600Y-11638600D02*
X15448600Y-11678600D01*
X15448600Y-11727500D02*
X15488600Y-11767500D01*
X15488600Y-11727500D02*
X15448600Y-11767500D01*
X15524800Y-9212900D02*
X15564800Y-9252900D01*
X15564800Y-9212900D02*
X15524800Y-9252900D01*
X15537500Y-10838500D02*
X15577500Y-10878500D01*
X15577500Y-10838500D02*
X15537500Y-10878500D01*
X15537500Y-10927400D02*
X15577500Y-10967400D01*
X15577500Y-10927400D02*
X15537500Y-10967400D01*
X15537500Y-11016300D02*
X15577500Y-11056300D01*
X15577500Y-11016300D02*
X15537500Y-11056300D01*
X15537500Y-11105200D02*
X15577500Y-11145200D01*
X15577500Y-11105200D02*
X15537500Y-11145200D01*
X15537500Y-11194100D02*
X15577500Y-11234100D01*
X15577500Y-11194100D02*
X15537500Y-11234100D01*
X15537500Y-11283000D02*
X15577500Y-11323000D01*
X15577500Y-11283000D02*
X15537500Y-11323000D01*
X15537500Y-11371900D02*
X15577500Y-11411900D01*
X15577500Y-11371900D02*
X15537500Y-11411900D01*
X15537500Y-11460800D02*
X15577500Y-11500800D01*
X15577500Y-11460800D02*
X15537500Y-11500800D01*
X15537500Y-11549700D02*
X15577500Y-11589700D01*
X15577500Y-11549700D02*
X15537500Y-11589700D01*
X15537500Y-11638600D02*
X15577500Y-11678600D01*
X15577500Y-11638600D02*
X15537500Y-11678600D01*
X15537500Y-11727500D02*
X15577500Y-11767500D01*
X15577500Y-11727500D02*
X15537500Y-11767500D01*
X15626400Y-10838500D02*
X15666400Y-10878500D01*
X15666400Y-10838500D02*
X15626400Y-10878500D01*
X15626400Y-10927400D02*
X15666400Y-10967400D01*
X15666400Y-10927400D02*
X15626400Y-10967400D01*
X15626400Y-11016300D02*
X15666400Y-11056300D01*
X15666400Y-11016300D02*
X15626400Y-11056300D01*
X15626400Y-11105200D02*
X15666400Y-11145200D01*
X15666400Y-11105200D02*
X15626400Y-11145200D01*
X15626400Y-11194100D02*
X15666400Y-11234100D01*
X15666400Y-11194100D02*
X15626400Y-11234100D01*
X15626400Y-11283000D02*
X15666400Y-11323000D01*
X15666400Y-11283000D02*
X15626400Y-11323000D01*
X15626400Y-11371900D02*
X15666400Y-11411900D01*
X15666400Y-11371900D02*
X15626400Y-11411900D01*
X15626400Y-11460800D02*
X15666400Y-11500800D01*
X15666400Y-11460800D02*
X15626400Y-11500800D01*
X15626400Y-11549700D02*
X15666400Y-11589700D01*
X15666400Y-11549700D02*
X15626400Y-11589700D01*
X15626400Y-11638600D02*
X15666400Y-11678600D01*
X15666400Y-11638600D02*
X15626400Y-11678600D01*
X15626400Y-11727500D02*
X15666400Y-11767500D01*
X15666400Y-11727500D02*
X15626400Y-11767500D01*
X15715300Y-10838500D02*
X15755300Y-10878500D01*
X15755300Y-10838500D02*
X15715300Y-10878500D01*
X15715300Y-10927400D02*
X15755300Y-10967400D01*
X15755300Y-10927400D02*
X15715300Y-10967400D01*
X15715300Y-11016300D02*
X15755300Y-11056300D01*
X15755300Y-11016300D02*
X15715300Y-11056300D01*
X15715300Y-11105200D02*
X15755300Y-11145200D01*
X15755300Y-11105200D02*
X15715300Y-11145200D01*
X15715300Y-11194100D02*
X15755300Y-11234100D01*
X15755300Y-11194100D02*
X15715300Y-11234100D01*
X15715300Y-11283000D02*
X15755300Y-11323000D01*
X15755300Y-11283000D02*
X15715300Y-11323000D01*
X15715300Y-11371900D02*
X15755300Y-11411900D01*
X15755300Y-11371900D02*
X15715300Y-11411900D01*
X15715300Y-11460800D02*
X15755300Y-11500800D01*
X15755300Y-11460800D02*
X15715300Y-11500800D01*
X15715300Y-11549700D02*
X15755300Y-11589700D01*
X15755300Y-11549700D02*
X15715300Y-11589700D01*
X15715300Y-11638600D02*
X15755300Y-11678600D01*
X15755300Y-11638600D02*
X15715300Y-11678600D01*
X15715300Y-11727500D02*
X15755300Y-11767500D01*
X15755300Y-11727500D02*
X15715300Y-11767500D01*
X15804200Y-10838500D02*
X15844200Y-10878500D01*
X15844200Y-10838500D02*
X15804200Y-10878500D01*
X15804200Y-10927400D02*
X15844200Y-10967400D01*
X15844200Y-10927400D02*
X15804200Y-10967400D01*
X15804200Y-11016300D02*
X15844200Y-11056300D01*
X15844200Y-11016300D02*
X15804200Y-11056300D01*
X15804200Y-11105200D02*
X15844200Y-11145200D01*
X15844200Y-11105200D02*
X15804200Y-11145200D01*
X15804200Y-11460800D02*
X15844200Y-11500800D01*
X15844200Y-11460800D02*
X15804200Y-11500800D01*
X15804200Y-11549700D02*
X15844200Y-11589700D01*
X15844200Y-11549700D02*
X15804200Y-11589700D01*
X15804200Y-11638600D02*
X15844200Y-11678600D01*
X15844200Y-11638600D02*
X15804200Y-11678600D01*
X15804200Y-11727500D02*
X15844200Y-11767500D01*
X15844200Y-11727500D02*
X15804200Y-11767500D01*
X15893100Y-10838500D02*
X15933100Y-10878500D01*
X15933100Y-10838500D02*
X15893100Y-10878500D01*
X15893100Y-10927400D02*
X15933100Y-10967400D01*
X15933100Y-10927400D02*
X15893100Y-10967400D01*
X15893100Y-11016300D02*
X15933100Y-11056300D01*
X15933100Y-11016300D02*
X15893100Y-11056300D01*
X15893100Y-11549700D02*
X15933100Y-11589700D01*
X15933100Y-11549700D02*
X15893100Y-11589700D01*
X15893100Y-11638600D02*
X15933100Y-11678600D01*
X15933100Y-11638600D02*
X15893100Y-11678600D01*
X15893100Y-11727500D02*
X15933100Y-11767500D01*
X15933100Y-11727500D02*
X15893100Y-11767500D01*
X15982000Y-10838500D02*
X16022000Y-10878500D01*
X16022000Y-10838500D02*
X15982000Y-10878500D01*
X15982000Y-10927400D02*
X16022000Y-10967400D01*
X16022000Y-10927400D02*
X15982000Y-10967400D01*
X15982000Y-11016300D02*
X16022000Y-11056300D01*
X16022000Y-11016300D02*
X15982000Y-11056300D01*
X15982000Y-11549700D02*
X16022000Y-11589700D01*
X16022000Y-11549700D02*
X15982000Y-11589700D01*
X15982000Y-11727500D02*
X16022000Y-11767500D01*
X16022000Y-11727500D02*
X15982000Y-11767500D01*
X15982149Y-11638038D02*
X16022149Y-11678038D01*
X16022149Y-11638038D02*
X15982149Y-11678038D01*
X16070900Y-9212900D02*
X16110900Y-9252900D01*
X16110900Y-9212900D02*
X16070900Y-9252900D01*
X16070900Y-10838500D02*
X16110900Y-10878500D01*
X16110900Y-10838500D02*
X16070900Y-10878500D01*
X16070900Y-10927400D02*
X16110900Y-10967400D01*
X16110900Y-10927400D02*
X16070900Y-10967400D01*
X16070900Y-11016300D02*
X16110900Y-11056300D01*
X16110900Y-11016300D02*
X16070900Y-11056300D01*
X16070900Y-11549700D02*
X16110900Y-11589700D01*
X16110900Y-11549700D02*
X16070900Y-11589700D01*
X16070900Y-11638600D02*
X16110900Y-11678600D01*
X16110900Y-11638600D02*
X16070900Y-11678600D01*
X16070900Y-11727500D02*
X16110900Y-11767500D01*
X16110900Y-11727500D02*
X16070900Y-11767500D01*
X16083600Y-9606600D02*
X16123600Y-9646600D01*
X16123600Y-9606600D02*
X16083600Y-9646600D01*
X16159800Y-10838500D02*
X16199800Y-10878500D01*
X16199800Y-10838500D02*
X16159800Y-10878500D01*
X16159800Y-10927400D02*
X16199800Y-10967400D01*
X16199800Y-10927400D02*
X16159800Y-10967400D01*
X16159800Y-11016300D02*
X16199800Y-11056300D01*
X16199800Y-11016300D02*
X16159800Y-11056300D01*
X16159800Y-11549700D02*
X16199800Y-11589700D01*
X16199800Y-11549700D02*
X16159800Y-11589700D01*
X16159800Y-11638600D02*
X16199800Y-11678600D01*
X16199800Y-11638600D02*
X16159800Y-11678600D01*
X16159800Y-11727500D02*
X16199800Y-11767500D01*
X16199800Y-11727500D02*
X16159800Y-11767500D01*
X16435450Y-9162100D02*
X16475450Y-9202100D01*
X16475450Y-9162100D02*
X16435450Y-9202100D01*
X16435450Y-9670100D02*
X16475450Y-9710100D01*
X16475450Y-9670100D02*
X16435450Y-9710100D01*
X17506000Y-4691700D02*
X17546000Y-4731700D01*
X17546000Y-4691700D02*
X17506000Y-4731700D01*
X17506000Y-4780600D02*
X17546000Y-4820600D01*
X17546000Y-4780600D02*
X17506000Y-4820600D01*
X17506000Y-4869500D02*
X17546000Y-4909500D01*
X17546000Y-4869500D02*
X17506000Y-4909500D01*
X17506000Y-5402900D02*
X17546000Y-5442900D01*
X17546000Y-5402900D02*
X17506000Y-5442900D01*
X17506000Y-5491800D02*
X17546000Y-5531800D01*
X17546000Y-5491800D02*
X17506000Y-5531800D01*
X17506000Y-5580700D02*
X17546000Y-5620700D01*
X17546000Y-5580700D02*
X17506000Y-5620700D01*
X17594900Y-4691700D02*
X17634900Y-4731700D01*
X17634900Y-4691700D02*
X17594900Y-4731700D01*
X17594900Y-4780600D02*
X17634900Y-4820600D01*
X17634900Y-4780600D02*
X17594900Y-4820600D01*
X17594900Y-4869500D02*
X17634900Y-4909500D01*
X17634900Y-4869500D02*
X17594900Y-4909500D01*
X17594900Y-5402900D02*
X17634900Y-5442900D01*
X17634900Y-5402900D02*
X17594900Y-5442900D01*
X17594900Y-5491800D02*
X17634900Y-5531800D01*
X17634900Y-5491800D02*
X17594900Y-5531800D01*
X17594900Y-5580700D02*
X17634900Y-5620700D01*
X17634900Y-5580700D02*
X17594900Y-5620700D01*
X17683651Y-4781162D02*
X17723651Y-4821162D01*
X17723651Y-4781162D02*
X17683651Y-4821162D01*
X17683800Y-4691700D02*
X17723800Y-4731700D01*
X17723800Y-4691700D02*
X17683800Y-4731700D01*
X17683800Y-4869500D02*
X17723800Y-4909500D01*
X17723800Y-4869500D02*
X17683800Y-4909500D01*
X17683800Y-5402900D02*
X17723800Y-5442900D01*
X17723800Y-5402900D02*
X17683800Y-5442900D01*
X17683800Y-5491800D02*
X17723800Y-5531800D01*
X17723800Y-5491800D02*
X17683800Y-5531800D01*
X17683800Y-5580700D02*
X17723800Y-5620700D01*
X17723800Y-5580700D02*
X17683800Y-5620700D01*
X17772700Y-4691700D02*
X17812700Y-4731700D01*
X17812700Y-4691700D02*
X17772700Y-4731700D01*
X17772700Y-4780600D02*
X17812700Y-4820600D01*
X17812700Y-4780600D02*
X17772700Y-4820600D01*
X17772700Y-4869500D02*
X17812700Y-4909500D01*
X17812700Y-4869500D02*
X17772700Y-4909500D01*
X17772700Y-5402900D02*
X17812700Y-5442900D01*
X17812700Y-5402900D02*
X17772700Y-5442900D01*
X17772700Y-5491800D02*
X17812700Y-5531800D01*
X17812700Y-5491800D02*
X17772700Y-5531800D01*
X17772700Y-5580700D02*
X17812700Y-5620700D01*
X17812700Y-5580700D02*
X17772700Y-5620700D01*
X17861600Y-4691700D02*
X17901600Y-4731700D01*
X17901600Y-4691700D02*
X17861600Y-4731700D01*
X17861600Y-4780600D02*
X17901600Y-4820600D01*
X17901600Y-4780600D02*
X17861600Y-4820600D01*
X17861600Y-4869500D02*
X17901600Y-4909500D01*
X17901600Y-4869500D02*
X17861600Y-4909500D01*
X17861600Y-4958400D02*
X17901600Y-4998400D01*
X17901600Y-4958400D02*
X17861600Y-4998400D01*
X17861600Y-5314000D02*
X17901600Y-5354000D01*
X17901600Y-5314000D02*
X17861600Y-5354000D01*
X17861600Y-5402900D02*
X17901600Y-5442900D01*
X17901600Y-5402900D02*
X17861600Y-5442900D01*
X17861600Y-5491800D02*
X17901600Y-5531800D01*
X17901600Y-5491800D02*
X17861600Y-5531800D01*
X17861600Y-5580700D02*
X17901600Y-5620700D01*
X17901600Y-5580700D02*
X17861600Y-5620700D01*
X17937800Y-8984300D02*
X17977800Y-9024300D01*
X17977800Y-8984300D02*
X17937800Y-9024300D01*
X17950500Y-4691700D02*
X17990500Y-4731700D01*
X17990500Y-4691700D02*
X17950500Y-4731700D01*
X17950500Y-4780600D02*
X17990500Y-4820600D01*
X17990500Y-4780600D02*
X17950500Y-4820600D01*
X17950500Y-4869500D02*
X17990500Y-4909500D01*
X17990500Y-4869500D02*
X17950500Y-4909500D01*
X17950500Y-4958400D02*
X17990500Y-4998400D01*
X17990500Y-4958400D02*
X17950500Y-4998400D01*
X17950500Y-5047300D02*
X17990500Y-5087300D01*
X17990500Y-5047300D02*
X17950500Y-5087300D01*
X17950500Y-5136200D02*
X17990500Y-5176200D01*
X17990500Y-5136200D02*
X17950500Y-5176200D01*
X17950500Y-5225100D02*
X17990500Y-5265100D01*
X17990500Y-5225100D02*
X17950500Y-5265100D01*
X17950500Y-5314000D02*
X17990500Y-5354000D01*
X17990500Y-5314000D02*
X17950500Y-5354000D01*
X17950500Y-5402900D02*
X17990500Y-5442900D01*
X17990500Y-5402900D02*
X17950500Y-5442900D01*
X17950500Y-5491800D02*
X17990500Y-5531800D01*
X17990500Y-5491800D02*
X17950500Y-5531800D01*
X17950500Y-5580700D02*
X17990500Y-5620700D01*
X17990500Y-5580700D02*
X17950500Y-5620700D01*
X18039400Y-4691700D02*
X18079400Y-4731700D01*
X18079400Y-4691700D02*
X18039400Y-4731700D01*
X18039400Y-4780600D02*
X18079400Y-4820600D01*
X18079400Y-4780600D02*
X18039400Y-4820600D01*
X18039400Y-4869500D02*
X18079400Y-4909500D01*
X18079400Y-4869500D02*
X18039400Y-4909500D01*
X18039400Y-4958400D02*
X18079400Y-4998400D01*
X18079400Y-4958400D02*
X18039400Y-4998400D01*
X18039400Y-5047300D02*
X18079400Y-5087300D01*
X18079400Y-5047300D02*
X18039400Y-5087300D01*
X18039400Y-5136200D02*
X18079400Y-5176200D01*
X18079400Y-5136200D02*
X18039400Y-5176200D01*
X18039400Y-5225100D02*
X18079400Y-5265100D01*
X18079400Y-5225100D02*
X18039400Y-5265100D01*
X18039400Y-5314000D02*
X18079400Y-5354000D01*
X18079400Y-5314000D02*
X18039400Y-5354000D01*
X18039400Y-5402900D02*
X18079400Y-5442900D01*
X18079400Y-5402900D02*
X18039400Y-5442900D01*
X18039400Y-5491800D02*
X18079400Y-5531800D01*
X18079400Y-5491800D02*
X18039400Y-5531800D01*
X18039400Y-5580700D02*
X18079400Y-5620700D01*
X18079400Y-5580700D02*
X18039400Y-5620700D01*
X18128300Y-4691700D02*
X18168300Y-4731700D01*
X18168300Y-4691700D02*
X18128300Y-4731700D01*
X18128300Y-4780600D02*
X18168300Y-4820600D01*
X18168300Y-4780600D02*
X18128300Y-4820600D01*
X18128300Y-4869500D02*
X18168300Y-4909500D01*
X18168300Y-4869500D02*
X18128300Y-4909500D01*
X18128300Y-4958400D02*
X18168300Y-4998400D01*
X18168300Y-4958400D02*
X18128300Y-4998400D01*
X18128300Y-5047300D02*
X18168300Y-5087300D01*
X18168300Y-5047300D02*
X18128300Y-5087300D01*
X18128300Y-5136200D02*
X18168300Y-5176200D01*
X18168300Y-5136200D02*
X18128300Y-5176200D01*
X18128300Y-5225100D02*
X18168300Y-5265100D01*
X18168300Y-5225100D02*
X18128300Y-5265100D01*
X18128300Y-5314000D02*
X18168300Y-5354000D01*
X18168300Y-5314000D02*
X18128300Y-5354000D01*
X18128300Y-5402900D02*
X18168300Y-5442900D01*
X18168300Y-5402900D02*
X18128300Y-5442900D01*
X18128300Y-5491800D02*
X18168300Y-5531800D01*
X18168300Y-5491800D02*
X18128300Y-5531800D01*
X18128300Y-5580700D02*
X18168300Y-5620700D01*
X18168300Y-5580700D02*
X18128300Y-5620700D01*
X18217200Y-4691700D02*
X18257200Y-4731700D01*
X18257200Y-4691700D02*
X18217200Y-4731700D01*
X18217200Y-4780600D02*
X18257200Y-4820600D01*
X18257200Y-4780600D02*
X18217200Y-4820600D01*
X18217200Y-4869500D02*
X18257200Y-4909500D01*
X18257200Y-4869500D02*
X18217200Y-4909500D01*
X18217200Y-4958400D02*
X18257200Y-4998400D01*
X18257200Y-4958400D02*
X18217200Y-4998400D01*
X18217200Y-5047300D02*
X18257200Y-5087300D01*
X18257200Y-5047300D02*
X18217200Y-5087300D01*
X18217200Y-5136200D02*
X18257200Y-5176200D01*
X18257200Y-5136200D02*
X18217200Y-5176200D01*
X18217200Y-5225100D02*
X18257200Y-5265100D01*
X18257200Y-5225100D02*
X18217200Y-5265100D01*
X18217200Y-5314000D02*
X18257200Y-5354000D01*
X18257200Y-5314000D02*
X18217200Y-5354000D01*
X18217200Y-5402900D02*
X18257200Y-5442900D01*
X18257200Y-5402900D02*
X18217200Y-5442900D01*
X18217200Y-5491800D02*
X18257200Y-5531800D01*
X18257200Y-5491800D02*
X18217200Y-5531800D01*
X18217200Y-5580700D02*
X18257200Y-5620700D01*
X18257200Y-5580700D02*
X18217200Y-5620700D01*
X18306100Y-4691700D02*
X18346100Y-4731700D01*
X18346100Y-4691700D02*
X18306100Y-4731700D01*
X18306100Y-4780600D02*
X18346100Y-4820600D01*
X18346100Y-4780600D02*
X18306100Y-4820600D01*
X18306100Y-4869500D02*
X18346100Y-4909500D01*
X18346100Y-4869500D02*
X18306100Y-4909500D01*
X18306100Y-4958400D02*
X18346100Y-4998400D01*
X18346100Y-4958400D02*
X18306100Y-4998400D01*
X18306100Y-5047300D02*
X18346100Y-5087300D01*
X18346100Y-5047300D02*
X18306100Y-5087300D01*
X18306100Y-5136200D02*
X18346100Y-5176200D01*
X18346100Y-5136200D02*
X18306100Y-5176200D01*
X18306100Y-5225100D02*
X18346100Y-5265100D01*
X18346100Y-5225100D02*
X18306100Y-5265100D01*
X18306100Y-5314000D02*
X18346100Y-5354000D01*
X18346100Y-5314000D02*
X18306100Y-5354000D01*
X18306100Y-5402900D02*
X18346100Y-5442900D01*
X18346100Y-5402900D02*
X18306100Y-5442900D01*
X18306100Y-5491800D02*
X18346100Y-5531800D01*
X18346100Y-5491800D02*
X18306100Y-5531800D01*
X18306100Y-5580700D02*
X18346100Y-5620700D01*
X18346100Y-5580700D02*
X18306100Y-5620700D01*
X18395000Y-4691700D02*
X18435000Y-4731700D01*
X18435000Y-4691700D02*
X18395000Y-4731700D01*
X18395000Y-4780600D02*
X18435000Y-4820600D01*
X18435000Y-4780600D02*
X18395000Y-4820600D01*
X18395000Y-4869500D02*
X18435000Y-4909500D01*
X18435000Y-4869500D02*
X18395000Y-4909500D01*
X18395000Y-4958400D02*
X18435000Y-4998400D01*
X18435000Y-4958400D02*
X18395000Y-4998400D01*
X18395000Y-5047300D02*
X18435000Y-5087300D01*
X18435000Y-5047300D02*
X18395000Y-5087300D01*
X18395000Y-5136200D02*
X18435000Y-5176200D01*
X18435000Y-5136200D02*
X18395000Y-5176200D01*
X18395000Y-5225100D02*
X18435000Y-5265100D01*
X18435000Y-5225100D02*
X18395000Y-5265100D01*
X18395000Y-5314000D02*
X18435000Y-5354000D01*
X18435000Y-5314000D02*
X18395000Y-5354000D01*
X18395000Y-5402900D02*
X18435000Y-5442900D01*
X18435000Y-5402900D02*
X18395000Y-5442900D01*
X18395000Y-5491800D02*
X18435000Y-5531800D01*
X18435000Y-5491800D02*
X18395000Y-5531800D01*
X18395000Y-5580700D02*
X18435000Y-5620700D01*
X18435000Y-5580700D02*
X18395000Y-5620700D01*
X18483900Y-4691700D02*
X18523900Y-4731700D01*
X18523900Y-4691700D02*
X18483900Y-4731700D01*
X18483900Y-4780600D02*
X18523900Y-4820600D01*
X18523900Y-4780600D02*
X18483900Y-4820600D01*
X18483900Y-4869500D02*
X18523900Y-4909500D01*
X18523900Y-4869500D02*
X18483900Y-4909500D01*
X18483900Y-4958400D02*
X18523900Y-4998400D01*
X18523900Y-4958400D02*
X18483900Y-4998400D01*
X18483900Y-5047300D02*
X18523900Y-5087300D01*
X18523900Y-5047300D02*
X18483900Y-5087300D01*
X18483900Y-5136200D02*
X18523900Y-5176200D01*
X18523900Y-5136200D02*
X18483900Y-5176200D01*
X18483900Y-5225100D02*
X18523900Y-5265100D01*
X18523900Y-5225100D02*
X18483900Y-5265100D01*
X18483900Y-5314000D02*
X18523900Y-5354000D01*
X18523900Y-5314000D02*
X18483900Y-5354000D01*
X18483900Y-5402900D02*
X18523900Y-5442900D01*
X18523900Y-5402900D02*
X18483900Y-5442900D01*
X18483900Y-5491800D02*
X18523900Y-5531800D01*
X18523900Y-5491800D02*
X18483900Y-5531800D01*
X18483900Y-5580700D02*
X18523900Y-5620700D01*
X18523900Y-5580700D02*
X18483900Y-5620700D01*
X18572800Y-4691700D02*
X18612800Y-4731700D01*
X18612800Y-4691700D02*
X18572800Y-4731700D01*
X18572800Y-4780600D02*
X18612800Y-4820600D01*
X18612800Y-4780600D02*
X18572800Y-4820600D01*
X18572800Y-4869500D02*
X18612800Y-4909500D01*
X18612800Y-4869500D02*
X18572800Y-4909500D01*
X18572800Y-4958400D02*
X18612800Y-4998400D01*
X18612800Y-4958400D02*
X18572800Y-4998400D01*
X18572800Y-5047300D02*
X18612800Y-5087300D01*
X18612800Y-5047300D02*
X18572800Y-5087300D01*
X18572800Y-5136200D02*
X18612800Y-5176200D01*
X18612800Y-5136200D02*
X18572800Y-5176200D01*
X18572800Y-5225100D02*
X18612800Y-5265100D01*
X18612800Y-5225100D02*
X18572800Y-5265100D01*
X18572800Y-5314000D02*
X18612800Y-5354000D01*
X18612800Y-5314000D02*
X18572800Y-5354000D01*
X18572800Y-5402900D02*
X18612800Y-5442900D01*
X18612800Y-5402900D02*
X18572800Y-5442900D01*
X18572800Y-5491800D02*
X18612800Y-5531800D01*
X18612800Y-5491800D02*
X18572800Y-5531800D01*
X18572800Y-5580700D02*
X18612800Y-5620700D01*
X18612800Y-5580700D02*
X18572800Y-5620700D01*
X18661700Y-4691700D02*
X18701700Y-4731700D01*
X18701700Y-4691700D02*
X18661700Y-4731700D01*
X18661700Y-4780600D02*
X18701700Y-4820600D01*
X18701700Y-4780600D02*
X18661700Y-4820600D01*
X18661700Y-4869500D02*
X18701700Y-4909500D01*
X18701700Y-4869500D02*
X18661700Y-4909500D01*
X18661700Y-4958400D02*
X18701700Y-4998400D01*
X18701700Y-4958400D02*
X18661700Y-4998400D01*
X18661700Y-5047300D02*
X18701700Y-5087300D01*
X18701700Y-5047300D02*
X18661700Y-5087300D01*
X18661700Y-5136200D02*
X18701700Y-5176200D01*
X18701700Y-5136200D02*
X18661700Y-5176200D01*
X18661700Y-5225100D02*
X18701700Y-5265100D01*
X18701700Y-5225100D02*
X18661700Y-5265100D01*
X18661700Y-5314000D02*
X18701700Y-5354000D01*
X18701700Y-5314000D02*
X18661700Y-5354000D01*
X18661700Y-5402900D02*
X18701700Y-5442900D01*
X18701700Y-5402900D02*
X18661700Y-5442900D01*
X18661700Y-5491800D02*
X18701700Y-5531800D01*
X18701700Y-5491800D02*
X18661700Y-5531800D01*
X18661700Y-5580700D02*
X18701700Y-5620700D01*
X18701700Y-5580700D02*
X18661700Y-5620700D01*
X18750600Y-4691700D02*
X18790600Y-4731700D01*
X18790600Y-4691700D02*
X18750600Y-4731700D01*
X18750600Y-4780600D02*
X18790600Y-4820600D01*
X18790600Y-4780600D02*
X18750600Y-4820600D01*
X18750600Y-4869500D02*
X18790600Y-4909500D01*
X18790600Y-4869500D02*
X18750600Y-4909500D01*
X18750600Y-4958400D02*
X18790600Y-4998400D01*
X18790600Y-4958400D02*
X18750600Y-4998400D01*
X18750600Y-5047300D02*
X18790600Y-5087300D01*
X18790600Y-5047300D02*
X18750600Y-5087300D01*
X18750600Y-5136200D02*
X18790600Y-5176200D01*
X18790600Y-5136200D02*
X18750600Y-5176200D01*
X18750600Y-5225100D02*
X18790600Y-5265100D01*
X18790600Y-5225100D02*
X18750600Y-5265100D01*
X18750600Y-5314000D02*
X18790600Y-5354000D01*
X18790600Y-5314000D02*
X18750600Y-5354000D01*
X18750600Y-5402900D02*
X18790600Y-5442900D01*
X18790600Y-5402900D02*
X18750600Y-5442900D01*
X18750600Y-5491800D02*
X18790600Y-5531800D01*
X18790600Y-5491800D02*
X18750600Y-5531800D01*
X18750600Y-5580700D02*
X18790600Y-5620700D01*
X18790600Y-5580700D02*
X18750600Y-5620700D01*
X18801400Y-8717600D02*
X18841400Y-8757600D01*
X18841400Y-8717600D02*
X18801400Y-8757600D01*
X18839500Y-4691700D02*
X18879500Y-4731700D01*
X18879500Y-4691700D02*
X18839500Y-4731700D01*
X18839500Y-4780600D02*
X18879500Y-4820600D01*
X18879500Y-4780600D02*
X18839500Y-4820600D01*
X18839500Y-4869500D02*
X18879500Y-4909500D01*
X18879500Y-4869500D02*
X18839500Y-4909500D01*
X18839500Y-4958400D02*
X18879500Y-4998400D01*
X18879500Y-4958400D02*
X18839500Y-4998400D01*
X18839500Y-5047300D02*
X18879500Y-5087300D01*
X18879500Y-5047300D02*
X18839500Y-5087300D01*
X18839500Y-5136200D02*
X18879500Y-5176200D01*
X18879500Y-5136200D02*
X18839500Y-5176200D01*
X18839500Y-5225100D02*
X18879500Y-5265100D01*
X18879500Y-5225100D02*
X18839500Y-5265100D01*
X18839500Y-5314000D02*
X18879500Y-5354000D01*
X18879500Y-5314000D02*
X18839500Y-5354000D01*
X18839500Y-5402900D02*
X18879500Y-5442900D01*
X18879500Y-5402900D02*
X18839500Y-5442900D01*
X18839500Y-5491800D02*
X18879500Y-5531800D01*
X18879500Y-5491800D02*
X18839500Y-5531800D01*
X18839500Y-5580700D02*
X18879500Y-5620700D01*
X18879500Y-5580700D02*
X18839500Y-5620700D01*
X18928400Y-4691700D02*
X18968400Y-4731700D01*
X18968400Y-4691700D02*
X18928400Y-4731700D01*
X18928400Y-4780600D02*
X18968400Y-4820600D01*
X18968400Y-4780600D02*
X18928400Y-4820600D01*
X18928400Y-4869500D02*
X18968400Y-4909500D01*
X18968400Y-4869500D02*
X18928400Y-4909500D01*
X18928400Y-4958400D02*
X18968400Y-4998400D01*
X18968400Y-4958400D02*
X18928400Y-4998400D01*
X18928400Y-5047300D02*
X18968400Y-5087300D01*
X18968400Y-5047300D02*
X18928400Y-5087300D01*
X18928400Y-5136200D02*
X18968400Y-5176200D01*
X18968400Y-5136200D02*
X18928400Y-5176200D01*
X18928400Y-5225100D02*
X18968400Y-5265100D01*
X18968400Y-5225100D02*
X18928400Y-5265100D01*
X18928400Y-5314000D02*
X18968400Y-5354000D01*
X18968400Y-5314000D02*
X18928400Y-5354000D01*
X18928400Y-5402900D02*
X18968400Y-5442900D01*
X18968400Y-5402900D02*
X18928400Y-5442900D01*
X18928400Y-5491800D02*
X18968400Y-5531800D01*
X18968400Y-5491800D02*
X18928400Y-5531800D01*
X18928400Y-5580700D02*
X18968400Y-5620700D01*
X18968400Y-5580700D02*
X18928400Y-5620700D01*
X18979200Y-8743000D02*
X19019200Y-8783000D01*
X19019200Y-8743000D02*
X18979200Y-8783000D01*
X19576100Y-7828600D02*
X19616100Y-7868600D01*
X19616100Y-7828600D02*
X19576100Y-7868600D01*
X19779300Y-7765100D02*
X19819300Y-7805100D01*
X19819300Y-7765100D02*
X19779300Y-7805100D01*
D13*
X12285500Y-5867400D02*
G75*
G03*
X12285500Y-5867400I-35000J0D01*
G01*
X12286000Y-7874000D02*
G75*
G03*
X12286000Y-7874000I-35000J0D01*
G01*
X12539500Y-5867400D02*
G75*
G03*
X12539500Y-5867400I-35000J0D01*
G01*
X12540000Y-7874000D02*
G75*
G03*
X12540000Y-7874000I-35000J0D01*
G01*
X12984000Y-5867400D02*
G75*
G03*
X12984000Y-5867400I-35000J0D01*
G01*
X12989500Y-7874000D02*
G75*
G03*
X12989500Y-7874000I-35000J0D01*
G01*
X13052500Y-6968500D02*
G75*
G03*
X13052500Y-6968500I-35000J0D01*
G01*
X13052500Y-7222500D02*
G75*
G03*
X13052500Y-7222500I-35000J0D01*
G01*
X13052500Y-8948500D02*
G75*
G03*
X13052500Y-8948500I-35000J0D01*
G01*
X13052500Y-9202500D02*
G75*
G03*
X13052500Y-9202500I-35000J0D01*
G01*
X13238000Y-5867400D02*
G75*
G03*
X13238000Y-5867400I-35000J0D01*
G01*
X13243500Y-7874000D02*
G75*
G03*
X13243500Y-7874000I-35000J0D01*
G01*
X13565500Y-6338500D02*
G75*
G03*
X13565500Y-6338500I-35000J0D01*
G01*
X13565500Y-6592500D02*
G75*
G03*
X13565500Y-6592500I-35000J0D01*
G01*
X13688000Y-7874000D02*
G75*
G03*
X13688000Y-7874000I-35000J0D01*
G01*
X13819500Y-6338500D02*
G75*
G03*
X13819500Y-6338500I-35000J0D01*
G01*
X13819500Y-6592500D02*
G75*
G03*
X13819500Y-6592500I-35000J0D01*
G01*
X13942000Y-7874000D02*
G75*
G03*
X13942000Y-7874000I-35000J0D01*
G01*
X14318000Y-8255000D02*
G75*
G03*
X14318000Y-8255000I-35000J0D01*
G01*
X14328000Y-8509000D02*
G75*
G03*
X14328000Y-8509000I-35000J0D01*
G01*
X14572000Y-8255000D02*
G75*
G03*
X14572000Y-8255000I-35000J0D01*
G01*
X14582000Y-8509000D02*
G75*
G03*
X14582000Y-8509000I-35000J0D01*
G01*
X15719500Y-9911000D02*
G75*
G03*
X15719500Y-9911000I-35000J0D01*
G01*
X15719500Y-10165000D02*
G75*
G03*
X15719500Y-10165000I-35000J0D01*
G01*
X15846500Y-10397500D02*
G75*
G03*
X15846500Y-10397500I-35000J0D01*
G01*
X15846500Y-10651500D02*
G75*
G03*
X15846500Y-10651500I-35000J0D01*
G01*
X15959500Y-9824800D02*
G75*
G03*
X15959500Y-9824800I-35000J0D01*
G01*
X15959500Y-10078800D02*
G75*
G03*
X15959500Y-10078800I-35000J0D01*
G01*
X16227500Y-9834800D02*
G75*
G03*
X16227500Y-9834800I-35000J0D01*
G01*
X16227500Y-10088800D02*
G75*
G03*
X16227500Y-10088800I-35000J0D01*
G01*
X16316400Y-7112000D02*
G75*
G03*
X16316400Y-7112000I-35000J0D01*
G01*
X16316400Y-7366000D02*
G75*
G03*
X16316400Y-7366000I-35000J0D01*
G01*
X18450000Y-7683500D02*
G75*
G03*
X18450000Y-7683500I-35000J0D01*
G01*
X18635500Y-9296400D02*
G75*
G03*
X18635500Y-9296400I-35000J0D01*
G01*
X18653200Y-9080500D02*
G75*
G03*
X18653200Y-9080500I-35000J0D01*
G01*
X18704000Y-7683500D02*
G75*
G03*
X18704000Y-7683500I-35000J0D01*
G01*
X18889500Y-9296400D02*
G75*
G03*
X18889500Y-9296400I-35000J0D01*
G01*
X18907200Y-9080500D02*
G75*
G03*
X18907200Y-9080500I-35000J0D01*
G01*
X19105400Y-9296400D02*
G75*
G03*
X19105400Y-9296400I-35000J0D01*
G01*
X19123100Y-9080500D02*
G75*
G03*
X19123100Y-9080500I-35000J0D01*
G01*
X19280500Y-7683500D02*
G75*
G03*
X19280500Y-7683500I-35000J0D01*
G01*
X19331300Y-8826500D02*
G75*
G03*
X19331300Y-8826500I-35000J0D01*
G01*
X19359400Y-9296400D02*
G75*
G03*
X19359400Y-9296400I-35000J0D01*
G01*
X19377100Y-9080500D02*
G75*
G03*
X19377100Y-9080500I-35000J0D01*
G01*
X19534500Y-7683500D02*
G75*
G03*
X19534500Y-7683500I-35000J0D01*
G01*
X19585300Y-8826500D02*
G75*
G03*
X19585300Y-8826500I-35000J0D01*
G01*
X19585300Y-9042400D02*
G75*
G03*
X19585300Y-9042400I-35000J0D01*
G01*
X19585300Y-9296400D02*
G75*
G03*
X19585300Y-9296400I-35000J0D01*
G01*
X19808900Y-9042400D02*
G75*
G03*
X19808900Y-9042400I-35000J0D01*
G01*
X19808900Y-9296400D02*
G75*
G03*
X19808900Y-9296400I-35000J0D01*
G01*
X20024800Y-9055100D02*
G75*
G03*
X20024800Y-9055100I-35000J0D01*
G01*
X20024800Y-9309100D02*
G75*
G03*
X20024800Y-9309100I-35000J0D01*
G01*
X20380400Y-6256100D02*
G75*
G03*
X20380400Y-6256100I-35000J0D01*
G01*
X20380400Y-6510100D02*
G75*
G03*
X20380400Y-6510100I-35000J0D01*
G01*
X20405800Y-5786200D02*
G75*
G03*
X20405800Y-5786200I-35000J0D01*
G01*
X20405800Y-6040200D02*
G75*
G03*
X20405800Y-6040200I-35000J0D01*
G01*
D14*
X17752060Y-8974420D02*
X17752060Y-9049420D01*
X17714560Y-9011920D02*
X17789560Y-9011920D01*
X17752060Y-9101420D02*
X17752060Y-9176420D01*
X17714560Y-9138920D02*
X17789560Y-9138920D01*
X17752060Y-9228420D02*
X17752060Y-9303420D01*
X17714560Y-9265920D02*
X17789560Y-9265920D01*
X18217600Y-8973800D02*
X18217600Y-9048800D01*
X18180100Y-9011300D02*
X18255100Y-9011300D01*
X18217600Y-9100800D02*
X18217600Y-9175800D01*
X18180100Y-9138300D02*
X18255100Y-9138300D01*
X18217600Y-9227800D02*
X18217600Y-9302800D01*
X18180100Y-9265300D02*
X18255100Y-9265300D01*
D15*
X11369384Y-5140035D02*
X11369384Y-5083466D01*
X11312815Y-5083466D01*
X11312815Y-5140035D01*
X11369384Y-5140035D01*
X11371924Y-4886035D02*
X11371924Y-4829466D01*
X11315355Y-4829466D01*
X11315355Y-4886035D01*
X11371924Y-4886035D01*
X11382084Y-3793834D02*
X11382084Y-3737265D01*
X11325515Y-3737265D01*
X11325515Y-3793834D01*
X11382084Y-3793834D01*
X11382084Y-4047834D02*
X11382084Y-3991265D01*
X11325515Y-3991265D01*
X11325515Y-4047834D01*
X11382084Y-4047834D01*
X13261684Y-3806534D02*
X13261684Y-3749965D01*
X13205115Y-3749965D01*
X13205115Y-3806534D01*
X13261684Y-3806534D01*
X13261684Y-4060534D02*
X13261684Y-4003965D01*
X13205115Y-4003965D01*
X13205115Y-4060534D01*
X13261684Y-4060534D01*
X13261684Y-5140035D02*
X13261684Y-5083466D01*
X13205115Y-5083466D01*
X13205115Y-5140035D01*
X13261684Y-5140035D01*
X13264224Y-4886035D02*
X13264224Y-4829466D01*
X13207655Y-4829466D01*
X13207655Y-4886035D01*
X13264224Y-4886035D01*
X14700784Y-7965784D02*
X14700784Y-7909215D01*
X14644215Y-7909215D01*
X14644215Y-7965784D01*
X14700784Y-7965784D01*
X14950784Y-7965784D02*
X14950784Y-7909215D01*
X14894215Y-7909215D01*
X14894215Y-7965784D01*
X14950784Y-7965784D01*
X15332784Y-7889784D02*
X15332784Y-7833215D01*
X15276215Y-7833215D01*
X15276215Y-7889784D01*
X15332784Y-7889784D01*
X15332784Y-8651785D02*
X15332784Y-8595216D01*
X15276215Y-8595216D01*
X15276215Y-8651785D01*
X15332784Y-8651785D01*
X15586784Y-7889784D02*
X15586784Y-7833215D01*
X15530215Y-7833215D01*
X15530215Y-7889784D01*
X15586784Y-7889784D01*
X15586784Y-8651785D02*
X15586784Y-8595216D01*
X15530215Y-8595216D01*
X15530215Y-8651785D01*
X15586784Y-8651785D01*
X15840784Y-7889784D02*
X15840784Y-7833215D01*
X15784215Y-7833215D01*
X15784215Y-7889784D01*
X15840784Y-7889784D01*
X15840784Y-8651785D02*
X15840784Y-8595216D01*
X15784215Y-8595216D01*
X15784215Y-8651785D01*
X15840784Y-8651785D01*
X16094784Y-7889784D02*
X16094784Y-7833215D01*
X16038215Y-7833215D01*
X16038215Y-7889784D01*
X16094784Y-7889784D01*
X16094784Y-8651785D02*
X16094784Y-8595216D01*
X16038215Y-8595216D01*
X16038215Y-8651785D01*
X16094784Y-8651785D01*
X16157284Y-10371285D02*
X16157284Y-10314716D01*
X16100715Y-10314716D01*
X16100715Y-10371285D01*
X16157284Y-10371285D01*
X16157284Y-10621285D02*
X16157284Y-10564716D01*
X16100715Y-10564716D01*
X16100715Y-10621285D01*
X16157284Y-10621285D01*
D16*
X12255500Y-6383500D02*
X12300500Y-6338500D01*
X12255500Y-6293500D01*
X12210500Y-6338500D01*
X12255500Y-6383500D01*
X12255500Y-8363500D02*
X12300500Y-8318500D01*
X12255500Y-8273500D01*
X12210500Y-8318500D01*
X12255500Y-8363500D01*
X12509500Y-6383500D02*
X12554500Y-6338500D01*
X12509500Y-6293500D01*
X12464500Y-6338500D01*
X12509500Y-6383500D01*
X12509500Y-8363500D02*
X12554500Y-8318500D01*
X12509500Y-8273500D01*
X12464500Y-8318500D01*
X12509500Y-8363500D01*
X12953500Y-6383500D02*
X12998500Y-6338500D01*
X12953500Y-6293500D01*
X12908500Y-6338500D01*
X12953500Y-6383500D01*
X12954500Y-8363500D02*
X12999500Y-8318500D01*
X12954500Y-8273500D01*
X12909500Y-8318500D01*
X12954500Y-8363500D01*
X13207500Y-6383500D02*
X13252500Y-6338500D01*
X13207500Y-6293500D01*
X13162500Y-6338500D01*
X13207500Y-6383500D01*
X13208500Y-8363500D02*
X13253500Y-8318500D01*
X13208500Y-8273500D01*
X13163500Y-8318500D01*
X13208500Y-8363500D01*
X13652500Y-8363500D02*
X13697500Y-8318500D01*
X13652500Y-8273500D01*
X13607500Y-8318500D01*
X13652500Y-8363500D01*
X13906500Y-8363500D02*
X13951500Y-8318500D01*
X13906500Y-8273500D01*
X13861500Y-8318500D01*
X13906500Y-8363500D01*
X14859500Y-8300000D02*
X14904500Y-8255000D01*
X14859500Y-8210000D01*
X14814500Y-8255000D01*
X14859500Y-8300000D01*
X14859500Y-8554000D02*
X14904500Y-8509000D01*
X14859500Y-8464000D01*
X14814500Y-8509000D01*
X14859500Y-8554000D01*
X20320000Y-8805100D02*
X20365000Y-8760100D01*
X20320000Y-8715100D01*
X20275000Y-8760100D01*
X20320000Y-8805100D01*
X20320000Y-9059100D02*
X20365000Y-9014100D01*
X20320000Y-8969100D01*
X20275000Y-9014100D01*
X20320000Y-9059100D01*
X20320000Y-9316000D02*
X20365000Y-9271000D01*
X20320000Y-9226000D01*
X20275000Y-9271000D01*
X20320000Y-9316000D01*
X20320000Y-9570000D02*
X20365000Y-9525000D01*
X20320000Y-9480000D01*
X20275000Y-9525000D01*
X20320000Y-9570000D01*
D10*
X10632700Y-8151200D02*
X10732700Y-8251200D01*
X10732700Y-8151200D02*
X10632700Y-8251200D01*
X10732700Y-8201200D02*
G75*
G03*
X10732700Y-8201200I-50000J0D01*
G01*
X10632700Y-8405200D02*
X10732700Y-8505200D01*
X10732700Y-8405200D02*
X10632700Y-8505200D01*
X10732700Y-8455200D02*
G75*
G03*
X10732700Y-8455200I-50000J0D01*
G01*
X10632700Y-8659200D02*
X10732700Y-8759200D01*
X10732700Y-8659200D02*
X10632700Y-8759200D01*
X10732700Y-8709200D02*
G75*
G03*
X10732700Y-8709200I-50000J0D01*
G01*
X10632700Y-8913200D02*
X10732700Y-9013200D01*
X10732700Y-8913200D02*
X10632700Y-9013200D01*
X10732700Y-8963200D02*
G75*
G03*
X10732700Y-8963200I-50000J0D01*
G01*
X10632700Y-9167200D02*
X10732700Y-9267200D01*
X10732700Y-9167200D02*
X10632700Y-9267200D01*
X10732700Y-9217200D02*
G75*
G03*
X10732700Y-9217200I-50000J0D01*
G01*
X10886700Y-8151200D02*
X10986700Y-8251200D01*
X10986700Y-8151200D02*
X10886700Y-8251200D01*
X10986700Y-8201200D02*
G75*
G03*
X10986700Y-8201200I-50000J0D01*
G01*
X10886700Y-8405200D02*
X10986700Y-8505200D01*
X10986700Y-8405200D02*
X10886700Y-8505200D01*
X10986700Y-8455200D02*
G75*
G03*
X10986700Y-8455200I-50000J0D01*
G01*
X10886700Y-8659200D02*
X10986700Y-8759200D01*
X10986700Y-8659200D02*
X10886700Y-8759200D01*
X10986700Y-8709200D02*
G75*
G03*
X10986700Y-8709200I-50000J0D01*
G01*
X10886700Y-8913200D02*
X10986700Y-9013200D01*
X10986700Y-8913200D02*
X10886700Y-9013200D01*
X10986700Y-8963200D02*
G75*
G03*
X10986700Y-8963200I-50000J0D01*
G01*
X10886700Y-9167200D02*
X10986700Y-9267200D01*
X10986700Y-9167200D02*
X10886700Y-9267200D01*
X10986700Y-9217200D02*
G75*
G03*
X10986700Y-9217200I-50000J0D01*
G01*
X17539500Y-9538500D02*
X17639500Y-9638500D01*
X17639500Y-9538500D02*
X17539500Y-9638500D01*
X17639500Y-9588500D02*
G75*
G03*
X17639500Y-9588500I-50000J0D01*
G01*
X17793500Y-9538500D02*
X17893500Y-9638500D01*
X17893500Y-9538500D02*
X17793500Y-9638500D01*
X17893500Y-9588500D02*
G75*
G03*
X17893500Y-9588500I-50000J0D01*
G01*
X18047500Y-9538500D02*
X18147500Y-9638500D01*
X18147500Y-9538500D02*
X18047500Y-9638500D01*
X18147500Y-9588500D02*
G75*
G03*
X18147500Y-9588500I-50000J0D01*
G01*
X18301500Y-9538500D02*
X18401500Y-9638500D01*
X18401500Y-9538500D02*
X18301500Y-9638500D01*
X18401500Y-9588500D02*
G75*
G03*
X18401500Y-9588500I-50000J0D01*
G01*
X18555500Y-9538500D02*
X18655500Y-9638500D01*
X18655500Y-9538500D02*
X18555500Y-9638500D01*
X18655500Y-9588500D02*
G75*
G03*
X18655500Y-9588500I-50000J0D01*
G01*
X18809500Y-9538500D02*
X18909500Y-9638500D01*
X18909500Y-9538500D02*
X18809500Y-9638500D01*
X18909500Y-9588500D02*
G75*
G03*
X18909500Y-9588500I-50000J0D01*
G01*
X19063500Y-9538500D02*
X19163500Y-9638500D01*
X19163500Y-9538500D02*
X19063500Y-9638500D01*
X19163500Y-9588500D02*
G75*
G03*
X19163500Y-9588500I-50000J0D01*
G01*
X19317500Y-9538500D02*
X19417500Y-9638500D01*
X19417500Y-9538500D02*
X19317500Y-9638500D01*
X19417500Y-9588500D02*
G75*
G03*
X19417500Y-9588500I-50000J0D01*
G01*
X19571500Y-9538500D02*
X19671500Y-9638500D01*
X19671500Y-9538500D02*
X19571500Y-9638500D01*
X19671500Y-9588500D02*
G75*
G03*
X19671500Y-9588500I-50000J0D01*
G01*
X19825500Y-9538500D02*
X19925500Y-9638500D01*
X19925500Y-9538500D02*
X19825500Y-9638500D01*
X19925500Y-9588500D02*
G75*
G03*
X19925500Y-9588500I-50000J0D01*
G01*
D17*
X16494200Y-6464200D02*
X16595800Y-6565800D01*
X16595800Y-6464200D02*
X16494200Y-6565800D01*
X16545000Y-6464200D02*
X16545000Y-6565800D01*
X16494200Y-6515000D02*
X16595800Y-6515000D01*
X16494200Y-6718200D02*
X16595800Y-6819800D01*
X16595800Y-6718200D02*
X16494200Y-6819800D01*
X16545000Y-6718200D02*
X16545000Y-6819800D01*
X16494200Y-6769000D02*
X16595800Y-6769000D01*
X16494200Y-6972200D02*
X16595800Y-7073800D01*
X16595800Y-6972200D02*
X16494200Y-7073800D01*
X16545000Y-6972200D02*
X16545000Y-7073800D01*
X16494200Y-7023000D02*
X16595800Y-7023000D01*
X16494200Y-7226200D02*
X16595800Y-7327800D01*
X16595800Y-7226200D02*
X16494200Y-7327800D01*
X16545000Y-7226200D02*
X16545000Y-7327800D01*
X16494200Y-7277000D02*
X16595800Y-7277000D01*
X16494200Y-7480200D02*
X16595800Y-7581800D01*
X16595800Y-7480200D02*
X16494200Y-7581800D01*
X16545000Y-7480200D02*
X16545000Y-7581800D01*
X16494200Y-7531000D02*
X16595800Y-7531000D01*
X16494200Y-7734200D02*
X16595800Y-7835800D01*
X16595800Y-7734200D02*
X16494200Y-7835800D01*
X16545000Y-7734200D02*
X16545000Y-7835800D01*
X16494200Y-7785000D02*
X16595800Y-7785000D01*
X16494200Y-7988200D02*
X16595800Y-8089800D01*
X16595800Y-7988200D02*
X16494200Y-8089800D01*
X16545000Y-7988200D02*
X16545000Y-8089800D01*
X16494200Y-8039000D02*
X16595800Y-8039000D01*
X16494200Y-8242200D02*
X16595800Y-8343800D01*
X16595800Y-8242200D02*
X16494200Y-8343800D01*
X16545000Y-8242200D02*
X16545000Y-8343800D01*
X16494200Y-8293000D02*
X16595800Y-8293000D01*
X16494200Y-8496200D02*
X16595800Y-8597800D01*
X16595800Y-8496200D02*
X16494200Y-8597800D01*
X16545000Y-8496200D02*
X16545000Y-8597800D01*
X16494200Y-8547000D02*
X16595800Y-8547000D01*
X16494200Y-8750200D02*
X16595800Y-8851800D01*
X16595800Y-8750200D02*
X16494200Y-8851800D01*
X16545000Y-8750200D02*
X16545000Y-8851800D01*
X16494200Y-8801000D02*
X16595800Y-8801000D01*
X16494200Y-9004200D02*
X16595800Y-9105800D01*
X16595800Y-9004200D02*
X16494200Y-9105800D01*
X16545000Y-9004200D02*
X16545000Y-9105800D01*
X16494200Y-9055000D02*
X16595800Y-9055000D01*
X16494200Y-9258200D02*
X16595800Y-9359800D01*
X16595800Y-9258200D02*
X16494200Y-9359800D01*
X16545000Y-9258200D02*
X16545000Y-9359800D01*
X16494200Y-9309000D02*
X16595800Y-9309000D01*
X16494200Y-9512200D02*
X16595800Y-9613800D01*
X16595800Y-9512200D02*
X16494200Y-9613800D01*
X16545000Y-9512200D02*
X16545000Y-9613800D01*
X16494200Y-9563000D02*
X16595800Y-9563000D01*
X16494200Y-9766200D02*
X16595800Y-9867800D01*
X16595800Y-9766200D02*
X16494200Y-9867800D01*
X16545000Y-9766200D02*
X16545000Y-9867800D01*
X16494200Y-9817000D02*
X16595800Y-9817000D01*
X16494200Y-10020200D02*
X16595800Y-10121800D01*
X16595800Y-10020200D02*
X16494200Y-10121800D01*
X16545000Y-10020200D02*
X16545000Y-10121800D01*
X16494200Y-10071000D02*
X16595800Y-10071000D01*
X16494200Y-10274200D02*
X16595800Y-10375800D01*
X16595800Y-10274200D02*
X16494200Y-10375800D01*
X16545000Y-10274200D02*
X16545000Y-10375800D01*
X16494200Y-10325000D02*
X16595800Y-10325000D01*
X16494200Y-10528200D02*
X16595800Y-10629800D01*
X16595800Y-10528200D02*
X16494200Y-10629800D01*
X16545000Y-10528200D02*
X16545000Y-10629800D01*
X16494200Y-10579000D02*
X16595800Y-10579000D01*
X16494200Y-10782200D02*
X16595800Y-10883800D01*
X16595800Y-10782200D02*
X16494200Y-10883800D01*
X16545000Y-10782200D02*
X16545000Y-10883800D01*
X16494200Y-10833000D02*
X16595800Y-10833000D01*
X16494200Y-11036200D02*
X16595800Y-11137800D01*
X16595800Y-11036200D02*
X16494200Y-11137800D01*
X16545000Y-11036200D02*
X16545000Y-11137800D01*
X16494200Y-11087000D02*
X16595800Y-11087000D01*
X16494200Y-11290200D02*
X16595800Y-11391800D01*
X16595800Y-11290200D02*
X16494200Y-11391800D01*
X16545000Y-11290200D02*
X16545000Y-11391800D01*
X16494200Y-11341000D02*
X16595800Y-11341000D01*
X16748200Y-6464200D02*
X16849800Y-6565800D01*
X16849800Y-6464200D02*
X16748200Y-6565800D01*
X16799000Y-6464200D02*
X16799000Y-6565800D01*
X16748200Y-6515000D02*
X16849800Y-6515000D01*
X16748200Y-6718200D02*
X16849800Y-6819800D01*
X16849800Y-6718200D02*
X16748200Y-6819800D01*
X16799000Y-6718200D02*
X16799000Y-6819800D01*
X16748200Y-6769000D02*
X16849800Y-6769000D01*
X16748200Y-6972200D02*
X16849800Y-7073800D01*
X16849800Y-6972200D02*
X16748200Y-7073800D01*
X16799000Y-6972200D02*
X16799000Y-7073800D01*
X16748200Y-7023000D02*
X16849800Y-7023000D01*
X16748200Y-7226200D02*
X16849800Y-7327800D01*
X16849800Y-7226200D02*
X16748200Y-7327800D01*
X16799000Y-7226200D02*
X16799000Y-7327800D01*
X16748200Y-7277000D02*
X16849800Y-7277000D01*
X16748200Y-7480200D02*
X16849800Y-7581800D01*
X16849800Y-7480200D02*
X16748200Y-7581800D01*
X16799000Y-7480200D02*
X16799000Y-7581800D01*
X16748200Y-7531000D02*
X16849800Y-7531000D01*
X16748200Y-7734200D02*
X16849800Y-7835800D01*
X16849800Y-7734200D02*
X16748200Y-7835800D01*
X16799000Y-7734200D02*
X16799000Y-7835800D01*
X16748200Y-7785000D02*
X16849800Y-7785000D01*
X16748200Y-7988200D02*
X16849800Y-8089800D01*
X16849800Y-7988200D02*
X16748200Y-8089800D01*
X16799000Y-7988200D02*
X16799000Y-8089800D01*
X16748200Y-8039000D02*
X16849800Y-8039000D01*
X16748200Y-8242200D02*
X16849800Y-8343800D01*
X16849800Y-8242200D02*
X16748200Y-8343800D01*
X16799000Y-8242200D02*
X16799000Y-8343800D01*
X16748200Y-8293000D02*
X16849800Y-8293000D01*
X16748200Y-8496200D02*
X16849800Y-8597800D01*
X16849800Y-8496200D02*
X16748200Y-8597800D01*
X16799000Y-8496200D02*
X16799000Y-8597800D01*
X16748200Y-8547000D02*
X16849800Y-8547000D01*
X16748200Y-8750200D02*
X16849800Y-8851800D01*
X16849800Y-8750200D02*
X16748200Y-8851800D01*
X16799000Y-8750200D02*
X16799000Y-8851800D01*
X16748200Y-8801000D02*
X16849800Y-8801000D01*
X16748200Y-9004200D02*
X16849800Y-9105800D01*
X16849800Y-9004200D02*
X16748200Y-9105800D01*
X16799000Y-9004200D02*
X16799000Y-9105800D01*
X16748200Y-9055000D02*
X16849800Y-9055000D01*
X16748200Y-9258200D02*
X16849800Y-9359800D01*
X16849800Y-9258200D02*
X16748200Y-9359800D01*
X16799000Y-9258200D02*
X16799000Y-9359800D01*
X16748200Y-9309000D02*
X16849800Y-9309000D01*
X16748200Y-9512200D02*
X16849800Y-9613800D01*
X16849800Y-9512200D02*
X16748200Y-9613800D01*
X16799000Y-9512200D02*
X16799000Y-9613800D01*
X16748200Y-9563000D02*
X16849800Y-9563000D01*
X16748200Y-9766200D02*
X16849800Y-9867800D01*
X16849800Y-9766200D02*
X16748200Y-9867800D01*
X16799000Y-9766200D02*
X16799000Y-9867800D01*
X16748200Y-9817000D02*
X16849800Y-9817000D01*
X16748200Y-10020200D02*
X16849800Y-10121800D01*
X16849800Y-10020200D02*
X16748200Y-10121800D01*
X16799000Y-10020200D02*
X16799000Y-10121800D01*
X16748200Y-10071000D02*
X16849800Y-10071000D01*
X16748200Y-10274200D02*
X16849800Y-10375800D01*
X16849800Y-10274200D02*
X16748200Y-10375800D01*
X16799000Y-10274200D02*
X16799000Y-10375800D01*
X16748200Y-10325000D02*
X16849800Y-10325000D01*
X16748200Y-10528200D02*
X16849800Y-10629800D01*
X16849800Y-10528200D02*
X16748200Y-10629800D01*
X16799000Y-10528200D02*
X16799000Y-10629800D01*
X16748200Y-10579000D02*
X16849800Y-10579000D01*
X16748200Y-10782200D02*
X16849800Y-10883800D01*
X16849800Y-10782200D02*
X16748200Y-10883800D01*
X16799000Y-10782200D02*
X16799000Y-10883800D01*
X16748200Y-10833000D02*
X16849800Y-10833000D01*
X16748200Y-11036200D02*
X16849800Y-11137800D01*
X16849800Y-11036200D02*
X16748200Y-11137800D01*
X16799000Y-11036200D02*
X16799000Y-11137800D01*
X16748200Y-11087000D02*
X16849800Y-11087000D01*
X16748200Y-11290200D02*
X16849800Y-11391800D01*
X16849800Y-11290200D02*
X16748200Y-11391800D01*
X16799000Y-11290200D02*
X16799000Y-11391800D01*
X16748200Y-11341000D02*
X16849800Y-11341000D01*
D18*
X12264000Y-10042000D02*
X12373000Y-10151000D01*
X12373000Y-10042000D02*
X12264000Y-10151000D01*
X12357038Y-10135038D02*
X12357038Y-10057962D01*
X12279962Y-10057962D01*
X12279962Y-10135038D01*
X12357038Y-10135038D01*
X12264500Y-7109500D02*
X12373500Y-7218500D01*
X12373500Y-7109500D02*
X12264500Y-7218500D01*
X12357538Y-7202538D02*
X12357538Y-7125462D01*
X12280462Y-7125462D01*
X12280462Y-7202538D01*
X12357538Y-7202538D01*
X12264500Y-9089500D02*
X12373500Y-9198500D01*
X12373500Y-9089500D02*
X12264500Y-9198500D01*
X12357538Y-9182538D02*
X12357538Y-9105462D01*
X12280462Y-9105462D01*
X12280462Y-9182538D01*
X12357538Y-9182538D01*
X12518000Y-10042000D02*
X12627000Y-10151000D01*
X12627000Y-10042000D02*
X12518000Y-10151000D01*
X12611038Y-10135038D02*
X12611038Y-10057962D01*
X12533962Y-10057962D01*
X12533962Y-10135038D01*
X12611038Y-10135038D01*
X12518500Y-7109500D02*
X12627500Y-7218500D01*
X12627500Y-7109500D02*
X12518500Y-7218500D01*
X12611538Y-7202538D02*
X12611538Y-7125462D01*
X12534462Y-7125462D01*
X12534462Y-7202538D01*
X12611538Y-7202538D01*
X12518500Y-9089500D02*
X12627500Y-9198500D01*
X12627500Y-9089500D02*
X12518500Y-9198500D01*
X12611538Y-9182538D02*
X12611538Y-9105462D01*
X12534462Y-9105462D01*
X12534462Y-9182538D01*
X12611538Y-9182538D01*
X12772000Y-10042000D02*
X12881000Y-10151000D01*
X12881000Y-10042000D02*
X12772000Y-10151000D01*
X12865038Y-10135038D02*
X12865038Y-10057962D01*
X12787962Y-10057962D01*
X12787962Y-10135038D01*
X12865038Y-10135038D01*
X13407500Y-7109500D02*
X13516500Y-7218500D01*
X13516500Y-7109500D02*
X13407500Y-7218500D01*
X13500538Y-7202538D02*
X13500538Y-7125462D01*
X13423462Y-7125462D01*
X13423462Y-7202538D01*
X13500538Y-7202538D01*
X13407500Y-9089500D02*
X13516500Y-9198500D01*
X13516500Y-9089500D02*
X13407500Y-9198500D01*
X13500538Y-9182538D02*
X13500538Y-9105462D01*
X13423462Y-9105462D01*
X13423462Y-9182538D01*
X13500538Y-9182538D01*
X13470500Y-10042000D02*
X13579500Y-10151000D01*
X13579500Y-10042000D02*
X13470500Y-10151000D01*
X13563538Y-10135038D02*
X13563538Y-10057962D01*
X13486462Y-10057962D01*
X13486462Y-10135038D01*
X13563538Y-10135038D01*
X13661500Y-7109500D02*
X13770500Y-7218500D01*
X13770500Y-7109500D02*
X13661500Y-7218500D01*
X13754538Y-7202538D02*
X13754538Y-7125462D01*
X13677462Y-7125462D01*
X13677462Y-7202538D01*
X13754538Y-7202538D01*
X13661500Y-9089500D02*
X13770500Y-9198500D01*
X13770500Y-9089500D02*
X13661500Y-9198500D01*
X13754538Y-9182538D02*
X13754538Y-9105462D01*
X13677462Y-9105462D01*
X13677462Y-9182538D01*
X13754538Y-9182538D01*
X13724500Y-10042000D02*
X13833500Y-10151000D01*
X13833500Y-10042000D02*
X13724500Y-10151000D01*
X13817538Y-10135038D02*
X13817538Y-10057962D01*
X13740462Y-10057962D01*
X13740462Y-10135038D01*
X13817538Y-10135038D01*
X13939700Y-4212700D02*
X14048700Y-4321700D01*
X14048700Y-4212700D02*
X13939700Y-4321700D01*
X14032738Y-4305738D02*
X14032738Y-4228662D01*
X13955662Y-4228662D01*
X13955662Y-4305738D01*
X14032738Y-4305738D01*
X13939700Y-4466700D02*
X14048700Y-4575700D01*
X14048700Y-4466700D02*
X13939700Y-4575700D01*
X14032738Y-4559738D02*
X14032738Y-4482662D01*
X13955662Y-4482662D01*
X13955662Y-4559738D01*
X14032738Y-4559738D01*
X13978500Y-10042000D02*
X14087500Y-10151000D01*
X14087500Y-10042000D02*
X13978500Y-10151000D01*
X14071538Y-10135038D02*
X14071538Y-10057962D01*
X13994462Y-10057962D01*
X13994462Y-10135038D01*
X14071538Y-10135038D01*
X14296500Y-7098000D02*
X14405500Y-7207000D01*
X14405500Y-7098000D02*
X14296500Y-7207000D01*
X14389538Y-7191038D02*
X14389538Y-7113962D01*
X14312462Y-7113962D01*
X14312462Y-7191038D01*
X14389538Y-7191038D01*
X14296500Y-9089500D02*
X14405500Y-9198500D01*
X14405500Y-9089500D02*
X14296500Y-9198500D01*
X14389538Y-9182538D02*
X14389538Y-9105462D01*
X14312462Y-9105462D01*
X14312462Y-9182538D01*
X14389538Y-9182538D01*
X14550500Y-7098000D02*
X14659500Y-7207000D01*
X14659500Y-7098000D02*
X14550500Y-7207000D01*
X14643538Y-7191038D02*
X14643538Y-7113962D01*
X14566462Y-7113962D01*
X14566462Y-7191038D01*
X14643538Y-7191038D01*
X14550500Y-9089500D02*
X14659500Y-9198500D01*
X14659500Y-9089500D02*
X14550500Y-9198500D01*
X14643538Y-9182538D02*
X14643538Y-9105462D01*
X14566462Y-9105462D01*
X14566462Y-9182538D01*
X14643538Y-9182538D01*
X14677500Y-10030500D02*
X14786500Y-10139500D01*
X14786500Y-10030500D02*
X14677500Y-10139500D01*
X14770538Y-10123538D02*
X14770538Y-10046462D01*
X14693462Y-10046462D01*
X14693462Y-10123538D01*
X14770538Y-10123538D01*
X14793000Y-6030000D02*
X14902000Y-6139000D01*
X14902000Y-6030000D02*
X14793000Y-6139000D01*
X14886038Y-6123038D02*
X14886038Y-6045962D01*
X14808962Y-6045962D01*
X14808962Y-6123038D01*
X14886038Y-6123038D01*
X14793000Y-6284000D02*
X14902000Y-6393000D01*
X14902000Y-6284000D02*
X14793000Y-6393000D01*
X14886038Y-6377038D02*
X14886038Y-6299962D01*
X14808962Y-6299962D01*
X14808962Y-6377038D01*
X14886038Y-6377038D01*
X14804500Y-7098000D02*
X14913500Y-7207000D01*
X14913500Y-7098000D02*
X14804500Y-7207000D01*
X14897538Y-7191038D02*
X14897538Y-7113962D01*
X14820462Y-7113962D01*
X14820462Y-7191038D01*
X14897538Y-7191038D01*
X14804500Y-9089500D02*
X14913500Y-9198500D01*
X14913500Y-9089500D02*
X14804500Y-9198500D01*
X14897538Y-9182538D02*
X14897538Y-9105462D01*
X14820462Y-9105462D01*
X14820462Y-9182538D01*
X14897538Y-9182538D01*
X14892200Y-4212700D02*
X15001200Y-4321700D01*
X15001200Y-4212700D02*
X14892200Y-4321700D01*
X14985238Y-4305738D02*
X14985238Y-4228662D01*
X14908162Y-4228662D01*
X14908162Y-4305738D01*
X14985238Y-4305738D01*
X14892200Y-4466700D02*
X15001200Y-4575700D01*
X15001200Y-4466700D02*
X14892200Y-4575700D01*
X14985238Y-4559738D02*
X14985238Y-4482662D01*
X14908162Y-4482662D01*
X14908162Y-4559738D01*
X14985238Y-4559738D01*
X14931500Y-10030500D02*
X15040500Y-10139500D01*
X15040500Y-10030500D02*
X14931500Y-10139500D01*
X15024538Y-10123538D02*
X15024538Y-10046462D01*
X14947462Y-10046462D01*
X14947462Y-10123538D01*
X15024538Y-10123538D01*
X15185500Y-10030500D02*
X15294500Y-10139500D01*
X15294500Y-10030500D02*
X15185500Y-10139500D01*
X15278538Y-10123538D02*
X15278538Y-10046462D01*
X15201462Y-10046462D01*
X15201462Y-10123538D01*
X15278538Y-10123538D01*
X15745500Y-6030000D02*
X15854500Y-6139000D01*
X15854500Y-6030000D02*
X15745500Y-6139000D01*
X15838538Y-6123038D02*
X15838538Y-6045962D01*
X15761462Y-6045962D01*
X15761462Y-6123038D01*
X15838538Y-6123038D01*
X15745500Y-6284000D02*
X15854500Y-6393000D01*
X15854500Y-6284000D02*
X15745500Y-6393000D01*
X15838538Y-6377038D02*
X15838538Y-6299962D01*
X15761462Y-6299962D01*
X15761462Y-6377038D01*
X15838538Y-6377038D01*
X17852500Y-6030000D02*
X17961500Y-6139000D01*
X17961500Y-6030000D02*
X17852500Y-6139000D01*
X17945538Y-6123038D02*
X17945538Y-6045962D01*
X17868462Y-6045962D01*
X17868462Y-6123038D01*
X17945538Y-6123038D01*
X17852500Y-7046000D02*
X17961500Y-7155000D01*
X17961500Y-7046000D02*
X17852500Y-7155000D01*
X17945538Y-7139038D02*
X17945538Y-7061962D01*
X17868462Y-7061962D01*
X17868462Y-7139038D01*
X17945538Y-7139038D01*
X18106500Y-6030000D02*
X18215500Y-6139000D01*
X18215500Y-6030000D02*
X18106500Y-6139000D01*
X18199538Y-6123038D02*
X18199538Y-6045962D01*
X18122462Y-6045962D01*
X18122462Y-6123038D01*
X18199538Y-6123038D01*
X18106500Y-7046000D02*
X18215500Y-7155000D01*
X18215500Y-7046000D02*
X18106500Y-7155000D01*
X18199538Y-7139038D02*
X18199538Y-7061962D01*
X18122462Y-7061962D01*
X18122462Y-7139038D01*
X18199538Y-7139038D01*
X18741500Y-6018500D02*
X18850500Y-6127500D01*
X18850500Y-6018500D02*
X18741500Y-6127500D01*
X18834538Y-6111538D02*
X18834538Y-6034462D01*
X18757462Y-6034462D01*
X18757462Y-6111538D01*
X18834538Y-6111538D01*
X18741500Y-7057500D02*
X18850500Y-7166500D01*
X18850500Y-7057500D02*
X18741500Y-7166500D01*
X18834538Y-7150538D02*
X18834538Y-7073462D01*
X18757462Y-7073462D01*
X18757462Y-7150538D01*
X18834538Y-7150538D01*
X18741500Y-8073500D02*
X18850500Y-8182500D01*
X18850500Y-8073500D02*
X18741500Y-8182500D01*
X18834538Y-8166538D02*
X18834538Y-8089462D01*
X18757462Y-8089462D01*
X18757462Y-8166538D01*
X18834538Y-8166538D01*
X18995500Y-6018500D02*
X19104500Y-6127500D01*
X19104500Y-6018500D02*
X18995500Y-6127500D01*
X19088538Y-6111538D02*
X19088538Y-6034462D01*
X19011462Y-6034462D01*
X19011462Y-6111538D01*
X19088538Y-6111538D01*
X18995500Y-7057500D02*
X19104500Y-7166500D01*
X19104500Y-7057500D02*
X18995500Y-7166500D01*
X19088538Y-7150538D02*
X19088538Y-7073462D01*
X19011462Y-7073462D01*
X19011462Y-7150538D01*
X19088538Y-7150538D01*
X18995500Y-8073500D02*
X19104500Y-8182500D01*
X19104500Y-8073500D02*
X18995500Y-8182500D01*
X19088538Y-8166538D02*
X19088538Y-8089462D01*
X19011462Y-8089462D01*
X19011462Y-8166538D01*
X19088538Y-8166538D01*
X19630500Y-6030000D02*
X19739500Y-6139000D01*
X19739500Y-6030000D02*
X19630500Y-6139000D01*
X19723538Y-6123038D02*
X19723538Y-6045962D01*
X19646462Y-6045962D01*
X19646462Y-6123038D01*
X19723538Y-6123038D01*
X19630500Y-7057500D02*
X19739500Y-7166500D01*
X19739500Y-7057500D02*
X19630500Y-7166500D01*
X19723538Y-7150538D02*
X19723538Y-7073462D01*
X19646462Y-7073462D01*
X19646462Y-7150538D01*
X19723538Y-7150538D01*
X19630500Y-8073500D02*
X19739500Y-8182500D01*
X19739500Y-8073500D02*
X19630500Y-8182500D01*
X19723538Y-8166538D02*
X19723538Y-8089462D01*
X19646462Y-8089462D01*
X19646462Y-8166538D01*
X19723538Y-8166538D01*
X19784100Y-4962000D02*
X19893100Y-5071000D01*
X19893100Y-4962000D02*
X19784100Y-5071000D01*
X19877138Y-5055038D02*
X19877138Y-4977962D01*
X19800062Y-4977962D01*
X19800062Y-5055038D01*
X19877138Y-5055038D01*
X19784100Y-5216000D02*
X19893100Y-5325000D01*
X19893100Y-5216000D02*
X19784100Y-5325000D01*
X19877138Y-5309038D02*
X19877138Y-5231962D01*
X19800062Y-5231962D01*
X19800062Y-5309038D01*
X19877138Y-5309038D01*
X19884500Y-6030000D02*
X19993500Y-6139000D01*
X19993500Y-6030000D02*
X19884500Y-6139000D01*
X19977538Y-6123038D02*
X19977538Y-6045962D01*
X19900462Y-6045962D01*
X19900462Y-6123038D01*
X19977538Y-6123038D01*
X19884500Y-7057500D02*
X19993500Y-7166500D01*
X19993500Y-7057500D02*
X19884500Y-7166500D01*
X19977538Y-7150538D02*
X19977538Y-7073462D01*
X19900462Y-7073462D01*
X19900462Y-7150538D01*
X19977538Y-7150538D01*
X19884500Y-8073500D02*
X19993500Y-8182500D01*
X19993500Y-8073500D02*
X19884500Y-8182500D01*
X19977538Y-8166538D02*
X19977538Y-8089462D01*
X19900462Y-8089462D01*
X19900462Y-8166538D01*
X19977538Y-8166538D01*
D19*
X13949000Y-10994000D02*
X14059000Y-11104000D01*
X14059000Y-10994000D02*
X13949000Y-11104000D01*
X14004000Y-11104000D02*
X14059000Y-11049000D01*
X14004000Y-10994000D01*
X13949000Y-11049000D01*
X14004000Y-11104000D01*
X13949000Y-11248000D02*
X14059000Y-11358000D01*
X14059000Y-11248000D02*
X13949000Y-11358000D01*
X14004000Y-11358000D02*
X14059000Y-11303000D01*
X14004000Y-11248000D01*
X13949000Y-11303000D01*
X14004000Y-11358000D01*
X13949000Y-11502000D02*
X14059000Y-11612000D01*
X14059000Y-11502000D02*
X13949000Y-11612000D01*
X14004000Y-11612000D02*
X14059000Y-11557000D01*
X14004000Y-11502000D01*
X13949000Y-11557000D01*
X14004000Y-11612000D01*
X14262000Y-10994000D02*
X14372000Y-11104000D01*
X14372000Y-10994000D02*
X14262000Y-11104000D01*
X14317000Y-11104000D02*
X14372000Y-11049000D01*
X14317000Y-10994000D01*
X14262000Y-11049000D01*
X14317000Y-11104000D01*
X14262000Y-11248000D02*
X14372000Y-11358000D01*
X14372000Y-11248000D02*
X14262000Y-11358000D01*
X14317000Y-11358000D02*
X14372000Y-11303000D01*
X14317000Y-11248000D01*
X14262000Y-11303000D01*
X14317000Y-11358000D01*
X14262000Y-11502000D02*
X14372000Y-11612000D01*
X14372000Y-11502000D02*
X14262000Y-11612000D01*
X14317000Y-11612000D02*
X14372000Y-11557000D01*
X14317000Y-11502000D01*
X14262000Y-11557000D01*
X14317000Y-11612000D01*
X15304500Y-6947500D02*
X15414500Y-7057500D01*
X15414500Y-6947500D02*
X15304500Y-7057500D01*
X15359500Y-7057500D02*
X15414500Y-7002500D01*
X15359500Y-6947500D01*
X15304500Y-7002500D01*
X15359500Y-7057500D01*
X15304500Y-7397500D02*
X15414500Y-7507500D01*
X15414500Y-7397500D02*
X15304500Y-7507500D01*
X15359500Y-7507500D02*
X15414500Y-7452500D01*
X15359500Y-7397500D01*
X15304500Y-7452500D01*
X15359500Y-7507500D01*
X15304500Y-8939000D02*
X15414500Y-9049000D01*
X15414500Y-8939000D02*
X15304500Y-9049000D01*
X15359500Y-9049000D02*
X15414500Y-8994000D01*
X15359500Y-8939000D01*
X15304500Y-8994000D01*
X15359500Y-9049000D01*
X15304500Y-9389000D02*
X15414500Y-9499000D01*
X15414500Y-9389000D02*
X15304500Y-9499000D01*
X15359500Y-9499000D02*
X15414500Y-9444000D01*
X15359500Y-9389000D01*
X15304500Y-9444000D01*
X15359500Y-9499000D01*
X15954500Y-6947500D02*
X16064500Y-7057500D01*
X16064500Y-6947500D02*
X15954500Y-7057500D01*
X16009500Y-7057500D02*
X16064500Y-7002500D01*
X16009500Y-6947500D01*
X15954500Y-7002500D01*
X16009500Y-7057500D01*
X15954500Y-7397500D02*
X16064500Y-7507500D01*
X16064500Y-7397500D02*
X15954500Y-7507500D01*
X16009500Y-7507500D02*
X16064500Y-7452500D01*
X16009500Y-7397500D01*
X15954500Y-7452500D01*
X16009500Y-7507500D01*
X15954500Y-8939000D02*
X16064500Y-9049000D01*
X16064500Y-8939000D02*
X15954500Y-9049000D01*
X16009500Y-9049000D02*
X16064500Y-8994000D01*
X16009500Y-8939000D01*
X15954500Y-8994000D01*
X16009500Y-9049000D01*
X15954500Y-9389000D02*
X16064500Y-9499000D01*
X16064500Y-9389000D02*
X15954500Y-9499000D01*
X16009500Y-9499000D02*
X16064500Y-9444000D01*
X16009500Y-9389000D01*
X15954500Y-9444000D01*
X16009500Y-9499000D01*
X17661500Y-8104000D02*
X17771500Y-8214000D01*
X17771500Y-8104000D02*
X17661500Y-8214000D01*
X17716500Y-8214000D02*
X17771500Y-8159000D01*
X17716500Y-8104000D01*
X17661500Y-8159000D01*
X17716500Y-8214000D01*
X17661500Y-8644500D02*
X17771500Y-8754500D01*
X17771500Y-8644500D02*
X17661500Y-8754500D01*
X17716500Y-8754500D02*
X17771500Y-8699500D01*
X17716500Y-8644500D01*
X17661500Y-8699500D01*
X17716500Y-8754500D01*
X17915500Y-8104000D02*
X18025500Y-8214000D01*
X18025500Y-8104000D02*
X17915500Y-8214000D01*
X17970500Y-8214000D02*
X18025500Y-8159000D01*
X17970500Y-8104000D01*
X17915500Y-8159000D01*
X17970500Y-8214000D01*
X17915500Y-8644500D02*
X18025500Y-8754500D01*
X18025500Y-8644500D02*
X17915500Y-8754500D01*
X17970500Y-8754500D02*
X18025500Y-8699500D01*
X17970500Y-8644500D01*
X17915500Y-8699500D01*
X17970500Y-8754500D01*
X18169500Y-8104000D02*
X18279500Y-8214000D01*
X18279500Y-8104000D02*
X18169500Y-8214000D01*
X18224500Y-8214000D02*
X18279500Y-8159000D01*
X18224500Y-8104000D01*
X18169500Y-8159000D01*
X18224500Y-8214000D01*
X18169500Y-8644500D02*
X18279500Y-8754500D01*
X18279500Y-8644500D02*
X18169500Y-8754500D01*
X18224500Y-8754500D02*
X18279500Y-8699500D01*
X18224500Y-8644500D01*
X18169500Y-8699500D01*
X18224500Y-8754500D01*
X19333800Y-4847200D02*
X19443800Y-4957200D01*
X19443800Y-4847200D02*
X19333800Y-4957200D01*
X19388800Y-4957200D02*
X19443800Y-4902200D01*
X19388800Y-4847200D01*
X19333800Y-4902200D01*
X19388800Y-4957200D01*
X19333800Y-5101200D02*
X19443800Y-5211200D01*
X19443800Y-5101200D02*
X19333800Y-5211200D01*
X19388800Y-5211200D02*
X19443800Y-5156200D01*
X19388800Y-5101200D01*
X19333800Y-5156200D01*
X19388800Y-5211200D01*
X19333800Y-5355200D02*
X19443800Y-5465200D01*
X19443800Y-5355200D02*
X19333800Y-5465200D01*
X19388800Y-5465200D02*
X19443800Y-5410200D01*
X19388800Y-5355200D01*
X19333800Y-5410200D01*
X19388800Y-5465200D01*
D20*
X14160500Y-6215000D02*
X14160500Y-6335000D01*
X14100500Y-6275000D02*
X14220500Y-6275000D01*
X14220500Y-6275000D02*
G75*
G03*
X14220500Y-6275000I-60000J0D01*
G01*
X14160500Y-6469000D02*
X14160500Y-6589000D01*
X14100500Y-6529000D02*
X14220500Y-6529000D01*
X14220500Y-6529000D02*
G75*
G03*
X14220500Y-6529000I-60000J0D01*
G01*
D11*
X10704719Y-12570976D02*
X10704719Y-12370976D01*
X10752338Y-12370976D01*
X10780910Y-12380500D01*
X10799957Y-12399548D01*
X10809481Y-12418595D01*
X10819005Y-12456690D01*
X10819005Y-12485262D01*
X10809481Y-12523357D01*
X10799957Y-12542405D01*
X10780910Y-12561452D01*
X10752338Y-12570976D01*
X10704719Y-12570976D01*
X10904719Y-12570976D02*
X10904719Y-12437643D01*
X10904719Y-12475738D02*
X10914243Y-12456690D01*
X10923767Y-12447167D01*
X10942814Y-12437643D01*
X10961862Y-12437643D01*
X11028529Y-12570976D02*
X11028529Y-12437643D01*
X11028529Y-12370976D02*
X11019005Y-12380500D01*
X11028529Y-12390024D01*
X11038052Y-12380500D01*
X11028529Y-12370976D01*
X11028529Y-12390024D01*
X11152338Y-12570976D02*
X11133290Y-12561452D01*
X11123767Y-12542405D01*
X11123767Y-12370976D01*
X11257100Y-12570976D02*
X11238052Y-12561452D01*
X11228528Y-12542405D01*
X11228528Y-12370976D01*
X11485671Y-12570976D02*
X11485671Y-12370976D01*
X11552338Y-12513833D01*
X11619005Y-12370976D01*
X11619005Y-12570976D01*
X11799957Y-12570976D02*
X11799957Y-12466214D01*
X11790433Y-12447167D01*
X11771386Y-12437643D01*
X11733290Y-12437643D01*
X11714243Y-12447167D01*
X11799957Y-12561452D02*
X11780909Y-12570976D01*
X11733290Y-12570976D01*
X11714243Y-12561452D01*
X11704719Y-12542405D01*
X11704719Y-12523357D01*
X11714243Y-12504309D01*
X11733290Y-12494786D01*
X11780909Y-12494786D01*
X11799957Y-12485262D01*
X11895195Y-12437643D02*
X11895195Y-12637643D01*
X11895195Y-12447167D02*
X11914243Y-12437643D01*
X11952338Y-12437643D01*
X11971386Y-12447167D01*
X11980909Y-12456690D01*
X11990433Y-12475738D01*
X11990433Y-12532881D01*
X11980909Y-12551928D01*
X11971386Y-12561452D01*
X11952338Y-12570976D01*
X11914243Y-12570976D01*
X11895195Y-12561452D01*
X12076148Y-12551928D02*
X12085671Y-12561452D01*
X12076148Y-12570976D01*
X12066624Y-12561452D01*
X12076148Y-12551928D01*
X12076148Y-12570976D01*
X12076148Y-12447167D02*
X12085671Y-12456690D01*
X12076148Y-12466214D01*
X12066624Y-12456690D01*
X12076148Y-12447167D01*
X12076148Y-12466214D01*
D12*
X10407100Y-12880500D02*
X10447100Y-12920500D01*
X10447100Y-12880500D02*
X10407100Y-12920500D01*
D11*
X10742814Y-12790976D02*
X10761862Y-12790976D01*
X10780910Y-12800500D01*
X10790433Y-12810024D01*
X10799957Y-12829071D01*
X10809481Y-12867167D01*
X10809481Y-12914786D01*
X10799957Y-12952881D01*
X10790433Y-12971928D01*
X10780910Y-12981452D01*
X10761862Y-12990976D01*
X10742814Y-12990976D01*
X10723767Y-12981452D01*
X10714243Y-12971928D01*
X10704719Y-12952881D01*
X10695195Y-12914786D01*
X10695195Y-12867167D01*
X10704719Y-12829071D01*
X10714243Y-12810024D01*
X10723767Y-12800500D01*
X10742814Y-12790976D01*
X10895195Y-12971928D02*
X10904719Y-12981452D01*
X10895195Y-12990976D01*
X10885671Y-12981452D01*
X10895195Y-12971928D01*
X10895195Y-12990976D01*
X11076148Y-12857643D02*
X11076148Y-12990976D01*
X11028529Y-12781452D02*
X10980910Y-12924309D01*
X11104719Y-12924309D01*
X11219005Y-12790976D02*
X11238052Y-12790976D01*
X11257100Y-12800500D01*
X11266624Y-12810024D01*
X11276148Y-12829071D01*
X11285671Y-12867167D01*
X11285671Y-12914786D01*
X11276148Y-12952881D01*
X11266624Y-12971928D01*
X11257100Y-12981452D01*
X11238052Y-12990976D01*
X11219005Y-12990976D01*
X11199957Y-12981452D01*
X11190433Y-12971928D01*
X11180910Y-12952881D01*
X11171386Y-12914786D01*
X11171386Y-12867167D01*
X11180910Y-12829071D01*
X11190433Y-12810024D01*
X11199957Y-12800500D01*
X11219005Y-12790976D01*
X11409481Y-12790976D02*
X11428528Y-12790976D01*
X11447576Y-12800500D01*
X11457100Y-12810024D01*
X11466624Y-12829071D01*
X11476148Y-12867167D01*
X11476148Y-12914786D01*
X11466624Y-12952881D01*
X11457100Y-12971928D01*
X11447576Y-12981452D01*
X11428528Y-12990976D01*
X11409481Y-12990976D01*
X11390433Y-12981452D01*
X11380909Y-12971928D01*
X11371386Y-12952881D01*
X11361862Y-12914786D01*
X11361862Y-12867167D01*
X11371386Y-12829071D01*
X11380909Y-12810024D01*
X11390433Y-12800500D01*
X11409481Y-12790976D01*
X11561862Y-12990976D02*
X11561862Y-12857643D01*
X11561862Y-12876690D02*
X11571386Y-12867167D01*
X11590433Y-12857643D01*
X11619005Y-12857643D01*
X11638052Y-12867167D01*
X11647576Y-12886214D01*
X11647576Y-12990976D01*
X11647576Y-12886214D02*
X11657100Y-12867167D01*
X11676148Y-12857643D01*
X11704719Y-12857643D01*
X11723767Y-12867167D01*
X11733290Y-12886214D01*
X11733290Y-12990976D01*
X11828528Y-12990976D02*
X11828528Y-12857643D01*
X11828528Y-12876690D02*
X11838052Y-12867167D01*
X11857100Y-12857643D01*
X11885671Y-12857643D01*
X11904719Y-12867167D01*
X11914243Y-12886214D01*
X11914243Y-12990976D01*
X11914243Y-12886214D02*
X11923767Y-12867167D01*
X11942814Y-12857643D01*
X11971386Y-12857643D01*
X11990433Y-12867167D01*
X11999957Y-12886214D01*
X11999957Y-12990976D01*
X12390433Y-12781452D02*
X12219005Y-13038595D01*
X12647576Y-12790976D02*
X12666624Y-12790976D01*
X12685671Y-12800500D01*
X12695195Y-12810024D01*
X12704719Y-12829071D01*
X12714243Y-12867167D01*
X12714243Y-12914786D01*
X12704719Y-12952881D01*
X12695195Y-12971928D01*
X12685671Y-12981452D01*
X12666624Y-12990976D01*
X12647576Y-12990976D01*
X12628528Y-12981452D01*
X12619005Y-12971928D01*
X12609481Y-12952881D01*
X12599957Y-12914786D01*
X12599957Y-12867167D01*
X12609481Y-12829071D01*
X12619005Y-12810024D01*
X12628528Y-12800500D01*
X12647576Y-12790976D01*
X12799957Y-12971928D02*
X12809481Y-12981452D01*
X12799957Y-12990976D01*
X12790433Y-12981452D01*
X12799957Y-12971928D01*
X12799957Y-12990976D01*
X12933290Y-12790976D02*
X12952338Y-12790976D01*
X12971386Y-12800500D01*
X12980909Y-12810024D01*
X12990433Y-12829071D01*
X12999957Y-12867167D01*
X12999957Y-12914786D01*
X12990433Y-12952881D01*
X12980909Y-12971928D01*
X12971386Y-12981452D01*
X12952338Y-12990976D01*
X12933290Y-12990976D01*
X12914243Y-12981452D01*
X12904719Y-12971928D01*
X12895195Y-12952881D01*
X12885671Y-12914786D01*
X12885671Y-12867167D01*
X12895195Y-12829071D01*
X12904719Y-12810024D01*
X12914243Y-12800500D01*
X12933290Y-12790976D01*
X13190433Y-12990976D02*
X13076148Y-12990976D01*
X13133290Y-12990976D02*
X13133290Y-12790976D01*
X13114243Y-12819548D01*
X13095195Y-12838595D01*
X13076148Y-12848119D01*
X13371386Y-12790976D02*
X13276148Y-12790976D01*
X13266624Y-12886214D01*
X13276148Y-12876690D01*
X13295195Y-12867167D01*
X13342814Y-12867167D01*
X13361862Y-12876690D01*
X13371386Y-12886214D01*
X13380909Y-12905262D01*
X13380909Y-12952881D01*
X13371386Y-12971928D01*
X13361862Y-12981452D01*
X13342814Y-12990976D01*
X13295195Y-12990976D01*
X13276148Y-12981452D01*
X13266624Y-12971928D01*
X13447576Y-12790976D02*
X13580909Y-12790976D01*
X13495195Y-12990976D01*
X13647576Y-12790976D02*
X13647576Y-12829071D01*
X13723767Y-12790976D02*
X13723767Y-12829071D01*
X14019005Y-13067167D02*
X14009481Y-13057643D01*
X13990433Y-13029071D01*
X13980909Y-13010024D01*
X13971386Y-12981452D01*
X13961862Y-12933833D01*
X13961862Y-12895738D01*
X13971386Y-12848119D01*
X13980909Y-12819548D01*
X13990433Y-12800500D01*
X14009481Y-12771928D01*
X14019005Y-12762405D01*
X14190433Y-12790976D02*
X14095195Y-12790976D01*
X14085671Y-12886214D01*
X14095195Y-12876690D01*
X14114243Y-12867167D01*
X14161862Y-12867167D01*
X14180909Y-12876690D01*
X14190433Y-12886214D01*
X14199957Y-12905262D01*
X14199957Y-12952881D01*
X14190433Y-12971928D01*
X14180909Y-12981452D01*
X14161862Y-12990976D01*
X14114243Y-12990976D01*
X14095195Y-12981452D01*
X14085671Y-12971928D01*
X14323767Y-12790976D02*
X14342814Y-12790976D01*
X14361862Y-12800500D01*
X14371386Y-12810024D01*
X14380909Y-12829071D01*
X14390433Y-12867167D01*
X14390433Y-12914786D01*
X14380909Y-12952881D01*
X14371386Y-12971928D01*
X14361862Y-12981452D01*
X14342814Y-12990976D01*
X14323767Y-12990976D01*
X14304719Y-12981452D01*
X14295195Y-12971928D01*
X14285671Y-12952881D01*
X14276148Y-12914786D01*
X14276148Y-12867167D01*
X14285671Y-12829071D01*
X14295195Y-12810024D01*
X14304719Y-12800500D01*
X14323767Y-12790976D01*
X14561862Y-12790976D02*
X14523767Y-12790976D01*
X14504719Y-12800500D01*
X14495195Y-12810024D01*
X14476148Y-12838595D01*
X14466624Y-12876690D01*
X14466624Y-12952881D01*
X14476148Y-12971928D01*
X14485671Y-12981452D01*
X14504719Y-12990976D01*
X14542814Y-12990976D01*
X14561862Y-12981452D01*
X14571386Y-12971928D01*
X14580909Y-12952881D01*
X14580909Y-12905262D01*
X14571386Y-12886214D01*
X14561862Y-12876690D01*
X14542814Y-12867167D01*
X14504719Y-12867167D01*
X14485671Y-12876690D01*
X14476148Y-12886214D01*
X14466624Y-12905262D01*
X14819005Y-12990976D02*
X14819005Y-12790976D01*
X14904719Y-12990976D02*
X14904719Y-12886214D01*
X14895195Y-12867167D01*
X14876148Y-12857643D01*
X14847576Y-12857643D01*
X14828528Y-12867167D01*
X14819005Y-12876690D01*
X15028528Y-12990976D02*
X15009481Y-12981452D01*
X14999957Y-12971928D01*
X14990433Y-12952881D01*
X14990433Y-12895738D01*
X14999957Y-12876690D01*
X15009481Y-12867167D01*
X15028528Y-12857643D01*
X15057100Y-12857643D01*
X15076148Y-12867167D01*
X15085671Y-12876690D01*
X15095195Y-12895738D01*
X15095195Y-12952881D01*
X15085671Y-12971928D01*
X15076148Y-12981452D01*
X15057100Y-12990976D01*
X15028528Y-12990976D01*
X15209481Y-12990976D02*
X15190433Y-12981452D01*
X15180909Y-12962405D01*
X15180909Y-12790976D01*
X15361862Y-12981452D02*
X15342814Y-12990976D01*
X15304719Y-12990976D01*
X15285671Y-12981452D01*
X15276148Y-12962405D01*
X15276148Y-12886214D01*
X15285671Y-12867167D01*
X15304719Y-12857643D01*
X15342814Y-12857643D01*
X15361862Y-12867167D01*
X15371386Y-12886214D01*
X15371386Y-12905262D01*
X15276148Y-12924309D01*
X15447576Y-12981452D02*
X15466624Y-12990976D01*
X15504719Y-12990976D01*
X15523767Y-12981452D01*
X15533290Y-12962405D01*
X15533290Y-12952881D01*
X15523767Y-12933833D01*
X15504719Y-12924309D01*
X15476148Y-12924309D01*
X15457100Y-12914786D01*
X15447576Y-12895738D01*
X15447576Y-12886214D01*
X15457100Y-12867167D01*
X15476148Y-12857643D01*
X15504719Y-12857643D01*
X15523767Y-12867167D01*
X15599957Y-13067167D02*
X15609481Y-13057643D01*
X15628528Y-13029071D01*
X15638052Y-13010024D01*
X15647576Y-12981452D01*
X15657100Y-12933833D01*
X15657100Y-12895738D01*
X15647576Y-12848119D01*
X15638052Y-12819548D01*
X15628528Y-12800500D01*
X15609481Y-12771928D01*
X15599957Y-12762405D01*
D13*
X10447100Y-13164500D02*
G75*
G03*
X10447100Y-13164500I-35000J0D01*
G01*
D11*
X10742814Y-13054976D02*
X10761862Y-13054976D01*
X10780910Y-13064500D01*
X10790433Y-13074024D01*
X10799957Y-13093071D01*
X10809481Y-13131167D01*
X10809481Y-13178786D01*
X10799957Y-13216881D01*
X10790433Y-13235928D01*
X10780910Y-13245452D01*
X10761862Y-13254976D01*
X10742814Y-13254976D01*
X10723767Y-13245452D01*
X10714243Y-13235928D01*
X10704719Y-13216881D01*
X10695195Y-13178786D01*
X10695195Y-13131167D01*
X10704719Y-13093071D01*
X10714243Y-13074024D01*
X10723767Y-13064500D01*
X10742814Y-13054976D01*
X10895195Y-13235928D02*
X10904719Y-13245452D01*
X10895195Y-13254976D01*
X10885671Y-13245452D01*
X10895195Y-13235928D01*
X10895195Y-13254976D01*
X10971386Y-13054976D02*
X11104719Y-13054976D01*
X11019005Y-13254976D01*
X11219005Y-13054976D02*
X11238052Y-13054976D01*
X11257100Y-13064500D01*
X11266624Y-13074024D01*
X11276148Y-13093071D01*
X11285671Y-13131167D01*
X11285671Y-13178786D01*
X11276148Y-13216881D01*
X11266624Y-13235928D01*
X11257100Y-13245452D01*
X11238052Y-13254976D01*
X11219005Y-13254976D01*
X11199957Y-13245452D01*
X11190433Y-13235928D01*
X11180910Y-13216881D01*
X11171386Y-13178786D01*
X11171386Y-13131167D01*
X11180910Y-13093071D01*
X11190433Y-13074024D01*
X11199957Y-13064500D01*
X11219005Y-13054976D01*
X11409481Y-13054976D02*
X11428528Y-13054976D01*
X11447576Y-13064500D01*
X11457100Y-13074024D01*
X11466624Y-13093071D01*
X11476148Y-13131167D01*
X11476148Y-13178786D01*
X11466624Y-13216881D01*
X11457100Y-13235928D01*
X11447576Y-13245452D01*
X11428528Y-13254976D01*
X11409481Y-13254976D01*
X11390433Y-13245452D01*
X11380909Y-13235928D01*
X11371386Y-13216881D01*
X11361862Y-13178786D01*
X11361862Y-13131167D01*
X11371386Y-13093071D01*
X11380909Y-13074024D01*
X11390433Y-13064500D01*
X11409481Y-13054976D01*
X11561862Y-13254976D02*
X11561862Y-13121643D01*
X11561862Y-13140690D02*
X11571386Y-13131167D01*
X11590433Y-13121643D01*
X11619005Y-13121643D01*
X11638052Y-13131167D01*
X11647576Y-13150214D01*
X11647576Y-13254976D01*
X11647576Y-13150214D02*
X11657100Y-13131167D01*
X11676148Y-13121643D01*
X11704719Y-13121643D01*
X11723767Y-13131167D01*
X11733290Y-13150214D01*
X11733290Y-13254976D01*
X11828528Y-13254976D02*
X11828528Y-13121643D01*
X11828528Y-13140690D02*
X11838052Y-13131167D01*
X11857100Y-13121643D01*
X11885671Y-13121643D01*
X11904719Y-13131167D01*
X11914243Y-13150214D01*
X11914243Y-13254976D01*
X11914243Y-13150214D02*
X11923767Y-13131167D01*
X11942814Y-13121643D01*
X11971386Y-13121643D01*
X11990433Y-13131167D01*
X11999957Y-13150214D01*
X11999957Y-13254976D01*
X12390433Y-13045452D02*
X12219005Y-13302595D01*
X12647576Y-13054976D02*
X12666624Y-13054976D01*
X12685671Y-13064500D01*
X12695195Y-13074024D01*
X12704719Y-13093071D01*
X12714243Y-13131167D01*
X12714243Y-13178786D01*
X12704719Y-13216881D01*
X12695195Y-13235928D01*
X12685671Y-13245452D01*
X12666624Y-13254976D01*
X12647576Y-13254976D01*
X12628528Y-13245452D01*
X12619005Y-13235928D01*
X12609481Y-13216881D01*
X12599957Y-13178786D01*
X12599957Y-13131167D01*
X12609481Y-13093071D01*
X12619005Y-13074024D01*
X12628528Y-13064500D01*
X12647576Y-13054976D01*
X12799957Y-13235928D02*
X12809481Y-13245452D01*
X12799957Y-13254976D01*
X12790433Y-13245452D01*
X12799957Y-13235928D01*
X12799957Y-13254976D01*
X12933290Y-13054976D02*
X12952338Y-13054976D01*
X12971386Y-13064500D01*
X12980909Y-13074024D01*
X12990433Y-13093071D01*
X12999957Y-13131167D01*
X12999957Y-13178786D01*
X12990433Y-13216881D01*
X12980909Y-13235928D01*
X12971386Y-13245452D01*
X12952338Y-13254976D01*
X12933290Y-13254976D01*
X12914243Y-13245452D01*
X12904719Y-13235928D01*
X12895195Y-13216881D01*
X12885671Y-13178786D01*
X12885671Y-13131167D01*
X12895195Y-13093071D01*
X12904719Y-13074024D01*
X12914243Y-13064500D01*
X12933290Y-13054976D01*
X13076148Y-13074024D02*
X13085671Y-13064500D01*
X13104719Y-13054976D01*
X13152338Y-13054976D01*
X13171386Y-13064500D01*
X13180909Y-13074024D01*
X13190433Y-13093071D01*
X13190433Y-13112119D01*
X13180909Y-13140690D01*
X13066624Y-13254976D01*
X13190433Y-13254976D01*
X13257100Y-13054976D02*
X13390433Y-13054976D01*
X13304719Y-13254976D01*
X13552338Y-13054976D02*
X13514243Y-13054976D01*
X13495195Y-13064500D01*
X13485671Y-13074024D01*
X13466624Y-13102595D01*
X13457100Y-13140690D01*
X13457100Y-13216881D01*
X13466624Y-13235928D01*
X13476148Y-13245452D01*
X13495195Y-13254976D01*
X13533290Y-13254976D01*
X13552338Y-13245452D01*
X13561862Y-13235928D01*
X13571386Y-13216881D01*
X13571386Y-13169262D01*
X13561862Y-13150214D01*
X13552338Y-13140690D01*
X13533290Y-13131167D01*
X13495195Y-13131167D01*
X13476148Y-13140690D01*
X13466624Y-13150214D01*
X13457100Y-13169262D01*
X13647576Y-13054976D02*
X13647576Y-13093071D01*
X13723767Y-13054976D02*
X13723767Y-13093071D01*
X14019005Y-13331167D02*
X14009481Y-13321643D01*
X13990433Y-13293071D01*
X13980909Y-13274024D01*
X13971386Y-13245452D01*
X13961862Y-13197833D01*
X13961862Y-13159738D01*
X13971386Y-13112119D01*
X13980909Y-13083548D01*
X13990433Y-13064500D01*
X14009481Y-13035928D01*
X14019005Y-13026405D01*
X14190433Y-13054976D02*
X14095195Y-13054976D01*
X14085671Y-13150214D01*
X14095195Y-13140690D01*
X14114243Y-13131167D01*
X14161862Y-13131167D01*
X14180909Y-13140690D01*
X14190433Y-13150214D01*
X14199957Y-13169262D01*
X14199957Y-13216881D01*
X14190433Y-13235928D01*
X14180909Y-13245452D01*
X14161862Y-13254976D01*
X14114243Y-13254976D01*
X14095195Y-13245452D01*
X14085671Y-13235928D01*
X14371386Y-13054976D02*
X14333290Y-13054976D01*
X14314243Y-13064500D01*
X14304719Y-13074024D01*
X14285671Y-13102595D01*
X14276148Y-13140690D01*
X14276148Y-13216881D01*
X14285671Y-13235928D01*
X14295195Y-13245452D01*
X14314243Y-13254976D01*
X14352338Y-13254976D01*
X14371386Y-13245452D01*
X14380909Y-13235928D01*
X14390433Y-13216881D01*
X14390433Y-13169262D01*
X14380909Y-13150214D01*
X14371386Y-13140690D01*
X14352338Y-13131167D01*
X14314243Y-13131167D01*
X14295195Y-13140690D01*
X14285671Y-13150214D01*
X14276148Y-13169262D01*
X14628528Y-13254976D02*
X14628528Y-13054976D01*
X14714243Y-13254976D02*
X14714243Y-13150214D01*
X14704719Y-13131167D01*
X14685671Y-13121643D01*
X14657100Y-13121643D01*
X14638052Y-13131167D01*
X14628528Y-13140690D01*
X14838052Y-13254976D02*
X14819005Y-13245452D01*
X14809481Y-13235928D01*
X14799957Y-13216881D01*
X14799957Y-13159738D01*
X14809481Y-13140690D01*
X14819005Y-13131167D01*
X14838052Y-13121643D01*
X14866624Y-13121643D01*
X14885671Y-13131167D01*
X14895195Y-13140690D01*
X14904719Y-13159738D01*
X14904719Y-13216881D01*
X14895195Y-13235928D01*
X14885671Y-13245452D01*
X14866624Y-13254976D01*
X14838052Y-13254976D01*
X15019005Y-13254976D02*
X14999957Y-13245452D01*
X14990433Y-13226405D01*
X14990433Y-13054976D01*
X15171386Y-13245452D02*
X15152338Y-13254976D01*
X15114243Y-13254976D01*
X15095195Y-13245452D01*
X15085671Y-13226405D01*
X15085671Y-13150214D01*
X15095195Y-13131167D01*
X15114243Y-13121643D01*
X15152338Y-13121643D01*
X15171386Y-13131167D01*
X15180909Y-13150214D01*
X15180909Y-13169262D01*
X15085671Y-13188309D01*
X15257100Y-13245452D02*
X15276148Y-13254976D01*
X15314243Y-13254976D01*
X15333290Y-13245452D01*
X15342814Y-13226405D01*
X15342814Y-13216881D01*
X15333290Y-13197833D01*
X15314243Y-13188309D01*
X15285671Y-13188309D01*
X15266624Y-13178786D01*
X15257100Y-13159738D01*
X15257100Y-13150214D01*
X15266624Y-13131167D01*
X15285671Y-13121643D01*
X15314243Y-13121643D01*
X15333290Y-13131167D01*
X15409481Y-13331167D02*
X15419005Y-13321643D01*
X15438052Y-13293071D01*
X15447576Y-13274024D01*
X15457100Y-13245452D01*
X15466624Y-13197833D01*
X15466624Y-13159738D01*
X15457100Y-13112119D01*
X15447576Y-13083548D01*
X15438052Y-13064500D01*
X15419005Y-13035928D01*
X15409481Y-13026405D01*
D14*
X10409600Y-13391000D02*
X10409600Y-13466000D01*
X10372100Y-13428500D02*
X10447100Y-13428500D01*
D11*
X10742814Y-13318976D02*
X10761862Y-13318976D01*
X10780910Y-13328500D01*
X10790433Y-13338024D01*
X10799957Y-13357071D01*
X10809481Y-13395167D01*
X10809481Y-13442786D01*
X10799957Y-13480881D01*
X10790433Y-13499928D01*
X10780910Y-13509452D01*
X10761862Y-13518976D01*
X10742814Y-13518976D01*
X10723767Y-13509452D01*
X10714243Y-13499928D01*
X10704719Y-13480881D01*
X10695195Y-13442786D01*
X10695195Y-13395167D01*
X10704719Y-13357071D01*
X10714243Y-13338024D01*
X10723767Y-13328500D01*
X10742814Y-13318976D01*
X10895195Y-13499928D02*
X10904719Y-13509452D01*
X10895195Y-13518976D01*
X10885671Y-13509452D01*
X10895195Y-13499928D01*
X10895195Y-13518976D01*
X10971386Y-13318976D02*
X11104719Y-13318976D01*
X11019005Y-13518976D01*
X11276148Y-13318976D02*
X11180910Y-13318976D01*
X11171386Y-13414214D01*
X11180910Y-13404690D01*
X11199957Y-13395167D01*
X11247576Y-13395167D01*
X11266624Y-13404690D01*
X11276148Y-13414214D01*
X11285671Y-13433262D01*
X11285671Y-13480881D01*
X11276148Y-13499928D01*
X11266624Y-13509452D01*
X11247576Y-13518976D01*
X11199957Y-13518976D01*
X11180910Y-13509452D01*
X11171386Y-13499928D01*
X11409481Y-13318976D02*
X11428528Y-13318976D01*
X11447576Y-13328500D01*
X11457100Y-13338024D01*
X11466624Y-13357071D01*
X11476148Y-13395167D01*
X11476148Y-13442786D01*
X11466624Y-13480881D01*
X11457100Y-13499928D01*
X11447576Y-13509452D01*
X11428528Y-13518976D01*
X11409481Y-13518976D01*
X11390433Y-13509452D01*
X11380909Y-13499928D01*
X11371386Y-13480881D01*
X11361862Y-13442786D01*
X11361862Y-13395167D01*
X11371386Y-13357071D01*
X11380909Y-13338024D01*
X11390433Y-13328500D01*
X11409481Y-13318976D01*
X11561862Y-13518976D02*
X11561862Y-13385643D01*
X11561862Y-13404690D02*
X11571386Y-13395167D01*
X11590433Y-13385643D01*
X11619005Y-13385643D01*
X11638052Y-13395167D01*
X11647576Y-13414214D01*
X11647576Y-13518976D01*
X11647576Y-13414214D02*
X11657100Y-13395167D01*
X11676148Y-13385643D01*
X11704719Y-13385643D01*
X11723767Y-13395167D01*
X11733290Y-13414214D01*
X11733290Y-13518976D01*
X11828528Y-13518976D02*
X11828528Y-13385643D01*
X11828528Y-13404690D02*
X11838052Y-13395167D01*
X11857100Y-13385643D01*
X11885671Y-13385643D01*
X11904719Y-13395167D01*
X11914243Y-13414214D01*
X11914243Y-13518976D01*
X11914243Y-13414214D02*
X11923767Y-13395167D01*
X11942814Y-13385643D01*
X11971386Y-13385643D01*
X11990433Y-13395167D01*
X11999957Y-13414214D01*
X11999957Y-13518976D01*
X12390433Y-13309452D02*
X12219005Y-13566595D01*
X12647576Y-13318976D02*
X12666624Y-13318976D01*
X12685671Y-13328500D01*
X12695195Y-13338024D01*
X12704719Y-13357071D01*
X12714243Y-13395167D01*
X12714243Y-13442786D01*
X12704719Y-13480881D01*
X12695195Y-13499928D01*
X12685671Y-13509452D01*
X12666624Y-13518976D01*
X12647576Y-13518976D01*
X12628528Y-13509452D01*
X12619005Y-13499928D01*
X12609481Y-13480881D01*
X12599957Y-13442786D01*
X12599957Y-13395167D01*
X12609481Y-13357071D01*
X12619005Y-13338024D01*
X12628528Y-13328500D01*
X12647576Y-13318976D01*
X12799957Y-13499928D02*
X12809481Y-13509452D01*
X12799957Y-13518976D01*
X12790433Y-13509452D01*
X12799957Y-13499928D01*
X12799957Y-13518976D01*
X12933290Y-13318976D02*
X12952338Y-13318976D01*
X12971386Y-13328500D01*
X12980909Y-13338024D01*
X12990433Y-13357071D01*
X12999957Y-13395167D01*
X12999957Y-13442786D01*
X12990433Y-13480881D01*
X12980909Y-13499928D01*
X12971386Y-13509452D01*
X12952338Y-13518976D01*
X12933290Y-13518976D01*
X12914243Y-13509452D01*
X12904719Y-13499928D01*
X12895195Y-13480881D01*
X12885671Y-13442786D01*
X12885671Y-13395167D01*
X12895195Y-13357071D01*
X12904719Y-13338024D01*
X12914243Y-13328500D01*
X12933290Y-13318976D01*
X13076148Y-13338024D02*
X13085671Y-13328500D01*
X13104719Y-13318976D01*
X13152338Y-13318976D01*
X13171386Y-13328500D01*
X13180909Y-13338024D01*
X13190433Y-13357071D01*
X13190433Y-13376119D01*
X13180909Y-13404690D01*
X13066624Y-13518976D01*
X13190433Y-13518976D01*
X13285671Y-13518976D02*
X13323767Y-13518976D01*
X13342814Y-13509452D01*
X13352338Y-13499928D01*
X13371386Y-13471357D01*
X13380909Y-13433262D01*
X13380909Y-13357071D01*
X13371386Y-13338024D01*
X13361862Y-13328500D01*
X13342814Y-13318976D01*
X13304719Y-13318976D01*
X13285671Y-13328500D01*
X13276148Y-13338024D01*
X13266624Y-13357071D01*
X13266624Y-13404690D01*
X13276148Y-13423738D01*
X13285671Y-13433262D01*
X13304719Y-13442786D01*
X13342814Y-13442786D01*
X13361862Y-13433262D01*
X13371386Y-13423738D01*
X13380909Y-13404690D01*
X13561862Y-13318976D02*
X13466624Y-13318976D01*
X13457100Y-13414214D01*
X13466624Y-13404690D01*
X13485671Y-13395167D01*
X13533290Y-13395167D01*
X13552338Y-13404690D01*
X13561862Y-13414214D01*
X13571386Y-13433262D01*
X13571386Y-13480881D01*
X13561862Y-13499928D01*
X13552338Y-13509452D01*
X13533290Y-13518976D01*
X13485671Y-13518976D01*
X13466624Y-13509452D01*
X13457100Y-13499928D01*
X13647576Y-13318976D02*
X13647576Y-13357071D01*
X13723767Y-13318976D02*
X13723767Y-13357071D01*
X14019005Y-13595167D02*
X14009481Y-13585643D01*
X13990433Y-13557071D01*
X13980909Y-13538024D01*
X13971386Y-13509452D01*
X13961862Y-13461833D01*
X13961862Y-13423738D01*
X13971386Y-13376119D01*
X13980909Y-13347548D01*
X13990433Y-13328500D01*
X14009481Y-13299928D01*
X14019005Y-13290405D01*
X14180909Y-13318976D02*
X14142814Y-13318976D01*
X14123767Y-13328500D01*
X14114243Y-13338024D01*
X14095195Y-13366595D01*
X14085671Y-13404690D01*
X14085671Y-13480881D01*
X14095195Y-13499928D01*
X14104719Y-13509452D01*
X14123767Y-13518976D01*
X14161862Y-13518976D01*
X14180909Y-13509452D01*
X14190433Y-13499928D01*
X14199957Y-13480881D01*
X14199957Y-13433262D01*
X14190433Y-13414214D01*
X14180909Y-13404690D01*
X14161862Y-13395167D01*
X14123767Y-13395167D01*
X14104719Y-13404690D01*
X14095195Y-13414214D01*
X14085671Y-13433262D01*
X14438052Y-13518976D02*
X14438052Y-13318976D01*
X14523767Y-13518976D02*
X14523767Y-13414214D01*
X14514243Y-13395167D01*
X14495195Y-13385643D01*
X14466624Y-13385643D01*
X14447576Y-13395167D01*
X14438052Y-13404690D01*
X14647576Y-13518976D02*
X14628528Y-13509452D01*
X14619005Y-13499928D01*
X14609481Y-13480881D01*
X14609481Y-13423738D01*
X14619005Y-13404690D01*
X14628528Y-13395167D01*
X14647576Y-13385643D01*
X14676148Y-13385643D01*
X14695195Y-13395167D01*
X14704719Y-13404690D01*
X14714243Y-13423738D01*
X14714243Y-13480881D01*
X14704719Y-13499928D01*
X14695195Y-13509452D01*
X14676148Y-13518976D01*
X14647576Y-13518976D01*
X14828528Y-13518976D02*
X14809481Y-13509452D01*
X14799957Y-13490405D01*
X14799957Y-13318976D01*
X14980909Y-13509452D02*
X14961862Y-13518976D01*
X14923767Y-13518976D01*
X14904719Y-13509452D01*
X14895195Y-13490405D01*
X14895195Y-13414214D01*
X14904719Y-13395167D01*
X14923767Y-13385643D01*
X14961862Y-13385643D01*
X14980909Y-13395167D01*
X14990433Y-13414214D01*
X14990433Y-13433262D01*
X14895195Y-13452309D01*
X15066624Y-13509452D02*
X15085671Y-13518976D01*
X15123767Y-13518976D01*
X15142814Y-13509452D01*
X15152338Y-13490405D01*
X15152338Y-13480881D01*
X15142814Y-13461833D01*
X15123767Y-13452309D01*
X15095195Y-13452309D01*
X15076148Y-13442786D01*
X15066624Y-13423738D01*
X15066624Y-13414214D01*
X15076148Y-13395167D01*
X15095195Y-13385643D01*
X15123767Y-13385643D01*
X15142814Y-13395167D01*
X15219005Y-13595167D02*
X15228528Y-13585643D01*
X15247576Y-13557071D01*
X15257100Y-13538024D01*
X15266624Y-13509452D01*
X15276148Y-13461833D01*
X15276148Y-13423738D01*
X15266624Y-13376119D01*
X15257100Y-13347548D01*
X15247576Y-13328500D01*
X15228528Y-13299928D01*
X15219005Y-13290405D01*
D15*
X10435385Y-13720784D02*
X10435385Y-13664215D01*
X10378816Y-13664215D01*
X10378816Y-13720784D01*
X10435385Y-13720784D01*
D11*
X10742814Y-13582976D02*
X10761862Y-13582976D01*
X10780910Y-13592500D01*
X10790433Y-13602024D01*
X10799957Y-13621071D01*
X10809481Y-13659167D01*
X10809481Y-13706786D01*
X10799957Y-13744881D01*
X10790433Y-13763928D01*
X10780910Y-13773452D01*
X10761862Y-13782976D01*
X10742814Y-13782976D01*
X10723767Y-13773452D01*
X10714243Y-13763928D01*
X10704719Y-13744881D01*
X10695195Y-13706786D01*
X10695195Y-13659167D01*
X10704719Y-13621071D01*
X10714243Y-13602024D01*
X10723767Y-13592500D01*
X10742814Y-13582976D01*
X10895195Y-13763928D02*
X10904719Y-13773452D01*
X10895195Y-13782976D01*
X10885671Y-13773452D01*
X10895195Y-13763928D01*
X10895195Y-13782976D01*
X11019005Y-13668690D02*
X10999957Y-13659167D01*
X10990433Y-13649643D01*
X10980910Y-13630595D01*
X10980910Y-13621071D01*
X10990433Y-13602024D01*
X10999957Y-13592500D01*
X11019005Y-13582976D01*
X11057100Y-13582976D01*
X11076148Y-13592500D01*
X11085671Y-13602024D01*
X11095195Y-13621071D01*
X11095195Y-13630595D01*
X11085671Y-13649643D01*
X11076148Y-13659167D01*
X11057100Y-13668690D01*
X11019005Y-13668690D01*
X10999957Y-13678214D01*
X10990433Y-13687738D01*
X10980910Y-13706786D01*
X10980910Y-13744881D01*
X10990433Y-13763928D01*
X10999957Y-13773452D01*
X11019005Y-13782976D01*
X11057100Y-13782976D01*
X11076148Y-13773452D01*
X11085671Y-13763928D01*
X11095195Y-13744881D01*
X11095195Y-13706786D01*
X11085671Y-13687738D01*
X11076148Y-13678214D01*
X11057100Y-13668690D01*
X11219005Y-13582976D02*
X11238052Y-13582976D01*
X11257100Y-13592500D01*
X11266624Y-13602024D01*
X11276148Y-13621071D01*
X11285671Y-13659167D01*
X11285671Y-13706786D01*
X11276148Y-13744881D01*
X11266624Y-13763928D01*
X11257100Y-13773452D01*
X11238052Y-13782976D01*
X11219005Y-13782976D01*
X11199957Y-13773452D01*
X11190433Y-13763928D01*
X11180910Y-13744881D01*
X11171386Y-13706786D01*
X11171386Y-13659167D01*
X11180910Y-13621071D01*
X11190433Y-13602024D01*
X11199957Y-13592500D01*
X11219005Y-13582976D01*
X11409481Y-13582976D02*
X11428528Y-13582976D01*
X11447576Y-13592500D01*
X11457100Y-13602024D01*
X11466624Y-13621071D01*
X11476148Y-13659167D01*
X11476148Y-13706786D01*
X11466624Y-13744881D01*
X11457100Y-13763928D01*
X11447576Y-13773452D01*
X11428528Y-13782976D01*
X11409481Y-13782976D01*
X11390433Y-13773452D01*
X11380909Y-13763928D01*
X11371386Y-13744881D01*
X11361862Y-13706786D01*
X11361862Y-13659167D01*
X11371386Y-13621071D01*
X11380909Y-13602024D01*
X11390433Y-13592500D01*
X11409481Y-13582976D01*
X11561862Y-13782976D02*
X11561862Y-13649643D01*
X11561862Y-13668690D02*
X11571386Y-13659167D01*
X11590433Y-13649643D01*
X11619005Y-13649643D01*
X11638052Y-13659167D01*
X11647576Y-13678214D01*
X11647576Y-13782976D01*
X11647576Y-13678214D02*
X11657100Y-13659167D01*
X11676148Y-13649643D01*
X11704719Y-13649643D01*
X11723767Y-13659167D01*
X11733290Y-13678214D01*
X11733290Y-13782976D01*
X11828528Y-13782976D02*
X11828528Y-13649643D01*
X11828528Y-13668690D02*
X11838052Y-13659167D01*
X11857100Y-13649643D01*
X11885671Y-13649643D01*
X11904719Y-13659167D01*
X11914243Y-13678214D01*
X11914243Y-13782976D01*
X11914243Y-13678214D02*
X11923767Y-13659167D01*
X11942814Y-13649643D01*
X11971386Y-13649643D01*
X11990433Y-13659167D01*
X11999957Y-13678214D01*
X11999957Y-13782976D01*
X12390433Y-13573452D02*
X12219005Y-13830595D01*
X12647576Y-13582976D02*
X12666624Y-13582976D01*
X12685671Y-13592500D01*
X12695195Y-13602024D01*
X12704719Y-13621071D01*
X12714243Y-13659167D01*
X12714243Y-13706786D01*
X12704719Y-13744881D01*
X12695195Y-13763928D01*
X12685671Y-13773452D01*
X12666624Y-13782976D01*
X12647576Y-13782976D01*
X12628528Y-13773452D01*
X12619005Y-13763928D01*
X12609481Y-13744881D01*
X12599957Y-13706786D01*
X12599957Y-13659167D01*
X12609481Y-13621071D01*
X12619005Y-13602024D01*
X12628528Y-13592500D01*
X12647576Y-13582976D01*
X12799957Y-13763928D02*
X12809481Y-13773452D01*
X12799957Y-13782976D01*
X12790433Y-13773452D01*
X12799957Y-13763928D01*
X12799957Y-13782976D01*
X12933290Y-13582976D02*
X12952338Y-13582976D01*
X12971386Y-13592500D01*
X12980909Y-13602024D01*
X12990433Y-13621071D01*
X12999957Y-13659167D01*
X12999957Y-13706786D01*
X12990433Y-13744881D01*
X12980909Y-13763928D01*
X12971386Y-13773452D01*
X12952338Y-13782976D01*
X12933290Y-13782976D01*
X12914243Y-13773452D01*
X12904719Y-13763928D01*
X12895195Y-13744881D01*
X12885671Y-13706786D01*
X12885671Y-13659167D01*
X12895195Y-13621071D01*
X12904719Y-13602024D01*
X12914243Y-13592500D01*
X12933290Y-13582976D01*
X13066624Y-13582976D02*
X13190433Y-13582976D01*
X13123767Y-13659167D01*
X13152338Y-13659167D01*
X13171386Y-13668690D01*
X13180909Y-13678214D01*
X13190433Y-13697262D01*
X13190433Y-13744881D01*
X13180909Y-13763928D01*
X13171386Y-13773452D01*
X13152338Y-13782976D01*
X13095195Y-13782976D01*
X13076148Y-13773452D01*
X13066624Y-13763928D01*
X13380909Y-13782976D02*
X13266624Y-13782976D01*
X13323767Y-13782976D02*
X13323767Y-13582976D01*
X13304719Y-13611548D01*
X13285671Y-13630595D01*
X13266624Y-13640119D01*
X13561862Y-13582976D02*
X13466624Y-13582976D01*
X13457100Y-13678214D01*
X13466624Y-13668690D01*
X13485671Y-13659167D01*
X13533290Y-13659167D01*
X13552338Y-13668690D01*
X13561862Y-13678214D01*
X13571386Y-13697262D01*
X13571386Y-13744881D01*
X13561862Y-13763928D01*
X13552338Y-13773452D01*
X13533290Y-13782976D01*
X13485671Y-13782976D01*
X13466624Y-13773452D01*
X13457100Y-13763928D01*
X13647576Y-13582976D02*
X13647576Y-13621071D01*
X13723767Y-13582976D02*
X13723767Y-13621071D01*
X14019005Y-13859167D02*
X14009481Y-13849643D01*
X13990433Y-13821071D01*
X13980909Y-13802024D01*
X13971386Y-13773452D01*
X13961862Y-13725833D01*
X13961862Y-13687738D01*
X13971386Y-13640119D01*
X13980909Y-13611548D01*
X13990433Y-13592500D01*
X14009481Y-13563928D01*
X14019005Y-13554405D01*
X14085671Y-13602024D02*
X14095195Y-13592500D01*
X14114243Y-13582976D01*
X14161862Y-13582976D01*
X14180909Y-13592500D01*
X14190433Y-13602024D01*
X14199957Y-13621071D01*
X14199957Y-13640119D01*
X14190433Y-13668690D01*
X14076148Y-13782976D01*
X14199957Y-13782976D01*
X14323767Y-13582976D02*
X14342814Y-13582976D01*
X14361862Y-13592500D01*
X14371386Y-13602024D01*
X14380909Y-13621071D01*
X14390433Y-13659167D01*
X14390433Y-13706786D01*
X14380909Y-13744881D01*
X14371386Y-13763928D01*
X14361862Y-13773452D01*
X14342814Y-13782976D01*
X14323767Y-13782976D01*
X14304719Y-13773452D01*
X14295195Y-13763928D01*
X14285671Y-13744881D01*
X14276148Y-13706786D01*
X14276148Y-13659167D01*
X14285671Y-13621071D01*
X14295195Y-13602024D01*
X14304719Y-13592500D01*
X14323767Y-13582976D01*
X14628528Y-13782976D02*
X14628528Y-13582976D01*
X14714243Y-13782976D02*
X14714243Y-13678214D01*
X14704719Y-13659167D01*
X14685671Y-13649643D01*
X14657100Y-13649643D01*
X14638052Y-13659167D01*
X14628528Y-13668690D01*
X14838052Y-13782976D02*
X14819005Y-13773452D01*
X14809481Y-13763928D01*
X14799957Y-13744881D01*
X14799957Y-13687738D01*
X14809481Y-13668690D01*
X14819005Y-13659167D01*
X14838052Y-13649643D01*
X14866624Y-13649643D01*
X14885671Y-13659167D01*
X14895195Y-13668690D01*
X14904719Y-13687738D01*
X14904719Y-13744881D01*
X14895195Y-13763928D01*
X14885671Y-13773452D01*
X14866624Y-13782976D01*
X14838052Y-13782976D01*
X15019005Y-13782976D02*
X14999957Y-13773452D01*
X14990433Y-13754405D01*
X14990433Y-13582976D01*
X15171386Y-13773452D02*
X15152338Y-13782976D01*
X15114243Y-13782976D01*
X15095195Y-13773452D01*
X15085671Y-13754405D01*
X15085671Y-13678214D01*
X15095195Y-13659167D01*
X15114243Y-13649643D01*
X15152338Y-13649643D01*
X15171386Y-13659167D01*
X15180909Y-13678214D01*
X15180909Y-13697262D01*
X15085671Y-13716309D01*
X15257100Y-13773452D02*
X15276148Y-13782976D01*
X15314243Y-13782976D01*
X15333290Y-13773452D01*
X15342814Y-13754405D01*
X15342814Y-13744881D01*
X15333290Y-13725833D01*
X15314243Y-13716309D01*
X15285671Y-13716309D01*
X15266624Y-13706786D01*
X15257100Y-13687738D01*
X15257100Y-13678214D01*
X15266624Y-13659167D01*
X15285671Y-13649643D01*
X15314243Y-13649643D01*
X15333290Y-13659167D01*
X15409481Y-13859167D02*
X15419005Y-13849643D01*
X15438052Y-13821071D01*
X15447576Y-13802024D01*
X15457100Y-13773452D01*
X15466624Y-13725833D01*
X15466624Y-13687738D01*
X15457100Y-13640119D01*
X15447576Y-13611548D01*
X15438052Y-13592500D01*
X15419005Y-13563928D01*
X15409481Y-13554405D01*
D16*
X10402100Y-14001500D02*
X10447100Y-13956500D01*
X10402100Y-13911500D01*
X10357100Y-13956500D01*
X10402100Y-14001500D01*
D11*
X10742814Y-13846976D02*
X10761862Y-13846976D01*
X10780910Y-13856500D01*
X10790433Y-13866024D01*
X10799957Y-13885071D01*
X10809481Y-13923167D01*
X10809481Y-13970786D01*
X10799957Y-14008881D01*
X10790433Y-14027928D01*
X10780910Y-14037452D01*
X10761862Y-14046976D01*
X10742814Y-14046976D01*
X10723767Y-14037452D01*
X10714243Y-14027928D01*
X10704719Y-14008881D01*
X10695195Y-13970786D01*
X10695195Y-13923167D01*
X10704719Y-13885071D01*
X10714243Y-13866024D01*
X10723767Y-13856500D01*
X10742814Y-13846976D01*
X10895195Y-14027928D02*
X10904719Y-14037452D01*
X10895195Y-14046976D01*
X10885671Y-14037452D01*
X10895195Y-14027928D01*
X10895195Y-14046976D01*
X10999957Y-14046976D02*
X11038052Y-14046976D01*
X11057100Y-14037452D01*
X11066624Y-14027928D01*
X11085671Y-13999357D01*
X11095195Y-13961262D01*
X11095195Y-13885071D01*
X11085671Y-13866024D01*
X11076148Y-13856500D01*
X11057100Y-13846976D01*
X11019005Y-13846976D01*
X10999957Y-13856500D01*
X10990433Y-13866024D01*
X10980910Y-13885071D01*
X10980910Y-13932690D01*
X10990433Y-13951738D01*
X10999957Y-13961262D01*
X11019005Y-13970786D01*
X11057100Y-13970786D01*
X11076148Y-13961262D01*
X11085671Y-13951738D01*
X11095195Y-13932690D01*
X11219005Y-13846976D02*
X11238052Y-13846976D01*
X11257100Y-13856500D01*
X11266624Y-13866024D01*
X11276148Y-13885071D01*
X11285671Y-13923167D01*
X11285671Y-13970786D01*
X11276148Y-14008881D01*
X11266624Y-14027928D01*
X11257100Y-14037452D01*
X11238052Y-14046976D01*
X11219005Y-14046976D01*
X11199957Y-14037452D01*
X11190433Y-14027928D01*
X11180910Y-14008881D01*
X11171386Y-13970786D01*
X11171386Y-13923167D01*
X11180910Y-13885071D01*
X11190433Y-13866024D01*
X11199957Y-13856500D01*
X11219005Y-13846976D01*
X11409481Y-13846976D02*
X11428528Y-13846976D01*
X11447576Y-13856500D01*
X11457100Y-13866024D01*
X11466624Y-13885071D01*
X11476148Y-13923167D01*
X11476148Y-13970786D01*
X11466624Y-14008881D01*
X11457100Y-14027928D01*
X11447576Y-14037452D01*
X11428528Y-14046976D01*
X11409481Y-14046976D01*
X11390433Y-14037452D01*
X11380909Y-14027928D01*
X11371386Y-14008881D01*
X11361862Y-13970786D01*
X11361862Y-13923167D01*
X11371386Y-13885071D01*
X11380909Y-13866024D01*
X11390433Y-13856500D01*
X11409481Y-13846976D01*
X11561862Y-14046976D02*
X11561862Y-13913643D01*
X11561862Y-13932690D02*
X11571386Y-13923167D01*
X11590433Y-13913643D01*
X11619005Y-13913643D01*
X11638052Y-13923167D01*
X11647576Y-13942214D01*
X11647576Y-14046976D01*
X11647576Y-13942214D02*
X11657100Y-13923167D01*
X11676148Y-13913643D01*
X11704719Y-13913643D01*
X11723767Y-13923167D01*
X11733290Y-13942214D01*
X11733290Y-14046976D01*
X11828528Y-14046976D02*
X11828528Y-13913643D01*
X11828528Y-13932690D02*
X11838052Y-13923167D01*
X11857100Y-13913643D01*
X11885671Y-13913643D01*
X11904719Y-13923167D01*
X11914243Y-13942214D01*
X11914243Y-14046976D01*
X11914243Y-13942214D02*
X11923767Y-13923167D01*
X11942814Y-13913643D01*
X11971386Y-13913643D01*
X11990433Y-13923167D01*
X11999957Y-13942214D01*
X11999957Y-14046976D01*
X12390433Y-13837452D02*
X12219005Y-14094595D01*
X12647576Y-13846976D02*
X12666624Y-13846976D01*
X12685671Y-13856500D01*
X12695195Y-13866024D01*
X12704719Y-13885071D01*
X12714243Y-13923167D01*
X12714243Y-13970786D01*
X12704719Y-14008881D01*
X12695195Y-14027928D01*
X12685671Y-14037452D01*
X12666624Y-14046976D01*
X12647576Y-14046976D01*
X12628528Y-14037452D01*
X12619005Y-14027928D01*
X12609481Y-14008881D01*
X12599957Y-13970786D01*
X12599957Y-13923167D01*
X12609481Y-13885071D01*
X12619005Y-13866024D01*
X12628528Y-13856500D01*
X12647576Y-13846976D01*
X12799957Y-14027928D02*
X12809481Y-14037452D01*
X12799957Y-14046976D01*
X12790433Y-14037452D01*
X12799957Y-14027928D01*
X12799957Y-14046976D01*
X12933290Y-13846976D02*
X12952338Y-13846976D01*
X12971386Y-13856500D01*
X12980909Y-13866024D01*
X12990433Y-13885071D01*
X12999957Y-13923167D01*
X12999957Y-13970786D01*
X12990433Y-14008881D01*
X12980909Y-14027928D01*
X12971386Y-14037452D01*
X12952338Y-14046976D01*
X12933290Y-14046976D01*
X12914243Y-14037452D01*
X12904719Y-14027928D01*
X12895195Y-14008881D01*
X12885671Y-13970786D01*
X12885671Y-13923167D01*
X12895195Y-13885071D01*
X12904719Y-13866024D01*
X12914243Y-13856500D01*
X12933290Y-13846976D01*
X13066624Y-13846976D02*
X13190433Y-13846976D01*
X13123767Y-13923167D01*
X13152338Y-13923167D01*
X13171386Y-13932690D01*
X13180909Y-13942214D01*
X13190433Y-13961262D01*
X13190433Y-14008881D01*
X13180909Y-14027928D01*
X13171386Y-14037452D01*
X13152338Y-14046976D01*
X13095195Y-14046976D01*
X13076148Y-14037452D01*
X13066624Y-14027928D01*
X13371386Y-13846976D02*
X13276148Y-13846976D01*
X13266624Y-13942214D01*
X13276148Y-13932690D01*
X13295195Y-13923167D01*
X13342814Y-13923167D01*
X13361862Y-13932690D01*
X13371386Y-13942214D01*
X13380909Y-13961262D01*
X13380909Y-14008881D01*
X13371386Y-14027928D01*
X13361862Y-14037452D01*
X13342814Y-14046976D01*
X13295195Y-14046976D01*
X13276148Y-14037452D01*
X13266624Y-14027928D01*
X13552338Y-13913643D02*
X13552338Y-14046976D01*
X13504719Y-13837452D02*
X13457100Y-13980309D01*
X13580909Y-13980309D01*
X13647576Y-13846976D02*
X13647576Y-13885071D01*
X13723767Y-13846976D02*
X13723767Y-13885071D01*
X14019005Y-14123167D02*
X14009481Y-14113643D01*
X13990433Y-14085071D01*
X13980909Y-14066024D01*
X13971386Y-14037452D01*
X13961862Y-13989833D01*
X13961862Y-13951738D01*
X13971386Y-13904119D01*
X13980909Y-13875548D01*
X13990433Y-13856500D01*
X14009481Y-13827928D01*
X14019005Y-13818405D01*
X14199957Y-14046976D02*
X14085671Y-14046976D01*
X14142814Y-14046976D02*
X14142814Y-13846976D01*
X14123767Y-13875548D01*
X14104719Y-13894595D01*
X14085671Y-13904119D01*
X14371386Y-13846976D02*
X14333290Y-13846976D01*
X14314243Y-13856500D01*
X14304719Y-13866024D01*
X14285671Y-13894595D01*
X14276148Y-13932690D01*
X14276148Y-14008881D01*
X14285671Y-14027928D01*
X14295195Y-14037452D01*
X14314243Y-14046976D01*
X14352338Y-14046976D01*
X14371386Y-14037452D01*
X14380909Y-14027928D01*
X14390433Y-14008881D01*
X14390433Y-13961262D01*
X14380909Y-13942214D01*
X14371386Y-13932690D01*
X14352338Y-13923167D01*
X14314243Y-13923167D01*
X14295195Y-13932690D01*
X14285671Y-13942214D01*
X14276148Y-13961262D01*
X14628528Y-14046976D02*
X14628528Y-13846976D01*
X14714243Y-14046976D02*
X14714243Y-13942214D01*
X14704719Y-13923167D01*
X14685671Y-13913643D01*
X14657100Y-13913643D01*
X14638052Y-13923167D01*
X14628528Y-13932690D01*
X14838052Y-14046976D02*
X14819005Y-14037452D01*
X14809481Y-14027928D01*
X14799957Y-14008881D01*
X14799957Y-13951738D01*
X14809481Y-13932690D01*
X14819005Y-13923167D01*
X14838052Y-13913643D01*
X14866624Y-13913643D01*
X14885671Y-13923167D01*
X14895195Y-13932690D01*
X14904719Y-13951738D01*
X14904719Y-14008881D01*
X14895195Y-14027928D01*
X14885671Y-14037452D01*
X14866624Y-14046976D01*
X14838052Y-14046976D01*
X15019005Y-14046976D02*
X14999957Y-14037452D01*
X14990433Y-14018405D01*
X14990433Y-13846976D01*
X15171386Y-14037452D02*
X15152338Y-14046976D01*
X15114243Y-14046976D01*
X15095195Y-14037452D01*
X15085671Y-14018405D01*
X15085671Y-13942214D01*
X15095195Y-13923167D01*
X15114243Y-13913643D01*
X15152338Y-13913643D01*
X15171386Y-13923167D01*
X15180909Y-13942214D01*
X15180909Y-13961262D01*
X15085671Y-13980309D01*
X15257100Y-14037452D02*
X15276148Y-14046976D01*
X15314243Y-14046976D01*
X15333290Y-14037452D01*
X15342814Y-14018405D01*
X15342814Y-14008881D01*
X15333290Y-13989833D01*
X15314243Y-13980309D01*
X15285671Y-13980309D01*
X15266624Y-13970786D01*
X15257100Y-13951738D01*
X15257100Y-13942214D01*
X15266624Y-13923167D01*
X15285671Y-13913643D01*
X15314243Y-13913643D01*
X15333290Y-13923167D01*
X15409481Y-14123167D02*
X15419005Y-14113643D01*
X15438052Y-14085071D01*
X15447576Y-14066024D01*
X15457100Y-14037452D01*
X15466624Y-13989833D01*
X15466624Y-13951738D01*
X15457100Y-13904119D01*
X15447576Y-13875548D01*
X15438052Y-13856500D01*
X15419005Y-13827928D01*
X15409481Y-13818405D01*
D10*
X10347100Y-14170500D02*
X10447100Y-14270500D01*
X10447100Y-14170500D02*
X10347100Y-14270500D01*
X10447100Y-14220500D02*
G75*
G03*
X10447100Y-14220500I-50000J0D01*
G01*
D11*
X10809481Y-14310976D02*
X10695195Y-14310976D01*
X10752338Y-14310976D02*
X10752338Y-14110976D01*
X10733290Y-14139548D01*
X10714243Y-14158595D01*
X10695195Y-14168119D01*
X10895195Y-14291928D02*
X10904719Y-14301452D01*
X10895195Y-14310976D01*
X10885671Y-14301452D01*
X10895195Y-14291928D01*
X10895195Y-14310976D01*
X11028529Y-14110976D02*
X11047576Y-14110976D01*
X11066624Y-14120500D01*
X11076148Y-14130024D01*
X11085671Y-14149071D01*
X11095195Y-14187167D01*
X11095195Y-14234786D01*
X11085671Y-14272881D01*
X11076148Y-14291928D01*
X11066624Y-14301452D01*
X11047576Y-14310976D01*
X11028529Y-14310976D01*
X11009481Y-14301452D01*
X10999957Y-14291928D01*
X10990433Y-14272881D01*
X10980910Y-14234786D01*
X10980910Y-14187167D01*
X10990433Y-14149071D01*
X10999957Y-14130024D01*
X11009481Y-14120500D01*
X11028529Y-14110976D01*
X11219005Y-14110976D02*
X11238052Y-14110976D01*
X11257100Y-14120500D01*
X11266624Y-14130024D01*
X11276148Y-14149071D01*
X11285671Y-14187167D01*
X11285671Y-14234786D01*
X11276148Y-14272881D01*
X11266624Y-14291928D01*
X11257100Y-14301452D01*
X11238052Y-14310976D01*
X11219005Y-14310976D01*
X11199957Y-14301452D01*
X11190433Y-14291928D01*
X11180910Y-14272881D01*
X11171386Y-14234786D01*
X11171386Y-14187167D01*
X11180910Y-14149071D01*
X11190433Y-14130024D01*
X11199957Y-14120500D01*
X11219005Y-14110976D01*
X11409481Y-14110976D02*
X11428528Y-14110976D01*
X11447576Y-14120500D01*
X11457100Y-14130024D01*
X11466624Y-14149071D01*
X11476148Y-14187167D01*
X11476148Y-14234786D01*
X11466624Y-14272881D01*
X11457100Y-14291928D01*
X11447576Y-14301452D01*
X11428528Y-14310976D01*
X11409481Y-14310976D01*
X11390433Y-14301452D01*
X11380909Y-14291928D01*
X11371386Y-14272881D01*
X11361862Y-14234786D01*
X11361862Y-14187167D01*
X11371386Y-14149071D01*
X11380909Y-14130024D01*
X11390433Y-14120500D01*
X11409481Y-14110976D01*
X11561862Y-14310976D02*
X11561862Y-14177643D01*
X11561862Y-14196690D02*
X11571386Y-14187167D01*
X11590433Y-14177643D01*
X11619005Y-14177643D01*
X11638052Y-14187167D01*
X11647576Y-14206214D01*
X11647576Y-14310976D01*
X11647576Y-14206214D02*
X11657100Y-14187167D01*
X11676148Y-14177643D01*
X11704719Y-14177643D01*
X11723767Y-14187167D01*
X11733290Y-14206214D01*
X11733290Y-14310976D01*
X11828528Y-14310976D02*
X11828528Y-14177643D01*
X11828528Y-14196690D02*
X11838052Y-14187167D01*
X11857100Y-14177643D01*
X11885671Y-14177643D01*
X11904719Y-14187167D01*
X11914243Y-14206214D01*
X11914243Y-14310976D01*
X11914243Y-14206214D02*
X11923767Y-14187167D01*
X11942814Y-14177643D01*
X11971386Y-14177643D01*
X11990433Y-14187167D01*
X11999957Y-14206214D01*
X11999957Y-14310976D01*
X12390433Y-14101452D02*
X12219005Y-14358595D01*
X12647576Y-14110976D02*
X12666624Y-14110976D01*
X12685671Y-14120500D01*
X12695195Y-14130024D01*
X12704719Y-14149071D01*
X12714243Y-14187167D01*
X12714243Y-14234786D01*
X12704719Y-14272881D01*
X12695195Y-14291928D01*
X12685671Y-14301452D01*
X12666624Y-14310976D01*
X12647576Y-14310976D01*
X12628528Y-14301452D01*
X12619005Y-14291928D01*
X12609481Y-14272881D01*
X12599957Y-14234786D01*
X12599957Y-14187167D01*
X12609481Y-14149071D01*
X12619005Y-14130024D01*
X12628528Y-14120500D01*
X12647576Y-14110976D01*
X12799957Y-14291928D02*
X12809481Y-14301452D01*
X12799957Y-14310976D01*
X12790433Y-14301452D01*
X12799957Y-14291928D01*
X12799957Y-14310976D01*
X12933290Y-14110976D02*
X12952338Y-14110976D01*
X12971386Y-14120500D01*
X12980909Y-14130024D01*
X12990433Y-14149071D01*
X12999957Y-14187167D01*
X12999957Y-14234786D01*
X12990433Y-14272881D01*
X12980909Y-14291928D01*
X12971386Y-14301452D01*
X12952338Y-14310976D01*
X12933290Y-14310976D01*
X12914243Y-14301452D01*
X12904719Y-14291928D01*
X12895195Y-14272881D01*
X12885671Y-14234786D01*
X12885671Y-14187167D01*
X12895195Y-14149071D01*
X12904719Y-14130024D01*
X12914243Y-14120500D01*
X12933290Y-14110976D01*
X13066624Y-14110976D02*
X13190433Y-14110976D01*
X13123767Y-14187167D01*
X13152338Y-14187167D01*
X13171386Y-14196690D01*
X13180909Y-14206214D01*
X13190433Y-14225262D01*
X13190433Y-14272881D01*
X13180909Y-14291928D01*
X13171386Y-14301452D01*
X13152338Y-14310976D01*
X13095195Y-14310976D01*
X13076148Y-14301452D01*
X13066624Y-14291928D01*
X13285671Y-14310976D02*
X13323767Y-14310976D01*
X13342814Y-14301452D01*
X13352338Y-14291928D01*
X13371386Y-14263357D01*
X13380909Y-14225262D01*
X13380909Y-14149071D01*
X13371386Y-14130024D01*
X13361862Y-14120500D01*
X13342814Y-14110976D01*
X13304719Y-14110976D01*
X13285671Y-14120500D01*
X13276148Y-14130024D01*
X13266624Y-14149071D01*
X13266624Y-14196690D01*
X13276148Y-14215738D01*
X13285671Y-14225262D01*
X13304719Y-14234786D01*
X13342814Y-14234786D01*
X13361862Y-14225262D01*
X13371386Y-14215738D01*
X13380909Y-14196690D01*
X13552338Y-14177643D02*
X13552338Y-14310976D01*
X13504719Y-14101452D02*
X13457100Y-14244309D01*
X13580909Y-14244309D01*
X13647576Y-14110976D02*
X13647576Y-14149071D01*
X13723767Y-14110976D02*
X13723767Y-14149071D01*
X14019005Y-14387167D02*
X14009481Y-14377643D01*
X13990433Y-14349071D01*
X13980909Y-14330024D01*
X13971386Y-14301452D01*
X13961862Y-14253833D01*
X13961862Y-14215738D01*
X13971386Y-14168119D01*
X13980909Y-14139548D01*
X13990433Y-14120500D01*
X14009481Y-14091928D01*
X14019005Y-14082405D01*
X14085671Y-14130024D02*
X14095195Y-14120500D01*
X14114243Y-14110976D01*
X14161862Y-14110976D01*
X14180909Y-14120500D01*
X14190433Y-14130024D01*
X14199957Y-14149071D01*
X14199957Y-14168119D01*
X14190433Y-14196690D01*
X14076148Y-14310976D01*
X14199957Y-14310976D01*
X14323767Y-14110976D02*
X14342814Y-14110976D01*
X14361862Y-14120500D01*
X14371386Y-14130024D01*
X14380909Y-14149071D01*
X14390433Y-14187167D01*
X14390433Y-14234786D01*
X14380909Y-14272881D01*
X14371386Y-14291928D01*
X14361862Y-14301452D01*
X14342814Y-14310976D01*
X14323767Y-14310976D01*
X14304719Y-14301452D01*
X14295195Y-14291928D01*
X14285671Y-14272881D01*
X14276148Y-14234786D01*
X14276148Y-14187167D01*
X14285671Y-14149071D01*
X14295195Y-14130024D01*
X14304719Y-14120500D01*
X14323767Y-14110976D01*
X14628528Y-14310976D02*
X14628528Y-14110976D01*
X14714243Y-14310976D02*
X14714243Y-14206214D01*
X14704719Y-14187167D01*
X14685671Y-14177643D01*
X14657100Y-14177643D01*
X14638052Y-14187167D01*
X14628528Y-14196690D01*
X14838052Y-14310976D02*
X14819005Y-14301452D01*
X14809481Y-14291928D01*
X14799957Y-14272881D01*
X14799957Y-14215738D01*
X14809481Y-14196690D01*
X14819005Y-14187167D01*
X14838052Y-14177643D01*
X14866624Y-14177643D01*
X14885671Y-14187167D01*
X14895195Y-14196690D01*
X14904719Y-14215738D01*
X14904719Y-14272881D01*
X14895195Y-14291928D01*
X14885671Y-14301452D01*
X14866624Y-14310976D01*
X14838052Y-14310976D01*
X15019005Y-14310976D02*
X14999957Y-14301452D01*
X14990433Y-14282405D01*
X14990433Y-14110976D01*
X15171386Y-14301452D02*
X15152338Y-14310976D01*
X15114243Y-14310976D01*
X15095195Y-14301452D01*
X15085671Y-14282405D01*
X15085671Y-14206214D01*
X15095195Y-14187167D01*
X15114243Y-14177643D01*
X15152338Y-14177643D01*
X15171386Y-14187167D01*
X15180909Y-14206214D01*
X15180909Y-14225262D01*
X15085671Y-14244309D01*
X15257100Y-14301452D02*
X15276148Y-14310976D01*
X15314243Y-14310976D01*
X15333290Y-14301452D01*
X15342814Y-14282405D01*
X15342814Y-14272881D01*
X15333290Y-14253833D01*
X15314243Y-14244309D01*
X15285671Y-14244309D01*
X15266624Y-14234786D01*
X15257100Y-14215738D01*
X15257100Y-14206214D01*
X15266624Y-14187167D01*
X15285671Y-14177643D01*
X15314243Y-14177643D01*
X15333290Y-14187167D01*
X15409481Y-14387167D02*
X15419005Y-14377643D01*
X15438052Y-14349071D01*
X15447576Y-14330024D01*
X15457100Y-14301452D01*
X15466624Y-14253833D01*
X15466624Y-14215738D01*
X15457100Y-14168119D01*
X15447576Y-14139548D01*
X15438052Y-14120500D01*
X15419005Y-14091928D01*
X15409481Y-14082405D01*
D17*
X10345500Y-14433700D02*
X10447100Y-14535300D01*
X10447100Y-14433700D02*
X10345500Y-14535300D01*
X10396300Y-14433700D02*
X10396300Y-14535300D01*
X10345500Y-14484500D02*
X10447100Y-14484500D01*
D11*
X10809481Y-14574976D02*
X10695195Y-14574976D01*
X10752338Y-14574976D02*
X10752338Y-14374976D01*
X10733290Y-14403548D01*
X10714243Y-14422595D01*
X10695195Y-14432119D01*
X10895195Y-14555928D02*
X10904719Y-14565452D01*
X10895195Y-14574976D01*
X10885671Y-14565452D01*
X10895195Y-14555928D01*
X10895195Y-14574976D01*
X11028529Y-14374976D02*
X11047576Y-14374976D01*
X11066624Y-14384500D01*
X11076148Y-14394024D01*
X11085671Y-14413071D01*
X11095195Y-14451167D01*
X11095195Y-14498786D01*
X11085671Y-14536881D01*
X11076148Y-14555928D01*
X11066624Y-14565452D01*
X11047576Y-14574976D01*
X11028529Y-14574976D01*
X11009481Y-14565452D01*
X10999957Y-14555928D01*
X10990433Y-14536881D01*
X10980910Y-14498786D01*
X10980910Y-14451167D01*
X10990433Y-14413071D01*
X10999957Y-14394024D01*
X11009481Y-14384500D01*
X11028529Y-14374976D01*
X11285671Y-14574976D02*
X11171386Y-14574976D01*
X11228528Y-14574976D02*
X11228528Y-14374976D01*
X11209481Y-14403548D01*
X11190433Y-14422595D01*
X11171386Y-14432119D01*
X11457100Y-14374976D02*
X11419005Y-14374976D01*
X11399957Y-14384500D01*
X11390433Y-14394024D01*
X11371386Y-14422595D01*
X11361862Y-14460690D01*
X11361862Y-14536881D01*
X11371386Y-14555928D01*
X11380909Y-14565452D01*
X11399957Y-14574976D01*
X11438052Y-14574976D01*
X11457100Y-14565452D01*
X11466624Y-14555928D01*
X11476148Y-14536881D01*
X11476148Y-14489262D01*
X11466624Y-14470214D01*
X11457100Y-14460690D01*
X11438052Y-14451167D01*
X11399957Y-14451167D01*
X11380909Y-14460690D01*
X11371386Y-14470214D01*
X11361862Y-14489262D01*
X11561862Y-14574976D02*
X11561862Y-14441643D01*
X11561862Y-14460690D02*
X11571386Y-14451167D01*
X11590433Y-14441643D01*
X11619005Y-14441643D01*
X11638052Y-14451167D01*
X11647576Y-14470214D01*
X11647576Y-14574976D01*
X11647576Y-14470214D02*
X11657100Y-14451167D01*
X11676148Y-14441643D01*
X11704719Y-14441643D01*
X11723767Y-14451167D01*
X11733290Y-14470214D01*
X11733290Y-14574976D01*
X11828528Y-14574976D02*
X11828528Y-14441643D01*
X11828528Y-14460690D02*
X11838052Y-14451167D01*
X11857100Y-14441643D01*
X11885671Y-14441643D01*
X11904719Y-14451167D01*
X11914243Y-14470214D01*
X11914243Y-14574976D01*
X11914243Y-14470214D02*
X11923767Y-14451167D01*
X11942814Y-14441643D01*
X11971386Y-14441643D01*
X11990433Y-14451167D01*
X11999957Y-14470214D01*
X11999957Y-14574976D01*
X12390433Y-14365452D02*
X12219005Y-14622595D01*
X12647576Y-14374976D02*
X12666624Y-14374976D01*
X12685671Y-14384500D01*
X12695195Y-14394024D01*
X12704719Y-14413071D01*
X12714243Y-14451167D01*
X12714243Y-14498786D01*
X12704719Y-14536881D01*
X12695195Y-14555928D01*
X12685671Y-14565452D01*
X12666624Y-14574976D01*
X12647576Y-14574976D01*
X12628528Y-14565452D01*
X12619005Y-14555928D01*
X12609481Y-14536881D01*
X12599957Y-14498786D01*
X12599957Y-14451167D01*
X12609481Y-14413071D01*
X12619005Y-14394024D01*
X12628528Y-14384500D01*
X12647576Y-14374976D01*
X12799957Y-14555928D02*
X12809481Y-14565452D01*
X12799957Y-14574976D01*
X12790433Y-14565452D01*
X12799957Y-14555928D01*
X12799957Y-14574976D01*
X12933290Y-14374976D02*
X12952338Y-14374976D01*
X12971386Y-14384500D01*
X12980909Y-14394024D01*
X12990433Y-14413071D01*
X12999957Y-14451167D01*
X12999957Y-14498786D01*
X12990433Y-14536881D01*
X12980909Y-14555928D01*
X12971386Y-14565452D01*
X12952338Y-14574976D01*
X12933290Y-14574976D01*
X12914243Y-14565452D01*
X12904719Y-14555928D01*
X12895195Y-14536881D01*
X12885671Y-14498786D01*
X12885671Y-14451167D01*
X12895195Y-14413071D01*
X12904719Y-14394024D01*
X12914243Y-14384500D01*
X12933290Y-14374976D01*
X13171386Y-14441643D02*
X13171386Y-14574976D01*
X13123767Y-14365452D02*
X13076148Y-14508309D01*
X13199957Y-14508309D01*
X13314243Y-14374976D02*
X13333290Y-14374976D01*
X13352338Y-14384500D01*
X13361862Y-14394024D01*
X13371386Y-14413071D01*
X13380909Y-14451167D01*
X13380909Y-14498786D01*
X13371386Y-14536881D01*
X13361862Y-14555928D01*
X13352338Y-14565452D01*
X13333290Y-14574976D01*
X13314243Y-14574976D01*
X13295195Y-14565452D01*
X13285671Y-14555928D01*
X13276148Y-14536881D01*
X13266624Y-14498786D01*
X13266624Y-14451167D01*
X13276148Y-14413071D01*
X13285671Y-14394024D01*
X13295195Y-14384500D01*
X13314243Y-14374976D01*
X13504719Y-14374976D02*
X13523767Y-14374976D01*
X13542814Y-14384500D01*
X13552338Y-14394024D01*
X13561862Y-14413071D01*
X13571386Y-14451167D01*
X13571386Y-14498786D01*
X13561862Y-14536881D01*
X13552338Y-14555928D01*
X13542814Y-14565452D01*
X13523767Y-14574976D01*
X13504719Y-14574976D01*
X13485671Y-14565452D01*
X13476148Y-14555928D01*
X13466624Y-14536881D01*
X13457100Y-14498786D01*
X13457100Y-14451167D01*
X13466624Y-14413071D01*
X13476148Y-14394024D01*
X13485671Y-14384500D01*
X13504719Y-14374976D01*
X13647576Y-14374976D02*
X13647576Y-14413071D01*
X13723767Y-14374976D02*
X13723767Y-14413071D01*
X14019005Y-14651167D02*
X14009481Y-14641643D01*
X13990433Y-14613071D01*
X13980909Y-14594024D01*
X13971386Y-14565452D01*
X13961862Y-14517833D01*
X13961862Y-14479738D01*
X13971386Y-14432119D01*
X13980909Y-14403548D01*
X13990433Y-14384500D01*
X14009481Y-14355928D01*
X14019005Y-14346405D01*
X14180909Y-14441643D02*
X14180909Y-14574976D01*
X14133290Y-14365452D02*
X14085671Y-14508309D01*
X14209481Y-14508309D01*
X14323767Y-14374976D02*
X14342814Y-14374976D01*
X14361862Y-14384500D01*
X14371386Y-14394024D01*
X14380909Y-14413071D01*
X14390433Y-14451167D01*
X14390433Y-14498786D01*
X14380909Y-14536881D01*
X14371386Y-14555928D01*
X14361862Y-14565452D01*
X14342814Y-14574976D01*
X14323767Y-14574976D01*
X14304719Y-14565452D01*
X14295195Y-14555928D01*
X14285671Y-14536881D01*
X14276148Y-14498786D01*
X14276148Y-14451167D01*
X14285671Y-14413071D01*
X14295195Y-14394024D01*
X14304719Y-14384500D01*
X14323767Y-14374976D01*
X14628528Y-14574976D02*
X14628528Y-14374976D01*
X14714243Y-14574976D02*
X14714243Y-14470214D01*
X14704719Y-14451167D01*
X14685671Y-14441643D01*
X14657100Y-14441643D01*
X14638052Y-14451167D01*
X14628528Y-14460690D01*
X14838052Y-14574976D02*
X14819005Y-14565452D01*
X14809481Y-14555928D01*
X14799957Y-14536881D01*
X14799957Y-14479738D01*
X14809481Y-14460690D01*
X14819005Y-14451167D01*
X14838052Y-14441643D01*
X14866624Y-14441643D01*
X14885671Y-14451167D01*
X14895195Y-14460690D01*
X14904719Y-14479738D01*
X14904719Y-14536881D01*
X14895195Y-14555928D01*
X14885671Y-14565452D01*
X14866624Y-14574976D01*
X14838052Y-14574976D01*
X15019005Y-14574976D02*
X14999957Y-14565452D01*
X14990433Y-14546405D01*
X14990433Y-14374976D01*
X15171386Y-14565452D02*
X15152338Y-14574976D01*
X15114243Y-14574976D01*
X15095195Y-14565452D01*
X15085671Y-14546405D01*
X15085671Y-14470214D01*
X15095195Y-14451167D01*
X15114243Y-14441643D01*
X15152338Y-14441643D01*
X15171386Y-14451167D01*
X15180909Y-14470214D01*
X15180909Y-14489262D01*
X15085671Y-14508309D01*
X15257100Y-14565452D02*
X15276148Y-14574976D01*
X15314243Y-14574976D01*
X15333290Y-14565452D01*
X15342814Y-14546405D01*
X15342814Y-14536881D01*
X15333290Y-14517833D01*
X15314243Y-14508309D01*
X15285671Y-14508309D01*
X15266624Y-14498786D01*
X15257100Y-14479738D01*
X15257100Y-14470214D01*
X15266624Y-14451167D01*
X15285671Y-14441643D01*
X15314243Y-14441643D01*
X15333290Y-14451167D01*
X15409481Y-14651167D02*
X15419005Y-14641643D01*
X15438052Y-14613071D01*
X15447576Y-14594024D01*
X15457100Y-14565452D01*
X15466624Y-14517833D01*
X15466624Y-14479738D01*
X15457100Y-14432119D01*
X15447576Y-14403548D01*
X15438052Y-14384500D01*
X15419005Y-14355928D01*
X15409481Y-14346405D01*
D18*
X10338100Y-14694000D02*
X10447100Y-14803000D01*
X10447100Y-14694000D02*
X10338100Y-14803000D01*
X10431138Y-14787038D02*
X10431138Y-14709962D01*
X10354062Y-14709962D01*
X10354062Y-14787038D01*
X10431138Y-14787038D01*
D11*
X10809481Y-14838976D02*
X10695195Y-14838976D01*
X10752338Y-14838976D02*
X10752338Y-14638976D01*
X10733290Y-14667548D01*
X10714243Y-14686595D01*
X10695195Y-14696119D01*
X10895195Y-14819928D02*
X10904719Y-14829452D01*
X10895195Y-14838976D01*
X10885671Y-14829452D01*
X10895195Y-14819928D01*
X10895195Y-14838976D01*
X11028529Y-14638976D02*
X11047576Y-14638976D01*
X11066624Y-14648500D01*
X11076148Y-14658024D01*
X11085671Y-14677071D01*
X11095195Y-14715167D01*
X11095195Y-14762786D01*
X11085671Y-14800881D01*
X11076148Y-14819928D01*
X11066624Y-14829452D01*
X11047576Y-14838976D01*
X11028529Y-14838976D01*
X11009481Y-14829452D01*
X10999957Y-14819928D01*
X10990433Y-14800881D01*
X10980910Y-14762786D01*
X10980910Y-14715167D01*
X10990433Y-14677071D01*
X10999957Y-14658024D01*
X11009481Y-14648500D01*
X11028529Y-14638976D01*
X11190433Y-14838976D02*
X11228528Y-14838976D01*
X11247576Y-14829452D01*
X11257100Y-14819928D01*
X11276148Y-14791357D01*
X11285671Y-14753262D01*
X11285671Y-14677071D01*
X11276148Y-14658024D01*
X11266624Y-14648500D01*
X11247576Y-14638976D01*
X11209481Y-14638976D01*
X11190433Y-14648500D01*
X11180910Y-14658024D01*
X11171386Y-14677071D01*
X11171386Y-14724690D01*
X11180910Y-14743738D01*
X11190433Y-14753262D01*
X11209481Y-14762786D01*
X11247576Y-14762786D01*
X11266624Y-14753262D01*
X11276148Y-14743738D01*
X11285671Y-14724690D01*
X11409481Y-14638976D02*
X11428528Y-14638976D01*
X11447576Y-14648500D01*
X11457100Y-14658024D01*
X11466624Y-14677071D01*
X11476148Y-14715167D01*
X11476148Y-14762786D01*
X11466624Y-14800881D01*
X11457100Y-14819928D01*
X11447576Y-14829452D01*
X11428528Y-14838976D01*
X11409481Y-14838976D01*
X11390433Y-14829452D01*
X11380909Y-14819928D01*
X11371386Y-14800881D01*
X11361862Y-14762786D01*
X11361862Y-14715167D01*
X11371386Y-14677071D01*
X11380909Y-14658024D01*
X11390433Y-14648500D01*
X11409481Y-14638976D01*
X11561862Y-14838976D02*
X11561862Y-14705643D01*
X11561862Y-14724690D02*
X11571386Y-14715167D01*
X11590433Y-14705643D01*
X11619005Y-14705643D01*
X11638052Y-14715167D01*
X11647576Y-14734214D01*
X11647576Y-14838976D01*
X11647576Y-14734214D02*
X11657100Y-14715167D01*
X11676148Y-14705643D01*
X11704719Y-14705643D01*
X11723767Y-14715167D01*
X11733290Y-14734214D01*
X11733290Y-14838976D01*
X11828528Y-14838976D02*
X11828528Y-14705643D01*
X11828528Y-14724690D02*
X11838052Y-14715167D01*
X11857100Y-14705643D01*
X11885671Y-14705643D01*
X11904719Y-14715167D01*
X11914243Y-14734214D01*
X11914243Y-14838976D01*
X11914243Y-14734214D02*
X11923767Y-14715167D01*
X11942814Y-14705643D01*
X11971386Y-14705643D01*
X11990433Y-14715167D01*
X11999957Y-14734214D01*
X11999957Y-14838976D01*
X12390433Y-14629452D02*
X12219005Y-14886595D01*
X12647576Y-14638976D02*
X12666624Y-14638976D01*
X12685671Y-14648500D01*
X12695195Y-14658024D01*
X12704719Y-14677071D01*
X12714243Y-14715167D01*
X12714243Y-14762786D01*
X12704719Y-14800881D01*
X12695195Y-14819928D01*
X12685671Y-14829452D01*
X12666624Y-14838976D01*
X12647576Y-14838976D01*
X12628528Y-14829452D01*
X12619005Y-14819928D01*
X12609481Y-14800881D01*
X12599957Y-14762786D01*
X12599957Y-14715167D01*
X12609481Y-14677071D01*
X12619005Y-14658024D01*
X12628528Y-14648500D01*
X12647576Y-14638976D01*
X12799957Y-14819928D02*
X12809481Y-14829452D01*
X12799957Y-14838976D01*
X12790433Y-14829452D01*
X12799957Y-14819928D01*
X12799957Y-14838976D01*
X12933290Y-14638976D02*
X12952338Y-14638976D01*
X12971386Y-14648500D01*
X12980909Y-14658024D01*
X12990433Y-14677071D01*
X12999957Y-14715167D01*
X12999957Y-14762786D01*
X12990433Y-14800881D01*
X12980909Y-14819928D01*
X12971386Y-14829452D01*
X12952338Y-14838976D01*
X12933290Y-14838976D01*
X12914243Y-14829452D01*
X12904719Y-14819928D01*
X12895195Y-14800881D01*
X12885671Y-14762786D01*
X12885671Y-14715167D01*
X12895195Y-14677071D01*
X12904719Y-14658024D01*
X12914243Y-14648500D01*
X12933290Y-14638976D01*
X13171386Y-14705643D02*
X13171386Y-14838976D01*
X13123767Y-14629452D02*
X13076148Y-14772309D01*
X13199957Y-14772309D01*
X13266624Y-14658024D02*
X13276148Y-14648500D01*
X13295195Y-14638976D01*
X13342814Y-14638976D01*
X13361862Y-14648500D01*
X13371386Y-14658024D01*
X13380909Y-14677071D01*
X13380909Y-14696119D01*
X13371386Y-14724690D01*
X13257100Y-14838976D01*
X13380909Y-14838976D01*
X13476148Y-14838976D02*
X13514243Y-14838976D01*
X13533290Y-14829452D01*
X13542814Y-14819928D01*
X13561862Y-14791357D01*
X13571386Y-14753262D01*
X13571386Y-14677071D01*
X13561862Y-14658024D01*
X13552338Y-14648500D01*
X13533290Y-14638976D01*
X13495195Y-14638976D01*
X13476148Y-14648500D01*
X13466624Y-14658024D01*
X13457100Y-14677071D01*
X13457100Y-14724690D01*
X13466624Y-14743738D01*
X13476148Y-14753262D01*
X13495195Y-14762786D01*
X13533290Y-14762786D01*
X13552338Y-14753262D01*
X13561862Y-14743738D01*
X13571386Y-14724690D01*
X13647576Y-14638976D02*
X13647576Y-14677071D01*
X13723767Y-14638976D02*
X13723767Y-14677071D01*
X14019005Y-14915167D02*
X14009481Y-14905643D01*
X13990433Y-14877071D01*
X13980909Y-14858024D01*
X13971386Y-14829452D01*
X13961862Y-14781833D01*
X13961862Y-14743738D01*
X13971386Y-14696119D01*
X13980909Y-14667548D01*
X13990433Y-14648500D01*
X14009481Y-14619928D01*
X14019005Y-14610405D01*
X14180909Y-14705643D02*
X14180909Y-14838976D01*
X14133290Y-14629452D02*
X14085671Y-14772309D01*
X14209481Y-14772309D01*
X14295195Y-14838976D02*
X14333290Y-14838976D01*
X14352338Y-14829452D01*
X14361862Y-14819928D01*
X14380909Y-14791357D01*
X14390433Y-14753262D01*
X14390433Y-14677071D01*
X14380909Y-14658024D01*
X14371386Y-14648500D01*
X14352338Y-14638976D01*
X14314243Y-14638976D01*
X14295195Y-14648500D01*
X14285671Y-14658024D01*
X14276148Y-14677071D01*
X14276148Y-14724690D01*
X14285671Y-14743738D01*
X14295195Y-14753262D01*
X14314243Y-14762786D01*
X14352338Y-14762786D01*
X14371386Y-14753262D01*
X14380909Y-14743738D01*
X14390433Y-14724690D01*
X14628528Y-14838976D02*
X14628528Y-14638976D01*
X14714243Y-14838976D02*
X14714243Y-14734214D01*
X14704719Y-14715167D01*
X14685671Y-14705643D01*
X14657100Y-14705643D01*
X14638052Y-14715167D01*
X14628528Y-14724690D01*
X14838052Y-14838976D02*
X14819005Y-14829452D01*
X14809481Y-14819928D01*
X14799957Y-14800881D01*
X14799957Y-14743738D01*
X14809481Y-14724690D01*
X14819005Y-14715167D01*
X14838052Y-14705643D01*
X14866624Y-14705643D01*
X14885671Y-14715167D01*
X14895195Y-14724690D01*
X14904719Y-14743738D01*
X14904719Y-14800881D01*
X14895195Y-14819928D01*
X14885671Y-14829452D01*
X14866624Y-14838976D01*
X14838052Y-14838976D01*
X15019005Y-14838976D02*
X14999957Y-14829452D01*
X14990433Y-14810405D01*
X14990433Y-14638976D01*
X15171386Y-14829452D02*
X15152338Y-14838976D01*
X15114243Y-14838976D01*
X15095195Y-14829452D01*
X15085671Y-14810405D01*
X15085671Y-14734214D01*
X15095195Y-14715167D01*
X15114243Y-14705643D01*
X15152338Y-14705643D01*
X15171386Y-14715167D01*
X15180909Y-14734214D01*
X15180909Y-14753262D01*
X15085671Y-14772309D01*
X15257100Y-14829452D02*
X15276148Y-14838976D01*
X15314243Y-14838976D01*
X15333290Y-14829452D01*
X15342814Y-14810405D01*
X15342814Y-14800881D01*
X15333290Y-14781833D01*
X15314243Y-14772309D01*
X15285671Y-14772309D01*
X15266624Y-14762786D01*
X15257100Y-14743738D01*
X15257100Y-14734214D01*
X15266624Y-14715167D01*
X15285671Y-14705643D01*
X15314243Y-14705643D01*
X15333290Y-14715167D01*
X15409481Y-14915167D02*
X15419005Y-14905643D01*
X15438052Y-14877071D01*
X15447576Y-14858024D01*
X15457100Y-14829452D01*
X15466624Y-14781833D01*
X15466624Y-14743738D01*
X15457100Y-14696119D01*
X15447576Y-14667548D01*
X15438052Y-14648500D01*
X15419005Y-14619928D01*
X15409481Y-14610405D01*
D19*
X10337100Y-14957500D02*
X10447100Y-15067500D01*
X10447100Y-14957500D02*
X10337100Y-15067500D01*
X10392100Y-15067500D02*
X10447100Y-15012500D01*
X10392100Y-14957500D01*
X10337100Y-15012500D01*
X10392100Y-15067500D01*
D11*
X10809481Y-15102976D02*
X10695195Y-15102976D01*
X10752338Y-15102976D02*
X10752338Y-14902976D01*
X10733290Y-14931548D01*
X10714243Y-14950595D01*
X10695195Y-14960119D01*
X10895195Y-15083928D02*
X10904719Y-15093452D01*
X10895195Y-15102976D01*
X10885671Y-15093452D01*
X10895195Y-15083928D01*
X10895195Y-15102976D01*
X11095195Y-15102976D02*
X10980910Y-15102976D01*
X11038052Y-15102976D02*
X11038052Y-14902976D01*
X11019005Y-14931548D01*
X10999957Y-14950595D01*
X10980910Y-14960119D01*
X11219005Y-14902976D02*
X11238052Y-14902976D01*
X11257100Y-14912500D01*
X11266624Y-14922024D01*
X11276148Y-14941071D01*
X11285671Y-14979167D01*
X11285671Y-15026786D01*
X11276148Y-15064881D01*
X11266624Y-15083928D01*
X11257100Y-15093452D01*
X11238052Y-15102976D01*
X11219005Y-15102976D01*
X11199957Y-15093452D01*
X11190433Y-15083928D01*
X11180910Y-15064881D01*
X11171386Y-15026786D01*
X11171386Y-14979167D01*
X11180910Y-14941071D01*
X11190433Y-14922024D01*
X11199957Y-14912500D01*
X11219005Y-14902976D01*
X11409481Y-14902976D02*
X11428528Y-14902976D01*
X11447576Y-14912500D01*
X11457100Y-14922024D01*
X11466624Y-14941071D01*
X11476148Y-14979167D01*
X11476148Y-15026786D01*
X11466624Y-15064881D01*
X11457100Y-15083928D01*
X11447576Y-15093452D01*
X11428528Y-15102976D01*
X11409481Y-15102976D01*
X11390433Y-15093452D01*
X11380909Y-15083928D01*
X11371386Y-15064881D01*
X11361862Y-15026786D01*
X11361862Y-14979167D01*
X11371386Y-14941071D01*
X11380909Y-14922024D01*
X11390433Y-14912500D01*
X11409481Y-14902976D01*
X11561862Y-15102976D02*
X11561862Y-14969643D01*
X11561862Y-14988690D02*
X11571386Y-14979167D01*
X11590433Y-14969643D01*
X11619005Y-14969643D01*
X11638052Y-14979167D01*
X11647576Y-14998214D01*
X11647576Y-15102976D01*
X11647576Y-14998214D02*
X11657100Y-14979167D01*
X11676148Y-14969643D01*
X11704719Y-14969643D01*
X11723767Y-14979167D01*
X11733290Y-14998214D01*
X11733290Y-15102976D01*
X11828528Y-15102976D02*
X11828528Y-14969643D01*
X11828528Y-14988690D02*
X11838052Y-14979167D01*
X11857100Y-14969643D01*
X11885671Y-14969643D01*
X11904719Y-14979167D01*
X11914243Y-14998214D01*
X11914243Y-15102976D01*
X11914243Y-14998214D02*
X11923767Y-14979167D01*
X11942814Y-14969643D01*
X11971386Y-14969643D01*
X11990433Y-14979167D01*
X11999957Y-14998214D01*
X11999957Y-15102976D01*
X12390433Y-14893452D02*
X12219005Y-15150595D01*
X12647576Y-14902976D02*
X12666624Y-14902976D01*
X12685671Y-14912500D01*
X12695195Y-14922024D01*
X12704719Y-14941071D01*
X12714243Y-14979167D01*
X12714243Y-15026786D01*
X12704719Y-15064881D01*
X12695195Y-15083928D01*
X12685671Y-15093452D01*
X12666624Y-15102976D01*
X12647576Y-15102976D01*
X12628528Y-15093452D01*
X12619005Y-15083928D01*
X12609481Y-15064881D01*
X12599957Y-15026786D01*
X12599957Y-14979167D01*
X12609481Y-14941071D01*
X12619005Y-14922024D01*
X12628528Y-14912500D01*
X12647576Y-14902976D01*
X12799957Y-15083928D02*
X12809481Y-15093452D01*
X12799957Y-15102976D01*
X12790433Y-15093452D01*
X12799957Y-15083928D01*
X12799957Y-15102976D01*
X12933290Y-14902976D02*
X12952338Y-14902976D01*
X12971386Y-14912500D01*
X12980909Y-14922024D01*
X12990433Y-14941071D01*
X12999957Y-14979167D01*
X12999957Y-15026786D01*
X12990433Y-15064881D01*
X12980909Y-15083928D01*
X12971386Y-15093452D01*
X12952338Y-15102976D01*
X12933290Y-15102976D01*
X12914243Y-15093452D01*
X12904719Y-15083928D01*
X12895195Y-15064881D01*
X12885671Y-15026786D01*
X12885671Y-14979167D01*
X12895195Y-14941071D01*
X12904719Y-14922024D01*
X12914243Y-14912500D01*
X12933290Y-14902976D01*
X13171386Y-14969643D02*
X13171386Y-15102976D01*
X13123767Y-14893452D02*
X13076148Y-15036309D01*
X13199957Y-15036309D01*
X13257100Y-14902976D02*
X13380909Y-14902976D01*
X13314243Y-14979167D01*
X13342814Y-14979167D01*
X13361862Y-14988690D01*
X13371386Y-14998214D01*
X13380909Y-15017262D01*
X13380909Y-15064881D01*
X13371386Y-15083928D01*
X13361862Y-15093452D01*
X13342814Y-15102976D01*
X13285671Y-15102976D01*
X13266624Y-15093452D01*
X13257100Y-15083928D01*
X13447576Y-14902976D02*
X13571386Y-14902976D01*
X13504719Y-14979167D01*
X13533290Y-14979167D01*
X13552338Y-14988690D01*
X13561862Y-14998214D01*
X13571386Y-15017262D01*
X13571386Y-15064881D01*
X13561862Y-15083928D01*
X13552338Y-15093452D01*
X13533290Y-15102976D01*
X13476148Y-15102976D01*
X13457100Y-15093452D01*
X13447576Y-15083928D01*
X13647576Y-14902976D02*
X13647576Y-14941071D01*
X13723767Y-14902976D02*
X13723767Y-14941071D01*
X14019005Y-15179167D02*
X14009481Y-15169643D01*
X13990433Y-15141071D01*
X13980909Y-15122024D01*
X13971386Y-15093452D01*
X13961862Y-15045833D01*
X13961862Y-15007738D01*
X13971386Y-14960119D01*
X13980909Y-14931548D01*
X13990433Y-14912500D01*
X14009481Y-14883928D01*
X14019005Y-14874405D01*
X14085671Y-14922024D02*
X14095195Y-14912500D01*
X14114243Y-14902976D01*
X14161862Y-14902976D01*
X14180909Y-14912500D01*
X14190433Y-14922024D01*
X14199957Y-14941071D01*
X14199957Y-14960119D01*
X14190433Y-14988690D01*
X14076148Y-15102976D01*
X14199957Y-15102976D01*
X14266624Y-14902976D02*
X14390433Y-14902976D01*
X14323767Y-14979167D01*
X14352338Y-14979167D01*
X14371386Y-14988690D01*
X14380909Y-14998214D01*
X14390433Y-15017262D01*
X14390433Y-15064881D01*
X14380909Y-15083928D01*
X14371386Y-15093452D01*
X14352338Y-15102976D01*
X14295195Y-15102976D01*
X14276148Y-15093452D01*
X14266624Y-15083928D01*
X14628528Y-15102976D02*
X14628528Y-14902976D01*
X14714243Y-15102976D02*
X14714243Y-14998214D01*
X14704719Y-14979167D01*
X14685671Y-14969643D01*
X14657100Y-14969643D01*
X14638052Y-14979167D01*
X14628528Y-14988690D01*
X14838052Y-15102976D02*
X14819005Y-15093452D01*
X14809481Y-15083928D01*
X14799957Y-15064881D01*
X14799957Y-15007738D01*
X14809481Y-14988690D01*
X14819005Y-14979167D01*
X14838052Y-14969643D01*
X14866624Y-14969643D01*
X14885671Y-14979167D01*
X14895195Y-14988690D01*
X14904719Y-15007738D01*
X14904719Y-15064881D01*
X14895195Y-15083928D01*
X14885671Y-15093452D01*
X14866624Y-15102976D01*
X14838052Y-15102976D01*
X15019005Y-15102976D02*
X14999957Y-15093452D01*
X14990433Y-15074405D01*
X14990433Y-14902976D01*
X15171386Y-15093452D02*
X15152338Y-15102976D01*
X15114243Y-15102976D01*
X15095195Y-15093452D01*
X15085671Y-15074405D01*
X15085671Y-14998214D01*
X15095195Y-14979167D01*
X15114243Y-14969643D01*
X15152338Y-14969643D01*
X15171386Y-14979167D01*
X15180909Y-14998214D01*
X15180909Y-15017262D01*
X15085671Y-15036309D01*
X15257100Y-15093452D02*
X15276148Y-15102976D01*
X15314243Y-15102976D01*
X15333290Y-15093452D01*
X15342814Y-15074405D01*
X15342814Y-15064881D01*
X15333290Y-15045833D01*
X15314243Y-15036309D01*
X15285671Y-15036309D01*
X15266624Y-15026786D01*
X15257100Y-15007738D01*
X15257100Y-14998214D01*
X15266624Y-14979167D01*
X15285671Y-14969643D01*
X15314243Y-14969643D01*
X15333290Y-14979167D01*
X15409481Y-15179167D02*
X15419005Y-15169643D01*
X15438052Y-15141071D01*
X15447576Y-15122024D01*
X15457100Y-15093452D01*
X15466624Y-15045833D01*
X15466624Y-15007738D01*
X15457100Y-14960119D01*
X15447576Y-14931548D01*
X15438052Y-14912500D01*
X15419005Y-14883928D01*
X15409481Y-14874405D01*
D20*
X10387100Y-15216500D02*
X10387100Y-15336500D01*
X10327100Y-15276500D02*
X10447100Y-15276500D01*
X10447100Y-15276500D02*
G75*
G03*
X10447100Y-15276500I-60000J0D01*
G01*
D11*
X10809481Y-15366976D02*
X10695195Y-15366976D01*
X10752338Y-15366976D02*
X10752338Y-15166976D01*
X10733290Y-15195548D01*
X10714243Y-15214595D01*
X10695195Y-15224119D01*
X10895195Y-15347928D02*
X10904719Y-15357452D01*
X10895195Y-15366976D01*
X10885671Y-15357452D01*
X10895195Y-15347928D01*
X10895195Y-15366976D01*
X10980910Y-15186024D02*
X10990433Y-15176500D01*
X11009481Y-15166976D01*
X11057100Y-15166976D01*
X11076148Y-15176500D01*
X11085671Y-15186024D01*
X11095195Y-15205071D01*
X11095195Y-15224119D01*
X11085671Y-15252690D01*
X10971386Y-15366976D01*
X11095195Y-15366976D01*
X11219005Y-15166976D02*
X11238052Y-15166976D01*
X11257100Y-15176500D01*
X11266624Y-15186024D01*
X11276148Y-15205071D01*
X11285671Y-15243167D01*
X11285671Y-15290786D01*
X11276148Y-15328881D01*
X11266624Y-15347928D01*
X11257100Y-15357452D01*
X11238052Y-15366976D01*
X11219005Y-15366976D01*
X11199957Y-15357452D01*
X11190433Y-15347928D01*
X11180910Y-15328881D01*
X11171386Y-15290786D01*
X11171386Y-15243167D01*
X11180910Y-15205071D01*
X11190433Y-15186024D01*
X11199957Y-15176500D01*
X11219005Y-15166976D01*
X11409481Y-15166976D02*
X11428528Y-15166976D01*
X11447576Y-15176500D01*
X11457100Y-15186024D01*
X11466624Y-15205071D01*
X11476148Y-15243167D01*
X11476148Y-15290786D01*
X11466624Y-15328881D01*
X11457100Y-15347928D01*
X11447576Y-15357452D01*
X11428528Y-15366976D01*
X11409481Y-15366976D01*
X11390433Y-15357452D01*
X11380909Y-15347928D01*
X11371386Y-15328881D01*
X11361862Y-15290786D01*
X11361862Y-15243167D01*
X11371386Y-15205071D01*
X11380909Y-15186024D01*
X11390433Y-15176500D01*
X11409481Y-15166976D01*
X11561862Y-15366976D02*
X11561862Y-15233643D01*
X11561862Y-15252690D02*
X11571386Y-15243167D01*
X11590433Y-15233643D01*
X11619005Y-15233643D01*
X11638052Y-15243167D01*
X11647576Y-15262214D01*
X11647576Y-15366976D01*
X11647576Y-15262214D02*
X11657100Y-15243167D01*
X11676148Y-15233643D01*
X11704719Y-15233643D01*
X11723767Y-15243167D01*
X11733290Y-15262214D01*
X11733290Y-15366976D01*
X11828528Y-15366976D02*
X11828528Y-15233643D01*
X11828528Y-15252690D02*
X11838052Y-15243167D01*
X11857100Y-15233643D01*
X11885671Y-15233643D01*
X11904719Y-15243167D01*
X11914243Y-15262214D01*
X11914243Y-15366976D01*
X11914243Y-15262214D02*
X11923767Y-15243167D01*
X11942814Y-15233643D01*
X11971386Y-15233643D01*
X11990433Y-15243167D01*
X11999957Y-15262214D01*
X11999957Y-15366976D01*
X12390433Y-15157452D02*
X12219005Y-15414595D01*
X12647576Y-15166976D02*
X12666624Y-15166976D01*
X12685671Y-15176500D01*
X12695195Y-15186024D01*
X12704719Y-15205071D01*
X12714243Y-15243167D01*
X12714243Y-15290786D01*
X12704719Y-15328881D01*
X12695195Y-15347928D01*
X12685671Y-15357452D01*
X12666624Y-15366976D01*
X12647576Y-15366976D01*
X12628528Y-15357452D01*
X12619005Y-15347928D01*
X12609481Y-15328881D01*
X12599957Y-15290786D01*
X12599957Y-15243167D01*
X12609481Y-15205071D01*
X12619005Y-15186024D01*
X12628528Y-15176500D01*
X12647576Y-15166976D01*
X12799957Y-15347928D02*
X12809481Y-15357452D01*
X12799957Y-15366976D01*
X12790433Y-15357452D01*
X12799957Y-15347928D01*
X12799957Y-15366976D01*
X12933290Y-15166976D02*
X12952338Y-15166976D01*
X12971386Y-15176500D01*
X12980909Y-15186024D01*
X12990433Y-15205071D01*
X12999957Y-15243167D01*
X12999957Y-15290786D01*
X12990433Y-15328881D01*
X12980909Y-15347928D01*
X12971386Y-15357452D01*
X12952338Y-15366976D01*
X12933290Y-15366976D01*
X12914243Y-15357452D01*
X12904719Y-15347928D01*
X12895195Y-15328881D01*
X12885671Y-15290786D01*
X12885671Y-15243167D01*
X12895195Y-15205071D01*
X12904719Y-15186024D01*
X12914243Y-15176500D01*
X12933290Y-15166976D01*
X13171386Y-15233643D02*
X13171386Y-15366976D01*
X13123767Y-15157452D02*
X13076148Y-15300309D01*
X13199957Y-15300309D01*
X13257100Y-15166976D02*
X13390433Y-15166976D01*
X13304719Y-15366976D01*
X13457100Y-15186024D02*
X13466624Y-15176500D01*
X13485671Y-15166976D01*
X13533290Y-15166976D01*
X13552338Y-15176500D01*
X13561862Y-15186024D01*
X13571386Y-15205071D01*
X13571386Y-15224119D01*
X13561862Y-15252690D01*
X13447576Y-15366976D01*
X13571386Y-15366976D01*
X13647576Y-15166976D02*
X13647576Y-15205071D01*
X13723767Y-15166976D02*
X13723767Y-15205071D01*
X14019005Y-15443167D02*
X14009481Y-15433643D01*
X13990433Y-15405071D01*
X13980909Y-15386024D01*
X13971386Y-15357452D01*
X13961862Y-15309833D01*
X13961862Y-15271738D01*
X13971386Y-15224119D01*
X13980909Y-15195548D01*
X13990433Y-15176500D01*
X14009481Y-15147928D01*
X14019005Y-15138405D01*
X14085671Y-15186024D02*
X14095195Y-15176500D01*
X14114243Y-15166976D01*
X14161862Y-15166976D01*
X14180909Y-15176500D01*
X14190433Y-15186024D01*
X14199957Y-15205071D01*
X14199957Y-15224119D01*
X14190433Y-15252690D01*
X14076148Y-15366976D01*
X14199957Y-15366976D01*
X14438052Y-15366976D02*
X14438052Y-15166976D01*
X14523767Y-15366976D02*
X14523767Y-15262214D01*
X14514243Y-15243167D01*
X14495195Y-15233643D01*
X14466624Y-15233643D01*
X14447576Y-15243167D01*
X14438052Y-15252690D01*
X14647576Y-15366976D02*
X14628528Y-15357452D01*
X14619005Y-15347928D01*
X14609481Y-15328881D01*
X14609481Y-15271738D01*
X14619005Y-15252690D01*
X14628528Y-15243167D01*
X14647576Y-15233643D01*
X14676148Y-15233643D01*
X14695195Y-15243167D01*
X14704719Y-15252690D01*
X14714243Y-15271738D01*
X14714243Y-15328881D01*
X14704719Y-15347928D01*
X14695195Y-15357452D01*
X14676148Y-15366976D01*
X14647576Y-15366976D01*
X14828528Y-15366976D02*
X14809481Y-15357452D01*
X14799957Y-15338405D01*
X14799957Y-15166976D01*
X14980909Y-15357452D02*
X14961862Y-15366976D01*
X14923767Y-15366976D01*
X14904719Y-15357452D01*
X14895195Y-15338405D01*
X14895195Y-15262214D01*
X14904719Y-15243167D01*
X14923767Y-15233643D01*
X14961862Y-15233643D01*
X14980909Y-15243167D01*
X14990433Y-15262214D01*
X14990433Y-15281262D01*
X14895195Y-15300309D01*
X15066624Y-15357452D02*
X15085671Y-15366976D01*
X15123767Y-15366976D01*
X15142814Y-15357452D01*
X15152338Y-15338405D01*
X15152338Y-15328881D01*
X15142814Y-15309833D01*
X15123767Y-15300309D01*
X15095195Y-15300309D01*
X15076148Y-15290786D01*
X15066624Y-15271738D01*
X15066624Y-15262214D01*
X15076148Y-15243167D01*
X15095195Y-15233643D01*
X15123767Y-15233643D01*
X15142814Y-15243167D01*
X15219005Y-15443167D02*
X15228528Y-15433643D01*
X15247576Y-15405071D01*
X15257100Y-15386024D01*
X15266624Y-15357452D01*
X15276148Y-15309833D01*
X15276148Y-15271738D01*
X15266624Y-15224119D01*
X15257100Y-15195548D01*
X15247576Y-15176500D01*
X15228528Y-15147928D01*
X15219005Y-15138405D01*
M02*
